<?xml version="1.0" encoding="UTF-8"?>
<svg width="251px" height="43px" viewBox="0 0 251 43" version="1.1" xmlns="http://www.w3.org/2000/svg" xmlns:xlink="http://www.w3.org/1999/xlink">
    <title>Alauda</title>
    <g id="页面-1" stroke="none" stroke-width="1" fill="none" fill-rule="evenodd">
        <g id="Alauda" fill-rule="nonzero">
            <path d="M43.0001636,21.5588928 L43.0001636,42.980465 L33.5774034,42.980465 L33.5774034,21.4019582 C33.6150896,15.5148998 29.3494519,10.4819564 23.5358567,9.55413159 C17.7222616,8.62630681 12.1019595,12.0814968 10.3053554,17.6878394 L6.75471694,19.4402757 L9.73646852,21.9119956 C10.0568761,27.7970429 12.1362555,37.6446887 29.3532553,43.0000818 L21.4411513,43.0000818 C9.56709569,42.9675353 -0.0323524887,33.3153244 0,21.441246 C0.032681121,9.56716751 9.6848495,-0.0323231947 21.5589053,0 C33.432961,0.0326512295 43.0324574,9.68481415 43.0001636,21.5588928 Z" id="路径" fill="#7C7E81"></path>
            <path d="M19.0001163,21.513309 C18.9927418,22.8939921 17.8675617,24.0073385 16.4868783,24.0001171 C15.106195,23.9927538 13.992838,22.8675842 14.0000468,21.486901 C14.007397,20.1062178 15.1325565,18.9928505 16.51324,19.0000468 C17.176284,19.0036068 17.8107841,19.2703515 18.2771529,19.7416684 C18.7435216,20.2129854 19.0035551,20.8502652 19.0001163,21.513309 Z" id="路径" fill="#7C7E81"></path>
            <polygon id="路径" fill="#96989B" points="78.000082 43.0000818 78.000082 7.0000818 85.000082 7.0000818 85.000082 43.0000818"></polygon>
            <path d="M140.996886,31.5552196 C141.092936,35.6109615 139.018218,39.4010911 135.576288,41.4576572 C132.134359,43.5142233 127.865805,43.5142233 124.423876,41.4576572 C120.981946,39.4010911 118.907228,35.6109615 119.003278,31.5552196 L119.003278,21.0000818 L125.228965,21.0000818 L125.228965,31.4064646 C125.223654,32.8130868 125.685694,34.1803728 126.540306,35.2870299 C127.427,36.285355 128.674199,36.8757622 129.996899,36.923335 C131.307272,36.8852733 132.542207,36.2919303 133.402566,35.2870299 C134.294063,34.1978971 134.776731,32.8229646 134.764833,31.4064646 L134.764833,21.0000818 L140.996886,21.0000818 L140.996886,31.5552196 Z" id="路径" fill="#96989B"></path>
            <path d="M165.187103,39.715311 C160.74231,44.1515167 153.641175,44.0861007 149.274836,39.5687264 C144.908497,35.0513522 144.908497,27.7699996 149.274836,23.2526253 C153.641175,18.735251 160.74231,18.6698351 165.187103,23.1060408 L165.187103,7.0000818 L171.000082,7.0000818 L171.000082,42.2980922 L165.187103,42.2980922 L165.187103,39.715311 Z M154.207033,35.6159736 C155.214141,36.7101275 156.615049,37.3325687 158.082352,37.3378536 C159.573937,37.341114 161.002,36.7190484 162.035177,35.6159736 C163.072457,34.4743559 163.647416,32.9709446 163.643475,31.4106759 C163.634405,29.8576196 163.058317,28.3643671 162.028718,27.2252458 C160.995541,26.1221709 159.567478,25.5001054 158.075893,25.5033657 C156.60859,25.5086506 155.207682,26.1310919 154.200574,27.2252458 C153.163264,28.3657113 152.582253,29.8644981 152.572924,31.4239209 C152.57048,32.9787174 153.142858,34.4766836 154.174738,35.6159736 L154.207033,35.6159736 Z" id="形状" fill="#96989B"></path>
            <path d="M199.000082,31.9999667 C199.000082,25.9162667 193.885467,21.0000818 187.478009,21.0000818 C181.070551,21.0000818 176.000082,25.9162667 176.000082,31.9999667 C176.000082,38.0836666 181.114697,43.0000818 187.478009,43.0000818 C189.744888,43.0098739 191.967619,42.3728074 193.885467,41.163382 L193.885467,42.4255604 L199.000082,42.4255604 L199.000082,31.9999667 L199.000082,31.9999667 Z M191.381766,36.0515594 C190.372953,37.1027288 188.978566,37.6955229 187.522155,37.6925455 C186.086783,37.700302 184.713986,37.1050142 183.738223,36.0515594 C182.663041,34.980865 182.070851,33.5176052 182.098519,31.9999667 C182.069858,30.4969711 182.663272,29.0489599 183.738223,27.9988611 C184.694764,26.9126711 186.07543,26.2955497 187.522155,26.307542 C188.98979,26.2998937 190.392055,26.9143799 191.381766,27.9988611 C192.385085,29.0675885 192.936479,30.4832055 192.920565,31.9494795 C192.939465,33.4614948 192.390283,34.9254862 191.381766,36.0515594 L191.381766,36.0515594 Z" id="形状" fill="#96989B"></path>
            <path d="M114.000082,31.9999466 C114.000082,25.9162577 108.890373,21.0000818 102.474849,21.0000818 C96.059325,21.0000818 91.000082,25.9162577 91.000082,31.9999466 C91.000082,38.0836354 96.1097913,43.0000818 102.474849,43.0000818 C104.744445,43.0106855 106.970042,42.3736005 108.890373,41.1633451 L108.890373,42.4255212 L114.000082,42.4255212 L114.000082,31.9999466 L114.000082,31.9999466 Z M106.385984,36.0515319 C105.376469,37.1020815 103.981976,37.6947569 102.525315,37.6925809 C101.08923,37.7018342 99.7154545,37.1062862 98.7403453,36.0515319 C97.6648687,34.9808395 97.0725163,33.5175823 97.1001917,31.9999466 C97.0715229,30.4969537 97.665099,29.0489452 98.7403453,27.9988483 C99.6961321,26.9112785 101.077843,26.2938603 102.525315,26.3075323 C103.993025,26.3014663 105.395062,26.9156827 106.385984,27.9988483 C107.394177,29.0655946 107.950335,30.48144 107.937822,31.9494595 C107.953271,33.4631605 107.399356,34.9273601 106.385984,36.0515319 L106.385984,36.0515319 Z" id="形状" fill="#96989B"></path>
            <path d="M74.000082,31.9999667 C74.000082,25.9162667 68.8903727,21.0000818 62.4811572,21.0000818 C56.0719416,21.0000818 51.000082,25.9162667 51.000082,31.9999667 C51.000082,38.0836666 56.1160996,43.0000818 62.4811572,43.0000818 C64.7486582,43.0098739 66.9719982,42.3728074 68.8903727,41.163382 L68.8903727,42.4255604 L74.000082,42.4255604 L74.000082,31.9999667 Z M66.3859844,36.0515594 C65.3814453,37.0979845 63.9944796,37.6903658 62.54424,37.6926113 C61.1081553,37.7018647 59.7343794,37.1063156 58.7592702,36.0515594 C57.6837936,34.980865 57.0914412,33.5176052 57.1191166,31.9999667 C57.0904478,30.4969711 57.6840239,29.0489599 58.7592702,27.9988611 C59.715057,26.9112893 61.0967676,26.29387 62.54424,26.307542 C64.0122774,26.2998937 65.4149269,26.9143799 66.4049092,27.9988611 C67.4085036,29.0675885 67.9600495,30.4832055 67.9441303,31.9494795 C67.9578526,33.464029 67.4016455,34.9283374 66.3859844,36.0515594 L66.3859844,36.0515594 Z" id="形状" fill="#96989B"></path>
            <path d="M250.692211,29.7782824 C250.692211,29.7277693 250.692211,29.6772563 250.654485,29.620429 C249.295337,24.5352827 244.705449,21.0000818 239.462356,21.0000818 C234.219262,21.0000818 229.629374,24.5352827 228.270227,29.620429 C228.270227,29.6772563 228.238788,29.7277693 228.2325,29.7782824 C228.226213,29.8287955 228.2325,29.9045651 228.201062,29.9613923 C227.34101,34.3582907 229.291301,38.8290777 233.092902,41.1752967 L233.092902,41.1752967 C233.512176,41.4390171 233.946807,41.6772764 234.394459,41.888794 L234.627104,41.9961343 L235.255876,42.2486997 L235.46337,42.3181552 C235.875455,42.461848 236.295307,42.5820086 236.720913,42.6780609 L236.966134,42.7412023 L237.532028,42.8422284 L238.003606,42.9116839 L238.494048,42.962197 C238.776995,42.962197 239.053654,43.0000818 239.342889,43.0000818 L239.500082,43.0000818 L239.657275,43.0000818 C239.94651,43.0000818 240.223169,43.0000818 240.506116,42.962197 L240.996558,42.9116839 L241.468136,42.8422284 L242.027743,42.7412023 L242.279251,42.6780609 C242.704857,42.5820086 243.124709,42.461848 243.536794,42.3181552 L243.744288,42.2486997 L244.37306,41.9961343 L244.605705,41.888794 C245.053357,41.6772764 245.487988,41.4390171 245.907262,41.1752967 L245.907262,41.1752967 C249.708863,38.8290777 251.659154,34.3582907 250.799102,29.9613923 C250.711074,29.9045651 250.704787,29.854052 250.692211,29.7782824 Z M243.329299,36.0545329 C242.326288,37.1065153 240.937831,37.6998308 239.487507,37.6962409 L239.437205,37.6962409 C237.98688,37.6998308 236.598423,37.1065153 235.595412,36.0545329 C234.585479,34.9301433 234.035326,33.4644189 234.054923,31.950345 C234.036126,30.4815936 234.588826,29.0634535 235.595412,27.9976963 C236.579754,26.9129756 237.975813,26.2980556 239.437205,26.3053752 L239.487507,26.3053752 C240.948898,26.2980556 242.344958,26.9129756 243.329299,27.9976963 C244.335885,29.0634535 244.888585,30.4815936 244.869789,31.950345 C244.889386,33.4644189 244.339232,34.9301433 243.329299,36.0545329 L243.329299,36.0545329 Z" id="形状" fill="#7C7E81"></path>
            <polygon id="路径" fill="#7C7E81" points="217.000082 43.0000818 217.000082 21.0000818 224.000082 21.0000818 224.000082 43.0000818"></polygon>
            <path d="M224.000104,14.5062683 C223.996646,16.4384547 222.428138,18.0023542 220.495953,18.0000763 C218.563768,17.9978045 216.998947,16.430216 217.000081,14.4980269 C217.001219,12.5658378 218.567882,11.0000763 220.500068,11.0000763 C221.429902,10.9984358 222.322037,11.3675039 222.978949,12.0255775 C223.635861,12.6836512 224.003353,13.5764378 224.000104,14.5062683 Z" id="路径" fill="#7C7E81"></path>
            <path d="M212.000104,39.5062683 C211.996646,41.4384547 210.428138,43.0023542 208.495953,43.0000763 C206.563768,42.9978045 204.998947,41.430216 205.000081,39.4980269 C205.001219,37.5658378 206.567882,36.0000763 208.500068,36.0000763 C209.429902,35.9984358 210.322037,36.3675039 210.978949,37.0255775 C211.635861,37.6836512 212.003353,38.5764378 212.000104,39.5062683 Z" id="路径" fill="#7C7E81"></path>
        </g>
    </g>
</svg>