<svg xmlns="http://www.w3.org/2000/svg" width="539" height="355"><g fill="none" fill-rule="evenodd"><path stroke="#191059" stroke-linecap="round" stroke-linejoin="round" stroke-width="1.612" d="M87.791 279s-19.245-36.802 19.406-63.758c5.347-3.729 9.543-7.504 12.803-11.242m-37 52s9.23-7.864 21-12m-21 9s-2.125-4.594-5-8m12.333-13S94.928 212.348 80 198m10 17s-6.195-2.987-11-1.66m25 3.66s7.998 5.045 16 2.05"/><path fill="#1B8059" d="M109.094 231.749c5.015-2.926 10.865-2.096 13.067 1.854s-.079 9.524-5.093 12.45c-5.016 2.925-13.068-1.856-13.068-1.856s.079-9.523 5.094-12.448"/><path stroke="#191059" stroke-linecap="round" stroke-linejoin="round" stroke-width="1.411" d="M109.094 231.749c5.015-2.926 10.865-2.096 13.067 1.854s-.079 9.524-5.093 12.45c-5.016 2.925-13.068-1.856-13.068-1.856s.079-9.523 5.094-12.448z"/><path fill="#1B8059" d="M83.317 232.34c3.32-4.91 9.003-6.77 12.7-4.157 3.694 2.612 4 8.71.681 13.62-3.319 4.909-12.7 4.155-12.7 4.155s-4-8.71-.68-13.619"/><path stroke="#191059" stroke-linecap="round" stroke-linejoin="round" stroke-width="1.411" d="M83.317 232.34c3.32-4.91 9.003-6.77 12.7-4.157 3.694 2.612 4 8.71.681 13.62-3.319 4.909-12.7 4.155-12.7 4.155s-4-8.71-.68-13.619z"/><path fill="#1BE059" d="M124.094 206.749c5.015-2.926 10.864-2.096 13.067 1.854 2.202 3.95-.079 9.524-5.094 12.45-5.015 2.924-13.067-1.855-13.067-1.855s.079-9.524 5.094-12.45"/><path stroke="#191059" stroke-linecap="round" stroke-linejoin="round" stroke-width="1.612" d="M124.094 206.749c5.015-2.926 10.864-2.096 13.067 1.854 2.202 3.95-.079 9.524-5.094 12.45-5.015 2.924-13.067-1.855-13.067-1.855s.079-9.524 5.094-12.45z"/><path fill="#1BE059" d="M80.249 231.628c-2.66-5.33-8.133-7.987-12.226-5.934-4.092 2.054-5.254 8.041-2.595 13.372 2.66 5.33 12.225 5.934 12.225 5.934s5.255-8.04 2.596-13.372"/><path stroke="#191059" stroke-linecap="round" stroke-linejoin="round" stroke-width="1.612" d="M80.249 231.628c-2.66-5.33-8.133-7.987-12.226-5.934-4.092 2.054-5.254 8.041-2.595 13.372 2.66 5.33 12.225 5.934 12.225 5.934s5.255-8.04 2.596-13.372z"/><path fill="#1B8059" d="M65.16 209.521c-5.392 2.27-8.384 7.57-6.683 11.837 1.701 4.267 7.45 5.885 12.84 3.615C76.71 222.703 78 213.136 78 213.136s-7.45-5.885-12.84-3.615"/><path stroke="#191059" stroke-linecap="round" stroke-linejoin="round" stroke-width="1.411" d="M65.16 209.521c-5.392 2.27-8.384 7.57-6.683 11.837 1.701 4.267 7.45 5.885 12.84 3.615C76.71 222.703 78 213.136 78 213.136s-7.45-5.885-12.84-3.615z"/><path fill="#1B8059" d="M70.137 187.686c-.812-5.78 2.068-10.985 6.43-11.622 4.364-.637 8.558 3.533 9.37 9.314.811 5.782-6.43 11.622-6.43 11.622s-8.559-3.533-9.37-9.314"/><path stroke="#191059" stroke-linecap="round" stroke-linejoin="round" stroke-width="1.411" d="M70.137 187.686c-.812-5.78 2.068-10.985 6.43-11.622 4.364-.637 8.558 3.533 9.37 9.314.811 5.782-6.43 11.622-6.43 11.622s-8.559-3.533-9.37-9.314z"/><path fill="#1BE059" d="M121.499 189.733c4.232-4.207 10.284-4.974 13.519-1.71 3.234 3.265 2.425 9.323-1.807 13.532-4.232 4.208-13.52 1.708-13.52 1.708s-2.425-9.322 1.808-13.53"/><path stroke="#191059" stroke-linecap="round" stroke-linejoin="round" stroke-width="1.612" d="M121.499 189.733c4.232-4.207 10.284-4.974 13.519-1.71 3.234 3.265 2.425 9.323-1.807 13.532-4.232 4.208-13.52 1.708-13.52 1.708s-2.425-9.322 1.808-13.53z"/><path fill="#1BE059" d="M94.954 210.921c2.933-5.013 8.51-7.285 12.455-5.076 3.945 2.21 4.766 8.065 1.832 13.078-2.933 5.013-12.455 5.077-12.455 5.077s-4.765-8.065-1.832-13.079"/><path stroke="#191059" stroke-linecap="round" stroke-linejoin="round" stroke-width="1.612" d="M94.954 210.921c2.933-5.013 8.51-7.285 12.455-5.076 3.945 2.21 4.766 8.065 1.832 13.078-2.933 5.013-12.455 5.077-12.455 5.077s-4.765-8.065-1.832-13.079z"/><path fill="#1BE059" d="M85.954 193.921c2.933-5.013 8.51-7.285 12.455-5.076 3.945 2.21 4.766 8.065 1.832 13.078C97.308 206.936 87.786 207 87.786 207s-4.765-8.065-1.832-13.079"/><path stroke="#191059" stroke-linecap="round" stroke-linejoin="round" stroke-width="1.612" d="M85.954 193.921c2.933-5.013 8.51-7.285 12.455-5.076 3.945 2.21 4.766 8.065 1.832 13.078C97.308 206.936 87.786 207 87.786 207s-4.765-8.065-1.832-13.079z"/><path fill="#1B8059" d="M384 260.617c-.056 10.217-9.726 18.447-21.6 18.383-11.874-.066-21.454-8.4-21.4-18.617.056-10.218 9.727-18.448 21.6-18.383 11.874.065 21.455 8.4 21.4 18.617"/><path fill="#1B8059" d="M350.212 248.826a14.356 14.356 0 0 1-1.704-2.44c-2.071-3.732-2.171-7.78.093-8.327 4.02-.969 7.92 3.229 9.897 8.537"/><path stroke="#191059" stroke-linecap="round" stroke-linejoin="round" stroke-width="1.411" d="M350.212 248.826a14.356 14.356 0 0 1-1.704-2.44c-2.071-3.732-2.171-7.78.093-8.327 4.02-.969 7.92 3.229 9.897 8.537"/><path fill="#1B8059" d="M358.348 246.114a15.132 15.132 0 0 1-.556-3.375c-.26-4.947 1.831-9.453 4.63-9.148 4.97.541 6.993 6.735 6.292 13.383"/><path stroke="#191059" stroke-linecap="round" stroke-linejoin="round" stroke-width="1.411" d="M358.348 246.114a15.132 15.132 0 0 1-.556-3.375c-.26-4.947 1.831-9.453 4.63-9.148 4.97.541 6.993 6.735 6.292 13.383"/><path fill="#1B8059" d="M381.37 248.81a19.012 19.012 0 0 0 1.903-3.642c2.164-5.492 1.516-11.152-1.747-11.598-5.796-.794-10.418 5.604-12.144 13.283"/><path stroke="#191059" stroke-linecap="round" stroke-linejoin="round" stroke-width="1.411" d="M381.37 248.81a19.012 19.012 0 0 0 1.903-3.642c2.164-5.492 1.516-11.152-1.747-11.598-5.796-.794-10.418 5.604-12.144 13.283"/><path fill="#1B8059" d="M343.869 253.339c-.465-.247-.929-.52-1.388-.818-3.837-2.498-5.797-5.828-4.378-7.436 1.42-1.61 5.681-.89 9.518 1.609a16.182 16.182 0 0 1 2.438 1.928"/><path stroke="#191059" stroke-linecap="round" stroke-linejoin="round" stroke-width="1.411" d="M343.869 253.339c-.465-.247-.929-.52-1.388-.818-3.837-2.498-5.797-5.828-4.378-7.436 1.42-1.61 5.681-.89 9.518 1.609a16.182 16.182 0 0 1 2.438 1.928"/><path fill="#1B8059" d="M341.8 257.101c-.32-.04-.646-.097-.978-.167-2.77-.59-4.744-2.01-4.41-3.172.333-1.162 2.849-1.626 5.618-1.036.67.143 1.296.334 1.853.56"/><path stroke="#191059" stroke-linecap="round" stroke-linejoin="round" stroke-width="1.411" d="M341.8 257.101c-.32-.04-.646-.097-.978-.167-2.77-.59-4.744-2.01-4.41-3.172.333-1.162 2.849-1.626 5.618-1.036.67.143 1.296.334 1.853.56"/><path fill="#1B8059" d="M109.08 283.438c3.963 11.218 17.66 16.533 30.593 11.873 12.935-4.66 20.209-17.532 16.246-28.749-3.96-11.218-17.658-16.534-30.593-11.873-12.933 4.66-20.208 17.531-16.245 28.75"/><path fill="#1B8059" d="M142.272 257.316a16.66 16.66 0 0 0 .933-3.338c.839-4.9-.612-9.388-3.31-9.115-4.793.482-7.46 6.6-7.588 13.195"/><path stroke="#191059" stroke-linecap="round" stroke-linejoin="round" stroke-width="1.643" d="M142.272 257.316a16.66 16.66 0 0 0 .933-3.338c.839-4.9-.612-9.388-3.31-9.115-4.793.482-7.46 6.6-7.588 13.195"/><path fill="#1B8059" d="M132.285 257.472a17.558 17.558 0 0 0-.69-3.924c-1.62-5.538-5.654-9.684-8.612-8.271-5.253 2.509-5.092 10.097-1.76 17.134"/><path stroke="#191059" stroke-linecap="round" stroke-linejoin="round" stroke-width="1.643" d="M132.285 257.472a17.558 17.558 0 0 0-.69-3.924c-1.62-5.538-5.654-9.684-8.612-8.271-5.253 2.509-5.092 10.097-1.76 17.134"/><path fill="#1B8059" d="M108.12 268.919a22.195 22.195 0 0 1-3.494-3.268c-4.495-5.203-5.964-11.672-2.55-13.42 6.065-3.106 13.61 2.145 18.466 9.918"/><path stroke="#191059" stroke-linecap="round" stroke-linejoin="round" stroke-width="1.643" d="M108.12 268.919a22.195 22.195 0 0 1-3.494-3.268c-4.495-5.203-5.964-11.672-2.55-13.42 6.065-3.106 13.61 2.145 18.466 9.918"/><path fill="#1B8059" d="M150.982 259.832c.416-.45.821-.93 1.21-1.434 3.254-4.223 4.125-8.638 1.946-9.86-2.18-1.221-6.586 1.214-9.84 5.438a18.948 18.948 0 0 0-1.938 3.057"/><path stroke="#191059" stroke-linecap="round" stroke-linejoin="round" stroke-width="1.643" d="M150.982 259.832c.416-.45.821-.93 1.21-1.434 3.254-4.223 4.125-8.638 1.946-9.86-2.18-1.221-6.586 1.214-9.84 5.438a18.948 18.948 0 0 0-1.938 3.057"/><path fill="#1B8059" d="M154.706 263.17a13.97 13.97 0 0 0 1.01-.56c2.817-1.715 4.44-4.037 3.626-5.185-.815-1.15-3.758-.69-6.574 1.025-.683.416-1.296.867-1.821 1.329"/><path stroke="#191059" stroke-linecap="round" stroke-linejoin="round" stroke-width="1.643" d="M154.706 263.17a13.97 13.97 0 0 0 1.01-.56c2.817-1.715 4.44-4.037 3.626-5.185-.815-1.15-3.758-.69-6.574 1.025-.683.416-1.296.867-1.821 1.329"/><path fill="#1BE059" d="M331 323.083c-.037 6.895-47.3 12.225-105.567 11.903-58.266-.322-105.47-6.174-105.433-13.07.037-6.894 47.3-12.224 105.567-11.902 58.266.322 105.47 6.174 105.433 13.069"/><path fill="#1BE059" d="M308 307.083c-.037 6.895-47.3 12.225-105.568 11.903-58.265-.322-105.47-6.174-105.432-13.07.037-6.894 47.3-12.224 105.567-11.902 58.265.322 105.47 6.173 105.433 13.069"/><path fill="#1BE059" d="M223 293.598c-.05 8.83-50.009 15.721-111.588 15.39C49.832 308.659-.049 301.232 0 292.403c.05-8.83 50.009-15.72 111.589-15.39 61.58.33 111.46 7.756 111.411 16.586"/><path fill="#1BE059" d="M445 275.869c-.057 10.482-71.738 18.59-160.104 18.11-88.365-.478-159.953-9.364-159.896-19.847.057-10.483 71.738-18.591 160.104-18.112 88.365.48 159.954 9.366 159.896 19.849"/><path fill="#1BE059" d="M500 290.869c-.058 10.482-71.74 18.59-160.104 18.11-88.365-.478-159.953-9.364-159.896-19.847.057-10.482 71.738-18.591 160.104-18.112 88.364.48 159.953 9.366 159.896 19.849"/><path fill="#1BE059" d="M457 314.675c-.057 10.487-55.844 18.685-124.604 18.313-68.76-.373-124.454-9.176-124.396-19.663.057-10.487 55.844-18.687 124.603-18.313 68.76.373 124.455 9.176 124.397 19.663m-348 8.975c-.017 3.036-13.015 5.431-29.032 5.348-16.016-.083-28.985-2.613-28.968-5.65.016-3.036 13.014-5.43 29.03-5.346 16.017.083 28.987 2.612 28.97 5.649m391-14.547c-.008 1.657-8.298 2.953-18.514 2.894-10.218-.059-18.494-1.448-18.486-3.103.01-1.655 8.298-2.95 18.516-2.893 10.217.058 18.493 1.447 18.484 3.102"/><path fill="#191059" d="M413 284.193c-.021 3.863-16.157 6.91-36.04 6.804-19.882-.107-35.98-3.324-35.96-7.189.021-3.864 16.157-6.91 36.04-6.805 19.882.107 35.981 3.325 35.96 7.19m-280 5.967c-.017 3.312-13.016 5.927-29.032 5.838-16.017-.09-28.986-2.847-28.968-6.16.017-3.312 13.015-5.925 29.032-5.836 16.016.09 28.986 2.846 28.968 6.158m151-26.999c-.018 3.312-13.016 5.926-29.032 5.837-16.017-.088-28.986-2.846-28.968-6.16.017-3.311 13.015-5.924 29.032-5.836 16.016.09 28.986 2.847 28.968 6.16m-62 61.468c-.01 1.93-10.092 3.438-22.517 3.368-12.427-.072-22.492-1.696-22.483-3.627.01-1.932 10.092-3.44 22.519-3.369 12.426.073 22.49 1.696 22.481 3.628"/><path fill="#191059" d="M285 269.568c-.007 1.38-5.385 2.469-12.013 2.431-6.627-.038-11.994-1.187-11.987-2.567.007-1.381 5.386-2.469 12.013-2.431 6.627.039 11.994 1.187 11.987 2.567m145 24.066c-.016 3.037-10.774 5.438-24.03 5.364-13.254-.074-23.987-2.595-23.97-5.633.015-3.036 10.774-5.438 24.03-5.363 13.254.073 23.987 2.594 23.97 5.632m48-1.074c-.004.829-4.708 1.473-10.508 1.439-5.798-.033-10.495-.732-10.492-1.56.004-.827 4.708-1.47 10.508-1.438 5.8.034 10.497.732 10.492 1.559"/><path fill="#707677" d="M400.92 199l27.279 20.41L448 272.215 433.295 290 374 268.383l.194-35.916z"/><path fill="#A9B2B5" d="M433.321 290L448 272.215l-19.767-52.804L401 199l16.244 30.021z"/><path stroke="#191059" stroke-linecap="round" stroke-linejoin="round" stroke-width="2.418" d="M400.92 199l27.279 20.41L448 272.215 433.295 290 374 268.383l.194-35.916z"/><path stroke="#191059" stroke-linecap="round" stroke-linejoin="round" stroke-width="2.418" d="M401 199l16.13 28.326L434 290"/><path fill="#707677" d="M369.176 269l26.594 1.258 3.927 5.164 2.303 6.7L391.385 288l-32.799-2.448L352 274.44z"/><path stroke="#191059" stroke-linecap="round" stroke-linejoin="round" stroke-width="2.418" d="M369.176 269l26.594 1.258 3.927 5.164 2.303 6.7L391.385 288l-32.799-2.448L352 274.44z"/><path stroke="#191059" stroke-linecap="round" stroke-linejoin="round" stroke-width="2.418" d="M381 287l-1.925-8.045L355 277m24 2l20-4"/><path fill="#A9B2B5" d="M465.901 285l12.233.596 1.806 2.446 1.06 3.174-4.883 2.784-15.088-1.16-3.029-5.262z"/><path stroke="#191059" stroke-linecap="round" stroke-linejoin="round" stroke-width="1.612" d="M465.901 285l12.233.596 1.806 2.446 1.06 3.174-4.883 2.784-15.088-1.16-3.029-5.262z"/><path stroke="#191059" stroke-linecap="round" stroke-linejoin="round" stroke-width="1.612" d="M472 293l-.888-4.022L460 288m11 2l9-2"/><path fill="#707677" d="M408.928 261l11.889 8.311L426 282.65l-.486 12.35L388 292.176l7.774-19.916z"/><path fill="#A9B2B5" d="M425.947 295L438 288.275l-6.063-17.78L412 262l9.477 8.026 4.952 12.727z"/><path stroke="#191059" stroke-linecap="round" stroke-linejoin="round" stroke-width="2.43" d="M409.357 261l22.493 9.462 6.15 17.803L425.774 295 388 292.195l7.826-19.775z"/><path stroke="#191059" stroke-linecap="round" stroke-linejoin="round" stroke-width="2.43" d="M425.508 295l.492-12.263-5.248-13.244L409 261"/><path fill="#707677" d="M260.112 216L299 263.808 283.071 266 236 260.6l2.667-20.186z"/><path fill="#A9B2B5" d="M283.046 266l15.864-2.192 4.09-10.243-13.885-8.87-12.459-22.049L260.18 216 258 236.813l25.093 20.678z"/><path stroke="#191059" stroke-linecap="round" stroke-linejoin="round" stroke-width="2.015" d="M260.073 216l16.71 6.84 12.103 21.853L303 253.565l-4.1 10.243L282.996 266 236 260.6l2.662-20.186zm23.406 50l.042-8"/><path stroke="#191059" stroke-linecap="round" stroke-linejoin="round" stroke-width="2.015" d="M303 254.027L283.093 258 258 237.069 260.18 216M241 262l17-25"/><path fill="#707677" d="M272.34 253l19.66 9.752-6.77 8.248-13.774-.077-6.456-9.195z"/><path fill="#A9B2B5" d="M278.567 256L292 262.712 285.247 271 272 270.925l6.426-9.168z"/><path stroke="#191059" stroke-linecap="round" stroke-linejoin="round" stroke-width="1.612" d="M272.34 253l19.66 9.752-6.77 8.248-13.774-.077-6.456-9.195z"/><path stroke="#191059" stroke-linecap="round" stroke-linejoin="round" stroke-width="1.612" d="M271 270.925l7.143-8.925 6.857 2.18-.038 6.82m.038-7l7-1m-13.515-1l.03-6"/><path stroke="#191059" stroke-linecap="round" stroke-linejoin="round" stroke-width="1.524" d="M183 323.796l1.452-5.34 5.863-4.456 24.049 2.872L220 324z"/><path fill="#A9B2B5" d="M183 323.796l1.452-5.34 5.863-4.456 24.049 2.872L220 324z"/><path fill="#707677" d="M183 323.87l1.44-5.38 5.809-4.49 14.816 6.355L206 324z"/><path stroke="#191059" stroke-linecap="round" stroke-linejoin="round" stroke-width="1.612" d="M183 323.796l1.452-5.34 5.863-4.456 24.049 2.872L220 324z"/><path stroke="#191059" stroke-linecap="round" stroke-linejoin="round" stroke-width="1.612" d="M185 318.382L206.841 320l8.159-3m-8.51 7l.02-4"/><path fill="#1BE059" d="M89.498 280.374a11.122 11.122 0 0 1-1.12-1.871c-1.364-2.862-1.427-5.97.065-6.39 4.365-1.23 8.504 8.302 7.127 14.68"/><path stroke="#191059" stroke-linecap="round" stroke-linejoin="round" stroke-width="1.612" d="M89.498 280.374a11.122 11.122 0 0 1-1.12-1.871c-1.364-2.862-1.427-5.97.065-6.39 4.365-1.23 8.504 8.302 7.127 14.68"/><path fill="#1BE059" d="M85.317 283.84a11.623 11.623 0 0 1-.914-.626c-2.527-1.915-3.816-4.468-2.88-5.704.936-1.235 3.743-.685 6.27 1.23.612.464 1.152.966 1.606 1.477"/><path stroke="#191059" stroke-linecap="round" stroke-linejoin="round" stroke-width="1.612" d="M85.317 283.84a11.623 11.623 0 0 1-.914-.626c-2.527-1.915-3.816-4.468-2.88-5.704.936-1.235 3.743-.685 6.27 1.23.612.464 1.152.966 1.606 1.477"/><path fill="#1BE059" d="M83.951 286.73a6.865 6.865 0 0 1-.645-.129c-1.824-.45-3.124-1.539-2.903-2.43.22-.893 1.878-1.25 3.702-.799.442.11.854.255 1.22.427"/><path stroke="#191059" stroke-linecap="round" stroke-linejoin="round" stroke-width="1.612" d="M83.951 286.73a6.865 6.865 0 0 1-.645-.129c-1.824-.45-3.124-1.539-2.903-2.43.22-.893 1.878-1.25 3.702-.799.442.11.854.255 1.22.427"/><path fill="#A9B2B5" d="M117.083 251l-15.558 11.342L90 292l26.94-.395 14.95-1.307.11-20.257z"/><path fill="#707677" d="M117.155 251l-15.6 11.278L90 291.77l8.28 1.23 14.54-1.26 19.18-1.662-10.102-5.182z"/><path stroke="#191059" stroke-linecap="round" stroke-linejoin="round" stroke-width="2.015" d="M117.083 251l-15.558 11.278L90 291.77l8.259 1.23 33.631-2.922.11-20.143z"/><path stroke="#191059" stroke-linecap="round" stroke-linejoin="round" stroke-width="2.015" d="M117.299 251L122 285.679 113 292m19-1l-10-5"/><path fill="#1BE059" d="M287.264 276l10.672-.182.064-12.041s-3.455 1.337-4.077 1.049c-1.79-.83-2.575-4.994-5.752-1.36-4.283 4.895-.907 12.534-.907 12.534m-109 57l10.673-.182.063-12.041s-3.455 1.338-4.077 1.05c-1.79-.831-2.575-4.995-5.752-1.361-4.283 4.895-.907 12.534-.907 12.534"/><path fill="#1BE059" d="M292.199 266.47c.415-.542.804-1.168 1.142-1.858 1.394-2.848 1.49-5.953.004-6.39-4.352-1.278-8.594 8.208-7.287 14.6"/><path stroke="#191059" stroke-linecap="round" stroke-linejoin="round" stroke-width="1.612" d="M292.199 266.47c.415-.542.804-1.168 1.142-1.858 1.394-2.848 1.49-5.953.004-6.39-4.352-1.278-8.594 8.208-7.287 14.6"/><path fill="#1BE059" d="M296.343 269.982c.309-.186.616-.392.92-.617 2.548-1.887 3.865-4.426 2.942-5.672-.922-1.245-3.735-.726-6.282 1.161-.618.458-1.163.953-1.622 1.46"/><path stroke="#191059" stroke-linecap="round" stroke-linejoin="round" stroke-width="1.612" d="M296.343 269.982c.309-.186.616-.392.92-.617 2.548-1.887 3.865-4.426 2.942-5.672-.922-1.245-3.735-.726-6.282 1.161-.618.458-1.163.953-1.622 1.46"/><path fill="#1BE059" d="M297.677 272.886c.21-.03.427-.07.646-.121 1.829-.431 3.14-1.505 2.93-2.4-.211-.893-1.864-1.27-3.693-.838a6.57 6.57 0 0 0-1.225.415"/><path stroke="#191059" stroke-linecap="round" stroke-linejoin="round" stroke-width="1.612" d="M297.677 272.886c.21-.03.427-.07.646-.121 1.829-.431 3.14-1.505 2.93-2.4-.211-.893-1.864-1.27-3.693-.838a6.57 6.57 0 0 0-1.225.415"/><path fill="#1BE059" d="M184.818 322.738a11.202 11.202 0 0 1-1.122-1.872c-1.362-2.862-1.425-5.969.067-6.389 4.365-1.23 8.503 8.301 7.126 14.68"/><path stroke="#191059" stroke-linecap="round" stroke-linejoin="round" stroke-width="1.612" d="M184.818 322.738a11.202 11.202 0 0 1-1.122-1.872c-1.362-2.862-1.425-5.969.067-6.389 4.365-1.23 8.503 8.301 7.126 14.68"/><path fill="#1BE059" d="M180.636 326.205a11.373 11.373 0 0 1-.914-.628c-2.526-1.914-3.816-4.468-2.88-5.703.936-1.235 3.744-.685 6.27 1.229.613.465 1.153.966 1.606 1.478"/><path stroke="#191059" stroke-linecap="round" stroke-linejoin="round" stroke-width="1.612" d="M180.636 326.205a11.373 11.373 0 0 1-.914-.628c-2.526-1.914-3.816-4.468-2.88-5.703.936-1.235 3.744-.685 6.27 1.229.613.465 1.153.966 1.606 1.478"/><path fill="#1BE059" d="M179.27 330.093a6.793 6.793 0 0 1-.644-.127c-1.824-.451-3.124-1.54-2.903-2.432.22-.891 1.878-1.25 3.702-.798.442.109.853.255 1.22.428"/><path stroke="#191059" stroke-linecap="round" stroke-linejoin="round" stroke-width="1.612" d="M179.27 330.093a6.793 6.793 0 0 1-.644-.127c-1.824-.451-3.124-1.54-2.903-2.432.22-.891 1.878-1.25 3.702-.798.442.109.853.255 1.22.428"/><path fill="#1BE059" d="M491.873 301l-.873 7 8-.194-.372-3.761z"/><path fill="#1BE059" d="M494.907 303.611c.279-.374.54-.805.767-1.279.93-1.955.973-4.077-.046-4.365-2.982-.84-5.809 5.671-4.868 10.03"/><path stroke="#191059" stroke-linecap="round" stroke-linejoin="round" stroke-width="1.101" d="M494.907 303.611c.279-.374.54-.805.767-1.279.93-1.955.973-4.077-.046-4.365-2.982-.84-5.809 5.671-4.868 10.03"/><path fill="#1BE059" d="M497.764 305.98c.21-.13.418-.273.624-.43 1.728-1.307 2.608-3.052 1.969-3.896-.64-.844-2.558-.468-4.284.84-.418.317-.787.66-1.097 1.01"/><path stroke="#191059" stroke-linecap="round" stroke-linejoin="round" stroke-width="1.101" d="M497.764 305.98c.21-.13.418-.273.624-.43 1.728-1.307 2.608-3.052 1.969-3.896-.64-.844-2.558-.468-4.284.84-.418.317-.787.66-1.097 1.01"/><path fill="#1BE059" d="M498.697 307.952c.144-.021.291-.05.44-.087 1.247-.308 2.134-1.052 1.984-1.661-.15-.609-1.283-.854-2.529-.545a4.502 4.502 0 0 0-.833.292"/><path stroke="#191059" stroke-linecap="round" stroke-linejoin="round" stroke-width="1.101" d="M498.697 307.952c.144-.021.291-.05.44-.087 1.247-.308 2.134-1.052 1.984-1.661-.15-.609-1.283-.854-2.529-.545a4.502 4.502 0 0 0-.833.292"/><path fill="#D8E9F0" d="M522.31 199l-8.31-2.706L522.692 168l8.308 2.705z"/><path stroke="#1B0C59" stroke-width="2.069" d="M522.31 199l-8.31-2.706L522.692 168l8.308 2.705z"/><path stroke="#1B0C59" stroke-linecap="round" stroke-width="2.069" d="M522 171l6 12m-4-15l7 13m-11-5l7 13m-12 1l4 8m-2-13l7 13"/><path fill="#D8E9F0" d="M470.72 344a50.079 50.079 0 0 1-1.379-34.07l24.337-76.778-.002-.005L503.873 201 526 207.988l-34.58 109.1c-.04.13-.082.257-.129.384a49.847 49.847 0 0 1-5.128 10.916A50.54 50.54 0 0 1 470.72 344"/><path fill="#1B0C59" d="M503.008 200l-.068.234-.496 1.563-9.985 31.708.002.006-10.552 33.523-1.498 4.757-4.437 14.103-7.598 24.138A51.502 51.502 0 0 0 470.258 346a51.17 51.17 0 0 0 16.723-16.616 50.801 50.801 0 0 0 5.192-11.12c.074-.199.134-.4.2-.604l1.302-4.136 10.551-33.529 22.703-72.135.071-.23-23.992-7.63zm1.37 2.645l19.99 6.359-22.141 70.355-10.55 33.53-1.297 4.117-.06.183c-.036.115-.071.23-.113.343l-.014.037-.011.037a48.812 48.812 0 0 1-4.979 10.661 49.338 49.338 0 0 1-13.956 14.583 49.38 49.38 0 0 1-.87-32.183l7.597-24.138 4.437-14.102 1.498-4.757 10.55-33.523.176-.568 9.742-30.934z"/><path fill="#1B0C59" d="M470.307 346l11.734-36.804 4.489-14.082 1.515-4.75 10.672-33.483L515 205.812 502.865 202l-.006.002-10.095 31.66.002.007-10.674 33.476-1.514 4.75-4.49 14.084-7.684 24.103A50.818 50.818 0 0 0 470.307 346"/><path fill="#D8E9F0" d="M531.579 210a3.52 3.52 0 0 1-1.032-.155l-30.157-9.316c-1.798-.556-2.799-2.438-2.23-4.194.452-1.397 1.763-2.335 3.26-2.335.35 0 .698.053 1.034.157l30.156 9.316c1.798.554 2.799 2.436 2.23 4.193-.452 1.396-1.763 2.334-3.261 2.334"/><path fill="#1B0C59" d="M501.472 193c-1.96 0-3.672 1.225-4.263 3.047-.744 2.294.563 4.75 2.915 5.476l30.053 9.274c.438.135.893.203 1.35.203 1.959 0 3.671-1.225 4.262-3.047a4.237 4.237 0 0 0-.295-3.327 4.416 4.416 0 0 0-2.62-2.149l-30.053-9.274a4.569 4.569 0 0 0-1.35-.203m0 2.073c.235 0 .473.035.709.108l30.053 9.274c1.237.38 1.922 1.667 1.531 2.872-.317.977-1.241 1.6-2.238 1.6-.234 0-.472-.035-.709-.107l-30.052-9.274c-1.237-.382-1.922-1.668-1.531-2.873.317-.977 1.241-1.6 2.238-1.6"/><path fill="#D8E9F0" d="M537.579 163.713a8.997 8.997 0 0 1-11.293 5.865c-4.736-1.499-7.363-6.554-5.865-11.29a8.999 8.999 0 0 1 17.158 5.425"/><path stroke="#1B0C59" stroke-width="2.069" d="M537.579 163.713a8.997 8.997 0 0 1-11.293 5.865c-4.736-1.499-7.363-6.554-5.865-11.29a8.999 8.999 0 0 1 17.158 5.425z"/><path fill="#EB586F" d="M532.092 152.181l-5.314 16.8"/><path stroke="#1B0C59" stroke-width="2.069" d="M532.092 152.181l-5.314 16.8"/><path fill="#EB586F" d="M521.034 157.925l16.801 5.313"/><path stroke="#1B0C59" stroke-width="2.069" d="M521.034 157.925l16.801 5.313"/><path fill="#EB586F" d="M529.001 166a5.004 5.004 0 0 1-4.768-6.508A4.98 4.98 0 0 1 529 156a5.005 5.005 0 0 1 4.768 6.507A4.979 4.979 0 0 1 529 166"/><path fill="#1B0C59" d="M529 155a5.998 5.998 0 1 0 5.72 7.81A6 6 0 0 0 529 155m0 2.172c.388 0 .777.061 1.155.18a3.801 3.801 0 0 1 2.24 1.885c.471.906.561 1.942.253 2.917a3.81 3.81 0 0 1-3.646 2.672 3.832 3.832 0 0 1-3.65-4.98 3.812 3.812 0 0 1 3.647-2.674"/><path stroke="#FFF" stroke-linecap="round" stroke-linejoin="round" stroke-width=".893" d="M529 163c-1.508-.411-2.343-1.8-1.866-3.1.126-.345.331-.647.593-.9"/><path fill="#FFF" d="M493.6 313l10.4-33.524L492.402 233 482 266.517zm-6.728 16A51.648 51.648 0 0 0 492 317.801L480.383 271 476 285.202 486.872 329z" opacity=".25"/><path fill="#1BE059" d="M500 309.202c-.008 1.6-8.298 2.852-18.514 2.796-10.218-.056-18.494-1.399-18.486-2.998"/><path fill="#FFF" d="M500 309.203c-.008 1.605-8.238 2.86-18.379 2.803-10.143-.057-18.482-1.403-18.475-3.006 0 0-16.879 38.974 5.306 39 22.185.027 31.548-38.797 31.548-38.797"/><path stroke="#1B0C59" stroke-linecap="round" stroke-linejoin="round" stroke-width="32.687" d="M260 179s-18.335 28.213-38 77m76-67s4.123 16.367 8.21 42.559c1.913 12.254 4.274 29.812 4.79 42.441"/><path fill="#2AC6EA" d="M226.212 290L236 263.601a.719.719 0 0 1-.148-.044l-21.151-7.802-8.458-3.755-1.841 5.038s-3.978 5.98-8.463 5.27c-4.486-.707-14.773-14.915-26.939-3.736 0 0 13.022-1.62 22.659 12.407 9.635 14.028 34.224 18.695 34.553 19.021"/><path stroke="#1B0C59" stroke-linecap="round" stroke-linejoin="round" stroke-width="2.15" d="M226.212 290L236 263.601a.719.719 0 0 1-.148-.044l-21.151-7.802-8.458-3.755-1.841 5.038s-3.978 5.98-8.463 5.27c-4.486-.707-14.773-14.915-26.939-3.736 0 0 13.022-1.62 22.659 12.407 9.635 14.028 34.224 18.695 34.553 19.021z"/><path fill="#2AC6EA" d="M214 256.284l21.324 7.472c.046.017.1.036.15.043 2.145.673 4.479-.393 5.266-2.441a3.839 3.839 0 0 0-.132-3.08 4.129 4.129 0 0 0-2.373-2.088l-13.408-4.696a8.781 8.781 0 0 0-5.03-.233c-2.581.646-4.806 2.447-5.797 5.023"/><path stroke="#1B0C59" stroke-linecap="round" stroke-linejoin="round" stroke-width="2.335" d="M214 256.284l21.324 7.472c.046.017.1.036.15.043 2.145.673 4.479-.393 5.266-2.441a3.839 3.839 0 0 0-.132-3.08 4.129 4.129 0 0 0-2.373-2.088l-13.408-4.696a8.781 8.781 0 0 0-5.03-.233c-2.581.646-4.806 2.447-5.797 5.023z"/><path fill="#474747" d="M165.964 261.902v.002c-6.074 5.52 2.413 17.541 18.902 25.972 7.157 3.66 17.758 8.864 25.337 10.484 7.981 1.706 12.788-.318 13.797-2.333l-22.637-10.138L172.166 261l-6.202.902z"/><path stroke="#1B0C59" stroke-width="2.043" d="M165.964 261.902v.002c-6.074 5.52 2.413 17.541 18.902 25.972 7.157 3.66 17.758 8.864 25.337 10.484 7.981 1.706 12.788-.318 13.797-2.333l-22.637-10.138L172.166 261l-6.202.902z"/><path fill="#1B0C59" d="M225.07 295.692a3.339 3.339 0 0 0 1.87-2.406c.346-1.814-.832-3.567-2.633-3.918-.24-.047-21.173-3.828-30.136-16.005-8.144-11.068-15.583-17.025-25.585-14.957-1.792.37-2.586 3.952-2.586 3.952s8.825-3.654 22.835 14.99c10.651 14.172 33.135 18.383 34.218 18.591.709.138 1.41.036 2.018-.247"/><path stroke="#1B0C59" stroke-linecap="round" stroke-linejoin="round" stroke-width="2.15" d="M195 262.562c5.164 4.683 7.266 3.223 7.266 3.223l9.536-5.569L214 256m-10 1l8 3"/><path fill="#2AC6EA" d="M282.605 173.464c2.97 1.67 6.692 2.56 10.908 1.767a16.242 16.242 0 0 1-10.908-1.767zM285.134 199s-7.648-27.844-9.163-32.3a16.904 16.904 0 0 1-1.69-4.883c-1.665-9.095 4.253-17.84 13.218-19.529 7.474-1.41 14.77 2.44 18.159 9.578.355.751.695 1.578 1.066 2.603.433 1.193.95 2.77 1.582 4.824.953 3.1 2.2 7.383 3.704 12.733 2.523 8.982 4.99 18.194 4.99 18.194L285.134 199z"/><path fill="#2AC6EA" d="M260.942 170.9c4.235 1.087 8.084.458 11.221-.994a16.894 16.894 0 0 1-11.221.995zM236 184.17s3.152-8.991 6.344-17.753c1.9-5.219 3.468-9.394 4.654-12.411.785-1.999 1.422-3.532 1.944-4.69a29.1 29.1 0 0 1 1.266-2.516c4.443-7.734 13.643-10.967 21.977-7.273 6.193 2.746 10.17 9.236 9.79 15.956-.172 3.063-1.11 5.826-2.591 8.156-1.41 3.301-7.395 19.877-10.16 27.569-.785 2.183-3.191 3.316-5.398 2.555L236 184.17z"/><path fill="#DDD9B6" d="M308.133 36.986c-8.471-.296-13.258-5.148-13.79-5.716a4.99 4.99 0 0 1 .204-7.019c1.964-1.865 3.556-4.232 5.43-2.288.193.188 4.848 3.632 9.663 3.552 5.987-.106 12.51-2.69 19.748-10.417 8.61-9.193 16.953-13.18 24.815-11.848 10.383 1.763 15.165 12.23 15.363 12.676 1.115 2.5.007 5.439-2.473 6.562-2.483 1.128-5.4.009-6.518-2.492-.015-.034-2.881-6.119-8.057-6.963-4.342-.703-9.859 2.362-15.96 8.878C327.177 31.924 317.884 37 308.94 37c-.273 0-.542-.005-.808-.014"/><path stroke="#1B0C59" stroke-width="2.579" d="M308.133 36.986c-8.471-.296-13.258-5.148-13.79-5.716a4.99 4.99 0 0 1 .204-7.019c1.964-1.865 3.556-4.232 5.43-2.288.193.188 4.848 3.632 9.663 3.552 5.987-.106 12.51-2.69 19.748-10.417 8.61-9.193 16.953-13.18 24.815-11.848 10.383 1.763 15.165 12.23 15.363 12.676 1.115 2.5.007 5.439-2.473 6.562-2.483 1.128-5.4.009-6.518-2.492-.015-.034-2.881-6.119-8.057-6.963-4.342-.703-9.859 2.362-15.96 8.878C327.177 31.924 317.884 37 308.94 37c-.273 0-.542-.005-.808-.014z"/><path fill="#DDD9B6" d="M331.223 46.99c6.34.215 10.164-3.077 10.59-3.463a3.583 3.583 0 0 0 .209-5.125c-1.37-1.459-2.439-3.265-3.938-1.944-.152.128-3.806 2.4-7.397 2.097-4.464-.383-9.202-2.598-14.208-8.597-5.957-7.136-11.982-10.465-17.92-9.896-7.843.756-11.951 8.14-12.122 8.454-.96 1.766-.285 3.964 1.51 4.909 1.796.948 4.03.28 4.994-1.484.013-.024 2.466-4.313 6.375-4.665 3.276-.29 7.237 2.224 11.459 7.282 6.488 7.775 13.166 11.946 19.844 12.4.203.015.406.025.604.032"/><path stroke="#1B0C59" stroke-width="2.579" d="M331.223 46.99c6.34.215 10.164-3.077 10.59-3.463a3.583 3.583 0 0 0 .209-5.125c-1.37-1.459-2.439-3.265-3.938-1.944-.152.128-3.806 2.4-7.397 2.097-4.464-.383-9.202-2.598-14.208-8.597-5.957-7.136-11.982-10.465-17.92-9.896-7.843.756-11.951 8.14-12.122 8.454-.96 1.766-.285 3.964 1.51 4.909 1.796.948 4.03.28 4.994-1.484.013-.024 2.466-4.313 6.375-4.665 3.276-.29 7.237 2.224 11.459 7.282 6.488 7.775 13.166 11.946 19.844 12.4.203.015.406.025.604.032z"/><path fill="#2AC6EA" d="M260.007 178.247c-.226 6.595 4.886 12.127 11.42 12.356l11.166.39c6.533.229 12.012-4.933 12.239-11.529l.16-4.711c.227-6.595-4.885-12.127-11.418-12.356l-11.167-.39c-6.532-.229-12.012 4.933-12.239 11.528l-.16 4.712z"/><path stroke="#1B0C59" stroke-linecap="round" stroke-linejoin="round" stroke-width="2.679" d="M305.775 143c1.949 1.592 3.587 3.65 4.76 6.093.36.752.703 1.578 1.079 2.602.436 1.193.958 2.769 1.598 4.82.964 3.097 2.224 7.377 3.743 12.722A1772.18 1772.18 0 0 1 322 187.415L283.136 198s-.24-.348-2.136-7.063m-11-2.244c-2.36 6.565-6.028 5.186-6.028 5.186L236 184.162s3.13-9.003 6.303-17.775c1.889-5.225 3.446-9.404 4.624-12.426.781-2.001 1.413-3.537 1.932-4.695.447-.994.847-1.795 1.26-2.52 1.342-2.354 3.121-4.292 5.182-5.746"/><path stroke="#1B0C59" stroke-linecap="round" stroke-linejoin="round" stroke-width="2.679" d="M267 187c3.978 3.243 8.238 3.767 10.97 3.849L283 191m-7.442-18s-3.131 17.715 5.442 18"/><path stroke="#1B0C59" stroke-linecap="round" stroke-linejoin="round" stroke-width="32.687" d="M244 83l-83 4"/><path stroke="#2AC6EA" stroke-linecap="round" stroke-linejoin="round" stroke-width="28.017" d="M188 86l-27 1"/><path fill="#2AC6EA" d="M238.615 69.66c5.613-9.25 18.226-12.59 27.76-6.778 9.533 5.81 12.375 18.57 6.763 27.82-5.613 9.249-40.136-11.794-34.523-21.043"/><path stroke="#191059" stroke-linecap="round" stroke-linejoin="round" stroke-width="2.17" d="M238.615 69.66c5.613-9.25 18.226-12.59 27.76-6.778 9.533 5.81 12.375 18.57 6.763 27.82-5.613 9.249-40.136-11.794-34.523-21.043z"/><path fill="#1B0C59" d="M309.975 190l6.025-1.805-1.428-5.195-4.182 1.252c-1.018.305-1.607 1.414-1.315 2.477l.9 3.271zm-12.001 3l6.026-1.66-.9-3.006c-.292-.978-1.354-1.542-2.373-1.262l-2.338.644c-1.018.281-1.607 1.3-1.314 2.276l.9 3.008zm-11.631 4l5.657-1.66-.845-3.006c-.274-.978-1.272-1.542-2.23-1.262l-3.925 1.15 1.343 4.778zm-45.552-12L235 182.86l1.74-4.86 4.019 1.484c.978.362 1.483 1.461 1.127 2.456L240.79 185zm10.999 4l-5.79-1.986 1.096-2.842c.355-.924 1.438-1.4 2.416-1.065l2.246.771c.979.336 1.484 1.357 1.128 2.28L251.79 189zm11.362 4L257 191.014l1.164-2.842c.378-.924 1.527-1.4 2.567-1.065l4.269 1.38-1.848 4.513z"/><path fill="#2AC6EA" d="M337.38 200.122l.612-17.173c.178-5.035-2.583-11.028-7.585-16.452l-17.052-18.495c-5.428-5.888-14.284-6.801-14.96-1.543l-2.314 17.997c-.59 4.59 2.063 10.347 7.077 15.355l19.666 19.644c5.746 5.739 14.361 6.134 14.556.667"/><path stroke="#1B0C59" stroke-linecap="round" stroke-linejoin="round" stroke-width="2.679" d="M337.38 200.122l.612-17.173c.178-5.035-2.583-11.028-7.585-16.452l-17.052-18.495c-5.428-5.888-14.284-6.801-14.96-1.543l-2.314 17.997c-.59 4.59 2.063 10.347 7.077 15.355l19.666 19.644c5.746 5.739 14.361 6.134 14.556.667z"/><path fill="#2AC6EA" d="M218.03 194.454l1.858-16.712c.546-4.901 4.044-10.305 9.604-14.833l18.962-15.443c6.037-4.916 14.646-4.521 14.545.667l-.345 17.758c-.089 4.528-3.45 9.717-8.964 13.842l-21.627 16.178c-6.319 4.725-14.625 3.864-14.033-1.457"/><path stroke="#1B0C59" stroke-linecap="round" stroke-linejoin="round" stroke-width="2.679" d="M218.03 194.454l1.858-16.712c.546-4.901 4.044-10.305 9.604-14.833l18.962-15.443c6.037-4.916 14.646-4.521 14.545.667l-.345 17.758c-.089 4.528-3.45 9.717-8.964 13.842l-21.627 16.178c-6.319 4.725-14.625 3.864-14.033-1.457z"/><path fill="#2AC6EA" d="M277.932 172.975c2.837.099 5.83-.093 8.974-.625 22.268-3.772 27.731-25.938 27.952-26.88a5.26 5.26 0 0 0-10.236-2.434c-.17.692-4.185 16.346-19.473 18.936-18.48 3.133-27.13-9-29.343-12.792a5.26 5.26 0 0 0-7.196-1.892 5.264 5.264 0 0 0-1.892 7.2c5.335 9.143 16.032 17.962 31.214 18.487"/><path stroke="#1B0C59" stroke-linecap="round" stroke-linejoin="round" stroke-width="2.679" d="M277.932 172.975c2.837.099 5.83-.093 8.974-.625 22.268-3.772 27.731-25.938 27.952-26.88a5.26 5.26 0 0 0-10.236-2.434c-.17.692-4.185 16.346-19.473 18.936-18.48 3.133-27.13-9-29.343-12.792a5.26 5.26 0 0 0-7.196-1.892 5.264 5.264 0 0 0-1.892 7.2c5.335 9.143 16.032 17.962 31.214 18.487z"/><path fill="#2AC6EA" d="M234.685 97.386c.425-12.192 9.855-21.76 21.067-21.375l39.702 1.37c11.21.386 19.955 10.582 19.531 22.773l-.767 22.075c-.315 9.04-3.106 17.363-7.635 24.208a43.486 43.486 0 0 1-6.324 7.56c-7.514 7.155-17.439 11.35-28.173 10.98-10.729-.37-20.339-5.239-27.338-12.893a43.39 43.39 0 0 1-5.782-7.978c-4.043-7.142-6.25-15.638-5.936-24.678.175-5.006 1.56-19.307 1.655-22.042"/><path stroke="#1B0C59" stroke-linecap="round" stroke-linejoin="round" stroke-width="2.679" d="M234.685 97.386c.425-12.192 9.856-21.76 21.067-21.375l39.703 1.37c11.21.386 19.955 10.582 19.53 22.773-.111 3.235-.61 17.55-.767 22.075-.313 9.04-3.106 17.363-7.635 24.208a43.48 43.48 0 0 1-6.323 7.56c-7.514 7.155-17.439 11.35-28.174 10.98-10.729-.37-20.338-5.239-27.338-12.893a43.443 43.443 0 0 1-5.783-7.978c-4.042-7.142-6.25-15.638-5.935-24.677.175-5.007 1.56-19.308 1.655-22.043z"/><path fill="#2AC6EA" d="M252.546 57.681l37.734 1.314c4.316.15 7.933-3.245 8.084-7.584L300 3.857 246.642 2l-1.637 47.553c-.15 4.338 3.227 7.978 7.54 8.128"/><path stroke="#1B0C59" stroke-linecap="round" stroke-linejoin="round" stroke-width="2.679" d="M266.682 84s-7.483 6.259-10.614 15.042C242.567 136.909 267 163 267 163"/><path stroke="#1B0C59" stroke-linecap="round" stroke-linejoin="round" stroke-width="32.687" d="M299 92l-74 37"/><path stroke="#2AC6EA" stroke-linecap="round" stroke-linejoin="round" stroke-width="28.017" d="M251 116l-26 13"/><path fill="#EB586F" d="M246 21.2l26.823-1.844L299.702 23l.298-8.355L273.122 11 246.3 12.845z"/><path stroke="#1B0C59" stroke-linecap="round" stroke-linejoin="round" stroke-width="2.679" d="M252.546 57.681l37.734 1.314c4.316.15 7.933-3.245 8.084-7.584L300 3.857 246.642 2l-1.637 47.553c-.15 4.338 3.227 7.978 7.54 8.128z"/><path fill="#1B0C59" d="M260 57.615l11.084.385.916-26.614L260.917 31z"/><path stroke="#1B0C59" stroke-linecap="round" stroke-linejoin="round" stroke-width="2.15" d="M301 23s-24.15-3.574-35.482-3.958C254.186 18.656 244 21.064 244 21.064M301 14s-22.124-3.546-33.986-3.954C255.15 9.64 244 12.042 244 12.042"/><path stroke="#1B0C59" stroke-linecap="round" stroke-linejoin="round" stroke-width="7.963" d="M283 32s-8.769-3.738-15.82-3.986c-7.049-.249-13.18 2.963-13.18 2.963"/><path fill="#2AC6EA" d="M249 70.77c9.186 16.954 33.496 17.785 43.849 1.5l.148-4.24c.09-2.59-1.962-4.763-4.586-4.852l-34.347-1.175c-2.624-.09-4.825 1.937-4.915 4.528L249 70.77z"/><path stroke="#1B0C59" stroke-linecap="round" stroke-linejoin="round" stroke-width="2.335" d="M249 70.77c9.186 16.954 33.496 17.785 43.849 1.5l.148-4.24c.09-2.59-1.962-4.763-4.586-4.852l-34.347-1.175c-2.624-.09-4.825 1.937-4.915 4.528L249 70.77z"/><path fill="#1B0C59" d="M256 67.31l.217.142c8.811 5.744 20.294 6.072 29.447.843l.336-9.31L256.336 58 256 67.31z"/><path stroke="#1B0C59" stroke-linecap="round" stroke-linejoin="round" stroke-width="2.335" d="M257 67.082c8.628 6.306 23.905 7.169 31-1.082"/><path fill="#2AC6EA" d="M316.094 101.093c4.663-9.842.51-22.33-9.62-27.166-10.13-4.835-22.402-.188-27.065 9.655-4.664 9.844 32.022 27.354 36.685 17.51"/><path stroke="#191059" stroke-linecap="round" stroke-linejoin="round" stroke-width="2.17" d="M316.094 101.093c4.663-9.842.51-22.33-9.62-27.166-10.13-4.835-22.402-.188-27.065 9.655-4.664 9.844 32.022 27.354 36.685 17.51z"/><path fill="#2AC6EA" d="M232.624 124.425c3.078 5.867.819 13.12-5.05 16.198-5.866 3.08-13.119.82-16.197-5.049-3.08-5.867-.818-13.12 5.049-16.198 5.867-3.079 13.119-.818 16.198 5.05"/><path fill="#2AC6EA" d="M217.052 130.458L212.183 133l-8.805-16.698a3.267 3.267 0 0 1 1.385-4.422c3.771-1.969 8.433-.523 10.41 3.229l4.195 7.955c1.413 2.677.376 5.988-2.316 7.394"/><path stroke="#191059" stroke-linecap="round" stroke-linejoin="round" stroke-width="2.335" d="M216 117.924l-1.043-1.972c-1.91-3.609-6.409-5-10.048-3.106-.778.405-1.315 1.083-1.631 1.892-.492 1.254-.3 2.674.331 3.867L209.243 129"/><path fill="#24C7EA" d="M223.883 123.345a4.766 4.766 0 0 1-3.238 1.639c-2.613.213-4.908-1.69-5.126-4.25l-1.502-17.695c-.218-2.56 1.724-4.81 4.338-5.023 2.613-.212 4.908 1.69 5.126 4.25l1.502 17.695a4.575 4.575 0 0 1-1.1 3.384"/><path stroke="#191059" stroke-linecap="round" stroke-linejoin="round" stroke-width="2.335" d="M215.207 118l-1.191-14.933c-.206-2.576 1.627-4.837 4.094-5.05 2.466-.215 4.633 1.698 4.838 4.273L224 115.48"/><path fill="#24C7EA" d="M230.09 132.97a4.602 4.602 0 0 1-3.092-1.703 4.553 4.553 0 0 1 .748-6.429l13.782-10.848a4.63 4.63 0 0 1 6.475.743 4.553 4.553 0 0 1-.749 6.428l-13.783 10.849a4.61 4.61 0 0 1-3.38.96"/><path fill="#24C7EA" d="M230.435 122.632a4.565 4.565 0 0 1-3.56.014c-2.368-.986-3.5-3.733-2.526-6.135l6.724-16.596c.973-2.4 3.682-3.548 6.051-2.56 2.368.985 3.5 3.732 2.527 6.133l-6.725 16.597a4.658 4.658 0 0 1-2.491 2.547"/><path stroke="#191059" stroke-linecap="round" stroke-linejoin="round" stroke-width="2.335" d="M236.308 130l11.89-9.148c2.058-1.583 2.404-4.486.773-6.483-1.631-1.997-4.623-2.332-6.68-.75l-8.686 6.358 6.883-16.608c1-2.357-.162-5.053-2.59-6.021-2.43-.97-5.207.157-6.206 2.514L225 115.67"/><path stroke="#191059" stroke-linecap="round" stroke-linejoin="round" stroke-width="1.856" d="M220 125c2.297 1.964 2.67 5.544.834 8"/><path fill="#2AC6EA" d="M147.517 84.526c-1.919 6.342 1.667 13.039 8.009 14.957 6.341 1.919 13.038-1.666 14.957-8.009 1.919-6.341-1.667-13.038-8.009-14.957-6.341-1.919-13.038 1.667-14.957 8.009"/><path fill="#2AC6EA" d="M164.699 87.448L169.676 89l5.19-17.676c.498-1.696-.433-3.487-2.078-4-3.855-1.202-7.924 1.045-9.09 5.016l-2.474 8.42c-.832 2.836.723 5.83 3.475 6.688"/><path stroke="#191059" stroke-linecap="round" stroke-linejoin="round" stroke-width="2.335" d="M163 74.38l.674-2.133c1.235-3.903 5.544-6.11 9.626-4.929.87.253 1.553.818 2.034 1.554.747 1.141.831 2.571.423 3.861L172.066 84"/><path fill="#24C7EA" d="M156.546 81.96a4.504 4.504 0 0 0 3.366 1.013c2.51-.272 4.33-2.568 4.062-5.127l-1.854-17.681c-.268-2.558-2.52-4.412-5.032-4.138-2.512.273-4.33 2.569-4.062 5.127l1.854 17.682a4.664 4.664 0 0 0 1.666 3.123"/><path stroke="#191059" stroke-linecap="round" stroke-linejoin="round" stroke-width="2.335" d="M164 75l-1.603-14.836c-.276-2.558-2.597-4.41-5.184-4.137-2.588.273-4.462 2.568-4.186 5.126l1.416 13.104"/><path fill="#24C7EA" d="M151.738 92.783a4.662 4.662 0 0 0 2.734-2.353c1.187-2.34.306-5.227-1.968-6.448l-15.712-8.439c-2.273-1.221-5.078-.313-6.264 2.027-1.187 2.34-.306 5.227 1.968 6.448l15.711 8.439a4.512 4.512 0 0 0 3.53.326m-2.346-10.884a4.648 4.648 0 0 0 3.505-.653 4.604 4.604 0 0 0 1.345-6.396l-9.706-14.758a4.66 4.66 0 0 0-6.432-1.338 4.606 4.606 0 0 0-1.345 6.397l9.707 14.757a4.63 4.63 0 0 0 2.926 1.99"/><path stroke="#191059" stroke-linecap="round" stroke-linejoin="round" stroke-width="2.335" d="M154 74.748l-9.507-14.614a4.674 4.674 0 0 0-6.49-1.364 4.73 4.73 0 0 0-1.36 6.526l9.846 15.38-9.63-4.757a4.677 4.677 0 0 0-6.326 2c-1.198 2.308-.309 5.156 1.988 6.36L146.487 93"/><path stroke="#191059" stroke-linecap="round" stroke-linejoin="round" stroke-width="1.856" d="M160.367 82c-2.046 2.68-1.763 6.71.633 9"/><path fill="#DDD9B6" d="M297.489 35.978s-14.933 4.393-26.414 3.997C259.593 39.579 245 34.167 245 34.167l.512-14.71s13.236-2.815 24.718-2.419c11.48.397 27.77 4.23 27.77 4.23l-.511 14.71z"/><path stroke="#1B0C59" stroke-linecap="round" stroke-linejoin="round" stroke-width="2.679" d="M297.489 35.978s-14.933 4.393-26.414 3.997C259.593 39.579 245 34.167 245 34.167l.512-14.71s13.236-2.815 24.718-2.419c11.48.397 27.77 4.23 27.77 4.23l-.511 14.71z"/><path stroke="#1B0C59" stroke-linecap="round" stroke-linejoin="round" stroke-width="2.679" d="M247.396 22L298 27.6 247 34m37-16l-25 6m10 8l20 6"/><path fill="#2AC6EA" d="M329 304.046l-2.645-30.99-18.414 1.561-.308-3.617-13.178.658.754 8.815a24.851 24.851 0 0 1-14.242 12.62l-8.276 2.86c-1.845 1.268-2.88 3.682-2.662 6.215l.582 6.832L329 304.046z"/><path stroke="#1B0C59" stroke-linecap="round" stroke-linejoin="round" stroke-width="2.156" d="M329 304.046l-2.645-30.99-18.414 1.561-.308-3.617-13.178.658.754 8.815a24.851 24.851 0 0 1-14.242 12.62l-8.276 2.86c-1.845 1.268-2.88 3.682-2.662 6.215l.582 6.832L329 304.046z"/><path fill="#2AC6EA" d="M325.513 265.015l-13.942 1.17c-4.551.382-7.927 4.328-7.541 8.815l22.184-1.86c2.276-.19 3.964-2.165 3.771-4.409-.195-2.243-2.196-3.906-4.472-3.716"/><path stroke="#1B0C59" stroke-linecap="round" stroke-linejoin="round" stroke-width="2.342" d="M325.513 265.015l-13.942 1.17c-4.551.382-7.927 4.328-7.541 8.815l22.184-1.86c2.276-.19 3.964-2.165 3.771-4.409-.195-2.243-2.196-3.906-4.472-3.716z"/><path fill="#1B0C59" d="M272.273 314.988l56.23-4.81c2.136-.184 3.692-2.382 3.477-4.914-.214-2.53-2.117-4.434-4.253-4.252l-56.23 4.812c-2.135.183-3.691 2.381-3.477 4.912.215 2.532 2.118 4.435 4.253 4.252"/><path stroke="#1B0C59" stroke-linecap="round" stroke-linejoin="round" stroke-width="2.342" d="M285 291l12.16-1.018 6.84-9.677-.46-5.305m.46 5.13l-9 .74"/><path fill="#1B0C59" d="M295.404 269l9.596.332-.395 11.455-7.058 10.145L285 292s10.453-8.066 10.19-11.158c-.264-3.094.214-11.842.214-11.842m-89.281-16.979s-3.787 10.026-10.232 10.195c-6.446.169-14.44-14.614-23.891-3.717l17.855 16.813 23.62 10.637s9.14 1.573 9.498-12.702C223.33 258.97 235 255.64 235 255.64s-23.952-14.439-28.877-3.62M237 139.877L310 104s-39.91 20.47-21.205 36.604c5.076 4.377 17.583.938 12.465 10.924-12.038 23.49-53.746 14.128-64.26-11.65" opacity=".25"/><path fill="#1B0C59" d="M301.58 151.241s8.256 7.964 1.996 12.512c-6.262 4.548 8.424 26.058 8.424 26.058L293.97 201l-9.445-2.935-7.055-8.792-7.827.266-5.015 6.563-19.861-4.663-21.337 6.269s-3.144 2.419-4.881-.412c-1.989-3.235-2.748-12.494 1.991-22.189C228.447 158.931 244.445 151 244.445 151s12.992 15.285 30.986 13.382c17.993-1.903 26.15-13.14 26.15-13.14m-90.835-22.875s1.242 11.786 11.662 12.144c10.42.358 42.655-18.511 42.655-18.511l1.937 3.886s-37.76 18.515-39.848 19.017c-2.089.502-21.114-.385-16.406-16.536" opacity=".25"/><path fill="#1B0C59" d="M283.31 81s-2.356 9.816 9.494 13.752c13.036 4.33 22.66 3.338 23.885-.285 1.224-3.622-1.442 7.792-3.209 10.14-1.768 2.348-48.662-5.863-30.17-23.607"/><path fill="#1B0C59" d="M142 89s11.3 8.735 18.011 9.149c6.71.415 43.249-.297 43.249-.297l2.74 3.56s-49.011.553-48.41.575c3.54.13-6.423-.665-8.91-4.095-2.49-3.432-6.083-6.762-6.68-8.892" opacity=".25"/><path fill="#191059" d="M299.273 27.04L298 35.594l11.44.407 1.56-1.168s-6.768-8.49-11.727-7.791" opacity=".25"/><path fill="#191059" d="M300.011 24s7.483 2.096 11.142 6.514c3.66 4.419 11.929 14.294 17.81 15.494 5.881 1.2-2.84.975-2.84.975l-13.09-8.48s-6.57-9.056-9.363-10.036c-2.794-.978-4.67-1.102-4.67-1.102L300.011 24zm-45.274 12.04S269.007 33.03 283 38l-7.238-4.7s-7.687-1.031-7.988-1.27c-.3-.24-11.177 1.07-11.498 1.108-.32.038-6.276 1.28-6.276 1.28l4.737 1.623z"/><path fill="#191059" d="M274 31.928l3.635 1.15 19.162.922.203-6zm-23.447-12.829s4.443 2.39 12.907 2.735c7.09.29-2.914 2.166-2.914 2.166l-14.266-1.517-.28-2.58s.954-1.258 4.553-.804" opacity=".25"/><path fill="#1B0C59" d="M261.344 57L262 38.673 244.597 34 244 50.679l3.91 5.87zM247.616 2l-.325 9.494L247 20s2.549-3.094 6.99-2.823c4.441.27-1.28-14.999 10.24-14.594L247.616 2" opacity=".25"/><path stroke="#191059" stroke-linecap="round" stroke-linejoin="round" stroke-width="1.612" d="M302 350s.01-25.789 16.985-42.867c4.208-4.234 9.075-7.545 14.015-10.133"/><path fill="#1BE059" d="M313.859 326.599c-4.138.75-7.653.418-7.85-.742-.198-1.16 2.995-2.707 7.132-3.456 4.138-.75 7.652-.418 7.85.742.198 1.16-2.996 2.707-7.132 3.456"/><path stroke="#191059" stroke-linecap="round" stroke-linejoin="round" stroke-width="1.612" d="M313.859 326.599c-4.138.75-7.653.418-7.85-.742-.198-1.16 2.995-2.707 7.132-3.456 4.138-.75 7.652-.418 7.85.742.198 1.16-2.996 2.707-7.132 3.456z"/><path fill="#1BE059" d="M305.111 318.62c.314 3.59 1.188 6.445 1.954 6.379.768-.068 1.136-3.03.824-6.62-.313-3.589-1.187-6.444-1.954-6.378-.768.068-1.136 3.03-.824 6.62"/><path stroke="#191059" stroke-linecap="round" stroke-linejoin="round" stroke-width="1.612" d="M305.111 318.62c.314 3.59 1.188 6.445 1.954 6.379.768-.068 1.136-3.03.824-6.62-.313-3.589-1.187-6.444-1.954-6.378-.768.068-1.136 3.03-.824 6.62z"/><path fill="#EB586F" d="M342.495 290.705a4 4 0 1 1 3.01-7.41 4 4 0 0 1-3.01 7.41"/><path stroke="#191059" stroke-linecap="round" stroke-linejoin="round" stroke-width="1.612" d="M342.495 290.705a4 4 0 1 1 3.01-7.41 4 4 0 0 1-3.01 7.41z"/><path fill="#EB586F" d="M336.12 292.632a5 5 0 1 1 3.763-9.264 5 5 0 0 1-3.764 9.264"/><path stroke="#191059" stroke-linecap="round" stroke-linejoin="round" stroke-width="1.612" d="M336.12 292.632a5 5 0 1 1 3.763-9.264 5 5 0 0 1-3.764 9.264z"/><path fill="#EB586F" d="M341.12 308.632a5 5 0 1 1 3.762-9.264 5 5 0 0 1-3.763 9.264"/><path stroke="#191059" stroke-linecap="round" stroke-linejoin="round" stroke-width="1.612" d="M341.12 308.632a5 5 0 1 1 3.762-9.264 5 5 0 0 1-3.763 9.264z"/><path fill="#EB586F" d="M348.495 304.705a3.999 3.999 0 1 1 3.01-7.41 3.999 3.999 0 0 1-3.01 7.41"/><path stroke="#191059" stroke-linecap="round" stroke-linejoin="round" stroke-width="1.612" d="M348.495 304.705a3.999 3.999 0 1 1 3.01-7.41 3.999 3.999 0 0 1-3.01 7.41z"/><path fill="#EB586F" d="M350.495 299.705a4 4 0 1 1 3.012-7.411 4 4 0 0 1-3.012 7.411"/><path stroke="#191059" stroke-linecap="round" stroke-linejoin="round" stroke-width="1.612" d="M350.495 299.705a4 4 0 1 1 3.012-7.411 4 4 0 0 1-3.012 7.411z"/><path fill="#EB586F" d="M342.743 301.558a5.999 5.999 0 1 1 4.512-11.115 5.999 5.999 0 0 1-4.512 11.115"/><path stroke="#191059" stroke-linecap="round" stroke-linejoin="round" stroke-width="1.841" d="M342.743 301.558a5.999 5.999 0 1 1 4.512-11.115 5.999 5.999 0 0 1-4.512 11.115z"/><path fill="#EB586F" d="M334.743 300.558a5.999 5.999 0 1 1 4.512-11.115 5.999 5.999 0 0 1-4.512 11.115"/><path stroke="#191059" stroke-linecap="round" stroke-linejoin="round" stroke-width="1.841" d="M334.743 300.558a5.999 5.999 0 1 1 4.512-11.115 5.999 5.999 0 0 1-4.512 11.115z"/><path fill="#EB586F" d="M326.119 303.631a4.999 4.999 0 1 1 3.762-9.263 4.999 4.999 0 0 1-3.762 9.263"/><path stroke="#191059" stroke-linecap="round" stroke-linejoin="round" stroke-width="1.612" d="M326.119 303.631a4.999 4.999 0 1 1 3.762-9.263 4.999 4.999 0 0 1-3.762 9.263z"/><path fill="#EB586F" d="M330.12 297.632a4.999 4.999 0 1 1 3.76-9.263 4.999 4.999 0 0 1-3.76 9.263"/><path stroke="#191059" stroke-linecap="round" stroke-linejoin="round" stroke-width="1.612" d="M330.12 297.632a4.999 4.999 0 1 1 3.76-9.263 4.999 4.999 0 0 1-3.76 9.263z"/><path fill="#EB586F" d="M333.119 307.631a4.999 4.999 0 1 1 3.762-9.263 4.999 4.999 0 0 1-3.762 9.263"/><path stroke="#191059" stroke-linecap="round" stroke-linejoin="round" stroke-width="1.612" d="M333.119 307.631a4.999 4.999 0 1 1 3.762-9.263 4.999 4.999 0 0 1-3.762 9.263zM341 304l-1 .744.56 1.256M326 290l2-.567-.764-1.433M348 291l1.005 1 .995-.933M348.295 283l-.295 1.792 2 .208m5 14l-1 .78.602 1.22m-10.785-9l-.817 1.144 1 .856m-44 22s5.17 9.393 3.754 17.585c-.862 4.982-2.5 16.415-2.5 16.415"/><path fill="#1BE059" d="M299.84 329.692c-1.899-1.611-3.142-3.228-2.776-3.61.365-.383 2.199.614 4.097 2.225 1.898 1.612 3.14 3.228 2.775 3.61-.365.384-2.199-.613-4.096-2.225"/><path stroke="#191059" stroke-linecap="round" stroke-linejoin="round" stroke-width="1.082" d="M299.84 329.692c-1.899-1.611-3.142-3.228-2.776-3.61.365-.383 2.199.614 4.097 2.225 1.898 1.612 3.14 3.228 2.775 3.61-.365.384-2.199-.613-4.096-2.225z"/><path fill="#EB586F" d="M300.494 306.992a2.5 2.5 0 1 0 4.012-2.984 2.5 2.5 0 0 0-4.012 2.984"/><path stroke="#191059" stroke-linecap="round" stroke-linejoin="round" stroke-width="1.082" d="M300.494 306.992a2.5 2.5 0 1 0 4.012-2.984 2.5 2.5 0 0 0-4.012 2.984z"/><path fill="#EB586F" d="M300.691 312.588a3.5 3.5 0 1 0 5.616-4.175 3.5 3.5 0 0 0-5.616 4.175"/><path stroke="#191059" stroke-linecap="round" stroke-linejoin="round" stroke-width="1.082" d="M300.691 312.588a3.5 3.5 0 1 0 5.616-4.175 3.5 3.5 0 0 0-5.616 4.175z"/><path fill="#EB586F" d="M289.691 312.588a3.5 3.5 0 1 0 5.618-4.176 3.5 3.5 0 0 0-5.618 4.176"/><path stroke="#191059" stroke-linecap="round" stroke-linejoin="round" stroke-width="1.082" d="M289.691 312.588a3.5 3.5 0 1 0 5.618-4.176 3.5 3.5 0 0 0-5.618 4.176z"/><path fill="#EB586F" d="M289.494 307.992a2.5 2.5 0 1 0 4.011-2.982 2.5 2.5 0 0 0-4.011 2.982"/><path stroke="#191059" stroke-linecap="round" stroke-linejoin="round" stroke-width="1.082" d="M289.494 307.992a2.5 2.5 0 1 0 4.011-2.982 2.5 2.5 0 0 0-4.011 2.982z"/><path fill="#EB586F" d="M293.79 307.386a4 4 0 1 0 6.42-4.773 4 4 0 0 0-6.42 4.773"/><path stroke="#191059" stroke-linecap="round" stroke-linejoin="round" stroke-width="1.236" d="M293.79 307.386a4 4 0 1 0 6.42-4.773 4 4 0 0 0-6.42 4.773z"/><path fill="#EB586F" d="M295.79 312.386a4 4 0 1 0 6.42-4.772 4 4 0 0 0-6.42 4.772"/><path stroke="#191059" stroke-linecap="round" stroke-linejoin="round" stroke-width="1.236" d="M295.79 312.386a4 4 0 1 0 6.42-4.772 4 4 0 0 0-6.42 4.772z"/><path fill="#EB586F" d="M298.691 317.587a3.5 3.5 0 1 0 5.619-4.174 3.5 3.5 0 0 0-5.619 4.174"/><path stroke="#191059" stroke-linecap="round" stroke-linejoin="round" stroke-width="1.082" d="M298.691 317.587a3.5 3.5 0 1 0 5.619-4.174 3.5 3.5 0 0 0-5.619 4.174z"/><path fill="#EB586F" d="M292.69 316.588a3.5 3.5 0 1 0 5.616-4.175 3.5 3.5 0 0 0-5.615 4.175"/><path stroke="#191059" stroke-linecap="round" stroke-linejoin="round" stroke-width="1.082" d="M292.69 316.588a3.5 3.5 0 1 0 5.616-4.175 3.5 3.5 0 0 0-5.615 4.175z"/><path stroke="#191059" stroke-linecap="round" stroke-linejoin="round" stroke-width="1.082" d="M294 311l-.217 1-.783-.274m5-10.555l-1.087.725-.913-.792m8 1.465l-.725.417-.275-.972M290 303l-.239 1-.761-.308m9 1.308l-.149 1-.851-.18"/><path fill="#A9B2B5" d="M327.678 339.362l-21.13-.362-3.378 3.812-2.17 5.09 8.102 5.098 26.106-.249 5.792-8.3z"/><path fill="#707677" d="M308.97 353l-7.97-5.099 2.134-5.088 3.323-3.813 1.617.028 4.197 3.613 6.729 4.216-1.922 6.065z"/><path stroke="#191059" stroke-linecap="round" stroke-linejoin="round" stroke-width="1.612" d="M327.678 339.362l-21.13-.362-3.378 3.812-2.17 5.09 8.102 5.098 26.106-.249 5.792-8.3z"/><path stroke="#191059" stroke-linecap="round" stroke-linejoin="round" stroke-width="1.612" d="M318 353l1.921-6.7L339 346m-20 1l-13-8"/><path fill="#1BE059" d="M310 351.884c.01.973-.66 1.817-.66 1.817l-.004.003c-2.822 1.709-12.898 1.72-15.067.08 0 0-.26-.296-.269-1.195-.025-2.61 4.268-4.56 7.43-4.589 3.164-.029 8.545 1.275 8.57 3.884"/><path fill="#1BE059" d="M294.366 353.278c-.374-.416-1.625-1.206-2.878-3.548-1.19-2.223-1.35-4.577-.019-4.92 2.367-.609 4.708 1.837 5.924 4.956"/><path stroke="#191059" stroke-linecap="round" stroke-linejoin="round" stroke-width="1.612" d="M294.366 353.278c-.374-.416-1.625-1.206-2.878-3.548-1.19-2.223-1.35-4.577-.019-4.92 2.367-.609 4.708 1.837 5.924 4.956"/><path fill="#1BE059" d="M297.3 349.482a8.844 8.844 0 0 1-.357-1.989c-.198-2.92.998-5.602 2.654-5.447 2.94.276 4.192 3.918 3.837 7.853"/><path stroke="#191059" stroke-linecap="round" stroke-linejoin="round" stroke-width="1.612" d="M297.3 349.482a8.844 8.844 0 0 1-.357-1.989c-.198-2.92.998-5.602 2.654-5.447 2.94.276 4.192 3.918 3.837 7.853"/><path fill="#1BE059" d="M309.129 353.137c1.678-2.154 2.002-3.634 2.3-4.425 1.23-3.264.797-6.602-1.135-6.838-3.432-.417-5.834 3.678-6.786 8.23"/><path stroke="#191059" stroke-linecap="round" stroke-linejoin="round" stroke-width="1.612" d="M309.129 353.137c1.678-2.154 2.002-3.634 2.3-4.425 1.23-3.264.797-6.602-1.135-6.838-3.432-.417-5.834 3.678-6.786 8.23"/><path fill="#1BE059" d="M475.127 302l.873 7-8-.194.372-3.762z"/><path fill="#1BE059" d="M472.274 304.135a7.763 7.763 0 0 1-.767-1.278c-.93-1.956-.973-4.078.046-4.366 2.982-.84 5.81 5.67 4.868 10.029"/><path stroke="#191059" stroke-linecap="round" stroke-linejoin="round" stroke-width="1.101" d="M472.274 304.135a7.763 7.763 0 0 1-.767-1.278c-.93-1.956-.973-4.078.046-4.366 2.982-.84 5.81 5.67 4.868 10.029"/><g><path fill="#1BE059" d="M469.417 306.503a7.719 7.719 0 0 1-.624-.43c-1.726-1.306-2.607-3.05-1.968-3.895.64-.844 2.558-.468 4.284.84a7.61 7.61 0 0 1 1.097 1.009"/><path stroke="#191059" stroke-linecap="round" stroke-linejoin="round" stroke-width="1.101" d="M469.417 306.503a7.719 7.719 0 0 1-.624-.43c-1.726-1.306-2.607-3.05-1.968-3.895.64-.844 2.558-.468 4.284.84a7.61 7.61 0 0 1 1.097 1.009"/></g><g><path fill="#1BE059" d="M468.484 308.476a4.565 4.565 0 0 1-.44-.088c-1.247-.308-2.134-1.05-1.984-1.66.151-.609 1.283-.855 2.53-.546.301.074.582.175.832.293"/><path stroke="#191059" stroke-linecap="round" stroke-linejoin="round" stroke-width="1.101" d="M468.484 308.476a4.565 4.565 0 0 1-.44-.088c-1.247-.308-2.134-1.05-1.984-1.66.151-.609 1.283-.855 2.53-.546.301.074.582.175.832.293"/></g><g><path fill="#1BE059" d="M495.155 308.693h-18.55"/><path stroke="#191059" stroke-linecap="round" stroke-linejoin="round" stroke-width="1.101" d="M495.155 308.693h-18.55"/></g><path fill="#191059" d="M244 310.5c0 1.932-10.745 3.5-24 3.5s-24-1.568-24-3.5c0-1.933 10.745-3.5 24-3.5s24 1.567 24 3.5" opacity=".25"/></g></svg>