<svg xmlns="http://www.w3.org/2000/svg" xmlns:xlink="http://www.w3.org/1999/xlink" width="670" height="339"><defs><path id="a" d="M.423.92H524.46V31H.423z"/><path id="c" d="M.363.472h420.098V18.59H.363z"/><path id="e" d="M1 337.634h732.461V0H1z"/></defs><g fill="none" fill-rule="evenodd"><path fill="#1B8059" d="M241.06 306.796c4.457 12.282 19.667 18.03 33.972 12.84 14.304-5.191 22.288-19.356 17.83-31.638-4.457-12.283-19.666-18.032-33.97-12.841-14.306 5.19-22.289 19.356-17.832 31.639"/><path fill="#1B8059" d="M276.994 278.443c.452-1.152.806-2.42 1.027-3.755.912-5.507-.745-10.537-3.773-10.215-5.379.572-8.337 7.456-8.44 14.864"/><path stroke="#191059" stroke-linecap="round" stroke-linejoin="round" stroke-width="1.845" d="M276.994 278.443c.452-1.152.806-2.42 1.027-3.755.912-5.507-.745-10.537-3.773-10.215-5.379.572-8.337 7.456-8.44 14.864"/><path fill="#1B8059" d="M265.78 278.678a19.737 19.737 0 0 0-.798-4.401c-1.853-6.21-6.41-10.84-9.722-9.236-5.883 2.85-5.656 11.37-1.871 19.252"/><path stroke="#191059" stroke-linecap="round" stroke-linejoin="round" stroke-width="1.845" d="M265.78 278.678a19.737 19.737 0 0 0-.798-4.401c-1.853-6.21-6.41-10.84-9.722-9.236-5.883 2.85-5.656 11.37-1.871 19.252"/><path fill="#1B8059" d="M239.838 291.675a24.95 24.95 0 0 1-3.943-3.648c-5.08-5.816-6.768-13.072-2.945-15.056 6.79-3.524 15.295 2.326 20.796 11.026"/><path stroke="#191059" stroke-linecap="round" stroke-linejoin="round" stroke-width="1.845" d="M239.838 291.675a24.95 24.95 0 0 1-3.943-3.648c-5.08-5.816-6.768-13.072-2.945-15.056 6.79-3.524 15.295 2.326 20.796 11.026"/><path fill="#1B8059" d="M286.79 281.215a23.79 23.79 0 0 0 1.35-1.618c3.629-4.763 4.58-9.725 2.125-11.083-2.455-1.36-7.388 1.402-11.017 6.165a21.273 21.273 0 0 0-2.156 3.445"/><path stroke="#191059" stroke-linecap="round" stroke-linejoin="round" stroke-width="1.845" d="M286.79 281.215a23.79 23.79 0 0 0 1.35-1.618c3.629-4.763 4.58-9.725 2.125-11.083-2.455-1.36-7.388 1.402-11.017 6.165a21.273 21.273 0 0 0-2.156 3.445"/><path fill="#1B8059" d="M290.992 284.94a15.56 15.56 0 0 0 1.132-.636c3.152-1.943 4.96-4.559 4.038-5.844-.921-1.286-4.223-.75-7.375 1.191-.764.472-1.45.982-2.036 1.504"/><path stroke="#191059" stroke-linecap="round" stroke-linejoin="round" stroke-width="1.845" d="M290.992 284.94a15.56 15.56 0 0 0 1.132-.636c3.152-1.943 4.96-4.559 4.038-5.844-.921-1.286-4.223-.75-7.375 1.191-.764.472-1.45.982-2.036 1.504"/><g transform="translate(208 307.634)"><mask id="b" fill="#fff"><use xlink:href="#a"/></mask><path fill="#1BE059" d="M524.46 7.354v17.212C472.41 28.457 386.06 31 288.356 31 135.32 31 10.169 24.765.965 16.892c-.361-.308-.542-.615-.542-.933 0-2.986 16.65-5.763 45.355-8.107h.037c1.004-.082 2.026-.163 3.058-.245 13.022-1.014 28.36-1.945 45.609-2.769 14.28-.678 29.88-1.285 46.567-1.8 10.398-.327 21.22-.616 32.424-.87C208.666 1.363 247.515.92 288.355.92c7.022 0 13.99.01 20.885.037 39.909.154 77.572.724 111.325 1.638 35.619.968 66.893 2.308 91.887 3.927 4.182.271 8.19.543 12.009.833" mask="url(#b)"/></g><path fill="#1BE059" d="M312.365 316.805c0 4.734-32.243 8.572-72.018 8.572-39.774 0-72.017-3.838-72.017-8.572 0-4.733 32.243-8.571 72.017-8.571 39.775 0 72.018 3.838 72.018 8.57"/><path fill="#1BE059" d="M385.786 308.178c0 4.25-86.36 7.696-192.893 7.696C86.361 315.874 0 312.429 0 308.178c0-4.251 86.361-7.697 192.893-7.697s192.893 3.446 192.893 7.697"/><path fill="#1BE059" d="M651.59 301.757c0 10.713-102.837 19.397-229.692 19.397-126.857 0-229.694-8.684-229.694-19.397S295.04 282.36 421.898 282.36c126.855 0 229.693 8.684 229.693 19.397"/><g transform="translate(312 296.634)"><mask id="d" fill="#fff"><use xlink:href="#c"/></mask><path fill="#1BE059" d="M333.451.654c31.24.208 60.56.588 87.01 1.112v15.53c-3.937.081-7.946.153-12.009.225C369.504 18.2 325 18.59 277.735 18.59h-2.553c-75.679-.028-144.119-1.033-193.773-2.662-9.746-.316-18.759-.66-26.967-1.022-6.289-.28-12.099-.569-17.393-.868C13.711 12.708.363 11.169.363 9.531c0-1.177 6.87-2.299 19.357-3.33C60.361 2.843 160.564.472 277.735.472c19.085 0 37.717.064 55.716.182" mask="url(#d)"/></g><path fill="#1BE059" d="M732.46 310.997v12.588c-39.21 1.701-94.193 2.76-155.068 2.76-89.39 0-166.083-2.281-198.787-5.538-10.877-1.077-16.886-2.272-16.886-3.52 0-1.728 11.592-3.349 31.69-4.725 27.745-1.9 71.726-3.33 123.83-3.972 19.086-.226 39.276-.353 60.153-.353 20.659 0 40.649.118 59.562.353 36.822.444 69.608 1.285 95.507 2.407m-609.397 11.727c0 1.466-7.521 2.653-16.798 2.653-9.278 0-16.799-1.188-16.799-2.653 0-1.464 7.521-2.652 16.799-2.652 9.277 0 16.798 1.188 16.798 2.652"/><path fill="#D8E9F0" d="M139.652 110.537l3.812-3.393-11.22-12.607-3.812 3.393z"/><path stroke="#1B0C59" stroke-width="1.215" d="M139.652 110.537l3.812-3.393-11.22-12.607-3.812 3.393z"/><path stroke="#1B0C59" stroke-linecap="round" stroke-width="1.215" d="M133.435 95.875l-.41 8.029m-1.575-9.073l-.518 8.708m4.573-5.337l-.602 8.296m6.16-2.053l-.25 5.058m-1.627-7.166l-.491 8.438"/><path fill="#D8E9F0" d="M200.843 174.976a29.146 29.146 0 0 1-11.797-4.589 28.615 28.615 0 0 1-5.255-4.526 5.494 5.494 0 0 1-.183-.198l-43.892-49.318 9.982-8.886 43.836 49.248a28.953 28.953 0 0 1 7.309 18.269"/><path fill="#1B0C59" d="M149.749 106.6l-10.891 9.696.092.103 29.001 32.585 13.479 15.147 1.663 1.868c.083.091.163.184.248.27a29.59 29.59 0 0 0 18.125 9.407 29.56 29.56 0 0 0-7.478-19.373l-9.705-10.904-5.669-6.37-1.913-2.15-13.478-15.141-.001-.004-12.751-14.322-.63-.706-.092-.106zm-.1 1.717l12.432 13.963.001.004.233.26 13.478 15.145 1.913 2.148 5.669 6.37 9.705 10.904a28.346 28.346 0 0 1 7.121 17.142 28.493 28.493 0 0 1-10.818-4.371 28.195 28.195 0 0 1-5.174-4.464c-.049-.049-.095-.102-.142-.154l-.066-.073-1.663-1.868-13.479-15.147-28.286-31.78 9.076-8.08z"/><path fill="#1B0C59" d="M201.466 175.677l-14.818-16.648-5.67-6.371-1.912-2.15-13.478-15.145-20.561-23.101 5.444-4.85.004-.001 12.747 14.323v.004l13.479 15.142 1.913 2.15 5.669 6.37 9.705 10.903a29.56 29.56 0 0 1 7.478 19.374"/><path fill="#D8E9F0" d="M136.394 118.827a1.954 1.954 0 0 1-1.457-.653c-.346-.39-.52-.89-.489-1.41.03-.52.261-.998.65-1.343l13.463-11.983a1.952 1.952 0 0 1 2.752.16c.348.39.52.89.49 1.411-.03.519-.26.997-.65 1.342l-13.463 11.983a1.954 1.954 0 0 1-1.296.493z"/><path fill="#1B0C59" d="M149.857 102.338c-.627 0-1.231.23-1.7.647l-13.462 11.982a2.54 2.54 0 0 0-.853 1.762 2.562 2.562 0 0 0 2.553 2.706c.628 0 1.23-.231 1.7-.648l13.463-11.981c.509-.454.813-1.08.852-1.762a2.54 2.54 0 0 0-.642-1.85 2.56 2.56 0 0 0-1.911-.856m0 1.216a1.343 1.343 0 0 1 .893 2.344l-13.463 11.982a1.34 1.34 0 0 1-1.784-2.005l13.462-11.982c.256-.228.575-.34.892-.34"/><path fill="#D8E9F0" d="M123.032 95.808a5.176 5.176 0 1 0 7.732-6.883 5.176 5.176 0 0 0-7.732 6.883"/><path stroke="#1B0C59" stroke-width="1.215" d="M123.032 95.808a5.176 5.176 0 1 0 7.732-6.883 5.176 5.176 0 0 0-7.732 6.883z"/><path fill="#EB586F" d="M123.457 88.501l6.881 7.732"/><path stroke="#1B0C59" stroke-width="1.215" d="M123.457 88.501l6.881 7.732"/><path fill="#EB586F" d="M130.764 88.927l-7.732 6.882"/><path stroke="#1B0C59" stroke-width="1.215" d="M130.764 88.927l-7.732 6.882"/><path fill="#EB586F" d="M126.899 95.115a2.75 2.75 0 0 1-2.054-.921 2.752 2.752 0 0 1 .226-3.878 2.745 2.745 0 0 1 3.878.226c.489.548.734 1.253.69 1.986a2.745 2.745 0 0 1-2.741 2.587"/><path fill="#1B0C59" d="M126.897 90.22800000000001c.61 0 1.192.262 1.598.717.38.427.571.976.538 1.547a2.126 2.126 0 0 1-.713 1.474 2.135 2.135 0 0 1-3.02-.176 2.14 2.14 0 1 1 1.597-3.562"/><path stroke="#FFF" stroke-linecap="round" stroke-linejoin="round" stroke-width=".524" d="M127.788 93.514a1.447 1.447 0 0 0-.37-2.402"/><path fill="#FFF" fill-opacity=".25" d="M181.43 164.13l-13.479-15.145-4.729-27.248 13.48 15.143zm7.277 6.763a29.21 29.21 0 0 1-5.366-4.624l-4.727-27.24 5.669 6.37 4.424 25.494z"/><path stroke="#1B0C59" stroke-linecap="round" stroke-linejoin="round" stroke-width="17.026" d="M118.809 256.765s4.139 24.065 22.228 21.377c14.182-2.108 16.489-19.865 16.489-19.865m-58.3 0s-6.676 3.212-15.042 10.2c-9.571 7.993-13.728 15.965-13.728 15.965m28.77-26.165s-3.068 1.477-7.651 4.604m27.234-6.116s1.578 9.178 7.045 15.564"/><path fill="#2AC6EA" d="M112.438 255.148c1.56.794 3.493 1.181 5.652.702a8.473 8.473 0 0 1-5.652-.702zm1.752 12.923s-4.431-14.004-5.29-16.24a8.513 8.513 0 0 1 5.511-12.604c3.827-.85 7.655.975 9.527 4.54.196.375.386.79.595 1.303.244.6.538 1.39.9 2.422a290.497 290.497 0 0 1 2.132 6.4 915.753 915.753 0 0 1 2.892 9.152l-16.267 5.027z"/><path fill="#2AC6EA" d="M98.915 255.85c2.16.48 4.092.093 5.652-.701a8.48 8.48 0 0 1-5.651.702zm-12.367 7.194s1.433-4.633 2.892-9.151a290.497 290.497 0 0 1 2.133-6.4c.362-1.032.656-1.825.9-2.422.21-.514.398-.928.596-1.303 2.108-4.017 6.698-5.823 10.974-4.089 3.177 1.29 5.3 4.525 5.227 7.953a8.645 8.645 0 0 1-1.164 4.198c-.655 1.706-3.386 10.25-4.647 14.215a2.145 2.145 0 0 1-2.684 1.397l-14.227-4.399z"/><path fill="#2AC6EA" d="M98.395 259.476a6.08 6.08 0 0 0 6.082 6.082h5.739a6.08 6.08 0 0 0 6.08-6.082v-2.399a6.08 6.08 0 0 0-6.08-6.08h-5.74a6.08 6.08 0 0 0-6.08 6.08v2.4z"/><path stroke="#1B0C59" stroke-linecap="round" stroke-linejoin="round" stroke-width="1.395" d="M121.403 240.754a9.018 9.018 0 0 1 2.534 3.014c.196.375.386.789.596 1.302.244.599.537 1.39.9 2.422a289.985 289.985 0 0 1 2.132 6.4c1.458 4.518 2.892 9.152 2.892 9.152l-16.267 5.027s-.92-2.912-2.006-6.292m-8.268 2.97c-1.084 3.38-2.974 2.744-2.974 2.744l-14.393-4.45s1.433-4.633 2.891-9.15c.869-2.69 1.587-4.843 2.133-6.401.362-1.031.655-1.823.9-2.422.209-.513.399-.927.595-1.302a9.018 9.018 0 0 1 2.534-3.014"/><path stroke="#1B0C59" stroke-linecap="round" stroke-linejoin="round" stroke-width="1.395" d="M102.207 263.544c2.037 1.787 4.158 2.014 5.513 2.014h2.496c.84 0 1.64-.17 2.367-.478"/><path stroke="#1B0C59" stroke-linecap="round" stroke-linejoin="round" stroke-width="17.026" d="M84.837 211.21l-17.809-38.485"/><path stroke="#2AC6EA" stroke-linecap="round" stroke-linejoin="round" stroke-width="14.593" d="M72.869 185.346l-5.84-12.621"/><path fill="#2AC6EA" d="M92.151 203.504c4.4 3.29 5.475 9.839 2.077 14.384-3.399 4.545-9.984 5.366-14.384 2.077-4.4-3.29 7.907-19.751 12.307-16.461"/><path stroke="#191059" stroke-linecap="round" stroke-linejoin="round" stroke-width="1.131" d="M92.151 203.504c4.4 3.29 5.475 9.839 2.077 14.384-3.399 4.545-9.984 5.366-14.384 2.077-4.4-3.29 7.907-19.751 12.307-16.461z"/><path fill="#1B0C59" d="M126.708 263.695l3.023-.982-.812-2.498-2.097.681a.973.973 0 0 0-.625 1.226l.511 1.573zm-5.968 1.945l3.022-.982-.51-1.574a.974.974 0 0 0-1.226-.625l-1.172.382a.974.974 0 0 0-.625 1.226l.51 1.572zm-5.966 1.932l3.023-.98-.511-1.575a.973.973 0 0 0-1.226-.624l-2.098.682.812 2.497zm-26.162-4.457l-3.022-.982.811-2.498 2.098.681c.51.166.79.715.624 1.227l-.51 1.572zm5.969 1.945l-3.023-.983.511-1.572a.974.974 0 0 1 1.226-.625l1.172.38a.974.974 0 0 1 .625 1.228l-.51 1.572zm5.966 1.933l-3.023-.982.51-1.573a.973.973 0 0 1 1.227-.625l2.098.682-.812 2.498z"/><path fill="#2AC6EA" d="M143.133 260.705l-3.958-7.877c-1.161-2.31-3.883-4.324-7.474-5.529l-12.246-4.11c-3.9-1.308-8.115.468-7.123 3l3.394 8.67c.865 2.21 3.48 4.145 6.975 5.16L136.408 264c4.005 1.163 7.985-.787 6.725-3.295"/><path stroke="#1B0C59" stroke-linecap="round" stroke-linejoin="round" stroke-width="1.395" d="M143.133 260.705l-3.958-7.877c-1.161-2.31-3.883-4.324-7.474-5.529l-12.246-4.11c-3.9-1.308-8.115.468-7.123 3l3.394 8.67c.865 2.21 3.48 4.145 6.975 5.16L136.408 264c4.005 1.163 7.985-.787 6.725-3.295z"/><path fill="#2AC6EA" d="M76.497 262.24l3.36-7.849c.986-2.3 3.5-4.409 6.9-5.786l11.593-4.696c3.691-1.495 7.871-.027 7.063 2.48l-2.769 8.58c-.706 2.188-3.12 4.212-6.438 5.4l-13.014 4.658c-3.8 1.361-7.765-.289-6.695-2.787"/><path stroke="#1B0C59" stroke-linecap="round" stroke-linejoin="round" stroke-width="1.395" d="M76.497 262.24l3.36-7.849c.986-2.3 3.5-4.409 6.9-5.786l11.593-4.696c3.691-1.495 7.871-.027 7.063 2.48l-2.769 8.58c-.706 2.188-3.12 4.212-6.438 5.4l-13.014 4.658c-3.8 1.361-7.765-.289-6.695-2.787z"/><path fill="#2AC6EA" d="M107.52 256.45c1.444 0 2.96-.15 4.55-.477 11.252-2.308 13.638-13.666 13.734-14.148a2.676 2.676 0 0 0-5.246-1.056c-.074.355-1.84 8.378-9.564 9.963-9.337 1.917-13.948-4.095-15.138-5.982a2.676 2.676 0 0 0-4.525 2.855c2.871 4.552 8.463 8.844 16.188 8.844"/><path stroke="#1B0C59" stroke-linecap="round" stroke-linejoin="round" stroke-width="1.395" d="M107.52 256.45c1.444 0 2.96-.15 4.55-.477 11.252-2.308 13.638-13.666 13.734-14.148a2.676 2.676 0 0 0-5.246-1.056c-.074.355-1.84 8.378-9.564 9.963-9.337 1.917-13.948-4.095-15.138-5.982a2.676 2.676 0 0 0-4.525 2.855c2.871 4.552 8.463 8.844 16.188 8.844z"/><path fill="#2AC6EA" d="M84.216 218.503c0-6.235 4.628-11.29 10.338-11.29h20.222c5.71 0 10.338 5.055 10.338 11.29v11.289c0 4.623-1.273 8.924-3.455 12.5a22.23 22.23 0 0 1-3.084 3.974c-3.695 3.787-8.671 6.104-14.137 6.104-5.465 0-10.44-2.317-14.136-6.104a22.27 22.27 0 0 1-3.083-3.973c-2.182-3.577-3.456-7.878-3.456-12.501 0-2.56.453-9.891.453-11.29"/><path stroke="#1B0C59" stroke-linecap="round" stroke-linejoin="round" stroke-width="1.395" d="M84.379 218.503c0-6.235 4.628-11.29 10.338-11.29h20.222c5.71 0 10.338 5.055 10.338 11.29v11.289c0 4.623-1.273 8.924-3.455 12.5a22.23 22.23 0 0 1-3.084 3.974c-3.695 3.787-8.671 6.104-14.137 6.104-5.465 0-10.44-2.317-14.136-6.104a22.27 22.27 0 0 1-3.083-3.973c-2.182-3.577-3.456-7.878-3.456-12.501 0-2.56.453-9.891.453-11.29z"/><path fill="#2AC6EA" d="M92.554 198.031h19.265a3.989 3.989 0 0 0 3.988-3.988v-24.14h-27.24v24.14a3.988 3.988 0 0 0 3.987 3.988"/><path stroke="#1B0C59" stroke-linecap="round" stroke-linejoin="round" stroke-width="17.026" d="M121.32 211.21l17.81-38.485"/><path stroke="#2AC6EA" stroke-linecap="round" stroke-linejoin="round" stroke-width="14.593" d="M132.924 186.136l6.206-13.411"/><path fill="#EB586F" d="M88.566 179.495l13.557-1.437 13.684 1.437v-4.378l-13.684-1.436-13.557 1.436z"/><path stroke="#1B0C59" stroke-linecap="round" stroke-linejoin="round" stroke-width="1.395" d="M92.554 198.031h19.265a3.989 3.989 0 0 0 3.988-3.988v-24.14h-27.24v24.14a3.988 3.988 0 0 0 3.987 3.988z"/><mask id="f" fill="#fff"><use xlink:href="#e"/></mask><path fill="#1B0C59" d="M96.427 198.031h5.76v-13.748h-5.76z" mask="url(#f)"/><path stroke="#1B0C59" stroke-linecap="round" stroke-linejoin="round" stroke-width="1.12" d="M116.761 179.495s-12.417-1.437-18.22-1.437c-5.803 0-10.97 1.437-10.97 1.437m29.19-4.378s-11.38-1.437-17.455-1.437c-6.075 0-11.736 1.437-11.736 1.437" mask="url(#f)"/><path stroke="#1B0C59" stroke-linecap="round" stroke-linejoin="round" stroke-width="4.148" d="M107.346 184.283s-4.483-1.695-8.04-1.695c-3.557 0-6.59 1.695-6.59 1.695" mask="url(#f)"/><path fill="#2AC6EA" d="M91.082 204.747c5.002 8.619 17.45 8.619 22.452 0v-2.199a2.432 2.432 0 0 0-2.434-2.432H93.513a2.432 2.432 0 0 0-2.431 2.432v2.199z" mask="url(#f)"/><path stroke="#1B0C59" stroke-linecap="round" stroke-linejoin="round" stroke-width="1.216" d="M91.082 204.747c5.002 8.619 17.45 8.619 22.452 0v-2.199a2.432 2.432 0 0 0-2.434-2.432H93.513a2.432 2.432 0 0 0-2.431 2.432v2.199z" mask="url(#f)"/><path fill="#1B0C59" d="M94.713 202.948l.112.07a13.888 13.888 0 0 0 14.918-.07v-4.917h-15.03v4.917z" mask="url(#f)"/><path stroke="#1B0C59" stroke-linecap="round" stroke-linejoin="round" stroke-width="1.216" d="M94.826 203.018c4.564 2.876 12.474 3.018 16.004-1.074" mask="url(#f)"/><path fill="#2AC6EA" d="M115.647 201.6c-4.92 2.447-7.153 8.696-4.626 13.778 2.528 5.082 8.858 7.073 13.776 4.625 4.92-2.446-4.231-20.848-9.15-18.402" mask="url(#f)"/><path stroke="#191059" stroke-linecap="round" stroke-linejoin="round" stroke-width="1.131" d="M115.647 201.6c-4.92 2.447-7.153 8.696-4.626 13.778 2.528 5.082 8.858 7.073 13.776 4.625 4.92-2.446-4.231-20.848-9.15-18.402z" mask="url(#f)"/><path stroke="#1B0C59" stroke-linecap="round" stroke-linejoin="round" stroke-width="1.395" d="M106.28 256.45s-1.223 9.107 2.985 9.107m-8.708-54.465s-3.83 3.336-5.325 7.883c-6.442 19.602 6.891 32.495 6.891 32.495" mask="url(#f)"/><path fill="#1B0C59" d="M180.563 255.06c-.581-.982-2.056-2.555-6.114-4.576-3.12-1.553-7.056-2.984-10.53-3.829-7.28-1.768-11.385-.625-12.428 1.368-.484.924.453 1.76 1.242 1.91.573.108 1.286-.25 1.286-.25.023-.02 1.832-1.388 9.077.373 7.28 1.77 14.27 4.946 14.927 6.453-.602.522-.648 1.457-.099 2.107.554.65 1.501.756 2.118.236.875-.74 1.207-1.788.905-2.876a3.454 3.454 0 0 0-.385-.916" mask="url(#f)"/><path fill="#2AC6EA" d="M150.904 252.357l-3.714 11.307 8.819 2.74-.555 1.688 6.429 1.538a26.26 26.26 0 0 1 11.172-5.505l3.376-.753c1.098-.227 2.502-1.07 2.89-2.253l.385-1.137c.469-1.386-.063-2.905-1.304-3.726l-.533-.352c-6.376-4.216-13.881-6.526-21.59-6.648l-.914-.014c-2.03-.03-3.843 1.234-4.461 3.115" mask="url(#f)"/><path stroke="#1B0C59" stroke-linecap="round" stroke-linejoin="round" stroke-width="1.08" d="M150.904 252.357l-3.714 11.307 8.819 2.74-.555 1.688 6.429 1.538a26.26 26.26 0 0 1 11.172-5.505l3.376-.753c1.098-.227 2.502-1.07 2.89-2.253l.385-1.137c.469-1.386-.063-2.905-1.304-3.726l-.533-.352c-6.376-4.216-13.881-6.526-21.59-6.648l-.914-.014c-2.03-.03-3.843 1.234-4.461 3.115z" mask="url(#f)"/><path fill="#2AC6EA" d="M146.485 266.488l6.705 2.082c2.189.681 4.53-.494 5.23-2.623l-10.67-3.313c-1.094-.34-2.265.247-2.614 1.311-.35 1.064.254 2.203 1.349 2.543" mask="url(#f)"/><path stroke="#1B0C59" stroke-linecap="round" stroke-linejoin="round" stroke-width="1.173" d="M146.485 266.488l6.705 2.082c2.189.681 4.53-.494 5.23-2.623l-10.67-3.313c-1.094-.34-2.265.247-2.614 1.311-.35 1.064.254 2.203 1.349 2.543z" mask="url(#f)"/><path stroke="#1B0C59" stroke-linecap="round" stroke-linejoin="round" stroke-width="1.08" d="M158.481 265.703l.923-2.174 5.584-2.604 4.49 4.267m-10.074-1.662l4.564 4.35" mask="url(#f)"/><path fill="#2AC6EA" d="M69.076 300.257l8.275-11.6c-.022-.008-.046-.026-.066-.04l-9.353-6.605-3.656-2.952-1.567 2.217s-2.737 2.394-4.846 1.456c-2.108-.94-5.286-9.238-12.727-5.385 0 0 6.603.929 9.486 9.054 2.884 8.124 14.335 13.652 14.454 13.855" mask="url(#f)"/><path stroke="#1B0C59" stroke-linecap="round" stroke-linejoin="round" stroke-width="1.12" d="M69.076 300.257l8.275-11.6c-.022-.008-.046-.026-.066-.04l-9.353-6.605-3.656-2.952-1.567 2.217s-2.737 2.394-4.846 1.456c-2.108-.94-5.286-9.238-12.727-5.385 0 0 6.603.929 9.486 9.054 2.884 8.124 14.335 13.652 14.454 13.855z" mask="url(#f)"/><path fill="#2AC6EA" d="M67.932 282.012l9.353 6.605c.02.014.044.032.066.04a2.123 2.123 0 0 0 2.9-.553 2.118 2.118 0 0 0 .358-1.587 2.115 2.115 0 0 0-.868-1.376l-5.881-4.153a4.249 4.249 0 0 0-5.928 1.024" mask="url(#f)"/><path stroke="#1B0C59" stroke-linecap="round" stroke-linejoin="round" stroke-width="1.216" d="M67.932 282.012l9.353 6.605c.02.014.044.032.066.04a2.123 2.123 0 0 0 2.9-.553 2.118 2.118 0 0 0 .358-1.587 2.115 2.115 0 0 0-.868-1.376l-5.881-4.153a4.249 4.249 0 0 0-5.928 1.024z" mask="url(#f)"/><path fill="#474747" d="M43.382 278.534c-3.715 1.883-1.113 8.864 5.899 15.157 3.044 2.733 7.58 6.673 11.1 8.467 3.705 1.89 6.337 1.541 7.098.693l-9.815-7.939-11.11-15.995-3.172-.383z" mask="url(#f)"/><path stroke="#1B0C59" stroke-width="1.064" d="M43.382 278.534c-3.715 1.883-1.113 8.864 5.899 15.157 3.044 2.733 7.58 6.673 11.1 8.467 3.705 1.89 6.337 1.541 7.098.693l-9.815-7.939-11.11-15.995-3.172-.383z" mask="url(#f)"/><path fill="#1B0C59" d="M67.885 302.962a1.7 1.7 0 0 0 .458-3.208c-.112-.056-9.972-4.704-12.797-11.882-2.567-6.522-5.46-10.441-10.685-10.76-.935-.056-1.803 1.598-1.803 1.598s4.852-.618 9.32 10.409c3.396 8.383 13.967 13.449 14.475 13.697.333.16.693.205 1.032.146" mask="url(#f)"/><path stroke="#1B0C59" stroke-linecap="round" stroke-linejoin="round" stroke-width="1.12" d="M57.863 282.732c1.887 2.958 3.097 2.521 3.097 2.521l5.353-1.473 1.619-1.769m-5.223-.735l3.604 2.504" mask="url(#f)"/><path fill="#2AC6EA" d="M146.042 167.456a6.198 6.198 0 0 1-11.98 3.177 6.197 6.197 0 1 1 11.98-3.177" mask="url(#f)"/><path fill="#2AC6EA" d="M137.188 168.908l-2.639.7-2.412-9.096a1.635 1.635 0 0 1 1.161-2 3.828 3.828 0 0 1 4.682 2.72l1.15 4.333a2.734 2.734 0 0 1-1.942 3.343" mask="url(#f)"/><path stroke="#191059" stroke-linecap="round" stroke-linejoin="round" stroke-width="1.216" d="M138.277 162.349l-.296-1.117a3.829 3.829 0 0 0-4.683-2.72c-.437.115-.785.398-1.037.77-.39.58-.458 1.32-.28 1.994l1.629 5.903" mask="url(#f)"/><path fill="#24C7EA" d="M141.51 166.34a2.383 2.383 0 0 1-3.796-2.236l1.278-9.006a2.384 2.384 0 0 1 4.72.67l-1.28 9.007a2.374 2.374 0 0 1-.922 1.566" mask="url(#f)"/><path stroke="#191059" stroke-linecap="round" stroke-linejoin="round" stroke-width="1.216" d="M137.919 162.657l1.073-7.56a2.383 2.383 0 0 1 4.719.67l-.947 6.677" mask="url(#f)"/><path fill="#24C7EA" d="M143.475 171.893a2.381 2.381 0 0 1-.241-4.399l8.206-3.928a2.383 2.383 0 1 1 2.057 4.3l-8.206 3.926a2.371 2.371 0 0 1-1.816.1" mask="url(#f)"/><path fill="#24C7EA" d="M144.96 166.614a2.383 2.383 0 0 1-2.361-3.72l5.24-7.436a2.384 2.384 0 1 1 3.896 2.745l-5.239 7.436c-.378.537-.937.87-1.536.975" mask="url(#f)"/><path stroke="#191059" stroke-linecap="round" stroke-linejoin="round" stroke-width="1.216" d="M146.636 171.15l6.861-3.284a2.384 2.384 0 0 0-2.057-4.3l-4.975 2.234 5.27-7.597a2.384 2.384 0 0 0-3.896-2.745l-5.085 7.214" mask="url(#f)"/><path stroke="#191059" stroke-linecap="round" stroke-linejoin="round" stroke-width=".967" d="M139.54 166.186a3.08 3.08 0 0 1-.492 4.328" mask="url(#f)"/><path stroke="#1B0C59" stroke-linecap="round" stroke-linejoin="round" stroke-width="1.395" d="M153.419 171.54a32.051 32.051 0 0 1 11.969 15.779m-28.968-16.955a32.062 32.062 0 0 1 17.233 9.76m-1.603-20.835c3.998 1.531 7.391 4.271 9.543 8.086m-29.641-16.171c1.898-.948 4.035-1.27 6.15-.778m-22.975 14.436a32.068 32.068 0 0 1 16.902-3.8m-60.267-.549a32.058 32.058 0 0 1 19.8.396m-30.26-6.921c3.681-2.187 7.934-3.149 12.262-2.472M42.495 164.74c.434-2.077 1.507-3.953 3.204-5.307m1.903 23.772a21.76 21.76 0 0 1 3.268-11.299" mask="url(#f)"/><path fill="#2AC6EA" d="M59.481 168.854a6.197 6.197 0 1 0 11.98 3.175 6.197 6.197 0 0 0-11.98-3.175" mask="url(#f)"/><path fill="#2AC6EA" d="M68.335 170.306l2.64.7 2.412-9.096a1.635 1.635 0 0 0-1.16-2 3.829 3.829 0 0 0-4.684 2.72l-1.149 4.334a2.734 2.734 0 0 0 1.941 3.343" mask="url(#f)"/><path stroke="#191059" stroke-linecap="round" stroke-linejoin="round" stroke-width="1.216" d="M67.247 163.747l.296-1.117a3.83 3.83 0 0 1 4.683-2.72c.436.115.784.398 1.036.771.391.578.46 1.318.28 1.994l-1.628 5.902" mask="url(#f)"/><path fill="#24C7EA" d="M64.014 167.74a2.384 2.384 0 0 0 3.796-2.237l-1.278-9.008a2.384 2.384 0 0 0-4.72.67l1.28 9.007c.09.65.437 1.201.922 1.567" mask="url(#f)"/><path stroke="#191059" stroke-linecap="round" stroke-linejoin="round" stroke-width="1.216" d="M67.605 164.056l-1.073-7.561a2.383 2.383 0 0 0-4.72.67l.948 6.678" mask="url(#f)"/><path fill="#24C7EA" d="M62.048 173.29a2.383 2.383 0 0 0 .241-4.399l-8.205-3.927a2.382 2.382 0 0 0-3.179 1.12 2.386 2.386 0 0 0 1.121 3.18l8.206 3.926a2.371 2.371 0 0 0 1.816.1" mask="url(#f)"/><path fill="#24C7EA" d="M60.564 168.012a2.385 2.385 0 0 0 2.361-3.721l-5.24-7.435a2.383 2.383 0 1 0-3.897 2.746l5.24 7.435c.378.537.937.87 1.536.975" mask="url(#f)"/><path stroke="#191059" stroke-linecap="round" stroke-linejoin="round" stroke-width="1.216" d="M62.77 164.071l-5.085-7.216a2.384 2.384 0 0 0-3.897 2.746l5.27 7.597-4.974-2.234a2.381 2.381 0 0 0-3.178 1.121 2.382 2.382 0 0 0 1.12 3.18l6.861 3.282" mask="url(#f)"/><path stroke="#191059" stroke-linecap="round" stroke-linejoin="round" stroke-width=".967" d="M65.984 167.584a3.08 3.08 0 0 0 .492 4.328" mask="url(#f)"/><path stroke="#1B0C59" stroke-linecap="round" stroke-linejoin="round" stroke-width="1.108" d="M68.332 169.809c1.97-1.188 6.238-3.096 10.607.18" mask="url(#f)"/><path fill="#191059" fill-opacity=".25" d="M84.837 224.926s3.69 15.929 16.124 20.854c12.434 4.925 20.86-3.487 20.86-3.487s-10.714 16.112-26.996 7.394c-14.462-7.745-9.988-24.761-9.988-24.761m6.245-17.046s-3.917-2.54-5.938-1.456c-2.02 1.085-5.635 6.246-5.431 7.97.203 1.725-1.673 4.337.132 5.57 2.924 2 4.438 1.08 4.438 1.08s.203-12.745 6.799-13.163m24.565-6.281s-2.114 14.37 9.468 14.946c2.656.132 1.585 2.24-.317 3.457-1.368.877-3.478.992-3.478.992s-8.095.893-10.944-7.29c-2.848-8.183 5.27-12.105 5.27-12.105" mask="url(#f)"/><path fill="#191059" fill-opacity=".25" d="M94.713 200.746s-.74-.881-1.998-.187c-1.257.694-1.307 4.057-1.046 4.547.261.491 4.918 6.463 9.74 5.986 4.821-.478 8.344-1.133 8.918-3.07.573-1.937-1.157-4.067-1.157-4.067S94.622 205 94.713 200.746M54.364 156.28l1.408-.429s5.847 5.195 7.589 10.8c1.74 5.603-2.58 6.615 6.107 11.95 10.557 6.484 7.496 12.836 6.852 14.202-2.756 5.853-8.887 1.226-8.887 1.226s-8.354-18.317-8.16-18.786c.194-.469-.492-2.747-.492-2.747l-8.11-4.448.288-2.229 2.06-1.079 6.254 2.083-5.485-7.222.576-3.32zm36.484 90.667s-8.564 3.622-9.777 5.533c-.927 1.46-3.824 7.222-4.27 10.88-.276 2.24-1.755 9.086.903 11.307 6.107 5.104 11.231-.475 16.391-4.217 1.805-1.31 3.96-2.95 5.672-3.358 1.3-.31 2.44.466 2.44.466l2.27-2 8.106-.478s-5.9-2.97 0-11.533c6.225-9.037-7.668 6.318-21.735-6.6M64.275 279.06l-2.159 2.952-4.009 1.505s-5.436-6.733-7.882-6.978c-2.446-.244-4.63.659-4.63.659l11.78 17.744 10.556 6.815 8.487-11.257.933-1.841 2.9-.555-.427-2.875-7.538-4.916-8.01-1.253z" mask="url(#f)"/><path fill="#191059" d="M124.246 276.639s17.06 8.568 27.113 1.712 2.51 11.056-16.331 7.324c-18.842-3.731-10.782-9.036-10.782-9.036" mask="url(#f)"/><path fill="#191059" fill-opacity=".25" d="M156.822 268.764s2.087-5.906 7.293-8.08c5.207-2.175 19.268.868 12.315 2.688-6.952 1.82-14.397 4.69-15.604 8.42-1.207 3.733-6.903 1.244-4.004-3.028m-61.16-98.4s-2.972 4.387-2.188 9.76c.471 3.227 5.244 4.566 4.8 11.844-.476 7.807 16.344 3.797 16.344 3.797s1.661 2.34-4.875 2.266c-6.536-.075-22.08 3.57-21.544-5.719.306-5.292.367-22.409.367-22.409l7.096.461z" mask="url(#f)"/><path fill="#D8E9F0" d="M359.28 112.161c0 11.393-7.009 20.628-15.654 20.628-8.646 0-15.655-9.235-15.655-20.628s7.01-20.628 15.655-20.628 15.654 9.235 15.654 20.628" mask="url(#f)"/><path stroke="#1B0C59" stroke-width="3.818" d="M359.28 112.161c0 11.393-7.009 20.628-15.654 20.628-8.646 0-15.655-9.235-15.655-20.628s7.01-20.628 15.655-20.628 15.654 9.235 15.654 20.628z" mask="url(#f)"/><path fill="#D8E9F0" d="M390.588 108.965c0 11.393-7.008 20.628-15.654 20.628s-15.654-9.235-15.654-20.628 7.008-20.628 15.654-20.628 15.654 9.235 15.654 20.628" mask="url(#f)"/><path stroke="#1B0C59" stroke-width="3.818" d="M390.588 108.965c0 11.393-7.008 20.628-15.654 20.628s-15.654-9.235-15.654-20.628 7.008-20.628 15.654-20.628 15.654 9.235 15.654 20.628z" mask="url(#f)"/><path fill="#D8E9F0" d="M421.897 104.703c0 11.393-7.008 20.628-15.654 20.628-8.645 0-15.654-9.235-15.654-20.628s7.009-20.628 15.654-20.628c8.646 0 15.654 9.235 15.654 20.628" mask="url(#f)"/><path stroke="#1B0C59" stroke-width="3.818" d="M421.897 104.703c0 11.393-7.008 20.628-15.654 20.628-8.645 0-15.654-9.235-15.654-20.628s7.009-20.628 15.654-20.628c8.646 0 15.654 9.235 15.654 20.628z" mask="url(#f)"/><path fill="#D8E9F0" d="M453.206 104.703c0 11.393-7.009 20.628-15.654 20.628-8.646 0-15.655-9.235-15.655-20.628s7.01-20.628 15.655-20.628 15.654 9.235 15.654 20.628" mask="url(#f)"/><path stroke="#1B0C59" stroke-width="3.818" d="M453.206 104.703c0 11.393-7.009 20.628-15.654 20.628-8.646 0-15.655-9.235-15.655-20.628s7.01-20.628 15.655-20.628 15.654 9.235 15.654 20.628z" mask="url(#f)"/><g mask="url(#f)"><path fill="#D8E9F0" d="M408.03 286.219c-.98-9.456 3.295-17.907 10.613-19.842 5.893-1.564 12.167 1.515 16.38 7.33l-1.988 11.904s-24.203 19.21-25.006.608"/><path stroke="#1B0C59" stroke-width="3.818" d="M408.03 286.219c-.98-9.456 3.295-17.907 10.613-19.842 5.893-1.564 12.167 1.515 16.38 7.33l-1.988 11.904s-24.203 19.21-25.006.608"/></g><path fill="#D8E9F0" d="M468.337 268.398c2.92 11.012-1.487 21.735-9.844 23.951-8.357 2.216-17.5-4.914-20.42-15.927-2.92-11.01 1.489-21.735 9.846-23.95 8.356-2.217 17.498 4.914 20.418 15.926" mask="url(#f)"/><path stroke="#1B0C59" stroke-width="3.818" d="M468.337 268.398c2.92 11.012-1.487 21.735-9.844 23.951-8.357 2.216-17.5-4.914-20.42-15.927-2.92-11.01 1.489-21.735 9.846-23.95 8.356-2.217 17.498 4.914 20.418 15.926z" mask="url(#f)"/><path fill="#D8E9F0" d="M488.227 251.187c2.92 11.013-1.487 21.736-9.845 23.952-8.356 2.216-17.498-4.915-20.418-15.927-2.92-11.012 1.488-21.736 9.844-23.952 8.356-2.216 17.499 4.915 20.419 15.927" mask="url(#f)"/><path stroke="#1B0C59" stroke-width="3.818" d="M488.227 251.187c2.92 11.013-1.487 21.736-9.845 23.952-8.356 2.216-17.498-4.915-20.418-15.927-2.92-11.012 1.488-21.736 9.844-23.952 8.356-2.216 17.499 4.915 20.419 15.927z" mask="url(#f)"/><path fill="#191059" fill-opacity=".25" d="M355.405 118.219s-16.03 3.08-23.924 3.519c-7.895.437 0-26.906 0-26.906l24.958 11.768s7.153 7.748-1.034 11.619" mask="url(#f)"/><path fill="#191059" fill-opacity=".25" d="M359.28 112.161l1.768 5.693s23.271-1.399 24.958 5.694c1.687 7.092 7.498-17.652 2.284-25.346-5.214-7.695-29.01 13.959-29.01 13.959" mask="url(#f)"/><path fill="#191059" fill-opacity=".25" d="M390.415 102.337s-1.927 12.24 2.605 15.882c2.469 1.984 6.183 3.269 13.041 1.635 6.857-1.635 7.892.093 9.01 1.883 2.455 3.93 11.512-14.917 4.321-28.223-7.193-13.306-28.977 8.823-28.977 8.823" mask="url(#f)"/><path fill="#191059" fill-opacity=".25" d="M423.401 95.875s-3.37 19.8 5.321 25.862c8.694 6.063 16.583 4.698 21.872-5.63 5.29-10.328 2.612-20.298 2.612-20.298l-29.805.066z" mask="url(#f)"/><path fill="#191059" d="M469.2 234.978s-12.478 6.838-11.239 17.251c0 0-20.065-3.575-20.66 19.875l-2.279 1.603s-9.58-9.278-16.379-7.33c-6.799 1.948-13.007 11.925-10.614 19.841 2.395 7.915 45.177-12.684 45.177-12.684s23.944-24.706 15.993-38.556" mask="url(#f)"/><path fill="#EB586F" d="M346.852 271.952c-30.367 0-59.096-14.166-85.389-42.105-9.077-9.65-10.049-24.613-2.476-35.343v-.07l.818-1.039a28.865 28.865 0 0 1 2.861-3.126 27.878 27.878 0 0 1 19.178-7.608 28.143 28.143 0 0 1 20.405 8.811c15.497 16.474 30.166 24.482 44.848 24.482 4.58 0 9.18-.741 14.475-2.333 11.023-3.308 23.226-10.148 37.31-20.916.247-.203.5-.395.755-.586l.247-.187c9.447-7.284 18.698-15.469 27.285-23.227 21.716-19.591 44.192-29.524 66.808-29.524 4.12 0 8.294.335 12.411.996 40.94 6.555 62.74 43.111 65.09 47.257l1.878 3.312-27.173 15.508c4.084 6.654 7.57 14.104 10.384 22.205 2.453 7.065 2.008 14.662-1.252 21.391-3.26 6.734-8.95 11.791-16.018 14.243a27.803 27.803 0 0 1-9.18 1.559c-11.907 0-22.537-7.561-26.45-18.816-2.203-6.34-4.89-11.484-7.985-15.287-4.28-5.244-8.16-6.562-10.026-7.195-2.785-.946-6.013-1.425-9.596-1.425-16.448 0-36.406 10.077-42.94 14.091-19.926 15.257-37.55 24.868-55.454 30.24-10.359 3.113-20.727 4.692-30.814 4.692" mask="url(#f)"/><path fill="#1B0C59" d="M493.978 135.364h-.002c-23.59 0-46.926 10.263-69.363 30.504-8.52 7.7-17.69 15.813-27.048 23.032l-.197.15c-.288.214-.573.43-.851.657-13.692 10.462-25.481 17.088-36.04 20.257-4.931 1.482-9.182 2.172-13.378 2.172-13.572 0-27.332-7.615-42.066-23.278-6-6.367-14.45-10.015-23.189-10.015a31.682 31.682 0 0 0-21.79 8.642 32.672 32.672 0 0 0-3.25 3.55l-1.635 2.078v.221a31.886 31.886 0 0 0-5.099 18.653 31.794 31.794 0 0 0 8.612 20.475c27.043 28.737 56.708 43.307 88.17 43.307 10.46 0 21.198-1.633 31.915-4.853 18.308-5.494 36.274-15.266 56.516-30.742 6.425-3.915 25.344-13.429 40.776-13.428 3.165.001 5.98.412 8.367 1.223 1.649.56 4.71 1.6 8.303 6 2.807 3.447 5.274 8.2 7.33 14.118 4.447 12.791 16.526 21.382 30.058 21.382 3.56 0 7.076-.597 10.449-1.776 8.014-2.779 14.478-8.527 18.185-16.178 3.706-7.647 4.21-16.28 1.423-24.307-2.437-7.014-5.365-13.562-8.74-19.555l20.508-11.704 6.612-3.774-3.755-6.623c-2.442-4.31-25.103-42.307-67.808-49.146a82.546 82.546 0 0 0-13.013-1.042m-.002 7.636c3.933 0 7.87.315 11.808.946 39.02 6.25 60.107 41.375 62.374 45.371l-27.365 15.615c4.582 6.796 8.758 14.967 12.168 24.78 4.377 12.612-2.292 26.394-14.916 30.773a23.99 23.99 0 0 1-7.928 1.35c-10.016 0-19.37-6.263-22.844-16.253-2.636-7.585-5.678-12.816-8.63-16.444-4.976-6.095-9.697-7.699-11.76-8.399-3.357-1.142-7.023-1.629-10.822-1.629-17.636 0-38.221 10.491-45.11 14.763-16.8 12.88-34.745 23.838-54.383 29.73-10.078 3.03-19.98 4.531-29.715 4.531-29.31 0-56.992-13.682-82.61-40.904-8.285-8.807-8.68-22.195-1.45-31.448.012-.013.012-.025.012-.025a24.713 24.713 0 0 1 2.481-2.71 24.082 24.082 0 0 1 16.558-6.569 24.147 24.147 0 0 1 17.627 7.612c18.955 20.152 34.73 25.682 47.627 25.682 5.755 0 10.936-1.1 15.573-2.494 12.892-3.869 25.862-11.849 38.588-21.585.305-.255.623-.483.941-.725 9.341-7.204 18.555-15.324 27.529-23.43C450.755 152.57 472.308 143 493.976 143" mask="url(#f)"/><path fill="#C14960" d="M498.644 229.139c-4.977-6.096-9.697-7.7-11.76-8.4-18.95-6.44-47.56 7.942-55.933 13.134-16.8 12.88-34.745 23.838-54.382 29.73-10.08 3.029-19.981 4.53-29.717 4.53-29.31 0-56.99-13.681-82.608-40.902-8.286-8.808-8.68-22.196-1.451-31.448-.048.275-9.311 14.728 6.276 30.247 33.559 33.412 83.819 43.793 121.52 22.446 46.39-26.266 35.169-82.321 91.256-95.684 40.203-9.584 27.312 44.798 16.799 76.347" mask="url(#f)"/><path fill="#1B0C59" d="M436.328 301.355c9.367 1.248 18.823 1.96 25.784 1.96H733.36V0H462.112C394.534 0 331.053 46.172 317.69 105.3c-13.363 59.129 171.773-92.103 165.345 79.669-1.018 27.198-11.072 50.245-25.173 67.503-5.956 7.292-12.638 13.541-19.663 18.632a94.608 94.608 0 0 1-2.278 1.604c-7.763 5.306-15.896 9.201-23.888 11.517a53.482 53.482 0 0 0-3.105.993c-11.976 4.238-7.115 8.362 4.046 11.607l23.354 4.53z" mask="url(#f)"/><path stroke="#D8E9F0" stroke-linecap="round" stroke-linejoin="round" stroke-width="12.727" d="M406.243 66.356s14.835-34.273 54.613-13.5" mask="url(#f)"/><path fill="#1BE059" d="M29.943 312.25l12.194-.202v-10.111s-3.94 1.14-4.653.9c-2.05-.69-2.972-4.181-6.581-1.115-4.863 4.132-.96 10.529-.96 10.529" mask="url(#f)"/><g mask="url(#f)"><path fill="#1BE059" d="M35.413 301.37a12.425 12.425 0 0 1-1.271-2.095c-1.548-3.206-1.637-6.693.035-7.175 4.894-1.409 9.6 9.27 8.093 16.44"/><path stroke="#191059" stroke-linecap="round" stroke-linejoin="round" stroke-width="1.81" d="M35.413 301.37a12.425 12.425 0 0 1-1.271-2.095c-1.548-3.206-1.637-6.693.035-7.175 4.894-1.409 9.6 9.27 8.093 16.44"/></g><g mask="url(#f)"><path fill="#1BE059" d="M30.738 305.288c-.345-.21-.69-.443-1.03-.698-2.85-2.135-4.313-4.994-3.27-6.388 1.045-1.393 4.2-.791 7.049 1.343.69.517 1.3 1.078 1.812 1.649"/><path stroke="#191059" stroke-linecap="round" stroke-linejoin="round" stroke-width="1.81" d="M30.738 305.288c-.345-.21-.69-.443-1.03-.698-2.85-2.135-4.313-4.994-3.27-6.388 1.045-1.393 4.2-.791 7.049 1.343.69.517 1.3 1.078 1.812 1.649"/></g><g mask="url(#f)"><path fill="#1BE059" d="M29.222 308.54a7.632 7.632 0 0 1-.725-.14c-2.05-.495-3.517-1.71-3.275-2.712.242-1.002 2.101-1.415 4.152-.92.497.12.96.283 1.373.474"/><path stroke="#191059" stroke-linecap="round" stroke-linejoin="round" stroke-width="1.81" d="M29.222 308.54a7.632 7.632 0 0 1-.725-.14c-2.05-.495-3.517-1.71-3.275-2.712.242-1.002 2.101-1.415 4.152-.92.497.12.96.283 1.373.474"/></g><path fill="#A9B2B5" d="M560.663 308.48l-23.352.982-3.47 4.536-2.055 5.898 9.29 5.233 28.804-2 5.835-9.77z" mask="url(#f)"/><path fill="#707677" d="M541.076 325.13l-9.29-5.233 2.054-5.9 3.471-4.534 1.816-.076 4.955 3.805 7.84 4.317-1.75 6.989z" mask="url(#f)"/><path stroke="#191059" stroke-linecap="round" stroke-linejoin="round" stroke-width="2.728" d="M560.663 308.48l-23.352.982-3.47 4.536-2.055 5.898 9.29 5.233 28.804-2 5.835-9.77z" mask="url(#f)"/><path stroke="#191059" stroke-linecap="round" stroke-linejoin="round" stroke-width="2.728" d="M550.172 324.498l1.749-6.99 21.407-1.584m-21.408 1.585l-14.608-8.046" mask="url(#f)"/><path fill="#707677" d="M390.531 286.774l8.006-16.898 2.69 4.044 4.694 13.518-5.884 1.943z" mask="url(#f)"/><path fill="#A9B2B5" d="M401.228 273.92l-2.69-4.044-3.348.236-.603 4.966-4.404 6.318.349 5.378 5.993-2.155 2.364-9.588z" mask="url(#f)"/><path stroke="#191059" stroke-linecap="round" stroke-linejoin="round" stroke-width="1.81" d="M390.531 286.774l-.32-5.457 4.401-6.187.578-5.018 3.347-.236 2.69 4.044 4.694 13.518-5.884 1.943zm10.697-12.854l-2.106 1" mask="url(#f)"/><path stroke="#191059" stroke-linecap="round" stroke-linejoin="round" stroke-width="1.81" d="M395.19 270.112l3.698 4.92-2.364 9.587-5.993 2.155m14.866-.846l-8.873-1.31" mask="url(#f)"/><path fill="#FFF" d="M610.611 294.166c-.158 0-.314.012-.47.024-1.196-3.57-4.56-6.145-8.533-6.145-.242 0-.479.017-.717.036-1.676-5.017-6.153-8.75-11.584-9.313-2.555-9.037-10.857-15.661-20.712-15.661a21.4 21.4 0 0 0-10.924 3.002c-4.983-6.59-12.884-10.852-21.784-10.852-15.074 0-27.294 12.22-27.294 27.294 0 .534.02 1.064.05 1.592-2.534-3.701-6.789-6.13-11.613-6.13-2.275 0-4.418.553-6.32 1.512-3.026-3.918-7.756-6.451-13.089-6.451-7.573 0-13.953 5.09-15.917 12.035-.913.095-1.789.314-2.618.626-2.252-5.15-7.38-8.755-13.36-8.755-.902 0-1.78.094-2.636.25-3.019-8.24-10.92-14.123-20.208-14.123-11.888 0-21.526 9.639-21.526 21.528s9.638 21.528 21.526 21.528h186.713c.33.056.67.092 1.016.092a6.043 6.043 0 0 0 6.044-6.044 6.044 6.044 0 0 0-6.044-6.045" mask="url(#f)"/><path stroke="#191059" stroke-linecap="round" stroke-linejoin="round" stroke-width="3.095" d="M610.611 294.166c-.158 0-.314.012-.47.024-1.196-3.57-4.56-6.145-8.533-6.145-.242 0-.479.017-.717.036-1.676-5.017-6.153-8.75-11.584-9.313-2.555-9.037-10.857-15.661-20.712-15.661a21.4 21.4 0 0 0-10.924 3.002c-4.983-6.59-12.884-10.852-21.784-10.852-15.074 0-27.294 12.22-27.294 27.294 0 .534.02 1.064.05 1.592-2.534-3.701-6.789-6.13-11.613-6.13-2.275 0-4.418.553-6.32 1.512-3.026-3.918-7.756-6.451-13.089-6.451-7.573 0-13.953 5.09-15.917 12.035-.913.095-1.789.314-2.618.626-2.252-5.15-7.38-8.755-13.36-8.755-.902 0-1.78.094-2.636.25-3.019-8.24-10.92-14.123-20.208-14.123-11.888 0-21.526 9.639-21.526 21.528s9.638 21.528 21.526 21.528h186.713c.33.056.67.092 1.016.092a6.043 6.043 0 0 0 6.044-6.044 6.044 6.044 0 0 0-6.044-6.045z" mask="url(#f)"/><path fill="#707677" d="M572.906 290.028l13.191 9.075 5.81 14.648-.463 13.595-41.482-2.88 8.472-21.966z" mask="url(#f)"/><path fill="#A9B2B5" d="M591.444 327.347l13.38-7.537-6.858-19.695-22.25-9.31 10.6 8.85 5.59 14.096z" mask="url(#f)"/><path stroke="#191059" stroke-linecap="round" stroke-linejoin="round" stroke-width="2.728" d="M573.218 289.76l24.749 10.354 6.857 19.696-13.38 7.537-41.482-2.882 8.473-21.965z" mask="url(#f)"/><path stroke="#191059" stroke-linecap="round" stroke-linejoin="round" stroke-width="2.728" d="M591.444 327.347l.462-13.596-5.809-14.647-12.88-9.344" mask="url(#f)"/><path fill="#1BE059" d="M478.791 309.821c.011 1.122-.73 2.095-.73 2.095l-.005.003c-3.126 1.97-14.286 1.983-16.687.091 0 0-.287-.34-.298-1.377-.028-3.009 4.726-5.255 8.229-5.289 3.504-.034 9.463 1.47 9.491 4.477" mask="url(#f)"/><g mask="url(#f)"><path fill="#1BE059" d="M461.48 311.757c-.419-.467-1.824-1.354-3.23-3.983-1.337-2.497-1.518-5.141-.022-5.526 2.658-.683 5.287 2.063 6.652 5.566"/><path stroke="#191059" stroke-linecap="round" stroke-linejoin="round" stroke-width="1.81" d="M461.48 311.757c-.419-.467-1.824-1.354-3.23-3.983-1.337-2.497-1.518-5.141-.022-5.526 2.658-.683 5.287 2.063 6.652 5.566"/></g><g mask="url(#f)"><path fill="#1BE059" d="M464.775 307.495a10.009 10.009 0 0 1-.402-2.234c-.222-3.281 1.12-6.29 2.98-6.117 3.303.31 4.708 4.4 4.31 8.819"/><path stroke="#191059" stroke-linecap="round" stroke-linejoin="round" stroke-width="1.81" d="M464.775 307.495a10.009 10.009 0 0 1-.402-2.234c-.222-3.281 1.12-6.29 2.98-6.117 3.303.31 4.708 4.4 4.31 8.819"/></g><g mask="url(#f)"><path fill="#1BE059" d="M478.058 311.599c1.883-2.42 2.248-4.081 2.583-4.97 1.38-3.666.895-7.414-1.275-7.678-3.854-.468-6.551 4.129-7.62 9.24"/><path stroke="#191059" stroke-linecap="round" stroke-linejoin="round" stroke-width="1.81" d="M478.058 311.599c1.883-2.42 2.248-4.081 2.583-4.97 1.38-3.666.895-7.414-1.275-7.678-3.854-.468-6.551 4.129-7.62 9.24"/></g><path fill="#A9B2B5" d="M486.914 274.916l12.218-5.327 2.912 1.458 2.526 2.512-3.456 5.003-15.267 6.167-5.432-3.551z" mask="url(#f)"/><path stroke="#191059" stroke-linecap="round" stroke-linejoin="round" stroke-width="1.81" d="M486.914 274.916l12.218-5.327 2.912 1.458 2.526 2.512-3.456 5.003-15.267 6.167-5.432-3.551z" mask="url(#f)"/><path stroke="#191059" stroke-linecap="round" stroke-linejoin="round" stroke-width="1.81" d="M496.293 280.509l-2.643-3.146-11.371 4.533m11.371-4.534l8.394-6.315" mask="url(#f)"/><path fill="#A9B2B5" d="M538.307 229.901l.872-6.44-4.526-9.706-6.194 6.684-3.172 3.961 4.904 4.73z" mask="url(#f)"/><path fill="#707677" d="M538.307 229.901l.872-6.44-4.526-9.706-2.23 1.734-3.076 3.843-4.06 5.068 3.62-1.256z" mask="url(#f)"/><path stroke="#191059" stroke-linecap="round" stroke-linejoin="round" stroke-width="1.81" d="M538.307 229.901l.872-6.44-4.526-9.706-2.23 1.734-7.136 8.911 4.904 4.73z" mask="url(#f)"/><path stroke="#191059" stroke-linecap="round" stroke-linejoin="round" stroke-width="1.81" d="M538.307 229.901l-9.536-6.889.576-3.68m-4.06 5.068l3.483-1.388" mask="url(#f)"/><path fill="#A9B2B5" d="M553.37 254.634l-1.34 6.359 3.806 10.009 6.664-6.214 3.453-3.718-4.546-5.076z" mask="url(#f)"/><path stroke="#191059" stroke-linecap="round" stroke-linejoin="round" stroke-width="1.81" d="M553.37 254.634l-1.34 6.359 3.806 10.009 2.35-1.566 7.767-8.366-4.546-5.076z" mask="url(#f)"/><path stroke="#191059" stroke-linecap="round" stroke-linejoin="round" stroke-width="1.81" d="M553.37 254.634l9.008 7.565-.843 3.629m4.418-4.758l-3.575 1.13" mask="url(#f)"/><g mask="url(#f)"><path fill="#1BE059" d="M609.331 319.682a12.549 12.549 0 0 1-1.427-1.992c-1.787-3.078-2.142-6.55-.51-7.156 4.771-1.778 10.277 8.51 9.32 15.775"/><path stroke="#191059" stroke-linecap="round" stroke-linejoin="round" stroke-width="1.81" d="M609.331 319.682a12.549 12.549 0 0 1-1.427-1.992c-1.787-3.078-2.142-6.55-.51-7.156 4.771-1.778 10.277 8.51 9.32 15.775"/></g><g mask="url(#f)"><path fill="#1BE059" d="M604.968 323.944a13.52 13.52 0 0 1-1.08-.618c-3.003-1.91-4.68-4.652-3.745-6.119.933-1.469 4.126-1.11 7.13.801.727.463 1.378.976 1.93 1.506"/><path stroke="#191059" stroke-linecap="round" stroke-linejoin="round" stroke-width="1.81" d="M604.968 323.944a13.52 13.52 0 0 1-1.08-.618c-3.003-1.91-4.68-4.652-3.745-6.119.933-1.469 4.126-1.11 7.13.801.727.463 1.378.976 1.93 1.506"/></g><g mask="url(#f)"><path fill="#1BE059" d="M603.705 327.302a7.986 7.986 0 0 1-.733-.083c-2.083-.338-3.638-1.437-3.473-2.455.165-1.02 1.987-1.57 4.07-1.233.505.082.98.208 1.406.368"/><path stroke="#191059" stroke-linecap="round" stroke-linejoin="round" stroke-width="1.81" d="M603.705 327.302a7.986 7.986 0 0 1-.733-.083c-2.083-.338-3.638-1.437-3.473-2.455.165-1.02 1.987-1.57 4.07-1.233.505.082.98.208 1.406.368"/></g><path fill="#A9B2B5" d="M279.095 303.29l9.117 4.07 11.796 10.589-8.58 3.59-34.894-4.277 3.705-7.433z" mask="url(#f)"/><path fill="#707677" d="M279.432 304.315l3.199 6.524 8.798 10.701 8.579-3.59-12.746-11.014z" mask="url(#f)"/><path stroke="#191059" stroke-linecap="round" stroke-linejoin="round" stroke-width="1.81" d="M279.095 303.29l9.117 4.07 11.796 10.589-8.58 3.59-34.894-4.277 3.705-7.433z" mask="url(#f)"/><path stroke="#191059" stroke-linecap="round" stroke-linejoin="round" stroke-width="1.81" d="M279.432 304.315l2.077 4.648 9.92 12.577" mask="url(#f)"/><g mask="url(#f)"><path fill="#1BE059" d="M298.471 319.433a12.49 12.49 0 0 0 1.271-2.095c1.547-3.207 1.637-6.694-.036-7.176-4.893-1.409-9.599 9.27-8.092 16.44"/><path stroke="#191059" stroke-linecap="round" stroke-linejoin="round" stroke-width="1.81" d="M298.471 319.433a12.49 12.49 0 0 0 1.271-2.095c1.547-3.207 1.637-6.694-.036-7.176-4.893-1.409-9.599 9.27-8.092 16.44"/></g><g mask="url(#f)"><path fill="#1BE059" d="M303.146 323.35a13.35 13.35 0 0 0 1.03-.698c2.849-2.134 4.312-4.993 3.269-6.387-1.044-1.393-4.199-.792-7.049 1.343a12.598 12.598 0 0 0-1.812 1.649"/><path stroke="#191059" stroke-linecap="round" stroke-linejoin="round" stroke-width="1.81" d="M303.146 323.35a13.35 13.35 0 0 0 1.03-.698c2.849-2.134 4.312-4.993 3.269-6.387-1.044-1.393-4.199-.792-7.049 1.343a12.598 12.598 0 0 0-1.812 1.649"/></g><g mask="url(#f)"><path fill="#1BE059" d="M304.662 326.602c.237-.034.479-.08.724-.14 2.05-.495 3.518-1.709 3.276-2.712-.242-1.002-2.101-1.415-4.152-.919a7.4 7.4 0 0 0-1.373.473"/><path stroke="#191059" stroke-linecap="round" stroke-linejoin="round" stroke-width="1.81" d="M304.662 326.602c.237-.034.479-.08.724-.14 2.05-.495 3.518-1.709 3.276-2.712-.242-1.002-2.101-1.415-4.152-.919a7.4 7.4 0 0 0-1.373.473"/></g><path fill="#1B0C59" fill-opacity=".25" d="M133.758 308.554c0 1.447-12.309 2.62-27.493 2.62s-27.492-1.173-27.492-2.62 12.308-2.62 27.492-2.62c15.184 0 27.493 1.173 27.493 2.62" mask="url(#f)"/></g></svg>