<svg xmlns="http://www.w3.org/2000/svg" width="139" height="120"><g fill="none" fill-rule="evenodd" transform="translate(2 .41)"><circle cx="64.291" cy="72.095" r="45.205" stroke="#1B0C59" stroke-linecap="round" stroke-linejoin="round" stroke-width="3.308"/><g transform="translate(79.59 58.727)"><path fill="#FFF" stroke="#1B0C59" stroke-width="2.5" d="M32.686 35.623v6.182c0 2.318-1.545 4.25-3.709 4.79-.386.078-.772.155-1.159.155a4.93 4.93 0 0 1-4.945-4.945v-6.182h9.813z"/><path fill="#2AC6EA" d="M32.686 35.623v6.182c0 2.318-1.545 4.25-3.709 4.79-2.163-.54-3.709-2.472-3.709-4.79v-6.182h7.418z"/><path stroke="#1B0C59" stroke-width="2.5" d="M27.818 46.673c-2.704 0-4.945-2.241-4.945-4.946v-6.182h9.813v6.182c0 2.782-2.163 4.946-4.868 4.946z"/><g transform="translate(0 13.136)"><path fill="#1B0C59" stroke="#1B0C59" stroke-width="2.5" d="M52.005 25.19c-4.405-3.013-10.432-1.622-13.06 2.86-2.627 4.405-.927 10.123 3.478 12.673l6.954 4.095c.387.232.85.077 1.082-.309l3.786-6.49c2.782-4.56 1.778-10.046-2.24-12.828zm-48.373.31c4.095-3.477 10.2-2.627 13.29 1.623 3.014 4.095 1.855 9.968-2.24 12.982l-6.568 4.79c-.31.232-.85.155-1.082-.154l-4.405-6.027C-.54 34.154-.077 28.59 3.632 25.5z"/><circle cx="45.591" cy="23.723" r="4.636" stroke="#1B0C59" stroke-width="2.5"/><circle cx="45.591" cy="23.723" r="4.636" fill="#EB586F"/><circle cx="11.514" cy="23.723" r="4.636" stroke="#1B0C59" stroke-width="2.5"/><circle cx="11.514" cy="23.723" r="4.636" fill="#EB586F"/><circle cx="14.991" cy="11.127" r="10.664" fill="#1B0C59" stroke="#1B0C59" stroke-width="2.5"/><circle cx="40.955" cy="11.205" r="10.664" fill="#1B0C59" stroke="#1B0C59" stroke-width="2.5"/></g><circle cx="12.595" cy="25.732" r="4.945" fill="#FFF"/><circle cx="14.45" cy="25.732" r="4.945" fill="#2AC6EA"/><circle cx="12.595" cy="25.732" r="4.945" stroke="#1B0C59" stroke-width="2.5"/><circle cx="43.195" cy="25.732" r="4.945" fill="#FFF"/><circle cx="41.264" cy="25.732" r="4.945" fill="#2AC6EA"/><circle cx="43.195" cy="25.732" r="4.945" stroke="#1B0C59" stroke-width="2.5"/><path fill="#FFF" stroke="#1B0C59" stroke-width="2.5" d="M43.505 25.732c0 8.036-6.105 14.604-13.91 15.377-.54.077-1.004.077-1.545.077-8.5 0-15.455-6.954-15.455-15.454s6.878-15.455 15.455-15.455c.54 0 1.005 0 1.545.078 7.882.772 13.91 7.34 13.91 15.377z"/><path fill="#2AC6EA" d="M43.505 25.732c0 8.036-6.105 14.604-13.91 15.377-7.804-.773-13.909-7.34-13.909-15.377s6.105-14.605 13.91-15.377c7.881.772 13.909 7.34 13.909 15.377z"/><circle cx="28.05" cy="25.732" r="15.455" stroke="#1B0C59" stroke-width="2.5"/><g stroke="#1B0C59" stroke-width="1.5"><path fill="#FFF" d="M28.05 36.24c-1.545 0-3.014-.463-4.327-1.39-1.005-.773-1.237-2.24-.464-3.245.773-1.005 2.241-1.237 3.246-.464a2.55 2.55 0 0 0 3.09 0c1.005-.773 2.473-.541 3.246.464.773 1.004.54 2.472-.464 3.245-1.236.927-2.782 1.39-4.327 1.39z"/><path d="M25.886 30.832s-1.468 3.323-1.159 4.636m5.487-4.636s1.468 3.323 1.159 4.636M28.05 31.76v4.48"/></g><path fill="#1B0C59" stroke="#1B0C59" stroke-width="2.5" d="M22.023 6.414a6.149 6.149 0 0 1 5.718 6.568 6.149 6.149 0 0 1-6.568 5.718l-6.105-.464.464-6.104c.154-3.4 3.09-5.95 6.49-5.718z"/><path fill="#1B0C59" stroke="#1B0C59" stroke-width="2.5" d="M34.386.386c-5.022.31-8.886 4.637-8.577 9.66.31 5.022 4.636 8.886 9.66 8.577l9.117-.541-.54-9.118C43.813 3.94 39.408.077 34.385.386z"/><path stroke="#1B0C59" stroke-linecap="round" stroke-linejoin="round" stroke-width="2.5" d="M18.855 25.268c1.313-1.545 2.936-1.545 4.25 0m9.581 0c1.314-1.545 2.937-1.545 4.25 0"/></g><g transform="translate(0 59.5)"><path fill="#1B0C59" stroke="#1B0C59" stroke-width="2.5" d="M34.232 2.24v24.574H3.94V2.24c0-1.082.85-1.932 1.932-1.932h26.35c1.082 0 2.009.927 2.009 1.932z"/><path fill="#FFF" stroke="#454553" stroke-width="2.5" d="M23.105 37.09v5.41c0 2.01-1.391 3.71-3.246 4.173a4.56 4.56 0 0 1-1.082.154c-2.395 0-4.25-1.932-4.25-4.327v-5.41h8.578z"/><path fill="#2AC6EA" d="M23.105 37.09v5.41c0 2.01-1.391 3.71-3.246 4.173a4.313 4.313 0 0 1-3.245-4.173v-5.41h6.49z"/><path stroke="#1B0C59" stroke-width="2.5" d="M18.855 46.827a4.32 4.32 0 0 1-4.328-4.327v-5.41h8.578v5.41c0 2.395-1.932 4.327-4.25 4.327z"/><circle cx="19.086" cy="26.814" r="15.145" fill="#FFF"/><path fill="#FFF" stroke="#454553" stroke-width="2.5" d="M34.232 22.95c2.163 0 3.863 1.7 3.863 3.864 0 2.163-1.7 3.863-3.863 3.863"/><path fill="#2AC6EA" d="M32.532 22.873c2.163 0 3.863 1.7 3.863 3.863 0 2.164-1.7 3.864-3.863 3.864"/><path stroke="#1B0C59" stroke-width="2.5" d="M34.232 22.95c2.163 0 3.863 1.7 3.863 3.864 0 2.163-1.7 3.863-3.863 3.863"/><path fill="#FFF" stroke="#454553" stroke-width="2.5" d="M3.94 22.95a3.826 3.826 0 0 0-3.863 3.864c0 2.163 1.7 3.863 3.864 3.863"/><path fill="#2AC6EA" d="M5.795 22.873a3.826 3.826 0 0 0-3.863 3.863c0 2.164 1.7 3.864 3.863 3.864"/><path stroke="#1B0C59" stroke-width="2.5" d="M3.94 22.95a3.826 3.826 0 0 0-3.863 3.864c0 2.163 1.7 3.863 3.864 3.863"/><circle cx="19.086" cy="26.814" r="15.145" fill="#FFF"/><path fill="#2AC6EA" d="M34.232 26.814c0 7.881-6.027 14.295-13.677 15.068-7.65-.773-13.678-7.187-13.678-15.068 0-7.882 6.028-14.296 13.678-15.069 7.65.773 13.677 7.264 13.677 15.069z"/><path stroke="#1B0C59" stroke-width="2.5" d="M34.232 26.814c0 7.881-6.027 14.295-13.677 15.068-.464.077-1.005.077-1.469.077-8.345 0-15.145-6.8-15.145-15.145 0-8.346 6.8-15.146 15.145-15.146.464 0 1.005 0 1.469.077 7.65.773 13.677 7.264 13.677 15.069z"/><path fill="#1B0C59" stroke="#1B0C59" stroke-width="2.5" d="M8.423 18.314c-.155.695-.464 1.313-1.005 1.777l-2.473 2.473-.231-.232-.696-.696v-7.418c1.237-.386 2.55-.077 3.477.927.387.387.619.773.773 1.16.232.618.31 1.313.155 2.009zm25.809-3.941v7.186l-.696.696-.463.463-2.473-2.473c-.54-.54-.85-1.159-.927-1.854-.155-.696 0-1.391.232-2.086.154-.387.386-.773.772-1.082.928-1.005 2.318-1.237 3.555-.85z"/><path fill="#1B0C59" stroke="#1B0C59" stroke-width="2.5" d="M3.941 12.441h30.214v5.873H3.941z"/><g stroke="#1B0C59" stroke-width="1.5"><path fill="#FFF" d="M19.086 36.086c-1.313 0-2.627-.386-3.709-1.236-.927-.695-1.082-1.932-.386-2.782.695-.927 1.932-1.082 2.782-.386.772.618 1.854.618 2.704 0a1.965 1.965 0 0 1 2.782.386 1.965 1.965 0 0 1-.386 2.782c-1.16.773-2.473 1.236-3.787 1.236z"/><path d="M17.155 31.295s-1.314 2.86-1.005 4.019m4.79-3.941s1.315 2.859 1.005 4.018m-2.859-3.323v4.018"/></g><path stroke="#1B0C59" stroke-linecap="round" stroke-linejoin="round" stroke-width="2.5" d="M9.814 26.195c1.313-1.545 2.936-1.545 4.25 0m9.581 0c1.314-1.545 2.937-1.545 4.25 0"/></g><path fill="#FFF" stroke="#1B0C59" stroke-linecap="round" stroke-linejoin="round" stroke-width="2.5" d="M72.636 31.527v9.66c0 2.318-.927 4.404-2.472 5.872-1.546 1.546-3.632 2.473-5.873 2.473h-.077a8.31 8.31 0 0 1-8.346-8.346v-9.659h16.768z"/><path fill="#2AC6EA" d="M72.636 29.132v9.659c0 2.318-.927 4.404-2.472 5.873-1.546 1.545-3.632 2.472-5.873 2.472h-.077a8.31 8.31 0 0 1-8.346-8.345v-9.66h16.768z"/><path stroke="#1B0C59" stroke-linecap="round" stroke-linejoin="round" stroke-width="2.5" d="M72.636 31.527v9.66c0 2.318-.927 4.404-2.472 5.872-1.546 1.546-3.632 2.473-5.873 2.473h-.077a8.31 8.31 0 0 1-8.346-8.346v-9.659h16.768z"/><path fill="#FFF" d="M73.486 40.49H54.941c-3.4 0-6.182-2.78-6.182-6.18V14.217h30.91V34.31c0 3.4-2.783 6.182-6.183 6.182z"/><path fill="#2AC6EA" d="M74.26 37.555H54.167a5.376 5.376 0 0 1-5.409-5.41v-17.54h30.91v17.618c0 2.936-2.396 5.332-5.41 5.332z"/><path fill="#EB586F" d="M48.913 14.218h30.6v4.714h-30.6z"/><path stroke="#1B0C59" stroke-linecap="round" stroke-linejoin="round" stroke-width="2.5" d="M73.486 40.49H54.941c-3.4 0-6.182-2.78-6.182-6.18V14.217h30.91V34.31c0 3.4-2.783 6.182-6.183 6.182z"/><path fill="#2AC6EA" d="M78.74 2.01v7.958c0 .927-.772 1.7-1.7 1.7H51.465c-.928 0-1.7-.773-1.7-1.7V2.01c0-.927.772-1.7 1.7-1.7h2.395c.927 0 1.7.773 1.7 1.7 0 .927.773 1.7 1.7 1.7h2.396c.927 0 1.7-.773 1.7-1.7 0-.927.772-1.7 1.7-1.7h2.395c.927 0 1.7.773 1.7 1.7 0 .927.773 1.7 1.7 1.7h2.395c.928 0 1.7-.773 1.7-1.7 0-.927.773-1.7 1.7-1.7h2.396c.927 0 1.7.696 1.7 1.7z"/><path stroke="#1B0C59" stroke-linecap="round" stroke-linejoin="round" stroke-width="2.5" d="M79.668 5.023v9.195H48.76V5.023h6.182v3.09h6.182v-3.09h6.182v3.09h6.181v-3.09zm-.154 13.832h-30.6"/><path fill="#1B0C59" d="M73.177 29.75H55.25a1.55 1.55 0 0 1-1.545-1.545v-5.1h21.018v5.1a1.55 1.55 0 0 1-1.546 1.545z"/><path fill="#1B0C59" d="M60.891 23.105h6.645v17.386h-6.645z"/><path stroke="#EB586F" stroke-linecap="round" stroke-linejoin="round" stroke-width="2.5" d="M42.81 15.532l-3.71-3.323m3.245 6.181h-3.09m6.105-3.708V12.44M85.618 15.532l3.71-3.323m-3.246 6.181h3.09m-6.104-3.708V12.44"/><g stroke="#1B0C59" stroke-linecap="round" stroke-linejoin="round" stroke-width="2.5" transform="translate(51.773 57.955)"><path d="M12.44 4.714v14.14c0 3.864 3.17 7.032 7.033 7.032"/><path d="M12.44 4.714v14.14c0 3.864 3.17 7.032 7.033 7.032M12.44 4.714v14.14c0 3.864-3.167 7.032-7.03 7.032"/><circle cx="2.395" cy="25.886" r="2.318"/><circle cx="22.564" cy="25.886" r="2.318"/><circle cx="12.441" cy="2.395" r="2.318"/></g></g></svg>