<svg xmlns="http://www.w3.org/2000/svg" width="102" height="84"><g fill="none" fill-rule="evenodd"><path fill="#D8E9F0" d="M1 38h100v-7H1z"/><path fill="#1B0C59" d="M1.53 36.213h98.74v-4.961H1.53v4.96zm99.505 1.518H.765A.762.762 0 0 1 0 36.97v-6.477c0-.42.343-.76.765-.76h100.27c.423 0 .765.34.765.76v6.478c0 .42-.342.759-.765.759z"/><path fill="#D8E9F0" d="M.765 55.341h100.27v-6.478H.765z"/><path fill="#1B0C59" d="M1.53 54.582h98.74v-4.96H1.53v4.96zm99.505 1.518H.765A.762.762 0 0 1 0 55.34v-6.477c0-.42.343-.76.765-.76h100.27c.423 0 .765.34.765.76v6.478a.762.762 0 0 1-.765.759z"/><path fill="#D8E9F0" d="M35.629 83.31h6.53V1.123h-6.53z"/><path fill="#1B0C59" d="M36.324 82.62h5.139V1.813h-5.139V82.62zM42.158 84h-6.53a.692.692 0 0 1-.695-.69V1.123c0-.38.312-.69.696-.69h6.53c.383 0 .694.31.694.69V83.31c0 .381-.31.69-.695.69z"/><path fill="#D8E9F0" d="M59.698 83.31h6.53V1.123h-6.53z"/><path fill="#1B0C59" d="M60.394 82.62h5.138V1.813h-5.138V82.62zM66.228 84h-6.53a.693.693 0 0 1-.695-.69V1.123c0-.38.312-.69.696-.69h6.529c.384 0 .695.31.695.69V83.31c0 .381-.311.69-.695.69z"/><path fill="#EB586F" d="M8.005 39.912h13.637V26.381H8.005z"/><path fill="#1B0C59" d="M8.77 39.153h12.107V27.14H8.769v12.013zm12.872 1.518H8.004a.762.762 0 0 1-.765-.759V26.381c0-.42.343-.76.765-.76h13.638c.423 0 .765.34.765.76v13.531a.762.762 0 0 1-.765.76z"/><path fill="#2AC6EA" d="M32.074 39.912h13.638V26.381H32.074z"/><path fill="#1B0C59" d="M32.84 39.153h12.107V27.14H32.84v12.013zm12.872 1.518H32.074a.762.762 0 0 1-.765-.759V26.381c0-.42.343-.76.765-.76h13.638c.423 0 .765.34.765.76v13.531a.762.762 0 0 1-.765.76z"/><path fill="#FCFCFC" d="M56.144 39.912h13.638V26.381H56.144z"/><path fill="#1B0C59" d="M56.91 39.153h12.107V27.14H56.909v12.013zm12.872 1.518H56.144a.762.762 0 0 1-.765-.759V26.381c0-.42.343-.76.765-.76h13.638c.422 0 .765.34.765.76v13.531a.762.762 0 0 1-.765.76z"/><path fill="#FFF" d="M80.214 39.912h13.638V26.381H80.214z"/><path fill="#1B0C59" d="M80.979 39.153h12.108V27.14H80.979v12.013zm12.873 1.518H80.214a.762.762 0 0 1-.765-.759V26.381c0-.42.343-.76.765-.76h13.638c.423 0 .765.34.765.76v13.531a.762.762 0 0 1-.765.76z"/><path fill="#EB586F" d="M8.005 58.867h13.637v-13.53H8.005z"/><path fill="#1B0C59" d="M8.77 58.108h12.107V46.095H8.769v12.013zm12.872 1.518H8.004a.762.762 0 0 1-.765-.759v-13.53c0-.42.343-.76.765-.76h13.638c.423 0 .765.34.765.76v13.53a.762.762 0 0 1-.765.76z"/><path fill="#2AC6EA" d="M32.074 58.867h13.638v-13.53H32.074z"/><path fill="#1B0C59" d="M32.84 58.108h12.107V46.095H32.84v12.013zm12.872 1.518H32.074a.762.762 0 0 1-.765-.759v-13.53c0-.42.343-.76.765-.76h13.638c.423 0 .765.34.765.76v13.53a.762.762 0 0 1-.765.76z"/><path fill="#EB586F" d="M56.144 58.867h13.638v-13.53H56.144z"/><path fill="#1B0C59" d="M56.91 58.108h12.107V46.095H56.909v12.013zm12.872 1.518H56.144a.762.762 0 0 1-.765-.759v-13.53c0-.42.343-.76.765-.76h13.638c.422 0 .765.34.765.76v13.53a.762.762 0 0 1-.765.76z"/><path fill="#FFF" d="M80.214 58.867h13.638v-13.53H80.214z"/><path fill="#1B0C59" d="M80.979 58.108h12.108V46.095H80.979v12.013zm12.873 1.518H80.214a.762.762 0 0 1-.765-.759v-13.53c0-.42.343-.76.765-.76h13.638c.423 0 .765.34.765.76v13.53a.762.762 0 0 1-.765.76z"/><path fill="#FFF" d="M32.074 20.956h13.638V7.426H32.074z"/><path fill="#1B0C59" d="M32.84 20.197h12.107V8.184H32.84v12.013zm12.872 1.519H32.074a.762.762 0 0 1-.765-.76V7.426c0-.42.343-.76.765-.76h13.638c.423 0 .765.34.765.76v13.53a.762.762 0 0 1-.765.76z"/><path fill="#EB586F" d="M32.074 77.823h13.638V64.291H32.074z"/><path fill="#1B0C59" d="M32.84 77.064h12.107V65.05H32.84v12.014zm12.872 1.518H32.074a.762.762 0 0 1-.765-.759V64.291c0-.419.343-.759.765-.759h13.638c.423 0 .765.34.765.76v13.531a.762.762 0 0 1-.765.759z"/><path fill="#EB586F" d="M18.263 33.147c0 1.884-1.54 3.412-3.44 3.412s-3.439-1.528-3.439-3.412c0-1.885 1.54-3.413 3.44-3.413 1.899 0 3.439 1.528 3.439 3.413"/><path fill="#1B0C59" d="M14.823 30.493c-1.475 0-2.674 1.19-2.674 2.654 0 1.462 1.2 2.653 2.674 2.653 1.475 0 2.675-1.19 2.675-2.653s-1.2-2.654-2.675-2.654m0 6.825c-2.318 0-4.204-1.872-4.204-4.171 0-2.3 1.886-4.172 4.204-4.172 2.319 0 4.205 1.871 4.205 4.172 0 2.3-1.886 4.17-4.205 4.17m48.14-6.824c-1.475 0-2.674 1.19-2.674 2.654 0 1.462 1.2 2.653 2.674 2.653 1.475 0 2.675-1.19 2.675-2.653s-1.2-2.654-2.675-2.654m0 6.825c-2.318 0-4.204-1.872-4.204-4.171 0-2.3 1.886-4.172 4.204-4.172 2.319 0 4.205 1.871 4.205 4.172 0 2.3-1.886 4.17-4.205 4.17m-48.14 11.958c-1.475 0-2.674 1.19-2.674 2.653 0 1.464 1.2 2.654 2.674 2.654 1.475 0 2.675-1.19 2.675-2.654 0-1.462-1.2-2.653-2.675-2.653m0 6.825c-2.318 0-4.204-1.871-4.204-4.172 0-2.3 1.886-4.171 4.204-4.171 2.319 0 4.205 1.871 4.205 4.171 0 2.3-1.886 4.172-4.205 4.172m21.661-20.815h4.818l-2.408-4.14-2.41 4.14zm6.143 1.518H35.16a.765.765 0 0 1-.662-.38.751.751 0 0 1 0-.758l3.734-6.418a.765.765 0 0 1 .663-.38c.273 0 .525.146.662.38l3.734 6.418a.754.754 0 0 1 0 .759.766.766 0 0 1-.663.38zm41.997-1.518h4.818l-2.41-4.14-2.408 4.14zm6.143 1.518H83.3a.765.765 0 0 1-.662-.38.751.751 0 0 1 0-.758l3.733-6.418a.765.765 0 0 1 .663-.38c.273 0 .526.146.662.38l3.735 6.418a.754.754 0 0 1 0 .759.766.766 0 0 1-.663.38z"/><path fill="#2AC6EA" d="M56.144 77.823h13.638V64.291H56.144z"/><path fill="#1B0C59" d="M56.91 77.064h12.107V65.05H56.909v12.014zm12.872 1.518H56.144a.762.762 0 0 1-.765-.759V64.291c0-.419.343-.759.765-.759h13.638c.422 0 .765.34.765.76v13.531a.762.762 0 0 1-.765.759zM84.624 54.75h4.818l-2.41-4.14-2.408 4.14zm6.143 1.519H83.3a.765.765 0 0 1-.662-.38.751.751 0 0 1 0-.759l3.733-6.417a.765.765 0 0 1 .663-.38c.273 0 .526.145.662.38l3.735 6.417a.754.754 0 0 1 0 .759.766.766 0 0 1-.663.38zM36.484 16.64h4.818l-2.408-4.14-2.41 4.14zm6.143 1.519H35.16a.765.765 0 0 1-.662-.38.751.751 0 0 1 0-.759l3.734-6.417a.765.765 0 0 1 .663-.38c.273 0 .525.145.662.38l3.734 6.417a.754.754 0 0 1 0 .76.766.766 0 0 1-.663.379z"/><path fill="#2AC6EA" d="M56.144 20.956h13.638V7.426H56.144z"/><path fill="#1B0C59" d="M56.91 20.197h12.107V8.184H56.909v12.013zm12.872 1.519H56.144a.762.762 0 0 1-.765-.76V7.426c0-.42.343-.76.765-.76h13.638c.422 0 .765.34.765.76v13.53a.762.762 0 0 1-.765.76zM61.404 54.98h3.118l1.559-2.68-1.56-2.679h-3.117l-1.559 2.68 1.56 2.679zm3.56 1.518h-4.001a.766.766 0 0 1-.663-.38l-2-3.438a.754.754 0 0 1 0-.759l2-3.438a.766.766 0 0 1 .663-.38h4c.274 0 .527.145.663.38l2 3.438a.751.751 0 0 1 0 .76l-2 3.437a.765.765 0 0 1-.663.38z"/><path fill="#1B0C59" d="M61.404 16.671h3.118l1.559-2.679-1.56-2.68h-3.117l-1.559 2.68 1.56 2.68zm3.56 1.518h-4.001a.766.766 0 0 1-.663-.38l-2-3.437a.754.754 0 0 1 0-.76l2-3.438a.766.766 0 0 1 .663-.38h4c.274 0 .527.145.663.38l2 3.439a.751.751 0 0 1 0 .759l-2 3.438a.765.765 0 0 1-.663.38zM37.335 54.98h3.117l1.56-2.68-1.56-2.679h-3.117l-1.56 2.68 1.56 2.679zm3.559 1.518h-4.001a.766.766 0 0 1-.663-.38l-2-3.438a.754.754 0 0 1 0-.759l2-3.438a.766.766 0 0 1 .663-.38h4c.275 0 .527.145.663.38l2.001 3.438a.751.751 0 0 1 0 .76l-2 3.437a.765.765 0 0 1-.663.38zm-3.559 17.238h3.117l1.56-2.679-1.56-2.68h-3.117l-1.56 2.68 1.56 2.68zm3.559 1.518h-4.001a.766.766 0 0 1-.663-.38l-2-3.437a.754.754 0 0 1 0-.76l2-3.438a.766.766 0 0 1 .663-.38h4c.275 0 .527.146.663.38l2.001 3.439a.751.751 0 0 1 0 .759l-2 3.438a.765.765 0 0 1-.663.38zm22.069-6.85c-1.475 0-2.674 1.19-2.674 2.653s1.2 2.653 2.674 2.653c1.475 0 2.675-1.19 2.675-2.653s-1.2-2.653-2.675-2.653m0 6.824c-2.318 0-4.204-1.87-4.204-4.17 0-2.301 1.886-4.172 4.204-4.172 2.319 0 4.205 1.87 4.205 4.171 0 2.3-1.886 4.171-4.205 4.171"/></g></svg>