<svg xmlns="http://www.w3.org/2000/svg" width="92" height="99"><g fill="none" fill-rule="evenodd"><path stroke="#FFF" stroke-width="2.5" d="M74.288 48.515v-5a2.688 2.688 0 0 0-2.299-2.66l-2.087-.305a2.694 2.694 0 0 1-2.145-1.77 21.796 21.796 0 0 0-.84-2.028 2.695 2.695 0 0 1 .263-2.773l1.26-1.692a2.689 2.689 0 0 0-.255-3.507l-3.536-3.536a2.689 2.689 0 0 0-3.506-.255l-1.693 1.26a2.697 2.697 0 0 1-2.773.265 21.185 21.185 0 0 0-2.028-.841 2.696 2.696 0 0 1-1.77-2.146l-.304-2.087a2.689 2.689 0 0 0-2.66-2.299h-5.001a2.688 2.688 0 0 0-2.66 2.299l-.305 2.087a2.694 2.694 0 0 1-1.77 2.146c-.693.246-1.37.527-2.028.84-.904.43-1.97.335-2.772-.263l-1.693-1.26a2.689 2.689 0 0 0-3.506.254l-3.536 3.536a2.688 2.688 0 0 0-.256 3.507l1.26 1.692c.599.803.695 1.87.264 2.773a21.48 21.48 0 0 0-.84 2.028 2.694 2.694 0 0 1-2.145 1.77l-2.088.305a2.688 2.688 0 0 0-2.299 2.66v5c0 1.335.979 2.467 2.299 2.66l2.088.305c.989.145 1.81.83 2.145 1.77.246.694.527 1.37.84 2.028.431.904.335 1.97-.263 2.773l-1.26 1.692a2.688 2.688 0 0 0 .255 3.507l3.536 3.535a2.687 2.687 0 0 0 3.506.256l1.693-1.26a2.693 2.693 0 0 1 2.772-.264c.658.313 1.335.594 2.028.841a2.692 2.692 0 0 1 1.77 2.145l.305 2.087a2.688 2.688 0 0 0 2.66 2.299h5a2.689 2.689 0 0 0 2.66-2.3l.306-2.086c.145-.989.828-1.81 1.77-2.145.693-.247 1.369-.528 2.027-.84a2.695 2.695 0 0 1 2.773.262l1.693 1.26a2.687 2.687 0 0 0 3.506-.255l3.536-3.535a2.689 2.689 0 0 0 .255-3.507l-1.26-1.692a2.695 2.695 0 0 1-.264-2.773c.313-.658.594-1.334.841-2.028a2.695 2.695 0 0 1 2.145-1.77l2.087-.305a2.687 2.687 0 0 0 2.299-2.66z"/><path fill="#1B0C59" d="M33.828 55.253a1.681 1.681 0 0 1-1.73.165c-.41-.196-.831-.371-1.263-.525a1.677 1.677 0 0 1-1.103-1.337l-.19-1.3a1.676 1.676 0 0 0-1.658-1.434h-3.117c-.832 0-1.538.61-1.657 1.433l-.191 1.3a1.678 1.678 0 0 1-1.103 1.338c-.432.154-.854.329-1.264.525a1.681 1.681 0 0 1-1.73-.165l-1.053-.786a1.675 1.675 0 0 0-2.186.16L13.38 56.83a1.676 1.676 0 0 0-.16 2.186l.787 1.055c.372.5.432 1.164.164 1.728-.195.41-.37.832-.524 1.264a1.676 1.676 0 0 1-1.338 1.102l-1.3.192a1.675 1.675 0 0 0-1.433 1.657v3.117c0 .832.61 1.537 1.433 1.658l1.3.19c.617.09 1.129.517 1.338 1.103.154.433.329.854.524 1.265a1.682 1.682 0 0 1-.164 1.728l-.787 1.055a1.676 1.676 0 0 0 .16 2.185l2.204 2.205a1.677 1.677 0 0 0 2.186.158l1.054-.786a1.683 1.683 0 0 1 1.729-.164c.41.195.832.371 1.264.525.587.208 1.013.72 1.103 1.336l.19 1.302c.12.823.826 1.433 1.658 1.433h3.117c.832 0 1.537-.61 1.658-1.433l.19-1.302a1.675 1.675 0 0 1 1.103-1.336c.432-.155.854-.33 1.264-.525a1.683 1.683 0 0 1 1.729.164l1.054.786a1.678 1.678 0 0 0 2.186-.158l2.204-2.205a1.677 1.677 0 0 0 .16-2.185l-.786-1.055a1.68 1.68 0 0 1-.165-1.728c.196-.41.37-.832.524-1.265a1.68 1.68 0 0 1 1.337-1.102l1.301-.19a1.675 1.675 0 0 0 1.433-1.66v-3.116c0-.83-.61-1.537-1.433-1.657l-1.3-.192a1.677 1.677 0 0 1-1.338-1.102 13.212 13.212 0 0 0-.524-1.264 1.68 1.68 0 0 1 .165-1.728l.785-1.055a1.676 1.676 0 0 0-.159-2.186l-2.204-2.204a1.675 1.675 0 0 0-1.258-.49l-1.982 1.117z"/><path stroke="#1B0C59" stroke-width="2.5" d="M33.828 55.253a1.681 1.681 0 0 1-1.73.165c-.41-.196-.831-.371-1.263-.525a1.677 1.677 0 0 1-1.103-1.337l-.19-1.3a1.676 1.676 0 0 0-1.658-1.434h-3.117c-.832 0-1.538.61-1.657 1.433l-.191 1.3a1.678 1.678 0 0 1-1.103 1.338c-.432.154-.854.329-1.264.525a1.681 1.681 0 0 1-1.73-.165l-1.053-.786a1.675 1.675 0 0 0-2.186.16L13.38 56.83a1.676 1.676 0 0 0-.16 2.186l.787 1.055c.372.5.432 1.164.164 1.728-.195.41-.37.832-.524 1.264a1.676 1.676 0 0 1-1.338 1.102l-1.3.192a1.675 1.675 0 0 0-1.433 1.657v3.117c0 .832.61 1.537 1.433 1.658l1.3.19c.617.09 1.129.517 1.338 1.103.154.433.329.854.524 1.265a1.682 1.682 0 0 1-.164 1.728l-.787 1.055a1.676 1.676 0 0 0 .16 2.185l2.204 2.205a1.677 1.677 0 0 0 2.186.158l1.054-.786a1.683 1.683 0 0 1 1.729-.164c.41.195.832.371 1.264.525.587.208 1.013.72 1.103 1.336l.19 1.302c.12.823.826 1.433 1.658 1.433h3.117c.832 0 1.537-.61 1.658-1.433l.19-1.302a1.675 1.675 0 0 1 1.103-1.336c.432-.155.854-.33 1.264-.525a1.683 1.683 0 0 1 1.729.164l1.054.786a1.678 1.678 0 0 0 2.186-.158l2.204-2.205a1.677 1.677 0 0 0 .16-2.185l-.786-1.055a1.68 1.68 0 0 1-.165-1.728c.196-.41.37-.832.524-1.265a1.68 1.68 0 0 1 1.337-1.102l1.301-.19a1.675 1.675 0 0 0 1.433-1.66v-3.116c0-.83-.61-1.537-1.433-1.657l-1.3-.192a1.677 1.677 0 0 1-1.338-1.102 13.212 13.212 0 0 0-.524-1.264 1.68 1.68 0 0 1 .165-1.728l.785-1.055a1.676 1.676 0 0 0-.159-2.186l-2.204-2.204a1.675 1.675 0 0 0-1.258-.49l-1.982 1.117z"/><path fill="#FFF" d="M32.356 67.573a6.03 6.03 0 1 1-12.06 0 6.03 6.03 0 0 1 12.06 0"/><path fill="#FFF" d="M59.45 26.25a2.695 2.695 0 0 1-2.773.263 21.48 21.48 0 0 0-2.028-.84 2.698 2.698 0 0 1-1.77-2.145l-.304-2.088a2.689 2.689 0 0 0-2.66-2.299h-5.001a2.688 2.688 0 0 0-2.66 2.299l-.305 2.088a2.695 2.695 0 0 1-1.77 2.145 21.48 21.48 0 0 0-2.028.84 2.693 2.693 0 0 1-2.772-.263l-1.693-1.26a2.688 2.688 0 0 0-3.506.254l-3.536 3.536a2.689 2.689 0 0 0-.256 3.507l1.26 1.692c.599.804.695 1.87.264 2.773a21.392 21.392 0 0 0-.84 2.028 2.695 2.695 0 0 1-2.145 1.77l-2.088.305a2.687 2.687 0 0 0-2.299 2.66v5c0 1.334.979 2.467 2.299 2.66l2.088.306c.989.145 1.81.827 2.145 1.77.246.692.527 1.368.84 2.027.431.904.335 1.97-.263 2.773l-1.26 1.693a2.688 2.688 0 0 0 .255 3.506l3.536 3.535a2.688 2.688 0 0 0 3.506.256l1.693-1.26a2.693 2.693 0 0 1 2.772-.264c.658.313 1.335.594 2.028.841a2.693 2.693 0 0 1 1.77 2.145l.305 2.087a2.687 2.687 0 0 0 2.66 2.298h5a2.688 2.688 0 0 0 2.66-2.298l.306-2.087a2.695 2.695 0 0 1 1.77-2.145c.692-.247 1.369-.528 2.027-.841a2.695 2.695 0 0 1 2.773.264l1.693 1.26a2.688 2.688 0 0 0 3.506-.256l3.536-3.535a2.689 2.689 0 0 0 .255-3.506l-1.26-1.694a2.694 2.694 0 0 1-.264-2.772 21.69 21.69 0 0 0 .841-2.028 2.694 2.694 0 0 1 2.145-1.77l2.087-.305a2.688 2.688 0 0 0 2.299-2.66v-5a2.687 2.687 0 0 0-2.299-2.66l-2.087-.305a2.695 2.695 0 0 1-2.145-1.77 21.613 21.613 0 0 0-.84-2.028 2.695 2.695 0 0 1 .263-2.773l1.26-1.692a2.69 2.69 0 0 0-.255-3.507l-3.536-3.536a2.683 2.683 0 0 0-2.018-.784l-3.18 1.79z"/><path fill="#2AC6EA" d="M78.308 44.495v-5a2.688 2.688 0 0 0-2.298-2.66l-2.088-.305a2.696 2.696 0 0 1-2.145-1.77 21.48 21.48 0 0 0-.84-2.028 2.695 2.695 0 0 1 .263-2.773l1.26-1.692a2.689 2.689 0 0 0-.255-3.507l-3.536-3.536a2.688 2.688 0 0 0-3.506-.255l-1.692 1.26a2.699 2.699 0 0 1-2.773.265 21.403 21.403 0 0 0-2.028-.842 2.693 2.693 0 0 1-1.77-2.145l-.306-2.087a2.688 2.688 0 0 0-2.66-2.299h-5a2.687 2.687 0 0 0-2.66 2.299l-.305 2.087a2.695 2.695 0 0 1-1.77 2.145c-.692.247-1.37.528-2.028.842-.903.43-1.97.334-2.772-.264l-1.693-1.26a2.688 2.688 0 0 0-3.506.254l-3.536 3.536a2.689 2.689 0 0 0-.255 3.507l1.26 1.692c.598.803.694 1.87.263 2.773a21.704 21.704 0 0 0-.84 2.028 2.694 2.694 0 0 1-2.145 1.77l-2.088.305a2.688 2.688 0 0 0-2.298 2.66v5c0 1.334.978 2.467 2.298 2.66l2.088.305c.988.145 1.81.828 2.144 1.77.247.693.528 1.37.841 2.028.431.904.335 1.97-.263 2.773l-1.26 1.692a2.689 2.689 0 0 0 .255 3.507l3.536 3.535a2.688 2.688 0 0 0 3.506.256L39.4 61.76a2.698 2.698 0 0 1 2.772-.264c.659.314 1.336.595 2.028.841a2.696 2.696 0 0 1 1.77 2.146l.306 2.086a2.688 2.688 0 0 0 2.66 2.3h5c1.334 0 2.466-.98 2.66-2.3l.305-2.086a2.694 2.694 0 0 1 1.77-2.146c.693-.246 1.37-.527 2.028-.84a2.698 2.698 0 0 1 2.773.263l1.692 1.26a2.688 2.688 0 0 0 3.506-.255l3.536-3.535a2.689 2.689 0 0 0 .255-3.507l-1.26-1.692a2.695 2.695 0 0 1-.263-2.773 21.48 21.48 0 0 0 .84-2.028 2.695 2.695 0 0 1 2.145-1.77l2.088-.305a2.688 2.688 0 0 0 2.298-2.66"/><path stroke="#1B0C59" stroke-width="2.5" d="M59.45 26.25a2.695 2.695 0 0 1-2.773.263 21.48 21.48 0 0 0-2.028-.84 2.698 2.698 0 0 1-1.77-2.145l-.304-2.088a2.689 2.689 0 0 0-2.66-2.299h-5.001a2.688 2.688 0 0 0-2.66 2.299l-.305 2.088a2.695 2.695 0 0 1-1.77 2.145 21.48 21.48 0 0 0-2.028.84 2.693 2.693 0 0 1-2.772-.263l-1.693-1.26a2.688 2.688 0 0 0-3.506.254l-3.536 3.536a2.689 2.689 0 0 0-.256 3.507l1.26 1.692c.599.804.695 1.87.264 2.773a21.392 21.392 0 0 0-.84 2.028 2.695 2.695 0 0 1-2.145 1.77l-2.088.305a2.687 2.687 0 0 0-2.299 2.66v5c0 1.334.979 2.467 2.299 2.66l2.088.306c.989.145 1.81.827 2.145 1.77.246.692.527 1.368.84 2.027.431.904.335 1.97-.263 2.773l-1.26 1.693a2.688 2.688 0 0 0 .255 3.506l3.536 3.535a2.688 2.688 0 0 0 3.506.256l1.693-1.26a2.693 2.693 0 0 1 2.772-.264c.658.313 1.335.594 2.028.841a2.693 2.693 0 0 1 1.77 2.145l.305 2.087a2.687 2.687 0 0 0 2.66 2.298h5a2.688 2.688 0 0 0 2.66-2.298l.306-2.087a2.695 2.695 0 0 1 1.77-2.145c.692-.247 1.369-.528 2.027-.841a2.695 2.695 0 0 1 2.773.264l1.693 1.26a2.688 2.688 0 0 0 3.506-.256l3.536-3.535a2.689 2.689 0 0 0 .255-3.506l-1.26-1.694a2.694 2.694 0 0 1-.264-2.772 21.69 21.69 0 0 0 .841-2.028 2.694 2.694 0 0 1 2.145-1.77l2.087-.305a2.688 2.688 0 0 0 2.299-2.66v-5a2.687 2.687 0 0 0-2.299-2.66l-2.087-.305a2.695 2.695 0 0 1-2.145-1.77 21.613 21.613 0 0 0-.84-2.028 2.695 2.695 0 0 1 .263-2.773l1.26-1.692a2.69 2.69 0 0 0-.255-3.507l-3.536-3.536a2.683 2.683 0 0 0-2.018-.784l-3.18 1.79z"/><path fill="#1B0C59" d="M55.172 46.015a7.758 7.758 0 1 1-15.516 0 7.758 7.758 0 0 1 15.516 0"/><path stroke="#1B0C59" stroke-width="2.056" d="M55.172 46.015a7.758 7.758 0 1 1-15.516 0 7.758 7.758 0 0 1 15.516 0z"/><path stroke="#EB586F" stroke-linecap="round" stroke-linejoin="round" stroke-width="2.5" d="M44.06 2.979c25.48 1.09 45.805 22.093 45.805 47.843 0 3.185-.31 6.296-.904 9.308M44.06 2.935l12.137-1.732M35.255 96.45C16.869 95.665 2.204 80.51 2.204 61.93c0-2.299.224-4.543.652-6.716m32.399 41.268l-8.759 1.25"/></g></svg>