<svg xmlns="http://www.w3.org/2000/svg" xmlns:xlink="http://www.w3.org/1999/xlink" width="86" height="92"><defs><path id="a" d="M0 .216h22.55v19.63H0z"/><path id="c" d="M0 91.691h85.785V.577H0z"/></defs><g fill="none" fill-rule="evenodd"><path fill="#1B0C59" d="M22.285 45.426h58.212v-7.784H22.285z"/><path fill="#1B0C59" d="M22.285 41.704h58.212v-2.031H22.285z"/><path stroke="#1B0C59" stroke-width="2.5" d="M22.285 45.426h58.212v-7.784H22.285z"/><path fill="#1B0C59" d="M13.486 40.214v-2.571h58.212v7.783H13.486v-2.663"/><path fill="#1B0C59" d="M13.486 41.704h58.211v-2.031H13.486z"/><path stroke="#1B0C59" stroke-width="2.5" d="M13.486 45.426h58.212v-7.784H13.486z"/><g transform="translate(0 .055)"><path fill="#FFF" d="M79.091 39.449H14.553a3.606 3.606 0 0 1-3.605-3.606V23.425a3.606 3.606 0 0 1 3.605-3.606H79.09a3.606 3.606 0 0 1 3.606 3.606v12.418a3.606 3.606 0 0 1-3.606 3.606"/><g transform="translate(63.235 19.603)"><mask id="b" fill="#fff"><use xlink:href="#a"/></mask><path fill="#EB586F" d="M0 19.846h20.653c1.047 0 1.897-.85 1.897-1.897V2.113c0-1.047-.85-1.897-1.897-1.897H0v19.63z" mask="url(#b)"/></g><path fill="#FFF" d="M52.853 39.449h20.653c1.047 0 1.897-.85 1.897-1.898V21.716c0-1.047-.85-1.897-1.897-1.897H52.853v19.63z"/><mask id="d" fill="#fff"><use xlink:href="#c"/></mask><path fill="#2AC6EA" d="M10.947 39.449h61.597v-19.63H10.947z" mask="url(#d)"/><path stroke="#1B0C59" stroke-width="2.5" d="M25.609 19.819h54.82c1.16 0 2.099.94 2.099 2.098v15.434a2.098 2.098 0 0 1-2.099 2.098H51.944" mask="url(#d)"/><path stroke="#1B0C59" stroke-width="2.5" d="M19.37 19.819h51.075c1.16 0 2.099.94 2.099 2.098v15.434a2.098 2.098 0 0 1-2.099 2.098H13.046a2.098 2.098 0 0 1-2.098-2.098V21.917c0-1.159.939-2.098 2.098-2.098h6.324z" mask="url(#d)"/><path fill="#FFF" d="M25.668 30.478a4.062 4.062 0 0 1-4.06 4.067c-.43 0-.841-.07-1.233-.197a4.05 4.05 0 0 1-2.827-3.87 4.048 4.048 0 0 1 2.827-3.863 3.977 3.977 0 0 1 1.233-.196 4.06 4.06 0 0 1 4.06 4.06" mask="url(#d)"/><path stroke="#1B0C59" stroke-width="2.5" d="M25.668 30.478a4.062 4.062 0 0 1-4.06 4.067c-.43 0-.841-.07-1.233-.197a4.05 4.05 0 0 1-2.827-3.87 4.048 4.048 0 0 1 2.827-3.863 3.977 3.977 0 0 1 1.233-.196 4.06 4.06 0 0 1 4.06 4.06z" mask="url(#d)"/><path fill="#1B0C59" d="M23.201 30.478a4.065 4.065 0 0 1-2.826 3.87 4.05 4.05 0 0 1-2.827-3.87 4.048 4.048 0 0 1 2.827-3.863 4.062 4.062 0 0 1 2.826 3.863" mask="url(#d)"/><path stroke="#1B0C59" stroke-width="2.5" d="M25.67 30.48a4.06 4.06 0 1 1-8.122 0 4.06 4.06 0 0 1 8.122 0z" mask="url(#d)"/><path fill="#1B0C59" d="M22.285 68.136h58.212v-7.784H22.285z" mask="url(#d)"/><path fill="#1B0C59" d="M22.285 64.413h58.212v-2.03H22.285z" mask="url(#d)"/><path stroke="#1B0C59" stroke-width="2.5" d="M22.285 68.136h58.212v-7.784H22.285z" mask="url(#d)"/><path fill="#1B0C59" d="M13.486 62.924v-2.572h58.212v7.784H13.486v-2.664" mask="url(#d)"/><path fill="#1B0C59" d="M13.486 64.413h58.211v-2.03H13.486z" mask="url(#d)"/><path stroke="#1B0C59" stroke-width="2.5" d="M13.486 68.136h58.212v-7.784H13.486z" mask="url(#d)"/><path fill="#FFF" d="M79.091 62.213H14.553a3.606 3.606 0 0 1-3.605-3.605V46.19a3.606 3.606 0 0 1 3.605-3.605H79.09a3.606 3.606 0 0 1 3.606 3.605v12.42a3.606 3.606 0 0 1-3.606 3.604" mask="url(#d)"/><path fill="#EB586F" d="M63.236 62.213h20.652c1.047 0 1.897-.849 1.897-1.897V44.481c0-1.047-.85-1.897-1.897-1.897H63.236v19.63z" mask="url(#d)"/><path fill="#FFF" d="M52.853 62.213h20.653c1.047 0 1.897-.849 1.897-1.897V44.481c0-1.047-.85-1.897-1.897-1.897H52.853v19.63z" mask="url(#d)"/><path fill="#2AC6EA" d="M10.947 62.213h61.597v-19.63H10.947z" mask="url(#d)"/><path stroke="#1B0C59" stroke-width="2.5" d="M25.609 42.584h54.82c1.16 0 2.099.939 2.099 2.098v15.434a2.098 2.098 0 0 1-2.099 2.097H51.944" mask="url(#d)"/><path stroke="#1B0C59" stroke-width="2.5" d="M19.37 42.584h51.075c1.16 0 2.099.939 2.099 2.098v15.434a2.098 2.098 0 0 1-2.099 2.097H13.046a2.098 2.098 0 0 1-2.098-2.097V44.682c0-1.16.939-2.098 2.098-2.098h6.324z" mask="url(#d)"/><path fill="#FFF" d="M25.668 53.243a4.062 4.062 0 0 1-4.06 4.067c-.43 0-.841-.07-1.233-.197a4.05 4.05 0 0 1-2.827-3.87 4.048 4.048 0 0 1 2.827-3.863 3.977 3.977 0 0 1 1.233-.197 4.06 4.06 0 0 1 4.06 4.06" mask="url(#d)"/><path stroke="#1B0C59" stroke-width="2.5" d="M25.668 53.243a4.062 4.062 0 0 1-4.06 4.067c-.43 0-.841-.07-1.233-.197a4.05 4.05 0 0 1-2.827-3.87 4.048 4.048 0 0 1 2.827-3.863 3.977 3.977 0 0 1 1.233-.197 4.06 4.06 0 0 1 4.06 4.06z" mask="url(#d)"/><path fill="#1B0C59" d="M23.201 53.243a4.065 4.065 0 0 1-2.826 3.87 4.05 4.05 0 0 1-2.827-3.87 4.048 4.048 0 0 1 2.827-3.863 4.062 4.062 0 0 1 2.826 3.863" mask="url(#d)"/><path stroke="#1B0C59" stroke-width="2.5" d="M25.67 53.245a4.06 4.06 0 1 1-8.122 0 4.06 4.06 0 0 1 8.122 0z" mask="url(#d)"/><path fill="#1B0C59" d="M77.834 90.9H24.949a2.664 2.664 0 0 1-2.664-2.663v-5.12h58.212v5.12a2.663 2.663 0 0 1-2.663 2.664" mask="url(#d)"/><path fill="#1B0C59" d="M22.285 87.178h58.212v-2.031H22.285z" mask="url(#d)"/><path stroke="#1B0C59" stroke-width="2.5" d="M77.834 90.9H24.949a2.664 2.664 0 0 1-2.664-2.663v-5.12h58.212v5.12a2.663 2.663 0 0 1-2.663 2.664z" mask="url(#d)"/><path fill="#1B0C59" d="M13.486 85.689v-2.572h58.212v5.12a2.664 2.664 0 0 1-2.664 2.664H16.15a2.663 2.663 0 0 1-2.663-2.664" mask="url(#d)"/><path fill="#1B0C59" d="M13.486 87.178h58.211v-2.031H13.486z" mask="url(#d)"/><path stroke="#1B0C59" stroke-width="2.5" d="M16.15 90.9h52.884a2.664 2.664 0 0 0 2.664-2.663v-5.12H13.486v5.12a2.663 2.663 0 0 0 2.663 2.664z" mask="url(#d)"/><path fill="#FFF" d="M79.091 84.978H14.553a3.606 3.606 0 0 1-3.605-3.605V68.954a3.606 3.606 0 0 1 3.605-3.606H79.09a3.606 3.606 0 0 1 3.606 3.606v12.419a3.606 3.606 0 0 1-3.606 3.605" mask="url(#d)"/><path fill="#EB586F" d="M63.236 84.978h20.652c1.047 0 1.897-.85 1.897-1.897V67.245c0-1.047-.85-1.897-1.897-1.897H63.236v19.63z" mask="url(#d)"/><path fill="#FFF" d="M52.853 84.978h20.653c1.047 0 1.897-.85 1.897-1.897V67.245c0-1.047-.85-1.897-1.897-1.897H52.853v19.63z" mask="url(#d)"/><path fill="#2AC6EA" d="M10.947 84.978h61.597v-19.63H10.947z" mask="url(#d)"/><path stroke="#1B0C59" stroke-width="2.5" d="M25.609 65.348h54.82c1.16 0 2.099.94 2.099 2.099V82.88a2.098 2.098 0 0 1-2.099 2.098H51.944" mask="url(#d)"/><path stroke="#1B0C59" stroke-width="2.5" d="M19.37 65.348h51.075c1.16 0 2.099.94 2.099 2.099V82.88a2.098 2.098 0 0 1-2.099 2.098H13.046a2.098 2.098 0 0 1-2.098-2.098V67.447c0-1.16.939-2.099 2.098-2.099h6.324z" mask="url(#d)"/><path fill="#FFF" d="M25.668 76.008a4.062 4.062 0 0 1-4.06 4.066c-.43 0-.841-.07-1.233-.196a4.05 4.05 0 0 1-2.827-3.87 4.048 4.048 0 0 1 2.827-3.863 3.977 3.977 0 0 1 1.233-.197 4.06 4.06 0 0 1 4.06 4.06" mask="url(#d)"/><path stroke="#1B0C59" stroke-width="2.5" d="M25.668 76.008a4.062 4.062 0 0 1-4.06 4.066c-.43 0-.841-.07-1.233-.196a4.05 4.05 0 0 1-2.827-3.87 4.048 4.048 0 0 1 2.827-3.863 3.977 3.977 0 0 1 1.233-.197 4.06 4.06 0 0 1 4.06 4.06z" mask="url(#d)"/><path fill="#1B0C59" d="M23.201 76.008a4.065 4.065 0 0 1-2.826 3.87 4.05 4.05 0 0 1-2.827-3.87 4.048 4.048 0 0 1 2.827-3.863 4.062 4.062 0 0 1 2.826 3.863" mask="url(#d)"/><path stroke="#1B0C59" stroke-width="2.5" d="M25.67 76.01a4.06 4.06 0 1 1-8.122 0 4.06 4.06 0 0 1 8.122 0z" mask="url(#d)"/><path fill="#FFF" d="M26.482 35.76H3.174c-.88 0-1.593-.715-1.593-1.594V17.639c0-.88.713-1.594 1.593-1.594h23.308c.88 0 1.594.713 1.594 1.594v16.527c0 .88-.713 1.593-1.594 1.593" mask="url(#d)"/><path fill="#D8E9F0" d="M30.825 35.76H5.823a1.282 1.282 0 0 1-1.281-1.283v-17.15c0-.708.573-1.282 1.281-1.282h25.002c.709 0 1.282.574 1.282 1.283v17.149c0 .708-.573 1.282-1.282 1.282" mask="url(#d)"/><path fill="#FFF" d="M14.813 2.158a9.768 9.768 0 0 0-3.948.853s-1.457.567-2.961 2.034a9.839 9.839 0 0 0-2.9 6.981v2.3H7.71v-2.148c0-3.897 3.048-7.195 6.944-7.312 4.05-.122 7.384 3.138 7.384 7.16v2.3h2.703V12.21c0-5.462-4.466-10.085-9.928-10.053" mask="url(#d)"/><path fill="#D8E9F0" d="M24.741 12.405c0 .658-.07 1.3-.202 1.92h-2.5v-2.299c0-4.022-3.336-7.282-7.385-7.16-3.895.117-6.945 3.415-6.945 7.313v2.146H6.701a9.247 9.247 0 0 1-.202-1.92 9.121 9.121 0 0 1 9.121-9.121 9.12 9.12 0 0 1 9.121 9.12" mask="url(#d)"/><path fill="#1B0C59" d="M26.535 14.464H3.121c-1.721 0-3.12 1.4-3.12 3.122v16.632C0 35.94 1.4 37.34 3.12 37.34h23.414a3.127 3.127 0 0 0 3.116-2.927l.002-.048v-.047l.003-2.038V17.586c0-1.722-1.4-3.122-3.12-3.122m0 1.581c.85 0 1.54.69 1.54 1.54v14.694l-.004 2.037a1.54 1.54 0 0 1-1.537 1.444H3.121c-.85 0-1.54-.69-1.54-1.54V17.585c0-.85.69-1.54 1.54-1.54h23.414" mask="url(#d)"/><path fill="#1B0C59" d="M14.828 19.736a4.57 4.57 0 0 0-4.555 4.597 4.448 4.448 0 0 0 .756 2.47c.368.554.85 1.018 1.407 1.362v2.344a2.395 2.395 0 0 0 2.392 2.392 2.395 2.395 0 0 0 2.392-2.392v-2.345a4.576 4.576 0 0 0 2.163-3.873 4.56 4.56 0 0 0-4.555-4.555m0 1.581a2.974 2.974 0 0 1 .812 5.834v3.358a.811.811 0 0 1-1.623 0v-3.358a2.986 2.986 0 0 1-1.683-1.24s-.48-.655-.48-1.592a2.988 2.988 0 0 1 2.974-3.002M14.87.577h-.066a11.308 11.308 0 0 0-4.555.977c-.315.129-1.855.805-3.449 2.359a11.388 11.388 0 0 0-3.376 8.113v3.88H9.29v-3.728c0-3.07 2.428-5.642 5.411-5.732l.172-.003a5.59 5.59 0 0 1 5.585 5.583v3.88h5.864v-3.695C26.322 5.796 21.185.577 14.87.577m0 1.581c5.436 0 9.871 4.61 9.871 10.053v2.114H22.04v-2.299c0-3.949-3.215-7.164-7.166-7.164-.072 0-.146.001-.219.004-3.895.117-6.944 3.415-6.944 7.312v2.147H5.005v-2.299a9.841 9.841 0 0 1 2.899-6.981c1.505-1.467 2.962-2.034 2.962-2.034a9.766 9.766 0 0 1 3.947-.853h.057" mask="url(#d)"/><path fill="#1B0C59" d="M18.185 24.933a2.842 2.842 0 1 1-5.684 0 2.842 2.842 0 0 1 5.684 0" mask="url(#d)"/><path fill="#1B0C59" d="M13.96 26.88l.057 3.462s-.096.978.811.978c.906 0 .812-.811.812-.811l.002-3.628h-1.681z" mask="url(#d)"/></g></g></svg>