<svg xmlns="http://www.w3.org/2000/svg" width="93" height="125"><g fill="none" fill-rule="evenodd"><path fill="#FFF" d="M62.804 123.074H29.932V35.417a2.338 2.338 0 0 1 2.318-2.318h28.306a2.338 2.338 0 0 1 2.318 2.318v87.657h-.07z"/><path fill="#2AC6EA" d="M32.25 28.463h28.306a2.338 2.338 0 0 1 2.318 2.318v85.41a2.338 2.338 0 0 1-2.318 2.317H32.25a2.338 2.338 0 0 1-2.318-2.318V30.71c0-1.264 1.054-2.247 2.318-2.247z"/><path fill="#FFF" d="M29.862 123.074H4.225a2.338 2.338 0 0 1-2.318-2.318V60.492a2.338 2.338 0 0 1 2.318-2.318h23.39a2.338 2.338 0 0 1 2.317 2.318v62.582h-.07z"/><path fill="#EB586F" d="M29.862 118.649H4.225a2.338 2.338 0 0 1-2.318-2.318V56.137a2.338 2.338 0 0 1 2.318-2.318h23.39a2.338 2.338 0 0 1 2.317 2.318v62.512h-.07z"/><path fill="#FFF" d="M88.51 110.501H62.805V47.99a2.338 2.338 0 0 1 2.317-2.318h23.39a2.338 2.338 0 0 1 2.318 2.318v60.265c0 1.194-1.054 2.247-2.318 2.247z"/><path fill="#EB586F" d="M88.51 105.865H65.122a2.338 2.338 0 0 1-2.317-2.317V43.354a2.338 2.338 0 0 1 2.317-2.318h23.39a2.338 2.338 0 0 1 2.318 2.318v60.194a2.338 2.338 0 0 1-2.318 2.317z"/><path stroke="#1B0C59" stroke-width="2.728" d="M32.18 33.099h28.306a2.338 2.338 0 0 1 2.318 2.318v87.727H29.932V35.417c0-1.335.983-2.318 2.248-2.318z"/><path fill="#1B0C59" stroke="#1B0C59" stroke-linecap="round" stroke-linejoin="round" stroke-width="2.728" d="M50.231 105.023h-7.656c-.843 0-1.545.702-1.545 1.545v16.506h10.746v-16.506c-.07-.843-.702-1.545-1.545-1.545z"/><path stroke="#1B0C59" stroke-width="2.728" d="M51.706 123.074H40.96v-16.506c0-.843.702-1.545 1.545-1.545h7.656c.843 0 1.545.702 1.545 1.545v16.506zm36.804-12.573H62.805V47.99a2.338 2.338 0 0 1 2.317-2.318h23.39a2.338 2.338 0 0 1 2.318 2.318v60.265c0 1.194-1.054 2.247-2.318 2.247zm-58.648 12.573V60.562a2.338 2.338 0 0 0-2.318-2.318H4.225a2.338 2.338 0 0 0-2.318 2.318v60.264a2.338 2.338 0 0 0 2.318 2.318h25.637v-.07z"/><path fill="#1B0C59" stroke="#1B0C59" stroke-linecap="round" stroke-linejoin="round" stroke-width="2.728" d="M84.296 11.465c0 .562-.14 1.124-.421 1.616a2.696 2.696 0 0 1-2.177 1.124H69.617c-.352 0-.703-.07-1.054-.211-.773-.492-1.264-1.405-1.264-2.458v-.351c.14-1.195.983-2.178 2.037-2.459v-.14c0-2.248 1.685-4.074 3.793-4.074 1.334 0 2.528.773 3.23 1.896.562-.35 1.195-.562 1.827-.562 1.615 0 2.95 1.194 3.371 2.81 1.124 0 2.037.702 2.458 1.686.211.28.281.702.281 1.123z"/><path stroke="#1B0C59" stroke-linecap="round" stroke-linejoin="round" stroke-width="2.728" d="M65.051 8.796H61.75c-.281 0-.492-.07-.773-.14-.562-.351-.913-1.054-.913-1.826v-.281a2.043 2.043 0 0 1 1.475-1.826v-.14c0-1.616 1.194-2.95 2.74-2.95.983 0 1.826.561 2.317 1.404.422-.281.843-.422 1.335-.422s.983.141 1.405.422"/><path fill="#1B0C59" stroke="#1B0C59" stroke-linecap="round" stroke-linejoin="round" stroke-width="2.728" d="M20.52 32.888c0 .351-.07.702-.28.983-.352.422-.844.703-1.405.703h-7.586c-.21 0-.422-.07-.632-.14-.492-.352-.773-.914-.773-1.546v-.21c.07-.773.632-1.405 1.335-1.546v-.14c0-1.405 1.053-2.6 2.388-2.6.843 0 1.615.493 2.037 1.195.35-.21.772-.351 1.194-.351 1.053 0 1.896.772 2.107 1.826.702 0 1.264.421 1.545 1.053 0 .281.07.562.07.773z"/><path fill="#FFF" d="M34.99 41.808h8.85v8.85h-8.85z"/><path fill="#D8E9F0" d="M37.518 41.808h6.251v8.85h-6.25z"/><path stroke="#1B0C59" stroke-linecap="round" stroke-linejoin="round" stroke-width="2.728" d="M34.99 41.808h8.85v8.85h-8.85z"/><path fill="#FFF" d="M48.897 41.808h8.85v8.85h-8.85z"/><path fill="#D8E9F0" d="M51.495 41.808h6.25v8.85h-6.25z"/><path stroke="#1B0C59" stroke-linecap="round" stroke-linejoin="round" stroke-width="2.728" d="M48.897 41.808h8.85v8.85h-8.85z"/><path fill="#FFF" d="M34.99 57.05h8.85v8.85h-8.85z"/><path fill="#D8E9F0" d="M37.518 57.05h6.251v8.85h-6.25z"/><path stroke="#1B0C59" stroke-linecap="round" stroke-linejoin="round" stroke-width="2.728" d="M34.99 57.05h8.85v8.85h-8.85z"/><path fill="#FFF" d="M48.897 57.05h8.85v8.85h-8.85z"/><path fill="#D8E9F0" d="M51.495 57.05h6.25v8.85h-6.25z"/><path stroke="#1B0C59" stroke-linecap="round" stroke-linejoin="round" stroke-width="2.728" d="M48.897 57.05h8.85v8.85h-8.85z"/><path fill="#FFF" d="M34.99 72.291h8.85v8.85h-8.85z"/><path fill="#D8E9F0" d="M37.518 72.291h6.251v8.85h-6.25z"/><path stroke="#1B0C59" stroke-linecap="round" stroke-linejoin="round" stroke-width="2.728" d="M34.99 72.291h8.85v8.85h-8.85z"/><path fill="#FFF" d="M48.897 72.291h8.85v8.85h-8.85z"/><path fill="#D8E9F0" d="M51.495 72.291h6.25v8.85h-6.25z"/><path stroke="#1B0C59" stroke-linecap="round" stroke-linejoin="round" stroke-width="2.728" d="M48.897 72.291h8.85v8.85h-8.85z"/><g><path fill="#FFF" d="M34.99 87.604h8.85v8.85h-8.85z"/><path fill="#D8E9F0" d="M37.518 87.604h6.251v8.85h-6.25z"/><path stroke="#1B0C59" stroke-linecap="round" stroke-linejoin="round" stroke-width="2.728" d="M34.99 87.604h8.85v8.85h-8.85z"/><path fill="#FFF" d="M48.897 87.604h8.85v8.85h-8.85z"/><path fill="#D8E9F0" d="M51.495 87.604h6.25v8.85h-6.25z"/><path stroke="#1B0C59" stroke-linecap="round" stroke-linejoin="round" stroke-width="2.728" d="M48.897 87.604h8.85v8.85h-8.85z"/></g><g stroke="#EB586F" stroke-linecap="round" stroke-linejoin="round" stroke-width="2.728"><path d="M72.215 34.574V19.192m4.636 8.709v9.834m4.566-3.161V19.192"/></g><g><path fill="#2AC6EA" d="M59.221 22.493H33.514a.96.96 0 0 1-.983-.983v-7.656a.96.96 0 0 1 .983-.984h5.128a.96.96 0 0 1 .983.984v1.615h3.231v-1.615a.96.96 0 0 1 .983-.984h5.128a.96.96 0 0 1 .983.984v1.615h3.231v-1.615a.96.96 0 0 1 .983-.984h5.128a.96.96 0 0 1 .983.984v7.656c0 .28-.07.491-.281.702-.28.14-.492.28-.773.28z"/><path fill="#1B0C59" d="M59.221 25.373h-5.197a.96.96 0 0 1-.984-.984.96.96 0 0 1 .984-.983h4.214v-5.76h-3.23v1.616c0 .28-.071.492-.282.702-.21.211-.421.281-.702.281h-5.128a.96.96 0 0 1-.983-.983v-1.616h-3.23v1.616a.96.96 0 0 1-.984.983H38.57c-.28 0-.491-.07-.702-.28-.21-.211-.28-.422-.28-.703v-1.616h-3.232v5.76H38.5a.96.96 0 0 1 .984.983.96.96 0 0 1-.984.984h-5.127a.96.96 0 0 1-.984-.984v-7.656a.96.96 0 0 1 .984-.983H38.5a.96.96 0 0 1 .984.983v1.616h3.23v-1.616a.96.96 0 0 1 .984-.983h5.127a.96.96 0 0 1 .984.983v1.616h3.23v-1.616a.96.96 0 0 1 .984-.983h5.127a.96.96 0 0 1 .984.983v7.656c0 .281-.07.492-.281.703a.89.89 0 0 1-.633.28z"/></g><g transform="translate(67.369 53.679)"><circle cx="9.482" cy="8.99" r="8.85" fill="#FFF"/><path fill="#1B0C59" d="M18.262 8.99c0 4.285-3.02 7.797-7.024 8.64-4.003-.843-7.024-4.425-7.024-8.64 0-4.284 3.02-7.866 7.024-8.639 4.004.843 7.024 4.355 7.024 8.64z"/><path stroke="#1B0C59" stroke-linecap="round" stroke-linejoin="round" stroke-width="2.728" d="M18.262 8.99c0 4.285-3.02 7.797-7.024 8.64a7.5 7.5 0 0 1-1.756.21 8.813 8.813 0 0 1-8.85-8.85A8.813 8.813 0 0 1 9.482.14c.632 0 1.194.07 1.756.211 4.004.843 7.024 4.355 7.024 8.64z"/></g><g transform="translate(67.369 77.56)"><circle cx="9.482" cy="9.342" r="8.85" fill="#FFF"/><path fill="#1B0C59" d="M18.262 9.342c0 4.284-3.02 7.866-7.024 8.639-4.003-.843-7.024-4.425-7.024-8.64 0-4.284 3.02-7.796 7.024-8.639 4.004.843 7.024 4.425 7.024 8.64z"/><path stroke="#1B0C59" stroke-linecap="round" stroke-linejoin="round" stroke-width="2.728" d="M18.262 9.342c0 4.284-3.02 7.866-7.024 8.639a7.5 7.5 0 0 1-1.756.21 8.813 8.813 0 0 1-8.85-8.85 8.813 8.813 0 0 1 8.85-8.85c.632 0 1.194.07 1.756.211 4.004.843 7.024 4.425 7.024 8.64z"/></g><g><path fill="#FFF" d="M24.735 74.399c0 4.284-3.091 7.866-7.165 8.71-.562.14-1.124.14-1.685.14a8.813 8.813 0 0 1-8.85-8.85 8.813 8.813 0 0 1 8.85-8.85c.561 0 1.123.07 1.685.14 4.074.773 7.165 4.355 7.165 8.71z"/><path fill="#1B0C59" d="M24.735 74.399c0 4.284-3.091 7.866-7.165 8.71-4.074-.773-7.164-4.355-7.164-8.71 0-4.285 3.09-7.867 7.164-8.71 4.074.773 7.165 4.355 7.165 8.71z"/><path stroke="#1B0C59" stroke-linecap="round" stroke-linejoin="round" stroke-width="2.728" d="M24.735 74.399c0 4.284-3.091 7.866-7.165 8.71-.562.14-1.124.14-1.685.14a8.813 8.813 0 0 1-8.85-8.85 8.813 8.813 0 0 1 8.85-8.85c.561 0 1.123.07 1.685.14 4.074.773 7.165 4.355 7.165 8.71z"/></g><g><path fill="#FFF" d="M6.262 88.165h19.386v8.077H6.262z"/><path fill="#D8E9F0" d="M9.774 88.165h15.944v8.077H9.774z"/><path stroke="#1B0C59" stroke-linecap="round" stroke-linejoin="round" stroke-width="2.728" d="M6.262 88.165h19.386v8.077H6.262z"/></g><g><path fill="#FFF" d="M6.262 102.424h19.386v8.077H6.262z"/><path fill="#D8E9F0" d="M9.774 102.424h15.944v8.077H9.774z"/><path stroke="#1B0C59" stroke-linecap="round" stroke-linejoin="round" stroke-width="2.728" d="M6.262 102.424h19.386v8.077H6.262z"/></g></g></svg>