<svg xmlns="http://www.w3.org/2000/svg" width="169" height="82"><g fill="none" fill-rule="evenodd"><path fill="#D8E9F0" d="M99.215 6.97H23.46a2.72 2.72 0 0 1-2.743-2.743 2.72 2.72 0 0 1 2.743-2.743h75.755a2.72 2.72 0 0 1 2.743 2.743c.08 1.452-1.21 2.743-2.743 2.743zm2.824 59.055H25.88a5.234 5.234 0 0 1-5.244-5.244 5.234 5.234 0 0 1 5.244-5.244h76.159v10.488z"/><path fill="#EB586F" d="M106.153 54.892H10.955a2.72 2.72 0 0 1-2.743-2.743V9.713a2.72 2.72 0 0 1 2.743-2.743h95.198a2.72 2.72 0 0 1 2.743 2.743v42.436c.08 1.533-1.13 2.743-2.743 2.743z"/><path fill="#D8E9F0" d="M65.17 80.628H47.098a2.72 2.72 0 0 1-2.743-2.743 2.72 2.72 0 0 1 2.743-2.743H65.17v5.486z"/><path fill="#C5E0FE" d="M42.58 75.303c1.936-2.582 2.34-6.374 2.34-9.52h15.812c.081 3.146.404 6.938 2.34 9.52h.484c1.049 0 1.936.887 1.936 1.936v3.389h-26.22v-3.389c0-1.049.888-1.936 1.937-1.936h1.371z"/><g stroke="#1B0C59" stroke-linecap="round" stroke-linejoin="round" stroke-width="2.585" transform="translate(2 1)"><path d="M61.556 74.303c1.049 0 1.936.887 1.936 1.936v3.389h-26.22v-3.389c0-1.049.888-1.936 1.937-1.936h22.347z"/><path fill="#1B0C59" d="M43 64.702c-.08 3.147-.403 6.939-2.34 9.52h20.493c-1.937-2.581-2.34-6.373-2.34-9.52H43z"/><path d="M96.328.323a4.424 4.424 0 0 1 4.437 4.437v55.505a4.424 4.424 0 0 1-4.437 4.437H4.438A4.424 4.424 0 0 1 0 60.265V4.76A4.424 4.424 0 0 1 4.437.323h91.89zm4.033 5.324H.323m0 48.325h100.522"/><circle cx="50.423" cy="59.7" r="2.098" fill="#1B0C59"/></g><g transform="translate(113.333 4.227)"><circle cx="9.358" cy="5.889" r="5.567" fill="#D8E9F0"/><circle cx="49.455" cy="44.049" r="5.567" fill="#D8E9F0"/><circle cx="30.092" cy="61.798" r="5.567" fill="#D8E9F0"/><circle cx="26.704" cy="61.475" r="5.244" stroke="#1B0C59" stroke-linecap="round" stroke-linejoin="round" stroke-width="2.585"/><circle cx="46.389" cy="44.049" r="5.244" stroke="#1B0C59" stroke-linecap="round" stroke-linejoin="round" stroke-width="2.585"/><path stroke="#1B0C59" stroke-linecap="round" stroke-linejoin="round" stroke-width="2.585" d="M46.389 49.293v12.505H31.867"/><circle cx="5.889" cy="5.889" r="5.244" stroke="#1B0C59" stroke-linecap="round" stroke-linejoin="round" stroke-width="2.585"/><path stroke="#1B0C59" stroke-linecap="round" stroke-linejoin="round" stroke-width="2.585" d="M11.053 5.486h35.336v33.4"/></g><path fill="#FFF" d="M122.934 47.308H92.196V38.03h6.777v2.501l5.567.646V38.03h6.696l-.242 3.147h5.647l.807-3.147h5.486zm-8.471 24.606h-13.07c-5.082 0-9.116-4.114-9.116-9.116V51.665h31.383v11.133c-.08 5.002-4.195 9.116-9.197 9.116z"/><path fill="#2AC6EA" d="M126.645 47.308H95.827v-9.197h3.065v2.501h6.132v-2.5h6.131v3.065h6.131V38.11h6.777a2.514 2.514 0 0 1 2.501 2.501v6.696h.08zm-8.552 24.606h-13.07c-5.082 0-9.116-4.114-9.116-9.116V51.665h28.963a2.514 2.514 0 0 1 2.501 2.5v8.714c-.08 4.921-4.195 9.035-9.278 9.035z"/><path fill="#D8E9F0" d="M104.54 58.36h6.777v6.778h-6.777z"/><g fill="#1B0C59"><path fill-rule="nonzero" d="M116.238 72.48H99.376c-4.356 0-7.987-3.55-7.987-7.988v-13.23c0-.646.484-1.13 1.13-1.13h30.495c.646 0 1.13.484 1.13 1.13v13.23c.08 4.437-3.55 7.987-7.906 7.987zm-22.59-20.01v12.021c0 3.147 2.582 5.728 5.728 5.728h16.862c3.146 0 5.728-2.581 5.728-5.728v-12.02H93.648z"/><path fill-rule="nonzero" d="M111.8 66.51h-7.986c-.646 0-1.13-.485-1.13-1.13v-3.953a5.147 5.147 0 0 1 5.163-5.164c2.905 0 5.164 2.26 5.164 5.164v3.953c-.081.564-.565 1.13-1.21 1.13zm-6.857-2.26h5.728v-2.823c0-1.533-1.29-2.824-2.824-2.824-1.533 0-2.823 1.29-2.823 2.824v2.823h-.081z"/><path d="M123.095 48.034h-6.131c-.646 0-1.13-.484-1.13-1.13 0-.645.484-1.129 1.13-1.129h5.002V39h-3.792v1.936c0 .322-.08.565-.323.807-.242.242-.484.322-.807.322h-6.131c-.645 0-1.13-.484-1.13-1.13V39h-3.791v1.936c0 .645-.484 1.13-1.13 1.13h-6.131c-.323 0-.565-.081-.807-.323-.242-.242-.323-.485-.323-.807V39H93.81v6.776h4.92c.646 0 1.13.484 1.13 1.13 0 .645-.484 1.13-1.13 1.13h-6.05c-.645 0-1.13-.485-1.13-1.13v-9.117c0-.645.485-1.13 1.13-1.13h6.132c.645 0 1.13.485 1.13 1.13v1.937h3.79v-1.937c0-.645.485-1.13 1.13-1.13h6.132c.645 0 1.13.485 1.13 1.13v1.937h3.791v-1.937c0-.645.484-1.13 1.13-1.13h6.13c.646 0 1.13.485 1.13 1.13v9.117c0 .323-.08.565-.322.807-.323.242-.646.322-.888.322z"/></g><g transform="translate(13.295 9.874)"><path fill="#FFF" d="M4.68 40.5c-1.856 0-3.39-1.533-3.39-3.389V8.713c0-.565.485-1.049 1.05-1.049h50.745c.242 0 .565.08.726.323.161.161.323.484.323.726v28.398c0 1.856-1.533 3.389-3.389 3.389H4.68z"/><path fill="#1B0C59" fill-rule="nonzero" d="M53.085 8.713v28.398c0 1.29-1.049 2.34-2.34 2.34H4.68a2.341 2.341 0 0 1-2.34-2.34V8.713h50.746zm0-2.098H2.34c-1.13 0-2.098.969-2.098 2.098v28.398c0 2.42 2.017 4.437 4.437 4.437h46.066c2.42 0 4.438-2.017 4.438-4.437V8.713c0-.565-.242-1.049-.646-1.452-.403-.404-.887-.646-1.452-.646z"/><path fill="#EB586F" d="M2.34 9.762a1.068 1.068 0 0 1-1.05-1.049v-3.55c0-1.855 1.534-3.388 3.39-3.388h46.065c1.856 0 3.389 1.533 3.389 3.388v3.55c0 .565-.484 1.049-1.049 1.049H2.34z"/><path fill="#1B0C59" fill-rule="nonzero" d="M50.745 2.824c1.291 0 2.34 1.048 2.34 2.34v3.549H2.34v-3.55c0-1.29 1.048-2.34 2.34-2.34h46.065zm0-2.098H4.68C2.26.726.242 2.743.242 5.163v3.55c0 1.13.968 2.098 2.098 2.098h50.745c1.13 0 2.098-.968 2.098-2.098v-3.55c0-2.42-2.017-4.437-4.438-4.437z"/><circle cx="6.131" cy="5.889" r="1" stroke="#FFF" stroke-width="1.314"/><circle cx="10.488" cy="5.889" r="1" stroke="#FFF" stroke-width="1.314"/><circle cx="14.844" cy="5.889" r="1" stroke="#FFF" stroke-width="1.314"/></g><path stroke="#1B0C59" stroke-linecap="round" stroke-linejoin="round" stroke-width="2.585" d="M19.749 36.659l3.872 4.276h19.685L55.57 28.59h7.019"/><path stroke="#1B0C59" stroke-linecap="round" stroke-linejoin="round" stroke-width="2.585" d="M19.749 40.935l5.808-5.809 2.986 2.985 12.424-12.505 11.456 11.456h5.97M72.753 43.92h4.276V13.263h-4.276"/></g></svg>