<svg xmlns="http://www.w3.org/2000/svg" width="131" height="72"><g fill="none" fill-rule="evenodd"><g transform="translate(1 2.122)"><path fill="#FFF" d="M46.61 64.776H2.316c-.94 0-1.665-.724-1.665-1.664V1.665C.651.724 1.375 0 2.316 0H46.61c.94 0 1.665.724 1.665 1.665v61.374c0 .941-.724 1.737-1.665 1.737z"/><path stroke="#1B0C59" stroke-linecap="round" stroke-linejoin="round" stroke-width="2.911" d="M46.61 64.776H2.316c-.94 0-1.665-.724-1.665-1.664V1.665C.651.724 1.375 0 2.316 0H46.61c.94 0 1.665.724 1.665 1.665v61.374c0 .941-.724 1.737-1.665 1.737z"/><path fill="#D8E9F0" d="M52.545 69.553H8.25c-.941 0-1.665-.724-1.665-1.665V6.441c0-.94.724-1.664 1.665-1.664h44.294c.94 0 1.664.724 1.664 1.664v61.375c0 .94-.723 1.737-1.664 1.737z"/><path stroke="#1B0C59" stroke-linecap="round" stroke-linejoin="round" stroke-width="2.911" d="M46.61 64.776H2.316c-.94 0-1.665-.724-1.665-1.664V1.665C.651.724 1.375 0 2.316 0H46.61c.94 0 1.665.724 1.665 1.665v61.374c0 .941-.724 1.737-1.665 1.737z"/><circle cx="6.586" cy="5.79" r="2.678" fill="#1B0C59"/><circle cx="42.412" cy="5.79" r="2.678" fill="#1B0C59"/><circle cx="6.586" cy="58.118" r="2.678" fill="#1B0C59"/><circle cx="42.412" cy="58.118" r="2.678" fill="#1B0C59"/><path fill="#EB586F" stroke="#1B0C59" stroke-width="2.911" d="M.651 38.938h47.696v4.849H.651z"/><path fill="#EB586F" stroke="#1B0C59" stroke-width="2.911" d="M.651 43.715h47.696v4.849H.651z"/><path fill="#FFF" d="M14.837 54.354a1.113 1.113 0 0 1-1.086-1.085v-19.18c0-.58.507-1.086 1.086-1.086h19.18c.579 0 1.085.507 1.085 1.086v19.18c0 .579-.506 1.085-1.085 1.085h-19.18z"/><path fill="#1B0C59" fill-rule="nonzero" d="M34.017 34.161v19.18h-19.18V34.16h19.18zm0-2.099h-19.18a2.1 2.1 0 0 0-2.099 2.1V53.34a2.1 2.1 0 0 0 2.099 2.099h19.18a2.1 2.1 0 0 0 2.098-2.1V34.162a2.1 2.1 0 0 0-2.098-2.099z"/><path fill="#FFF" d="M20.989 19.541h6.948v6.948h-6.948z"/><path stroke="#1B0C59" stroke-linecap="round" stroke-linejoin="round" stroke-width="2.911" d="M20.989 19.541h6.948v6.948h-6.948z"/><path fill="#1B0C59" stroke="#1B0C59" stroke-linecap="round" stroke-linejoin="round" stroke-width="2.911" d="M20.989 5.79h6.948v6.948h-6.948zm14.475 13.751h6.948v6.948h-6.948zm-28.878 0h6.948v6.948H6.586z"/></g><g transform="translate(76.994 2.122)"><path fill="#FFF" d="M46.248 64.776H1.954c-.94 0-1.664-.724-1.664-1.664V1.665C.29.724 1.013 0 1.954 0h44.294c.941 0 1.665.724 1.665 1.665v61.374c0 .941-.724 1.737-1.665 1.737z"/><path fill="#D8E9F0" d="M52.183 69.553H7.889c-.94 0-1.665-.724-1.665-1.665V6.441c0-.94.724-1.664 1.665-1.664h44.294c.94 0 1.665.724 1.665 1.664v61.375c0 .94-.724 1.737-1.665 1.737z"/><path stroke="#1B0C59" stroke-linecap="round" stroke-linejoin="round" stroke-width="2.911" d="M46.248 64.776H1.954c-.94 0-1.664-.724-1.664-1.664V1.665C.29.724 1.013 0 1.954 0h44.294c.941 0 1.665.724 1.665 1.665v61.374c0 .941-.724 1.737-1.665 1.737z"/><circle cx="24.101" cy="22.726" r="14.258" fill="#2AC6EA" stroke="#1B0C59" stroke-linecap="round" stroke-linejoin="round" stroke-width="2.911"/><circle cx="24.101" cy="22.726" r="6.876" fill="#FFF" stroke="#1B0C59" stroke-linecap="round" stroke-linejoin="round" stroke-width="2.911"/><circle cx="24.101" cy="22.726" r="1.592" fill="#1B0C59"/><path fill="#FFF" stroke="#1B0C59" stroke-width="2.74" d="M9.988 57.25l11.29-23.089c.362-.796-.723-1.447-1.23-.723L4.704 54.065c-.579.651-.94 1.52-.506 3.04.217.723.579 1.302 1.23 1.664 1.448.869 3.402.434 4.343-1.013.072-.145.144-.29.217-.507z"/><circle cx="7.238" cy="55.657" r="1.158" fill="#1B0C59"/><path fill="#1B0C59" d="M42.34 49.505H26.417a.725.725 0 0 1-.724-.724v-3.04c0-.434.362-.723.724-.723H42.34c.434 0 .724.362.724.723v3.04c0 .362-.362.724-.724.724zm-.145 8.251H20.917a.88.88 0 0 1-.869-.869v-2.75a.88.88 0 0 1 .869-.868h21.278a.88.88 0 0 1 .869.868v2.75c0 .507-.362.869-.869.869z"/></g></g></svg>