<svg xmlns="http://www.w3.org/2000/svg" xmlns:xlink="http://www.w3.org/1999/xlink" width="92" height="88"><defs><path id="a" d="M0 .792h67.641v67.641H.001z"/></defs><g fill="none" fill-rule="evenodd"><path stroke="#1B0C59" stroke-width="2.016" d="M61.337 72.357h6.083a4.491 4.491 0 0 0 4.492-4.491V9.208a4.492 4.492 0 0 0-4.492-4.492H8.762a4.492 4.492 0 0 0-4.49 4.492v58.658a4.491 4.491 0 0 0 4.49 4.491h52.575z"/><g transform="translate(0 .11)"><mask id="b" fill="#fff"><use xlink:href="#a"/></mask><path fill="#D8E9F0" d="M57.066 68.433h6.084a4.492 4.492 0 0 0 4.491-4.492V5.284A4.492 4.492 0 0 0 63.15.792H4.492A4.492 4.492 0 0 0 0 5.284V63.94a4.492 4.492 0 0 0 4.492 4.492h52.574z" mask="url(#b)"/></g><path stroke="#1B0C59" stroke-width="2.5" d="M61.337 72.357h6.083a4.491 4.491 0 0 0 4.492-4.491V9.208a4.492 4.492 0 0 0-4.492-4.492H8.762a4.492 4.492 0 0 0-4.49 4.492v58.658a4.491 4.491 0 0 0 4.49 4.491h52.575z"/><path stroke="#1B0C59" stroke-width="2.016" d="M71.685 80.813h6.083a4.492 4.492 0 0 0 4.491-4.492V17.664a4.492 4.492 0 0 0-4.491-4.492H19.11a4.493 4.493 0 0 0-4.493 4.492V76.32a4.492 4.492 0 0 0 4.493 4.492h52.574z"/><path fill="#2AC6EA" d="M67.414 76.997h6.083a4.49 4.49 0 0 0 4.491-4.491V13.849a4.491 4.491 0 0 0-4.491-4.492H14.84a4.493 4.493 0 0 0-4.493 4.492v58.657a4.492 4.492 0 0 0 4.493 4.491h52.574z"/><path stroke="#1B0C59" stroke-width="2.5" d="M71.685 80.813h6.083a4.492 4.492 0 0 0 4.491-4.492V17.664a4.492 4.492 0 0 0-4.491-4.492H19.11a4.493 4.493 0 0 0-4.493 4.492V76.32a4.492 4.492 0 0 0 4.493 4.492h52.574z"/><path stroke="#1B0C59" stroke-linecap="round" stroke-linejoin="round" stroke-width="1.301" d="M25.744 25.212h45.51m-45.51 14.465h45.51M25.744 54.14h45.51m-45.51 14.465h45.51"/><path stroke="#1B0C59" stroke-width="2.5" d="M80.117 86.38H86.2a4.492 4.492 0 0 0 4.492-4.493V23.23a4.492 4.492 0 0 0-4.492-4.492H27.543a4.493 4.493 0 0 0-4.493 4.492v58.657a4.493 4.493 0 0 0 4.493 4.492h52.574z"/><path fill="#D8E9F0" d="M75.846 82.564h6.083a4.492 4.492 0 0 0 4.492-4.492V19.415a4.493 4.493 0 0 0-4.492-4.492H23.272a4.493 4.493 0 0 0-4.493 4.492v58.657a4.493 4.493 0 0 0 4.493 4.492h52.574z"/><path stroke="#1B0C59" stroke-width="2.5" d="M80.117 86.38H86.2a4.492 4.492 0 0 0 4.492-4.493V23.23a4.492 4.492 0 0 0-4.492-4.492H27.543a4.493 4.493 0 0 0-4.493 4.492v58.657a4.493 4.493 0 0 0 4.493 4.492h52.574z"/><path stroke="#1B0C59" stroke-linecap="round" stroke-linejoin="round" stroke-width="2.4" d="M34.175 30.779h45.511"/><path stroke="#1B0C59" stroke-linecap="round" stroke-linejoin="round" stroke-width="2.5" d="M34.175 45.243h45.511M34.175 59.708h45.511M34.175 74.172h45.511"/><path fill="#FFF" d="M52.4 30.627a3.048 3.048 0 1 1-6.098-.001 3.048 3.048 0 0 1 6.097 0"/><path stroke="#1B0C59" stroke-width="2.5" d="M52.4 30.627a3.048 3.048 0 1 1-6.098-.001 3.048 3.048 0 0 1 6.097 0z"/><path fill="#FFF" d="M45.099 45.246a3.048 3.048 0 1 1-6.097-.001 3.048 3.048 0 0 1 6.097 0"/><path stroke="#1B0C59" stroke-width="2.5" d="M45.099 45.246a3.048 3.048 0 1 1-6.097-.001 3.048 3.048 0 0 1 6.097 0z"/><path fill="#FFF" d="M63.423 45.243a3.048 3.048 0 1 1-6.097 0 3.048 3.048 0 0 1 6.097 0"/><path stroke="#1B0C59" stroke-width="2.5" d="M63.423 45.243a3.048 3.048 0 1 1-6.097 0 3.048 3.048 0 0 1 6.097 0z"/><path fill="#FFF" d="M42.051 59.718a3.047 3.047 0 1 1-6.094 0 3.047 3.047 0 0 1 6.094 0"/><path stroke="#1B0C59" stroke-width="2.5" d="M42.051 59.718a3.047 3.047 0 1 1-6.094 0 3.047 3.047 0 0 1 6.094 0z"/><path fill="#FFF" d="M60.375 59.718a3.048 3.048 0 1 1-6.095 0 3.048 3.048 0 0 1 6.095 0"/><path stroke="#1B0C59" stroke-width="2.5" d="M60.375 59.718a3.048 3.048 0 1 1-6.095 0 3.048 3.048 0 0 1 6.095 0z"/><path fill="#FFF" d="M80.21 59.718a3.048 3.048 0 1 1-6.095 0 3.048 3.048 0 0 1 6.095 0"/><path stroke="#1B0C59" stroke-width="2.5" d="M80.21 59.718a3.048 3.048 0 1 1-6.095 0 3.048 3.048 0 0 1 6.095 0z"/><path fill="#FFF" d="M55.447 74.172a3.048 3.048 0 1 1-6.097 0 3.048 3.048 0 0 1 6.097 0"/><path stroke="#1B0C59" stroke-width="2.5" d="M55.447 74.172a3.048 3.048 0 1 1-6.097 0 3.048 3.048 0 0 1 6.097 0z"/><path fill="#FFF" d="M63.308 29.798a3.047 3.047 0 1 1-5.865 1.659 3.047 3.047 0 0 1 5.865-1.659"/><path stroke="#1B0C59" stroke-width="2.5" d="M63.308 29.798a3.047 3.047 0 1 1-5.865 1.659 3.047 3.047 0 0 1 5.865-1.659z"/><path fill="#FFF" d="M77.047 29.798a3.048 3.048 0 1 1-5.866 1.657 3.048 3.048 0 0 1 5.866-1.657"/><path stroke="#1B0C59" stroke-width="2.5" d="M77.047 29.798a3.048 3.048 0 1 1-5.866 1.657 3.048 3.048 0 0 1 5.866-1.657z"/><path fill="#EB586F" d="M75.483 30.627a3.048 3.048 0 1 1-6.097-.001 3.048 3.048 0 0 1 6.097 0m-13.739.001a3.048 3.048 0 1 1-6.097-.001 3.048 3.048 0 0 1 6.097 0m-11.123.001a3.048 3.048 0 1 1-6.097-.001 3.048 3.048 0 0 1 6.097 0M43.32 45.243a3.048 3.048 0 1 1-6.098 0 3.048 3.048 0 0 1 6.097 0m18.425 0a3.048 3.048 0 1 1-6.097 0 3.048 3.048 0 0 1 6.097 0M40.271 59.718a3.048 3.048 0 1 1-6.095 0 3.048 3.048 0 0 1 6.095 0m18.425 0a3.048 3.048 0 1 1-6.096 0 3.048 3.048 0 0 1 6.096 0m19.834 0a3.048 3.048 0 1 1-6.095 0 3.048 3.048 0 0 1 6.096 0M53.669 74.172a3.048 3.048 0 1 1-6.097 0 3.048 3.048 0 0 1 6.097 0"/><path stroke="#1B0C59" stroke-width="2.5" d="M52.4 30.627a3.048 3.048 0 1 1-6.098-.001 3.048 3.048 0 0 1 6.097 0zm-7.301 14.619a3.048 3.048 0 1 1-6.097-.001 3.048 3.048 0 0 1 6.097 0zm18.324-.003a3.048 3.048 0 1 1-6.097 0 3.048 3.048 0 0 1 6.097 0zM42.051 59.718a3.047 3.047 0 1 1-6.094 0 3.047 3.047 0 0 1 6.094 0zm18.324 0a3.048 3.048 0 1 1-6.095 0 3.048 3.048 0 0 1 6.095 0zm19.835 0a3.048 3.048 0 1 1-6.095 0 3.048 3.048 0 0 1 6.095 0zM55.447 74.172a3.048 3.048 0 1 1-6.097 0 3.048 3.048 0 0 1 6.097 0zm7.861-44.374a3.047 3.047 0 1 1-5.865 1.659 3.047 3.047 0 0 1 5.865-1.659zm13.739 0a3.048 3.048 0 1 1-5.866 1.657 3.048 3.048 0 0 1 5.866-1.657z"/></g></svg>