<?xml version="1.0" encoding="utf-8"?>
<!-- Generator: Adobe Illustrator 20.1.0, SVG Export Plug-In . SVG Version: 6.00 Build 0)  -->
<svg version="1.1" id="Layer_1" xmlns="http://www.w3.org/2000/svg" xmlns:xlink="http://www.w3.org/1999/xlink" x="0px" y="0px"
	 viewBox="0 0 95 96" style="enable-background:new 0 0 95 96;" xml:space="preserve">
<style type="text/css">
	.st0{fill:none;stroke:#546A79;stroke-width:3;stroke-miterlimit:10;}
</style>
<g id="qUOpHC.tif_1_">
	<g>
		<path class="st0" d="M93.3,47.8c-0.2,15.3-5.7,26.8-16,36.1c-0.6,0.5-1,0.7-1.7,0.2c-1-0.8-2-1.4-2.9-2.3c-1.8-1.8-2.3-4-1.2-6.4
			c0.6-1.3,1.5-2.6,2.4-3.7c5.5-6.6,8.3-14.1,8.4-22.6c0-16.3-11.7-30.6-27.6-34c-18.3-3.8-36.3,7.2-41,25.2
			c-2.9,11.2-0.5,21.5,6.6,30.7c0.9,1.1,1.8,2.2,2.6,3.5c1.7,2.9,1.3,5.4-1.2,7.7c-0.8,0.7-1.7,1.2-2.5,1.9
			c-0.6,0.5-1.1,0.3-1.6-0.2c-8.1-7.2-13.4-16-15.3-26.8C-1.1,37.2,8.6,17.5,26.7,8.4c27.5-13.8,60.4,2.2,65.9,32.7
			C93,43.7,93.2,46.4,93.3,47.8z"/>
		<path class="st0" d="M69.7,89.2c-1.3,0.6-2.4,1.2-3.5,1.7c-1.8,0.7-3.7,1.4-5.6,2.1c-0.6,0.2-1.1,0.2-1.7-0.3
			c-5.1-4.4-7.4-10-6.8-16.7c0.5-5.9,3-11,7-15.3c2.6-2.8,4.4-6.1,4.7-10c0.7-7.9-4.5-15.2-12.2-17.1c-9.4-2.4-18.7,3.7-20.2,13.3
			c-0.7,4.3,0.3,8.4,3,11.9c0.8,1.1,1.8,2.1,2.7,3.2c4.2,5,6.3,10.8,6,17.3c-0.3,5.5-2.7,10-6.9,13.5c-0.3,0.2-0.8,0.5-1.1,0.4
			c-3.3-0.9-6.4-2.2-9.5-3.8c0.2-0.2,0.3-0.3,0.4-0.4c7.3-5.1,8.3-13.8,2.3-20.4c-3.2-3.5-5.6-7.3-6.9-11.8
			C16.7,41,27.1,24.8,43.1,22.3c15.1-2.3,28.7,7.2,31.3,22.3c1.5,8.3-0.7,15.9-6.3,22.3c-1.7,1.9-3.4,3.8-4.3,6.2
			c-2.1,5.5-0.2,11.8,4.7,15.2C68.9,88.6,69.2,88.8,69.7,89.2z"/>
		<path class="st0" d="M38.5,49.6c0-4.9,4-8.9,8.9-8.9c4.9,0,9,4.1,9,9c-0.1,5-4.1,8.9-9,8.9C42.5,58.6,38.5,54.5,38.5,49.6z"/>
	</g>
</g>
</svg>
