<?xml version="1.0" encoding="utf-8"?>
<!-- Generator: Adobe Illustrator 20.1.0, SVG Export Plug-In . SVG Version: 6.00 Build 0)  -->
<svg version="1.1" id="Layer_1" xmlns="http://www.w3.org/2000/svg" xmlns:xlink="http://www.w3.org/1999/xlink" x="0px" y="0px"
	 viewBox="0 0 95 96" style="enable-background:new 0 0 95 96;" xml:space="preserve">
<style type="text/css">
	.st0{fill:none;stroke:#546A79;stroke-width:3;stroke-linecap:round;stroke-miterlimit:10;}
	.st1{fill:none;stroke:#FFFFFF;stroke-width:12;stroke-miterlimit:10;}
	.st2{fill:#5BC2EF;stroke:#546A79;stroke-width:3;stroke-miterlimit:10;}
	.st3{fill:none;stroke:#546A79;stroke-width:3;stroke-miterlimit:10;}
</style>
<path class="st0" d="M17,40.1c-1-1.7-0.1-4.8,3.1-4.8c0,0-1.3-11.6,10.2-11.6c0,0,4.9-24.4,29-21.8s24.5,28.5,24.5,28.5
	s5.3-1,6.3,4.3c0,0,3.7,1.1,3.4,5.4"/>
<path class="st0" d="M48.3,18.8c2.6-4.9,8.4-6,13.2-3.4s7,8.1,4.4,12.9"/>
<g>
	<g>
		<line class="st0" x1="93.4" y1="42.1" x2="1.5" y2="42.1"/>
	</g>
</g>
<g>
	<path class="st1" d="M56.3,36.8c-0.3-0.5-0.7-0.5-1,0l-8.4,15.6c-0.3,0.5,0,1.1,0.5,1.1h16.8c0.5,0,0.8-0.6,0.5-1.1L56.3,36.8z"/>
</g>
<line class="st2" x1="55.8" y1="64.1" x2="55.8" y2="53"/>
<path class="st3" d="M73.9,92.2c-4.5,1.2-10.9,2-18.1,2s-13.5-0.8-18.1-2"/>
<path class="st3" d="M73.9,92.2c4.3-1.1,6.9-2.7,6.9-4.4c0-1.7-2.6-3.3-6.9-4.4c-4.5,1.2-10.9,2-18.1,2s-13.5-0.8-18.1-2
	c-4.3,1.1-6.9,2.7-6.9,4.4c0,1.7,2.6,3.3,6.9,4.4"/>
<path class="st3" d="M73.9,83.4c4.3-1.1,6.9-2.7,6.9-4.4c0-1.7-2.6-3.3-6.9-4.4c-4.5,1.2-10.9,2-18.1,2s-13.5-0.8-18.1-2
	c-4.3,1.1-6.9,2.7-6.9,4.4c0,1.7,2.6,3.3,6.9,4.4"/>
<path class="st3" d="M73.9,74.6c4.3-1.1,6.9-2.7,6.9-4.4c0-3.5-11.2-6.4-24.9-6.4s-24.9,2.9-24.9,6.4c0,1.7,2.6,3.3,6.9,4.4"/>
<g>
	<path class="st3" d="M56.3,36.8c-0.3-0.5-0.7-0.5-1,0l-8.4,15.3c-0.3,0.5,0,0.9,0.5,0.9h16.8c0.5,0,0.8-0.4,0.5-0.9L56.3,36.8z"/>
</g>
</svg>
