<?xml version="1.0" encoding="utf-8"?>
<!-- Generator: Adobe Illustrator 20.1.0, SVG Export Plug-In . SVG Version: 6.00 Build 0)  -->
<svg version="1.1" id="Layer_1" xmlns="http://www.w3.org/2000/svg" xmlns:xlink="http://www.w3.org/1999/xlink" x="0px" y="0px"
	 viewBox="0 0 208.5 193.2" style="enable-background:new 0 0 208.5 193.2;" xml:space="preserve">
<style type="text/css">
	.st0{fill:#4AA0D8;stroke:#546A79;stroke-width:3;stroke-miterlimit:10;}
	.st1{fill:#5BC2EF;stroke:#546A79;stroke-width:3;stroke-miterlimit:10;}
	.st2{fill:none;stroke:#546A79;stroke-width:3;stroke-linecap:round;stroke-miterlimit:10;}
	.st3{fill:#546A79;}
	.st4{fill:none;stroke:#546A79;stroke-width:3;stroke-miterlimit:10;}
	.st5{fill:#68CEF6;stroke:#546A79;stroke-width:3;stroke-miterlimit:10;}
</style>
<g>
	<circle class="st0" cx="102.6" cy="119.8" r="70.2"/>
	<g>
		<path class="st1" d="M194.4,157.6c-2.9,18.2-14.4,33.5-24.5,33.5s-22-15.4-24.5-33.5c0-18-5.8-30.7,24.5-30.7
			S194.4,139.6,194.4,157.6z"/>
		<path class="st2" d="M166.5,166.7c0,0,3.3,6,6.7,0"/>
		<path class="st0" d="M197.7,157.8c0.4-1.2,0.6-2.6,0.6-4c0-10.2,4.7-16.2-6-31.5s-22-10.3-22-10.3s-11.3-5-22,10.3s-6,21.4-6,31.5
			c0,10.2,6.1,13.9,6.1,13.9s-0.6-6.9,0.5-13.5s21.4-15.7,21.4-25.2c0,9.5,20.3,18.6,21.4,25.2c1.1,6.6-0.4,13.5-0.4,13.5
			s0.9-1,3.6-3.2c0.2,3.4-0.8,8.1,2.6,10.5c5.8,4.1,1.9,12.8,1.9,12.8S216.9,176.9,197.7,157.8z"/>
		<g>
			
				<ellipse transform="matrix(0.1736 -0.9848 0.9848 0.1736 -21.5077 283.677)" class="st3" cx="158.3" cy="154.7" rx="2.7" ry="4.9"/>
			<path class="st2" d="M165.4,155.1c0,0-2.3-3.2-6.3-3.2c-4-0.1-7,0.8-8.4-0.7"/>
		</g>
		<g>
			
				<ellipse transform="matrix(0.9849 -0.1729 0.1729 0.9849 -23.9943 33.7433)" class="st3" cx="181.7" cy="154.6" rx="4.9" ry="2.7"/>
			<path class="st2" d="M174.6,155.1c0,0,2.3-3.2,6.3-3.2c4-0.1,7,0.8,8.4-0.7"/>
		</g>
		<path class="st2" d="M166,178.7c0,0,2.7,2.3,4.2,2.3s4.2-2.3,4.2-2.3"/>
	</g>
	<g>
		<path class="st1" d="M58.1,157.1c0,18-6.4,33.5-24.5,33.5S9,175.1,9,157.1s-5.8-32.6,24.5-32.6S58.1,139.1,58.1,157.1z"/>
		<path class="st2" d="M17.4,153.4c0,0,6-2.4,9.6,1.8"/>
		<path class="st2" d="M51.1,153.4c0,0-6-2.4-9.6,1.8"/>
		<path class="st2" d="M29.3,165.2c0,0,4.2,6,8.4,0"/>
		<path class="st2" d="M27.9,177c0,0,9.3,5.3,14.6-3.1"/>
		<path class="st1" d="M11,165.7c0,0-8.7,0.3-9.4-7.6c-0.7-8,8.8-5.6,8.8-5.6"/>
		<path class="st1" d="M56.1,166.1c0,0,7.7-0.3,7.9-8.3c0.1-8-8.8-5.1-8.8-5.1"/>
		<path class="st0" d="M33.5,111c-27.6,0-28.7,18-26.4,39.5l4.1,2.4c0,0-1.9-25.7,7.8-23.2c16,3.6,23,7.2,23.1,1.4
			c0-1,0.6-1.4,1.4-0.8l2.3,3.8c0.9,0.6,2.2,0.5,3.1-0.2l1.9-1.5c0.8-0.7,1.9-0.5,2.3,0.4c1.4,3,4,12.5,2.4,20l4.6-2.4
			C60.2,150.4,70.8,111,33.5,111z"/>
	</g>
	<g>
		<path class="st1" d="M113.3,80.7c0,0-0.6,15.3,13.7,15.3c-13.3,1.8-24.4,9-24.4,9h-0.2c0,0-11.1-7.2-24.4-9
			c14.3,0,13.7-15.3,13.7-15.3"/>
		<path class="st1" d="M125.1,68.5c-3.3,11.5-12.2,19.8-22.6,19.8c-10.1,0-18.8-7.8-22.3-18.8"/>
		<path class="st1" d="M80.6,46.1c3.8-10.4,12.1-17.6,21.9-17.6c9.7,0,18.1,7.2,21.9,17.6"/>
		<line class="st4" x1="102.6" y1="29.2" x2="102.6" y2="40.6"/>
		<line class="st4" x1="102.5" y1="76.4" x2="102.5" y2="83.6"/>
		<line class="st4" x1="102.7" y1="103.3" x2="102.7" y2="93.8"/>
		<polygon class="st1" points="74.7,47.6 74.7,67.1 102.9,76.3 130.5,66.8 130.5,47.8 103.3,41.3 		"/>
		<polyline class="st1" points="99.5,21.4 96.7,8 102.8,2.2 109.1,8 105.3,22.1 		"/>
		<rect x="97.2" y="22" class="st5" width="10.6" height="5.4"/>
		<polyline class="st5" points="125,58.5 125,52 103.1,47.5 80.2,52.7 80.2,59.7 		"/>
		<line class="st4" x1="87.3" y1="51.3" x2="87.3" y2="62.2"/>
		<line class="st4" x1="94.2" y1="49.9" x2="94.2" y2="65.3"/>
		<line class="st4" x1="102.6" y1="48.1" x2="102.6" y2="67.6"/>
		<line class="st4" x1="111.4" y1="49.4" x2="111.4" y2="64.6"/>
		<line class="st4" x1="119.3" y1="51.1" x2="119.3" y2="62.1"/>
	</g>
</g>
</svg>
