<?xml version="1.0" encoding="utf-8"?>
<!-- Generator: Adobe Illustrator 21.0.2, SVG Export Plug-In . SVG Version: 6.00 Build 0)  -->
<svg version="1.1" id="Layer_1" xmlns="http://www.w3.org/2000/svg" xmlns:xlink="http://www.w3.org/1999/xlink" x="0px" y="0px"
	 viewBox="0 0 95 94" style="enable-background:new 0 0 95 94;" xml:space="preserve">
<style type="text/css">
	.st0{fill:#FFFFFF;stroke:#55A8DA;stroke-width:2.2359;stroke-linecap:round;stroke-linejoin:round;stroke-miterlimit:10;}
	.st1{fill:#FFFFFF;}
	.st2{fill:none;stroke:#55A8DA;stroke-width:2.2359;stroke-linecap:round;stroke-linejoin:round;stroke-miterlimit:10;}
</style>
<line class="st0" x1="47.3" y1="47.2" x2="47.3" y2="65.2"/>
<g>
	<path class="st1" d="M1.3,6.3c0-2.8,2.3-5,5-5h82c2.8,0,5,2.3,5,5v12c0,2.8-2.3,5-5,5h-82c-2.7,0-5-2.3-5-5V6.3z"/>
	<path class="st2" d="M1.3,6.3c0-2.8,2.3-5,5-5h82c2.8,0,5,2.3,5,5v12c0,2.8-2.3,5-5,5h-82c-2.7,0-5-2.3-5-5V6.3z"/>
</g>
<g>
	<ellipse transform="matrix(4.058185e-03 -1 1 4.058185e-03 -0.218 24.5056)" class="st0" cx="12.2" cy="12.4" rx="4.1" ry="4.1"/>
</g>
<g>
	<ellipse transform="matrix(4.058185e-03 -1 1 4.058185e-03 12.5299 37.4086)" class="st0" cx="25" cy="12.4" rx="4.1" ry="4.1"/>
</g>
<g>
	<ellipse transform="matrix(4.058185e-03 -1 1 4.058185e-03 26.3742 51.2123)" class="st0" cx="38.9" cy="12.4" rx="4.1" ry="4.1"/>
</g>
<g>
	<line class="st0" x1="83.7" y1="9.3" x2="52.9" y2="9.3"/>
	<line class="st0" x1="83.7" y1="15.3" x2="52.9" y2="15.3"/>
</g>
<g>
	<path class="st1" d="M1.3,28.3c0-2.8,2.3-5,5-5h82c2.8,0,5,2.3,5,5v12c0,2.8-2.3,5-5,5h-82c-2.7,0-5-2.3-5-5V28.3z"/>
	<path class="st2" d="M1.3,28.3c0-2.8,2.3-5,5-5h82c2.8,0,5,2.3,5,5v12c0,2.8-2.3,5-5,5h-82c-2.7,0-5-2.3-5-5V28.3z"/>
</g>
<g>
	
		<ellipse transform="matrix(4.058185e-03 -1 1 4.058185e-03 -22.2176 46.4165)" class="st0" cx="12.2" cy="34.4" rx="4.1" ry="4.1"/>
</g>
<g>
	<ellipse transform="matrix(4.058185e-03 -1 1 4.058185e-03 -9.4697 59.3195)" class="st0" cx="25" cy="34.4" rx="4.1" ry="4.1"/>
</g>
<g>
	<ellipse transform="matrix(4.058185e-03 -1 1 4.058185e-03 4.3745 73.1233)" class="st0" cx="38.9" cy="34.4" rx="4.1" ry="4.1"/>
</g>
<g>
	<line class="st0" x1="83.7" y1="31.3" x2="52.9" y2="31.3"/>
	<line class="st0" x1="83.7" y1="37.3" x2="52.9" y2="37.3"/>
</g>
<g>
	<g>
		<path class="st0" d="M79.6,68.1c0.2,0,0.3,0.1,0.6,0.5L93,92.3c0.3,0.6,0,1-0.6,1H66.8c-0.7,0-0.9-0.4-0.6-1l12.9-23.7
			C79.3,68.2,79.5,68.1,79.6,68.1"/>
	</g>
	<g>
		<line class="st0" x1="84.1" y1="86.4" x2="79.8" y2="78.5"/>
	</g>
</g>
<g>
	<g>
		<path class="st0" d="M27.6,86.3c0,3.8-3.2,7-7,7H8.4c-3.8,0-7-3.2-7-7V74.1c0-3.8,3.2-7,7-7h12.2c3.8,0,7,3.2,7,7V86.3z"/>
	</g>
	<g>
		<path class="st0" d="M13.2,73.4h7c0.5,0,1,0.5,1,1v7"/>
	</g>
</g>
<g>
	<circle class="st0" cx="47.6" cy="80.1" r="13.1"/>
	<path class="st0" d="M47.6,73.4c3.7,0,6.7,3,6.7,6.7"/>
</g>
<polyline class="st0" points="14.3,64.2 14.3,55.7 79.6,55.7 79.6,67.2 "/>
</svg>
