<?xml version="1.0" encoding="utf-8"?>
<!-- Generator: Adobe Illustrator 20.1.0, SVG Export Plug-In . SVG Version: 6.00 Build 0)  -->
<svg version="1.1" id="Layer_1" xmlns="http://www.w3.org/2000/svg" xmlns:xlink="http://www.w3.org/1999/xlink" x="0px" y="0px"
	 viewBox="0 0 95 96" style="enable-background:new 0 0 95 96;" xml:space="preserve">
<style type="text/css">
	.st0{fill:none;stroke:#546A79;stroke-width:3;stroke-linecap:square;stroke-miterlimit:10;}
	.st1{fill:none;stroke:#546A79;stroke-width:3;stroke-linecap:round;stroke-miterlimit:10;}
	.st2{fill:none;stroke:#546A79;stroke-width:3;stroke-miterlimit:10;}
	.st3{fill:#546A79;}
</style>
<line class="st0" x1="47.5" y1="48.5" x2="47.5" y2="66.5"/>
<rect x="1.5" y="1.6" class="st1" width="92" height="22"/>
<g>
	<ellipse transform="matrix(4.058218e-03 -1 1 4.058218e-03 -0.348 24.9775)" class="st2" cx="12.4" cy="12.7" rx="4.1" ry="4.1"/>
</g>
<g>
	<ellipse transform="matrix(4.058218e-03 -1 1 4.058218e-03 12.4517 37.8291)" class="st2" cx="25.2" cy="12.7" rx="4.1" ry="4.1"/>
</g>
<g>
	<ellipse transform="matrix(4.058218e-03 -1 1 4.058218e-03 26.2474 51.6807)" class="st2" cx="39.1" cy="12.7" rx="4.1" ry="4.1"/>
</g>
<g>
	<line class="st2" x1="87" y1="9.6" x2="50" y2="9.6"/>
	<line class="st2" x1="87" y1="15.6" x2="50" y2="15.6"/>
</g>
<rect x="1.5" y="23.6" class="st1" width="92" height="22"/>
<g>
	
		<ellipse transform="matrix(4.058218e-03 -1 1 4.058218e-03 -22.3478 46.8882)" class="st2" cx="12.4" cy="34.7" rx="4.1" ry="4.1"/>
</g>
<g>
	<ellipse transform="matrix(4.058218e-03 -1 1 4.058218e-03 -9.5481 59.7398)" class="st2" cx="25.2" cy="34.7" rx="4.1" ry="4.1"/>
</g>
<g>
	<ellipse transform="matrix(4.058218e-03 -1 1 4.058218e-03 4.2476 73.5915)" class="st2" cx="39.1" cy="34.7" rx="4.1" ry="4.1"/>
</g>
<g>
	<line class="st2" x1="87" y1="31.6" x2="50" y2="31.6"/>
	<line class="st2" x1="87" y1="37.6" x2="50" y2="37.6"/>
</g>
<g>
	<g>
		<path class="st3" d="M79.8,70.8c0.2,0,0.3,0.1,0.5,0.4l11.6,21.1c0.3,0.5,0,0.9-0.5,0.9H68.3c-0.6,0-0.8-0.4-0.5-0.9l11.6-21.1
			C79.5,70.9,79.7,70.8,79.8,70.8 M79.8,67.8c-1.3,0-2.5,0.7-3.1,1.9l-11.6,21c-0.6,1.2-0.6,2.5,0,3.6s1.8,1.7,3.1,1.7h23.1
			c1.3,0,2.5-0.6,3.1-1.7s0.6-2.4,0-3.6l-11.5-21C82.3,68.5,81.1,67.8,79.8,67.8L79.8,67.8z"/>
	</g>
	<g>
		<line class="st0" x1="83.9" y1="87" x2="80" y2="80"/>
	</g>
</g>
<g>
	<g>
		<path class="st1" d="M27.8,87.6c0,3.8-3.2,7-7,7H8.6c-3.8,0-7-3.2-7-7V75.4c0-3.8,3.2-7,7-7h12.2c3.8,0,7,3.2,7,7V87.6z"/>
	</g>
	<g>
		<path class="st0" d="M13.4,74.7h7c0.5,0,1,0.5,1,1v7"/>
	</g>
</g>
<g>
	<circle class="st1" cx="47.8" cy="81.4" r="13.1"/>
	<path class="st0" d="M47.8,74.7c3.7,0,6.7,3,6.7,6.7"/>
</g>
<polyline class="st0" points="14.5,65.5 14.5,57 79.8,57 79.8,68.5 "/>
</svg>
