<?xml version="1.0" encoding="utf-8"?>
<!-- Generator: Adobe Illustrator 20.1.0, SVG Export Plug-In . SVG Version: 6.00 Build 0)  -->
<svg version="1.1" id="Layer_1" xmlns="http://www.w3.org/2000/svg" xmlns:xlink="http://www.w3.org/1999/xlink" x="0px" y="0px"
	 viewBox="0 0 541.5 308" style="enable-background:new 0 0 541.5 308;" xml:space="preserve">
<style type="text/css">
	.st0{fill:#546A79;}
	.st1{fill:#A1BAC3;}
	.st2{fill:none;stroke:#546A79;stroke-width:3;stroke-miterlimit:10;}
	.st3{fill:#D9E4AD;stroke:#546A79;stroke-width:3;stroke-miterlimit:10;}
	.st4{fill:#D9E4AD;stroke:#546A79;stroke-miterlimit:10;}
	.st5{fill:#A1BAC3;stroke:#546A79;stroke-width:3;stroke-miterlimit:10;}
	.st6{fill:#D9E4AD;}
	.st7{fill:#7EA0B1;stroke:#546A79;stroke-width:3;stroke-miterlimit:10;}
	.st8{fill:#546A79;stroke:#546A79;stroke-width:3;stroke-miterlimit:10;}
	.st9{fill:#87BF56;}
	.st10{fill:#7EA0B1;}
</style>
<rect x="82" y="136" class="st0" width="5" height="13"/>
<g>
	<g>
		<path class="st1" d="M82,141.1c0,22.1-17.9,39.9-39.9,39.9h-0.1C19.9,181,2,163.1,2,141.1v-0.1C2,118.9,19.9,101,41.9,101h0.1
			c22.1,0,39.9,17.9,39.9,39.9V141.1z"/>
		<path class="st2" d="M81.5,141.6c0,22.1-17.9,39.9-39.9,39.9h-0.1c-22.1,0-39.9-17.9-39.9-39.9v-0.1c0-22.1,17.9-39.9,39.9-39.9
			h0.1c22.1,0,39.9,17.9,39.9,39.9V141.6z"/>
	</g>
	<g>
		<polyline class="st3" points="26,151.5 19.5,151.5 19.5,129.5 39.8,129.5 43.4,123.5 56.5,123.5 56.5,130 		"/>
		<polygon class="st3" points="62.5,158.5 26.5,158.5 26.5,136.5 46.4,136.5 50,130.5 62.5,130.5 		"/>
	</g>
</g>
<rect x="82" y="228" class="st0" width="5" height="13"/>
<g>
	<g>
		<path class="st1" d="M81,234.1c0,22.1-17.9,39.9-39.9,39.9h-0.1C18.9,274,1,256.1,1,234.1v-0.1C1,211.9,18.9,194,40.9,194h0.1
			c22.1,0,39.9,17.9,39.9,39.9V234.1z"/>
		<path class="st2" d="M81.5,233.6c0,22.1-17.9,39.9-39.9,39.9h-0.1c-22.1,0-39.9-17.9-39.9-39.9v-0.1c0-22.1,17.9-39.9,39.9-39.9
			h0.1c22.1,0,39.9,17.9,39.9,39.9V233.6z"/>
	</g>
	<g>
		<path class="st4" d="M26,228.4l3.6,25.2c0,0,10.2,8.2,23.6,0l3.7-25.2C57,228.4,42.7,214.9,26,228.4z"/>
		<g>
			<ellipse class="st2" cx="41.5" cy="228.1" rx="15.5" ry="4.7"/>
			<path class="st2" d="M53.4,253.6c0,2-5.3,3.6-11.8,3.6s-11.8-1.6-11.8-3.6"/>
			<line class="st2" x1="57" y1="228.4" x2="53.3" y2="254.1"/>
			<line class="st2" x1="26" y1="228.4" x2="29.8" y2="254.1"/>
		</g>
		<path class="st2" d="M57,228.1c0,0-1.3-15.3-15.6-15.3S26,228.1,26,228.1"/>
		<rect x="36" y="210" class="st0" width="9" height="5"/>
	</g>
</g>
<g>
	<g>
		<g>
			<path class="st5" d="M81.5,48.6c0,22.1-17.9,39.9-39.9,39.9h-0.1c-22.1,0-39.9-17.9-39.9-39.9v-0.1c0-22.1,17.9-39.9,39.9-39.9
				h0.1c22.1,0,39.9,17.9,39.9,39.9V48.6z"/>
		</g>
	</g>
	<g>
		<path class="st6" d="M18,41.8v20.3l30,10.4c0,0,15-4,15-5.1s0-39.8,0-39.8l-15.5-5.2L32,27.8v8.6L18,41.8z"/>
		<polygon class="st2" points="63.5,67.4 63.5,27.6 48,23.1 32.5,27.8 32.5,36.5 18.5,42.1 18.5,62.1 49.5,73 		"/>
		<polyline class="st2" points="64.1,27.9 50,33.3 34,27.8 		"/>
		<line class="st2" x1="49.5" y1="32" x2="49.5" y2="73"/>
		<polyline class="st2" points="19.1,42.1 50,53.2 64.1,47.4 		"/>
		<line class="st2" x1="32.5" y1="35" x2="32.5" y2="67"/>
	</g>
</g>
<polyline class="st2" points="82,49.5 119.5,49.5 119.5,82.5 148.5,82.5 148.5,69 "/>
<rect x="82" y="43" class="st0" width="5" height="13"/>
<polyline class="st2" points="84,142.5 119.5,142.5 119.5,197.5 148.5,197.5 148.5,188 "/>
<polyline class="st2" points="84,234.5 119.5,234.5 119.5,254.5 148.5,254.5 148.5,261 "/>
<g>
	<rect x="133.5" y="1.5" class="st7" width="226" height="50"/>
	<circle class="st8" cx="277.6" cy="26.6" r="6.5"/>
	<circle class="st8" cx="298.8" cy="26.6" r="6.5"/>
	<circle class="st3" cx="320.1" cy="26.6" r="6.5"/>
	<circle class="st8" cx="341.3" cy="26.6" r="6.5"/>
	<line class="st2" x1="134.9" y1="38.1" x2="254.9" y2="37.2"/>
	<line class="st2" x1="134.8" y1="30.1" x2="254.8" y2="29.2"/>
	<line class="st2" x1="134.8" y1="22.1" x2="254.7" y2="21.2"/>
	<line class="st2" x1="134" y1="13.5" x2="254" y2="13.5"/>
	<rect x="159" y="52" class="st0" width="177" height="10"/>
</g>
<g>
	<rect x="133.5" y="58.5" class="st7" width="226" height="50"/>
	<circle class="st8" cx="277.6" cy="83.6" r="6.5"/>
	<circle class="st8" cx="298.8" cy="83.6" r="6.5"/>
	<circle class="st3" cx="320.1" cy="83.6" r="6.5"/>
	<circle class="st8" cx="341.3" cy="83.6" r="6.5"/>
	<line class="st2" x1="134.9" y1="95.1" x2="254.9" y2="94.2"/>
	<line class="st2" x1="134.8" y1="87.1" x2="254.8" y2="86.2"/>
	<line class="st2" x1="134.8" y1="79.1" x2="254.7" y2="78.2"/>
	<line class="st2" x1="134" y1="70.5" x2="254" y2="70.5"/>
	<rect x="159" y="109" class="st0" width="177" height="10"/>
</g>
<g>
	<rect x="133.5" y="115.5" class="st7" width="226" height="50"/>
	<circle class="st8" cx="277.6" cy="140.6" r="6.5"/>
	<circle class="st8" cx="298.8" cy="140.6" r="6.5"/>
	<circle class="st3" cx="320.1" cy="140.6" r="6.5"/>
	<circle class="st8" cx="341.3" cy="140.6" r="6.5"/>
	<line class="st2" x1="134.9" y1="152.1" x2="254.9" y2="151.2"/>
	<line class="st2" x1="134.8" y1="144.1" x2="254.8" y2="143.2"/>
	<line class="st2" x1="134.8" y1="136.1" x2="254.7" y2="135.2"/>
	<line class="st2" x1="134" y1="127.5" x2="254" y2="127.5"/>
	<rect x="159" y="166" class="st0" width="177" height="10"/>
</g>
<g>
	<rect x="133.5" y="172.5" class="st7" width="226" height="50"/>
	<circle class="st8" cx="277.6" cy="197.6" r="6.5"/>
	<circle class="st8" cx="298.8" cy="197.6" r="6.5"/>
	<circle class="st3" cx="320.1" cy="197.6" r="6.5"/>
	<circle class="st8" cx="341.3" cy="197.6" r="6.5"/>
	<line class="st2" x1="134.9" y1="209.1" x2="254.9" y2="208.2"/>
	<line class="st2" x1="134.8" y1="201.1" x2="254.8" y2="200.2"/>
	<line class="st2" x1="134.8" y1="193.1" x2="254.7" y2="192.2"/>
	<line class="st2" x1="134" y1="184.5" x2="254" y2="184.5"/>
	<rect x="159" y="223" class="st0" width="177" height="10"/>
</g>
<g>
	<rect x="133.5" y="229.5" class="st7" width="226" height="50"/>
	<circle class="st8" cx="277.6" cy="254.6" r="6.5"/>
	<circle class="st8" cx="298.8" cy="254.6" r="6.5"/>
	<circle class="st3" cx="320.1" cy="254.6" r="6.5"/>
	<circle class="st8" cx="341.3" cy="254.6" r="6.5"/>
	<line class="st2" x1="134.9" y1="266.1" x2="254.9" y2="265.2"/>
	<line class="st2" x1="134.8" y1="258.1" x2="254.8" y2="257.2"/>
	<line class="st2" x1="134.8" y1="250.1" x2="254.7" y2="249.2"/>
	<line class="st2" x1="134" y1="241.5" x2="254" y2="241.5"/>
	<rect x="159" y="280" class="st0" width="177" height="10"/>
</g>
<g>
	<g>
		<path class="st0" d="M540,278.5c0,2.5-2,4.5-4.5,4.5h-249c-2.5,0-4.5-2-4.5-4.5v-151c0-2.5,2-4.5,4.5-4.5h249c2.5,0,4.5,2,4.5,4.5
			V278.5z"/>
		<path class="st9" d="M535.3,125c1.7,0,2.7,1.3,2.7,2.9v151.5c0,1.7-1,2.6-2.7,2.6h-249c-1.6,0-3.3-0.9-3.3-2.6V127.9
			c0-1.7,1.7-2.9,3.3-2.9H535 M535.3,122h-249c-3.3,0-6.3,2.6-6.3,5.9v151.5c0,3.3,3,5.6,6.3,5.6h249c3.3,0,5.7-2.3,5.7-5.6V127.9
			C541,124.6,538.6,122,535.3,122L535.3,122z"/>
	</g>
	<rect x="290.5" y="132.5" class="st3" width="239" height="142"/>
	<polygon class="st0" points="429,298 429,281 392,281 392,298 338,302 338,308 482,308 482,302 	"/>
	<g>
		<path class="st5" d="M418.5,243.5c0,1.7-1.3,3-3,3h-104c-1.7,0-3-1.3-3-3v-95c0-1.7,1.3-3,3-3h104c1.7,0,3,1.3,3,3V243.5z"/>
		<line class="st2" x1="326" y1="162.5" x2="403" y2="162.5"/>
		<line class="st2" x1="326" y1="169.5" x2="403" y2="169.5"/>
		<rect x="317.5" y="178.5" class="st7" width="28" height="28"/>
		<rect x="350.5" y="178.5" class="st7" width="28" height="28"/>
		<rect x="384.5" y="178.5" class="st7" width="28" height="28"/>
		<rect x="317.5" y="212.5" class="st7" width="28" height="27"/>
		<rect x="350.5" y="212.5" class="st7" width="28" height="27"/>
		<rect x="384.5" y="212.5" class="st7" width="28" height="27"/>
		<rect x="309" y="147" class="st0" width="110" height="8"/>
		<circle class="st10" cx="317.5" cy="149.8" r="2.5"/>
		<circle class="st10" cx="325.5" cy="149.8" r="2.5"/>
		<circle class="st10" cx="333.5" cy="149.8" r="2.5"/>
	</g>
	<g>
		<path class="st5" d="M509.5,258.5c0,1.7-1.3,3-3,3h-104c-1.7,0-3-1.3-3-3v-95c0-1.7,1.3-3,3-3h104c1.7,0,3,1.3,3,3V258.5z"/>
		<rect x="399" y="161" class="st0" width="111" height="9"/>
		<circle class="st10" cx="407.1" cy="164.4" r="2.5"/>
		<circle class="st10" cx="415.1" cy="164.4" r="2.5"/>
		<circle class="st10" cx="423.1" cy="164.4" r="2.5"/>
	</g>
	<g>
		<rect x="473.5" y="179.5" class="st7" width="28" height="70"/>
		<rect x="407.5" y="179.5" class="st7" width="66" height="70"/>
		<line class="st2" x1="479" y1="188.5" x2="489" y2="188.5"/>
		<line class="st2" x1="479" y1="195.5" x2="492" y2="195.5"/>
		<line class="st2" x1="479" y1="202.5" x2="494" y2="202.5"/>
		<line class="st2" x1="479" y1="209.5" x2="486" y2="209.5"/>
		<line class="st2" x1="479" y1="216.5" x2="493" y2="216.5"/>
		<rect x="414" y="187" class="st0" width="13" height="63"/>
		<rect x="435" y="212" class="st0" width="12" height="38"/>
		<rect x="455" y="203" class="st0" width="12" height="47"/>
	</g>
</g>
</svg>
