<?xml version="1.0" encoding="utf-8"?>
<!-- Generator: Adobe Illustrator 20.1.0, SVG Export Plug-In . SVG Version: 6.00 Build 0)  -->
<svg version="1.1" id="Layer_1" xmlns="http://www.w3.org/2000/svg" xmlns:xlink="http://www.w3.org/1999/xlink" x="0px" y="0px"
	 viewBox="0 0 35.3 47.8" style="enable-background:new 0 0 35.3 47.8;" xml:space="preserve">
<style type="text/css">
	.st0{fill:#99DAF0;}
</style>
<g>
	<path class="st0" d="M2.7,0v30h30V0H2.7z M12.7,17h-2V8h2V17z M16.7,23h-2V10h2V23z M20.7,23h-2V10h2V23z M24.7,17h-2v-7h2V17z"/>
	<g>
		<path class="st0" d="M6.4,39.5h3.2v3.9c-0.8,0.4-1.8,0.5-2.8,0.5c-1.4,0-2.4-0.4-3.1-1.1S2.6,41,2.6,39.6c0-0.9,0.2-1.6,0.5-2.3
			s0.9-1.2,1.5-1.6s1.4-0.6,2.3-0.6s1.8,0.2,2.5,0.5l-0.2,0.5c-0.7-0.3-1.5-0.5-2.3-0.5c-1.1,0-2,0.3-2.7,1s-1,1.6-1,2.8
			c0,1.3,0.3,2.3,0.9,2.9s1.6,1,2.8,1c0.8,0,1.5-0.1,2-0.3v-3H6.4V39.5z"/>
		<path class="st0" d="M11.5,35.7c0-0.4,0.1-0.6,0.4-0.6c0.1,0,0.2,0,0.3,0.1s0.1,0.2,0.1,0.4s0,0.3-0.1,0.4s-0.2,0.2-0.3,0.2
			C11.6,36.3,11.5,36.1,11.5,35.7z M12.2,43.8h-0.6v-6.4h0.6V43.8z"/>
		<path class="st0" d="M16,43.4c0.4,0,0.7,0,1-0.1v0.5c-0.3,0.1-0.6,0.1-1,0.1c-0.6,0-1-0.2-1.2-0.5s-0.4-0.8-0.4-1.4v-4h-0.9v-0.3
			l0.9-0.3l0.3-1.4H15v1.5h1.9V38H15v4c0,0.5,0.1,0.8,0.3,1.1S15.6,43.4,16,43.4z"/>
		<path class="st0" d="M20,43.4c0.4,0,0.7,0,1-0.1v0.5c-0.3,0.1-0.6,0.1-1,0.1c-0.6,0-1-0.2-1.2-0.5s-0.4-0.8-0.4-1.4v-4h-0.9v-0.3
			l0.9-0.3l0.3-1.4H19v1.5h1.9V38H19v4c0,0.5,0.1,0.8,0.3,1.1S19.6,43.4,20,43.4z"/>
		<path class="st0" d="M24.9,43.9c-0.9,0-1.6-0.3-2.2-0.9s-0.8-1.4-0.8-2.4s0.2-1.8,0.8-2.4s1.2-0.9,2-0.9s1.3,0.3,1.8,0.8
			s0.7,1.2,0.7,2.1v0.5h-4.6c0,0.9,0.2,1.5,0.6,2s1,0.7,1.7,0.7c0.4,0,0.7,0,1-0.1s0.6-0.2,1-0.3v0.5c-0.4,0.2-0.7,0.3-1,0.3
			S25.3,43.9,24.9,43.9z M24.7,37.9c-0.6,0-1.1,0.2-1.5,0.6s-0.6,1-0.7,1.7h4.1c0-0.7-0.2-1.3-0.5-1.7S25.3,37.9,24.7,37.9z"/>
		<path class="st0" d="M31.4,37.3c0.3,0,0.6,0,0.9,0.1L32.2,38c-0.3-0.1-0.5-0.1-0.8-0.1c-0.5,0-1,0.2-1.3,0.7s-0.5,1-0.5,1.7v3.5
			H29v-6.4h0.5l0.1,1.1l0,0c0.3-0.5,0.5-0.8,0.8-1S31,37.3,31.4,37.3z"/>
	</g>
</g>
</svg>
