<?xml version="1.0" encoding="utf-8"?>
<!-- Generator: Adobe Illustrator 20.1.0, SVG Export Plug-In . SVG Version: 6.00 Build 0)  -->
<svg version="1.1" id="Layer_1" xmlns="http://www.w3.org/2000/svg" xmlns:xlink="http://www.w3.org/1999/xlink" x="0px" y="0px"
	 viewBox="0 0 36.7 44.1" style="enable-background:new 0 0 36.7 44.1;" xml:space="preserve">
<style type="text/css">
	.st0{fill:#546A79;}
</style>
<g>
	<path class="st0" d="M3.2,0v30h30V0H3.2z M28,10.3c-0.3,0.2-0.5,0.5-0.8,0.7c-0.1,0.1-0.1,0.1-0.1,0.2c0,1.2-0.1,2.3-0.4,3.4
		c-0.3,0.9-0.6,1.8-1.1,2.7c-0.3,0.6-0.7,1.1-1.1,1.7c-0.5,0.6-1,1.2-1.6,1.6c-0.7,0.6-1.5,1-2.3,1.4c-1,0.4-2,0.7-3,0.9
		c-0.9,0.1-1.8,0.2-2.7,0.1c-1-0.1-1.9-0.2-2.8-0.6c-0.6-0.2-1.2-0.5-1.8-0.8c-0.2-0.1-0.4-0.2-0.6-0.4c2.2,0.2,4.1-0.4,5.8-1.7
		c-1.1-0.1-2-0.5-2.8-1.3c-0.4-0.4-0.7-0.9-0.9-1.5c0.6,0.1,1.2,0.1,1.8-0.1c-2-0.6-3-1.9-3.2-4c0.6,0.3,1.1,0.4,1.8,0.5
		c-0.9-0.6-1.4-1.4-1.7-2.5c-0.2-1-0.1-2,0.4-2.9c2.2,2.6,4.9,4,8.3,4.2c0-0.2-0.1-0.5-0.1-0.7C19,10.1,19.5,9,20.5,8.1
		c0.9-0.8,2-1.1,3.2-0.9c0.8,0.1,1.6,0.5,2.2,1.1C26,8.4,26,8.4,26.1,8.4c0.8-0.2,1.6-0.5,2.3-0.9c0,0,0.1,0,0.1-0.1
		c-0.1,0.5-0.4,0.9-0.6,1.2c-0.3,0.4-0.6,0.7-1,0.9c0.8-0.1,1.5-0.3,2.2-0.6C28.7,9.5,28.4,9.9,28,10.3z"/>
	<g>
		<path class="st0" d="M3.4,43.8H2.8v-8H0v-0.6h6.2v0.6H3.4V43.8z"/>
		<path class="st0" d="M12.4,43.8L11,39.6c-0.1-0.3-0.2-0.7-0.3-1.3h0l-0.1,0.4l-0.3,0.8l-1.4,4.2H8.2l-1.8-6.4H7l1,3.7
			c0.2,0.9,0.4,1.6,0.5,2h0c0.2-0.9,0.4-1.5,0.5-1.8l1.3-3.9h0.5l1.2,3.9c0.3,0.9,0.5,1.5,0.5,1.8h0c0-0.3,0.2-0.9,0.5-2l1-3.7h0.6
			L13,43.8H12.4z"/>
		<path class="st0" d="M15.9,35.7c0-0.4,0.1-0.6,0.4-0.6c0.1,0,0.2,0,0.3,0.1s0.1,0.2,0.1,0.4c0,0.2,0,0.3-0.1,0.4s-0.2,0.2-0.3,0.2
			C16,36.3,15.9,36.1,15.9,35.7z M16.6,43.8H16v-6.4h0.6V43.8z"/>
		<path class="st0" d="M20.4,43.4c0.4,0,0.7,0,1-0.1v0.5c-0.3,0.1-0.6,0.1-1,0.1c-0.6,0-1-0.2-1.2-0.5s-0.4-0.8-0.4-1.4V38h-0.9
			v-0.3l0.9-0.3l0.3-1.4h0.3v1.5h1.9V38h-1.9v4c0,0.5,0.1,0.8,0.3,1.1S20,43.4,20.4,43.4z"/>
		<path class="st0" d="M24.4,43.4c0.4,0,0.7,0,1-0.1v0.5c-0.3,0.1-0.6,0.1-1,0.1c-0.6,0-1-0.2-1.2-0.5s-0.4-0.8-0.4-1.4V38h-0.9
			v-0.3l0.9-0.3l0.3-1.4h0.3v1.5h1.9V38h-1.9v4c0,0.5,0.1,0.8,0.3,1.1S24,43.4,24.4,43.4z"/>
		<path class="st0" d="M29.3,43.9c-0.9,0-1.6-0.3-2.2-0.9s-0.8-1.4-0.8-2.4c0-1,0.2-1.8,0.8-2.4s1.2-0.9,2-0.9
			c0.8,0,1.3,0.3,1.8,0.8s0.7,1.2,0.7,2.1v0.5H27c0,0.9,0.2,1.5,0.6,2s1,0.7,1.7,0.7c0.4,0,0.7,0,1-0.1s0.6-0.2,1-0.3v0.5
			c-0.4,0.2-0.7,0.3-1,0.3S29.7,43.9,29.3,43.9z M29.1,37.9c-0.6,0-1.1,0.2-1.5,0.6s-0.6,1-0.7,1.7h3.9c0-0.7-0.2-1.3-0.5-1.7
			S29.7,37.9,29.1,37.9z"/>
		<path class="st0" d="M35.8,37.3c0.3,0,0.6,0,0.9,0.1L36.6,38c-0.3-0.1-0.5-0.1-0.8-0.1c-0.5,0-1,0.2-1.3,0.7s-0.5,1-0.5,1.7v3.5
			h-0.6v-6.4h0.5l0.1,1.1h0c0.3-0.5,0.5-0.8,0.8-1S35.4,37.3,35.8,37.3z"/>
	</g>
</g>
</svg>
