<?xml version="1.0" encoding="utf-8"?>
<!-- Generator: Adobe Illustrator 21.0.2, SVG Export Plug-In . SVG Version: 6.00 Build 0)  -->
<svg version="1.1" id="Layer_1" xmlns="http://www.w3.org/2000/svg" xmlns:xlink="http://www.w3.org/1999/xlink" x="0px" y="0px"
	 viewBox="0 0 30 29" style="enable-background:new 0 0 30 29;" xml:space="preserve">
<style type="text/css">
	.st0{fill:#FFFFFF;}
</style>
<g>
	<path class="st0" d="M27.7,7.8c-1.3-2.3-3.1-4-5.4-5.3c-2.3-1.3-4.7-2-7.4-2c-2.7,0-5.1,0.7-7.4,2c-2.3,1.3-4,3.1-5.4,5.3
		c-1.3,2.3-2,4.7-2,7.4c0,3.2,0.9,6.1,2.8,8.6c1.9,2.6,4.3,4.3,7.2,5.3c0.3,0.1,0.6,0,0.8-0.1c0.2-0.2,0.2-0.3,0.2-0.6
		c0,0,0-0.4,0-1c0-0.7,0-1.2,0-1.7l-0.4,0.1c-0.3,0.1-0.6,0.1-1.1,0.1c-0.4,0-0.9-0.1-1.3-0.1c-0.5-0.1-0.9-0.3-1.3-0.6
		c-0.4-0.3-0.7-0.7-0.8-1.2l-0.2-0.4c-0.1-0.3-0.3-0.6-0.6-1c-0.3-0.4-0.6-0.6-0.8-0.7l-0.1-0.1c-0.1-0.1-0.2-0.1-0.2-0.2
		c-0.1-0.1-0.1-0.2-0.2-0.3c0-0.1,0-0.2,0.1-0.2c0.1-0.1,0.3-0.1,0.6-0.1l0.4,0.1c0.3,0.1,0.6,0.2,0.9,0.5c0.4,0.3,0.7,0.6,0.9,1
		c0.3,0.5,0.6,0.9,1.1,1.2C8.5,23.9,9,24,9.4,24c0.4,0,0.8,0,1.1-0.1c0.3-0.1,0.6-0.2,0.9-0.3c0.1-0.9,0.4-1.5,0.9-2
		c-0.7-0.1-1.4-0.2-2-0.3c-0.6-0.2-1.2-0.4-1.8-0.7c-0.6-0.3-1.1-0.8-1.5-1.3c-0.4-0.5-0.7-1.2-1-2c-0.3-0.8-0.4-1.8-0.4-2.9
		c0-1.5,0.5-2.9,1.5-3.9C6.6,9.3,6.7,8,7.2,6.5c0.4-0.1,0.9,0,1.6,0.3c0.7,0.3,1.3,0.5,1.6,0.7c0.3,0.2,0.6,0.4,0.8,0.5
		c1.2-0.3,2.4-0.5,3.7-0.5s2.5,0.2,3.7,0.5l0.7-0.5c0.5-0.3,1.1-0.6,1.8-0.8c0.7-0.3,1.2-0.3,1.6-0.2c0.6,1.4,0.6,2.7,0.2,3.9
		c1,1.1,1.5,2.4,1.5,3.9c0,1.1-0.1,2-0.4,2.9c-0.3,0.8-0.6,1.5-1,2c-0.4,0.5-0.9,0.9-1.6,1.3c-0.6,0.3-1.2,0.6-1.8,0.7
		c-0.6,0.2-1.1,0.3-1.8,0.3c0.7,0.6,1.2,1.5,1.2,2.7v4c0,0.2-0.1,0.4,0.1,0.6c0.2,0.2,0.3,0.2,0.7,0.1c3-1,5.3-2.8,7.2-5.3
		c1.9-2.6,2.8-5.4,2.8-8.6C29.7,12.5,29,10,27.7,7.8z"/>
</g>
</svg>
