<?xml version="1.0" encoding="utf-8"?>
<!-- Generator: Adobe Illustrator 20.1.0, SVG Export Plug-In . SVG Version: 6.00 Build 0)  -->
<svg version="1.1" id="Layer_1" xmlns="http://www.w3.org/2000/svg" xmlns:xlink="http://www.w3.org/1999/xlink" x="0px" y="0px"
	 viewBox="0 0 30.1 44.1" style="enable-background:new 0 0 30.1 44.1;" xml:space="preserve">
<style type="text/css">
	.st0{fill:#99DAF0;}
</style>
<g>
	<path class="st0" d="M0.1,0v30h30V0H0.1z M10.1,17h-2V8h2V17z M14.1,23h-2V10h2V23z M18.1,23h-2V10h2V23z M22.1,17h-2v-7h2V17z"/>
	<g>
		<path class="st0" d="M3.8,39.5H7v3.9c-0.8,0.4-1.8,0.5-2.8,0.5c-1.4,0-2.4-0.4-3.1-1.1S0,41,0,39.6c0-0.9,0.2-1.6,0.5-2.3
			s0.9-1.2,1.5-1.6s1.4-0.6,2.3-0.6s1.8,0.2,2.5,0.5l-0.2,0.5c-0.7-0.3-1.5-0.5-2.3-0.5c-1.1,0-2,0.3-2.7,1s-1,1.6-1,2.8
			c0,1.3,0.3,2.3,0.9,2.9s1.6,1,2.8,1c0.8,0,1.5-0.1,2-0.3v-3H3.8V39.5z"/>
		<path class="st0" d="M8.9,35.7c0-0.4,0.1-0.6,0.4-0.6c0.1,0,0.2,0,0.3,0.1s0.1,0.2,0.1,0.4s0,0.3-0.1,0.4s-0.2,0.2-0.3,0.2
			C9,36.3,8.9,36.1,8.9,35.7z M9.6,43.8H9v-6.4h0.6V43.8z"/>
		<path class="st0" d="M13.4,43.4c0.4,0,0.7,0,1-0.1v0.5c-0.3,0.1-0.6,0.1-1,0.1c-0.6,0-1-0.2-1.2-0.5s-0.4-0.8-0.4-1.4v-4h-0.9
			v-0.3l0.9-0.3l0.3-1.4h0.3v1.5h1.9V38h-1.9v4c0,0.5,0.1,0.8,0.3,1.1S13,43.4,13.4,43.4z"/>
		<path class="st0" d="M17.4,43.4c0.4,0,0.7,0,1-0.1v0.5c-0.3,0.1-0.6,0.1-1,0.1c-0.6,0-1-0.2-1.2-0.5s-0.4-0.8-0.4-1.4v-4h-0.9
			v-0.3l0.9-0.3l0.3-1.4h0.3v1.5h1.9V38h-1.9v4c0,0.5,0.1,0.8,0.3,1.1S17,43.4,17.4,43.4z"/>
		<path class="st0" d="M22.3,43.9c-0.9,0-1.6-0.3-2.2-0.9s-0.8-1.4-0.8-2.4s0.2-1.8,0.8-2.4s1.2-0.9,2-0.9s1.3,0.3,1.8,0.8
			s0.7,1.2,0.7,2.1v0.5H20c0,0.9,0.2,1.5,0.6,2s1,0.7,1.7,0.7c0.4,0,0.7,0,1-0.1s0.6-0.2,1-0.3v0.5c-0.4,0.2-0.7,0.3-1,0.3
			S22.7,43.9,22.3,43.9z M22.1,37.9c-0.6,0-1.1,0.2-1.5,0.6s-0.6,1-0.7,1.7H24c0-0.7-0.2-1.3-0.5-1.7S22.7,37.9,22.1,37.9z"/>
		<path class="st0" d="M28.8,37.3c0.3,0,0.6,0,0.9,0.1L29.6,38c-0.3-0.1-0.5-0.1-0.8-0.1c-0.5,0-1,0.2-1.3,0.7s-0.5,1-0.5,1.7v3.5
			h-0.6v-6.4h0.5l0.1,1.1l0,0c0.3-0.5,0.5-0.8,0.8-1S28.4,37.3,28.8,37.3z"/>
	</g>
</g>
</svg>
