<?xml version="1.0" encoding="utf-8"?>
<!-- Generator: Adobe Illustrator 20.1.0, SVG Export Plug-In . SVG Version: 6.00 Build 0)  -->
<svg version="1.1" id="Layer_1" xmlns="http://www.w3.org/2000/svg" xmlns:xlink="http://www.w3.org/1999/xlink" x="0px" y="0px"
	 viewBox="0 0 35.3 47.8" style="enable-background:new 0 0 35.3 47.8;" xml:space="preserve">
<style type="text/css">
	.st0{filter:url(#Adobe_OpacityMaskFilter);}
	.st1{fill:#AAAAAA;}
	.st2{fill:#D5D5D5;}
	.st3{fill:#8A8A8A;}
	.st4{fill:#616161;}
	.st5{mask:url(#SVGID_1_);}
	.st6{fill:#546A79;}
</style>
<defs>
	<filter id="Adobe_OpacityMaskFilter" filterUnits="userSpaceOnUse" x="2.7" y="0" width="30" height="30">
		
			<feColorMatrix  type="matrix" values="-1 0 0 0 1  0 -1 0 0 1  0 0 -1 0 1  0 0 0 1 0" color-interpolation-filters="sRGB" result="source"/>
		<feFlood  style="flood-color:white;flood-opacity:1" result="back"/>
		<feBlend  in="source" in2="back" mode="normal"/>
	</filter>
</defs>
<mask maskUnits="userSpaceOnUse" x="2.7" y="0" width="30" height="30" id="SVGID_1_">
	<g class="st0">
		<g>
			<path class="st1" d="M21,20.4C21,20.4,21,20.3,21,20.4c-0.2-0.3-0.4-0.7-0.6-1c-0.4-0.6-0.7-1.2-1.1-1.8c-0.6-1-1.2-2-1.9-3
				c-0.2-0.4-0.5-0.8-0.7-1.2v-0.1c0.1-0.1,0.1-0.2,0.2-0.3c1.3-2.1,2.5-4.1,3.8-6.2c0.2-0.3,0.6-0.4,1-0.3c2,1,4,2,5.9,3
				c0,0,0.1,0,0.1,0.1v0.1c-0.2,0.4-0.5,0.7-0.7,1.1c-0.3,0.5-0.6,1-0.9,1.4c-0.4,0.6-0.8,1.3-1.2,1.9c-0.3,0.5-0.7,1.1-1,1.6
				c-0.4,0.6-0.8,1.3-1.2,1.9c-0.3,0.5-0.6,0.9-0.9,1.4C21.6,19.5,21.2,19.9,21,20.4C21,20.3,21,20.4,21,20.4z"/>
			<path class="st2" d="M21,20.4C21,20.3,21,20.3,21,20.4c0.5-0.7,0.9-1.4,1.3-2.1c0.6-0.9,1.1-1.8,1.7-2.7c0.7-1.1,1.3-2.1,2-3.2
				c0.5-0.9,1.1-1.8,1.6-2.7V9.6v0.1c0,0,0,0,0,0.1c0,4.3,0,8.6,0,12.9c0,0.1,0,0.2,0,0.2c-0.1,0.3-0.4,0.4-0.7,0.4
				c-0.2,0-0.3-0.1-0.5-0.2C24.6,22.2,22.8,21.3,21,20.4C21.1,20.4,21,20.4,21,20.4z"/>
			<path class="st3" d="M14.2,9.6c0,0,0.1,0,0.1,0.1c0.7,1.2,1.4,2.3,2.2,3.5c0,0,0,0,0,0.1c0.2,0.3,0.4,0.7,0.6,1
				c0.3,0.5,0.6,0.9,0.9,1.4c0.4,0.7,0.8,1.4,1.3,2c0.5,0.8,1,1.7,1.6,2.5c0,0,0,0,0,0.1c-0.3-0.1-0.5-0.3-0.8-0.4
				c-1.9-1-3.8-1.9-5.7-2.9c-0.1,0-0.1,0-0.1,0.1L14.2,9.6z"/>
			<path class="st3" d="M14.2,22.6"/>
			<path class="st4" d="M7.7,6.9L7.7,6.9c0-0.3,0.3-0.4,0.5-0.4c0.1,0,0.1,0,0.2,0.1c1.9,1,3.9,1.9,5.8,2.9c0,0,0.1,0,0.1,0.1
				s0,0.2,0,0.2c0,1.6,0,3.2,0,4.8c0,0.8,0,1.5,0,2.3c0,0.1,0,0.1,0,0.2v0.1c0,1.8,0,3.7,0,5.5v0.1c0,0.3-0.2,0.5-0.4,0.6
				c-0.2,0-0.3,0-0.5-0.1c-0.4-0.2-0.9-0.4-1.3-0.7c-1.3-0.6-2.6-1.3-3.8-1.9C8,20.5,7.8,20.3,7.7,20c0,0,0,0,0-0.1
				C7.7,15.6,7.7,11.3,7.7,6.9z"/>
		</g>
	</g>
</mask>
<g class="st5">
	<path class="st6" d="M2.7,0v30h30V0H2.7z"/>
</g>
<g>
	<path class="st6" d="M6.5,35.3h2.3c1.1,0,1.8,0.2,2.3,0.5s0.7,0.9,0.7,1.6c0,0.5-0.2,0.9-0.5,1.2s-0.7,0.5-1.3,0.6v0
		c0.7,0.1,1.2,0.3,1.5,0.6s0.5,0.8,0.5,1.4c0,0.8-0.3,1.4-0.8,1.8s-1.3,0.6-2.2,0.6H6.5V35.3z M7.1,39.1h1.9c0.8,0,1.4-0.1,1.8-0.4
		s0.5-0.7,0.5-1.3s-0.2-1-0.6-1.2s-1-0.4-1.8-0.4H7.1V39.1z M7.1,39.7v3.7h2c1.6,0,2.4-0.6,2.4-1.9c0-1.2-0.8-1.8-2.5-1.8H7.1z"/>
	<path class="st6" d="M14.4,43.9h-0.6v-9.1h0.6V43.9z"/>
	<path class="st6" d="M21.8,40.7c0,1-0.3,1.9-0.8,2.4S19.9,44,19,44c-0.6,0-1.1-0.1-1.5-0.4s-0.8-0.7-1-1.2s-0.3-1.1-0.3-1.7
		c0-1,0.3-1.8,0.8-2.4s1.2-0.9,2.1-0.9c0.9,0,1.6,0.3,2.1,0.9S21.8,39.7,21.8,40.7z M16.8,40.7c0,0.9,0.2,1.6,0.6,2s0.9,0.7,1.6,0.7
		s1.2-0.2,1.6-0.7s0.6-1.2,0.6-2c0-0.9-0.2-1.6-0.6-2s-0.9-0.7-1.6-0.7s-1.2,0.2-1.6,0.7S16.8,39.8,16.8,40.7z"/>
	<path class="st6" d="M28.6,37.5v0.4L27.2,38c0.4,0.4,0.5,0.9,0.5,1.4c0,0.6-0.2,1.1-0.6,1.5s-1,0.6-1.6,0.6c-0.3,0-0.5,0-0.6,0
		c-0.2,0.1-0.4,0.3-0.5,0.4s-0.2,0.3-0.2,0.5c0,0.2,0.1,0.4,0.2,0.4s0.4,0.1,0.8,0.1h1.1c0.7,0,1.2,0.1,1.6,0.4s0.6,0.7,0.6,1.2
		c0,0.7-0.3,1.2-0.8,1.6s-1.3,0.5-2.3,0.5c-0.8,0-1.4-0.2-1.9-0.5s-0.7-0.7-0.7-1.3c0-0.4,0.1-0.8,0.4-1.1s0.6-0.5,1.1-0.6
		c-0.2-0.1-0.3-0.2-0.5-0.3s-0.2-0.3-0.2-0.5c0-0.4,0.3-0.8,0.8-1.1c-0.4-0.2-0.7-0.4-0.9-0.7s-0.3-0.7-0.3-1.1
		c0-0.6,0.2-1.1,0.6-1.5s1-0.6,1.6-0.6c0.4,0,0.7,0,1,0.1H28.6z M23.4,45c0,0.9,0.7,1.3,2,1.3c1.7,0,2.5-0.5,2.5-1.6
		c0-0.4-0.1-0.7-0.4-0.8s-0.7-0.3-1.3-0.3h-1C24,43.6,23.4,44,23.4,45z M23.9,39.5c0,0.5,0.1,0.9,0.4,1.1S25,41,25.5,41
		c0.5,0,0.9-0.1,1.2-0.4s0.4-0.7,0.4-1.2c0-0.5-0.1-1-0.4-1.2s-0.7-0.4-1.2-0.4c-0.5,0-0.9,0.1-1.2,0.4S23.9,39,23.9,39.5z"/>
</g>
</svg>
