<?xml version="1.0" encoding="utf-8"?>
<!-- Generator: Adobe Illustrator 20.1.0, SVG Export Plug-In . SVG Version: 6.00 Build 0)  -->
<svg version="1.1" id="Layer_1" xmlns="http://www.w3.org/2000/svg" xmlns:xlink="http://www.w3.org/1999/xlink" x="0px" y="0px"
	 viewBox="0 0 35.3 47.8" style="enable-background:new 0 0 35.3 47.8;" xml:space="preserve">
<style type="text/css">
	.st0{fill:#99DAF0;}
</style>
<g>
	<path class="st0" d="M2.5,0v30h30V0H2.5z M26.5,21.2c-1.3,1.7-2.9,2.9-4.9,3.6c-0.2,0-1.1,0-1.2-0.1s-0.9-0.2-0.9-0.4v-2.7
		c0-0.8,0.5-1.5,0-1.8c0.5-0.1,1.3-0.1,1.7-0.2c0.4-0.1,1-0.3,1.4-0.5s0.9-0.5,1.1-0.9c0.3-0.3,0.6-0.8,0.7-1.4
		c0.2-0.6,0.3-1.2,0.3-2c0-1.1-0.3-1.9-1-2.7c0.3-0.8,0.3-1.7-0.1-2.7c-0.2-0.1-0.6,0-1.1,0.1c-0.5,0.2-0.9,0.4-1.2,0.6l-0.5,0.3
		c-0.8-0.2-1.6-0.3-2.5-0.3s-1.7,0.1-2.5,0.3c-0.1-0.1-0.3-0.2-0.6-0.4c-0.2-0.1-0.6-0.3-1.1-0.5S13.2,9.2,13,9.3
		c-0.4,1-0.4,1.9-0.1,2.7c-0.7,0.7-1,1.6-1,2.7c0,0.7,0.1,1.4,0.3,2s0.4,1,0.7,1.4c0.3,0.3,0.6,0.6,1,0.9c0.4,0.2,0.8,0.4,1.2,0.5
		s0.8,0.2,1.3,0.2c-0.3,0.3-0.6,0.8-0.6,1.3c-0.2,0.1-0.4,0.2-0.6,0.2c-0.2,0-0.5,0.1-0.7,0.1c-0.3,0-0.6-0.1-0.9-0.3
		c-0.3-0.2-0.5-0.5-0.7-0.8s-0.4-0.5-0.6-0.7c-0.3-0.2-0.5-0.3-0.6-0.3h-0.3c-0.2,0-0.3,0-0.4,0.1c-0.1,0-0.1,0.1-0.1,0.2
		s0.1,0.1,0.1,0.2c0.1,0.1,0.1,0.1,0.2,0.2l0.1,0.1c0.2,0.1,0.4,0.3,0.6,0.5c0.2,0.2,0.3,0.5,0.4,0.7l0.1,0.3
		c0.1,0.3,0.3,0.6,0.6,0.8c0.3,0.2,0.6,0.3,0.9,0.4c0.3,0.1,0.6,0.1,0.9,0.1c0.3,0,0.5,0,0.7,0l0.3-0.1c0,0.3,0,0.7,0,1.2
		c0,0.4,0,0.7,0,0.7c0,0.2-0.1,0.3-0.2,0.4c-0.1,0.1-0.3,0.1-0.5,0.1c-2-0.7-3.7-1.9-4.9-3.6c-1.3-1.7-1.9-3.7-1.9-5.9
		c0-1.8,0.4-3.5,1.3-5c0.9-1.5,2.1-2.7,3.6-3.6s3.2-1.3,5-1.3s3.5,0.4,5,1.3s2.7,2.1,3.6,3.6s1.3,3.2,1.3,5
		C28.4,17.5,27.8,19.5,26.5,21.2z"/>
	<g>
		<path class="st0" d="M3.8,39.5H7v3.9c-0.8,0.4-1.8,0.5-2.8,0.5c-1.4,0-2.4-0.4-3.1-1.1S0,41,0,39.6c0-0.9,0.2-1.6,0.5-2.3
			s0.9-1.2,1.5-1.6s1.4-0.6,2.3-0.6s1.8,0.2,2.5,0.5l-0.2,0.5c-0.7-0.3-1.5-0.5-2.3-0.5c-1.1,0-2,0.3-2.7,1s-1,1.6-1,2.8
			c0,1.3,0.3,2.3,0.9,2.9s1.6,1,2.8,1c0.8,0,1.5-0.1,2-0.3v-3H3.8V39.5z"/>
		<path class="st0" d="M8.9,35.7c0-0.4,0.1-0.6,0.4-0.6c0.1,0,0.2,0,0.3,0.1s0.1,0.2,0.1,0.4s0,0.3-0.1,0.4s-0.2,0.2-0.3,0.2
			C9,36.3,8.9,36.1,8.9,35.7z M9.6,43.8H9v-6.4h0.6V43.8z"/>
		<path class="st0" d="M13.4,43.4c0.4,0,0.7,0,1-0.1v0.5c-0.3,0.1-0.6,0.1-1,0.1c-0.6,0-1-0.2-1.2-0.5s-0.4-0.8-0.4-1.4v-4h-0.9
			v-0.3l0.9-0.3l0.3-1.4h0.3v1.5h1.9V38h-1.9v4c0,0.5,0.1,0.8,0.3,1.1S13,43.4,13.4,43.4z"/>
		<path class="st0" d="M20.2,43.8v-4.1c0-0.6-0.1-1.1-0.4-1.4s-0.7-0.4-1.3-0.4c-0.8,0-1.3,0.2-1.7,0.6s-0.5,1-0.5,1.9v3.5h-0.6
			v-9.1h0.6v2.9v0.8l0,0c0.2-0.4,0.5-0.7,0.9-0.8s0.8-0.3,1.4-0.3c1.4,0,2.2,0.8,2.2,2.3v4.2L20.2,43.8L20.2,43.8z"/>
		<path class="st0" d="M23.3,37.5v4.1c0,0.6,0.1,1.1,0.4,1.4s0.7,0.4,1.3,0.4c0.8,0,1.3-0.2,1.7-0.6s0.5-1,0.5-1.9v-3.5h0.6v6.4
			h-0.5l-0.1-0.9l0,0c-0.4,0.7-1.2,1-2.2,1c-1.4,0-2.2-0.8-2.2-2.3v-4.2L23.3,37.5L23.3,37.5z"/>
		<path class="st0" d="M32.6,37.3c0.9,0,1.6,0.3,2,0.8s0.7,1.4,0.7,2.5s-0.2,1.9-0.7,2.4s-1.1,0.9-2,0.9c-0.5,0-0.9-0.1-1.2-0.3
			s-0.7-0.5-0.9-0.8h-0.1l-0.2,1h-0.4v-9.1h0.6V37c0,0.3,0,0.7,0,0.9v0.5l0,0c0.2-0.4,0.5-0.7,0.9-0.8S32.1,37.3,32.6,37.3z
			 M32.6,37.9c-0.8,0-1.3,0.2-1.6,0.6s-0.5,1.1-0.5,2.1v0.1c0,1,0.2,1.7,0.5,2.1s0.9,0.6,1.6,0.6s1.2-0.2,1.6-0.7s0.5-1.2,0.5-2.1
			C34.6,38.8,33.9,37.9,32.6,37.9z"/>
	</g>
</g>
</svg>
