<?xml version="1.0" encoding="utf-8"?>
<!-- Generator: Adobe Illustrator 21.0.2, SVG Export Plug-In . SVG Version: 6.00 Build 0)  -->
<svg version="1.1" id="Layer_1" xmlns="http://www.w3.org/2000/svg" xmlns:xlink="http://www.w3.org/1999/xlink" x="0px" y="0px"
	 viewBox="0 0 105.2 107" style="enable-background:new 0 0 105.2 107;" xml:space="preserve">
<style type="text/css">
	.st0{fill:#FFFFFF;stroke:#546A79;stroke-width:2.236;stroke-linecap:round;stroke-miterlimit:10;}
	.st1{fill:#9ECD64;stroke:#546A79;stroke-width:2.236;stroke-linecap:round;stroke-miterlimit:10;}
	.st2{fill:none;stroke:#546A79;stroke-width:2.236;stroke-linecap:round;stroke-miterlimit:10;}
	.st3{fill:#546A79;}
	.st4{fill:none;stroke:#FFFFFF;stroke-width:2.236;stroke-linecap:round;stroke-miterlimit:10;}
	.st5{fill:none;stroke:#546A79;stroke-width:4.4798;stroke-miterlimit:10;}
	.st6{fill:#9ECD64;stroke:#546A79;stroke-width:4.4798;stroke-linecap:round;stroke-miterlimit:10;}
	.st7{fill:#FFFFFF;stroke:#546A79;stroke-width:2.236;stroke-linecap:round;stroke-linejoin:round;stroke-miterlimit:10;}
</style>
<ellipse class="st0" cx="55.5" cy="68.3" rx="36.6" ry="37.4"/>
<path class="st0" d="M31.3,78.6c4.9,8.4,6.1,17.3-1.9,22s-15-1.1-19.9-9.6S-2,77.5,11.4,69.7C24.8,61.9,26.4,70.2,31.3,78.6z"/>
<path class="st1" d="M12.1,87.4c0,0,2-2.7,4.7-1.6"/>
<path class="st1" d="M26.6,79.2c0,0-3.3,0.4-3.7,3.3"/>
<path class="st1" d="M20.6,89.8c0,0,3.5,1.7,3.7-2.2"/>
<path class="st2" d="M23.2,95.7c0,0,5.6,0.1,5.6-5.2"/>
<path class="st0" d="M13,94.2c0,0-3.8,2.4-6.2-1.2s2.3-4.9,2.3-4.9"/>
<path class="st0" d="M32.3,83.4c0,0,3.6-1.7,1.9-5.7S28.9,77,28.9,77"/>
<path class="st3" d="M7.6,63.4c-12.2,7.1-7.8,15.8-0.8,25.3l2.5,0.1c0,0-7.9-11.5-2.9-12.9c8.1-2.4,12.1-2.6,10.6-5.3
	c-0.3-0.5-0.1-0.8,0.4-0.7l2.1,1.2c0.5,0,1.1-0.3,1.3-0.9l0.4-1.2c0.2-0.5,0.7-0.7,1.1-0.4c1.4,1,5.2,4.8,6.5,8.7l1.4-2.3
	C30.2,74.9,24.1,53.7,7.6,63.4z"/>
<g>
	<path class="st0" d="M61.7,48.5c0,0-0.3,9.2,8.1,9.2c-7.8,1.1-14.3,5.4-14.3,5.4h-0.1c0,0-6.5-4.3-14.3-5.4c8.4,0,8.1-9.2,8.1-9.2"
		/>
	<path class="st0" d="M68.6,41.2c-2,6.9-7.2,11.9-13.3,11.9c-5.9,0-11-4.7-13.1-11.3"/>
	<path class="st0" d="M42.5,27.8c2.2-6.2,7.1-10.6,12.9-10.6c5.7,0,10.6,4.3,12.9,10.5"/>
	<line class="st1" x1="55.4" y1="17.6" x2="55.4" y2="24.5"/>
	<line class="st1" x1="55.3" y1="46" x2="55.3" y2="48.5"/>
	<line class="st1" x1="55.5" y1="62.1" x2="55.5" y2="56.4"/>
	<polygon class="st0" points="39,28.7 39,40.4 55.6,45.9 71.8,40.2 71.8,28.8 55.8,24.9 	"/>
	<polyline class="st0" points="53.6,12.9 52,4.9 55.5,1.4 59.2,4.9 57,13.4 	"/>
	<rect x="52.2" y="12.3" class="st3" width="6.3" height="4.2"/>
	<polyline class="st0" points="67.4,36.5 67.4,33 55.7,29.8 43.4,33 43.4,36.5 	"/>
	<line class="st1" x1="48.8" y1="32.5" x2="48.8" y2="39"/>
	<line class="st1" x1="55.4" y1="30.9" x2="55.4" y2="40.7"/>
	<line class="st1" x1="61.6" y1="32.4" x2="61.6" y2="39"/>
</g>
<g>
	<path class="st0" d="M98.8,88.9c-5,8.2-13.6,13.4-18.4,11.4c-4.8-2-7.3-11.8-4.9-21c3.6-8.7,3.4-16,17.8-10
		C107.7,75.2,102.4,80.2,98.8,88.9z"/>
	<path class="st1" d="M83.9,87.1c0,0,0.4,3.5,3.2,1.3"/>
	<path class="st3" d="M100.3,89.6c0.4-0.5,2.2-2.1,2.5-2.8c2-4.9,2.9-5.3,2.1-15.5c-0.8-9.7-8.4-9.3-8.4-9.3s-4.4-4.6-12.5,0.6
		c-8.1,5.3-7.1,9.2-9.2,14.1c-2,4.9,0.1,7.9,0.1,7.9s1.1-3.4,2.9-6.4c1.9-3,13.3-3.4,15.2-8c-1.9,4.6,5.9,13,5.1,16.4
		c-0.8,3.4-2.9,6.4-2.9,6.4s0.6-0.3,2.4-0.8c-0.6,1.7-4.3,5-3.2,6.8c1.9,3.1,0.6,5.3,0.6,5.3S105.6,102.6,100.3,89.6z"/>
	<path class="st0" d="M80.6,91.3c0,0,1.3,2.6,2.4,3.1C84.2,94.9,87,94,87,94"/>
	<path class="st1" d="M79.9,79.3c0,0,3.3,0.2,4,3"/>
	<path class="st1" d="M95.4,86.8c0,0-2.2-2.5-4.8-1.2"/>
</g>
<line class="st4" x1="14.5" y1="66.3" x2="12.3" y2="64.2"/>
<path class="st4" d="M14.2,66.2c0,0-3.8-0.8-5.9,1.4"/>
<path class="st4" d="M92.6,63.2c0,0-3.8-0.8-5.9,1.4"/>
<path class="st2" d="M55.4,70.4v13.7c0,0,0.3,5,5,5s6.6,0,6.6,0"/>
<path class="st2" d="M55.4,70.4v13.7c0,0-0.3,5-5,5s-6.6,0-6.6,0"/>
<circle class="st0" cx="55.5" cy="69.2" r="2.4"/>
<circle class="st0" cx="66.8" cy="89.2" r="2.4"/>
<circle class="st0" cx="44.3" cy="89.2" r="2.4"/>
<line class="st1" x1="40.3" y1="20.2" x2="33.8" y2="15.1"/>
<line class="st1" x1="43" y1="17" x2="41" y2="14.4"/>
<line class="st1" x1="46.3" y1="14.2" x2="45" y2="11.2"/>
<line class="st1" x1="38.7" y1="11.5" x2="36.8" y2="8.8"/>
<line class="st1" x1="69.3" y1="20.2" x2="75.8" y2="15.1"/>
<line class="st1" x1="66.6" y1="17" x2="68.6" y2="14.4"/>
<line class="st1" x1="63.3" y1="14.2" x2="64.6" y2="11.2"/>
<line class="st1" x1="70.9" y1="11.5" x2="72.8" y2="8.8"/>
</svg>
