<?xml version="1.0" encoding="utf-8"?>
<!-- Generator: Adobe Illustrator 21.0.2, SVG Export Plug-In . SVG Version: 6.00 Build 0)  -->
<svg version="1.1" id="Layer_1" xmlns="http://www.w3.org/2000/svg" xmlns:xlink="http://www.w3.org/1999/xlink" x="0px" y="0px"
	 viewBox="0 0 197.8 107" style="enable-background:new 0 0 197.8 107;" xml:space="preserve">
<style type="text/css">
	.st0{fill:#FFFFFF;stroke:#546A79;stroke-width:2.236;stroke-linecap:round;stroke-miterlimit:10;}
	.st1{fill:#9ECD64;stroke:#546A79;stroke-width:2.236;stroke-linecap:round;stroke-miterlimit:10;}
	.st2{fill:none;stroke:#546A79;stroke-width:2.236;stroke-linecap:round;stroke-miterlimit:10;}
	.st3{fill:#546A79;}
	.st4{fill:none;stroke:#FFFFFF;stroke-width:2.236;stroke-linecap:round;stroke-miterlimit:10;}
	.st5{fill:none;stroke:#546A79;stroke-width:4.4798;stroke-miterlimit:10;}
	.st6{fill:#9ECD64;stroke:#546A79;stroke-width:4.4798;stroke-linecap:round;stroke-miterlimit:10;}
	.st7{fill:#FFFFFF;stroke:#546A79;stroke-width:2.236;stroke-linecap:round;stroke-linejoin:round;stroke-miterlimit:10;}
</style>
<g>
	<g>
		<path class="st0" d="M102.3,84.6H5.1c-2.3,0-4.1-1.8-4.1-4.1V5.5c0-2.3,1.8-4.1,4.1-4.1H117c2.3,0,4.1,1.8,4.1,4.1V34"/>
		<polyline class="st0" points="98.6,69.9 7.6,69.9 7.6,7.5 115,7.5 115,30.7 		"/>
	</g>
	<circle class="st0" cx="62" cy="77.1" r="3.3"/>
	<g>
		<polyline class="st3" points="42.9,98.2 44.2,84.7 78.7,84.7 80.6,98.2 		"/>
		<line class="st0" x1="78.7" y1="84.7" x2="80.6" y2="98.2"/>
	</g>
	<rect x="35.7" y="98.3" class="st0" width="52.5" height="7.4"/>
	<rect x="18.7" y="17" class="st0" width="64.5" height="43.2"/>
	<line class="st0" x1="19" y1="23.5" x2="83.1" y2="23.5"/>
	<circle class="st3" cx="24.6" cy="20.2" r="1.1"/>
	<circle class="st3" cx="27.9" cy="20.2" r="1.1"/>
	<circle class="st3" cx="31.1" cy="20.2" r="1.1"/>
	<polyline class="st0" points="26.3,47.5 34.9,39.8 40.9,45.2 54.9,32.5 63.4,40.2 76.7,40.2 	"/>
	<polyline class="st2" points="25.6,41.3 34.1,48.9 48.9,48.9 63.2,35.6 76.7,35.6 	"/>
	<polyline class="st0" points="89.1,24.4 94.8,24.4 94.8,60.1 89.1,60.1 	"/>
	<polyline class="st0" points="116,53.1 107,53.1 107,40.3 116,40.3 116,45.4 122.1,45.4 122.1,40.3 131.5,40.3 131.5,45.4 
		137.2,45.4 137.2,40.3 146.8,40.3 146.8,53.1 137.9,53.1 	"/>
	<path class="st0" d="M137.6,88.7h-21.8c-4.8,0-8.7-3.9-8.7-8.7V60.6h39.5v19C146.6,84.7,142.6,88.7,137.6,88.7z"/>
	<path class="st0" d="M126.9,68.5L126.9,68.5c-3.2,0-5.8,2.6-5.8,5.8v3.9c0,1,0.8,1.9,1.9,1.9h7.8c1,0,1.9-0.8,1.9-1.9v-3.9
		C132.6,71.1,130.1,68.5,126.9,68.5z"/>
	<g>
		<path class="st0" d="M134.9,14.8H189c1.9,0,3.4,1.6,3.4,3.4v44c0,1.9-1.6,3.4-3.4,3.4h-19"/>
		<circle class="st0" cx="191.4" cy="44.5" r="5"/>
		<circle class="st0" cx="169.3" cy="65.7" r="5"/>
		<circle class="st0" cx="137.6" cy="14.3" r="5"/>
	</g>
</g>
</svg>
