<?xml version="1.0" encoding="utf-8"?>
<!-- Generator: Adobe Illustrator 21.0.2, SVG Export Plug-In . SVG Version: 6.00 Build 0)  -->
<svg version="1.1" id="Layer_1" xmlns="http://www.w3.org/2000/svg" xmlns:xlink="http://www.w3.org/1999/xlink" x="0px" y="0px"
	 viewBox="0 0 124 104" style="enable-background:new 0 0 124 104;" xml:space="preserve">
<style type="text/css">
	.st0{fill:#FFFFFF;}
	.st1{fill:#5F7684;}
	.st2{fill:#FFFFFF;stroke:#5F7684;stroke-width:2.4094;stroke-linecap:round;stroke-miterlimit:10;}
	.st3{fill:#FFFFFF;stroke:#5F7684;stroke-width:2.4094;stroke-miterlimit:10;}
	.st4{fill:#FFFFFF;stroke:#5F7684;stroke-width:2.1874;stroke-linejoin:round;stroke-miterlimit:10;}
	.st5{fill:#FFFFFF;stroke:#5F7684;stroke-width:2.1874;stroke-linecap:round;stroke-linejoin:round;stroke-miterlimit:10;}
	.st6{fill:#FFFFFF;stroke:#5F7684;stroke-width:1.9991;stroke-linecap:round;stroke-linejoin:round;stroke-miterlimit:10;}
</style>
<g>
	<path class="st0" d="M61.3,78.4c-19.2,0-34.8-16-34.8-35.6c0-19.6,15.6-35.6,34.8-35.6s34.8,16,34.8,35.6
		C96.1,62.5,80.5,78.4,61.3,78.4z"/>
	<path class="st1" d="M61.3,8.4C79.9,8.4,95,23.9,95,42.9S79.9,77.3,61.3,77.3c-18.6,0-33.7-15.4-33.7-34.4S42.7,8.4,61.3,8.4
		 M61.3,6.2c-19.8,0-35.9,16.4-35.9,36.7s16.1,36.7,35.9,36.7c19.8,0,35.9-16.4,35.9-36.7S81.2,6.2,61.3,6.2L61.3,6.2z"/>
</g>
<g>
	<g>
		<path class="st0" d="M21.9,53C9.4,53,7.5,39.6,7.5,31.7c0-1.8-0.1-3.5-0.1-5.1c-0.2-5.2-0.4-9.7,2.1-12.3
			c2.1-2.2,6.2-3.3,12.4-3.3s10.3,1.1,12.4,3.3c2.5,2.7,2.3,7.1,2.1,12.3c-0.1,1.6-0.1,3.3-0.1,5.1C36.2,39.6,34.4,53,21.9,53z"/>
		<path class="st1" d="M21.9,12.2c5.9,0,9.7,0.9,11.5,2.9c2.2,2.3,2,6.3,1.8,11.4c-0.1,1.6-0.1,3.4-0.1,5.1
			c0,7.5-1.7,20.1-13.2,20.1c-11.4,0-13.2-12.6-13.2-20.1c0-1.8-0.1-3.5-0.1-5.1c-0.2-5.1-0.4-9.1,1.8-11.4
			C12.2,13.2,16,12.2,21.9,12.2 M21.9,9.8C2.7,9.8,6.3,19.6,6.3,31.7c0,12.1,4.1,22.5,15.6,22.5c11.5,0,15.6-10.4,15.6-22.5
			C37.5,19.6,41.1,9.8,21.9,9.8L21.9,9.8z"/>
	</g>
	<path class="st2" d="M11.6,29.2c0,0,3.8-1.6,6.1,1.2"/>
	<path class="st2" d="M33,29.2c0,0-3.8-1.6-6.1,1.2"/>
	<path class="st2" d="M19.2,37.1c0,0,2.6,4,5.3,0"/>
	<path class="st2" d="M18.3,45c0,0,5.9,3.5,9.3-2.1"/>
	<path class="st3" d="M7.6,37.5c0,0-5.5,0.2-5.9-5.1s5.6-3.8,5.6-3.8"/>
	<path class="st3" d="M36.2,37.7c0,0,4.9-0.2,5-5.5s-5.6-3.4-5.6-3.4"/>
	<g>
		<path class="st1" d="M21.8,0.7C4.3,0.7,3.6,12.8,5.1,27.3l2.6,1.6c0,0-1.2-17.3,4.9-15.6c10.2,2.4,14.6,4.8,14.6,0.9
			c0-0.7,0.4-0.9,0.9-0.5l1.5,2.6c0.6,0.4,1.4,0.3,1.9-0.1l1.2-1c0.5-0.4,1.2-0.3,1.5,0.3c0.9,2,2.6,8.4,1.5,13.4l2.9-1.6
			C38.8,27.2,45.5,0.7,21.8,0.7z"/>
	</g>
</g>
<g>
	<path class="st4" d="M68.2,86c0,0-0.4,10.2,8.9,10.2c-8.6,1.2-15.9,6-15.9,6h-0.1c0,0-7.2-4.8-15.9-6c9.3,0,8.9-10.2,8.9-10.2"/>
	<path class="st4" d="M75.9,77.9c-2.2,7.7-7.9,13.2-14.7,13.2c-6.6,0-12.2-5.2-14.5-12.5"/>
	<path class="st4" d="M46.9,63c2.5-6.9,7.9-11.7,14.3-11.7c6.3,0,11.8,4.8,14.3,11.7"/>
	<line class="st4" x1="61.2" y1="51.8" x2="61.2" y2="59.4"/>
	<line class="st5" x1="61.1" y1="83.2" x2="61.1" y2="88"/>
	<line class="st5" x1="61.3" y1="101.1" x2="61.3" y2="94.8"/>
	<polygon class="st4" points="43,64 43,77 61.4,83.1 79.4,76.8 79.4,64.2 61.6,59.8 	"/>
	<polyline class="st4" points="59.2,46.6 57.4,37.7 61.3,33.8 65.4,37.7 63,47 	"/>
	<rect x="57.7" y="45.9" class="st4" width="6.9" height="4.7"/>
	<polyline class="st5" points="74.5,72.7 74.5,68.8 61.5,65.3 47.9,68.8 47.9,72.7 	"/>
	<line class="st6" x1="53.9" y1="68.3" x2="53.9" y2="75.5"/>
	<path class="st4" d="M55.7,75.8"/>
	<path class="st4" d="M55.7,65.5"/>
	<line class="st6" x1="61.2" y1="66.5" x2="61.2" y2="77.3"/>
	<path class="st4" d="M66.9,75.3"/>
	<path class="st4" d="M66.9,65.2"/>
	<line class="st6" x1="68" y1="68.2" x2="68" y2="75.4"/>
</g>
<g>
	<path class="st2" d="M115.6,31.1c-1.8,11.8-9.2,21.7-15.6,21.7s-14-10-15.6-21.7c0-11.7-3.7-19.9,15.6-19.9S115.6,19.5,115.6,31.1z
		"/>
	<path class="st2" d="M97.8,37c0,0,2.1,3.9,4.2,0"/>
	<path class="st1" d="M117.6,31.2c0.3-0.8,0.4-1.7,0.4-2.6c0-6.6,3-10.5-3.8-20.5c-6.8-9.9-14-6.7-14-6.7s-7.2-3.3-14,6.7
		c-6.8,9.9-3.8,13.9-3.8,20.5c0,6.6,3.9,9,3.9,9s-0.4-4.5,0.3-8.7c0.7-4.3,13.6-10.2,13.6-16.4c0,6.2,12.9,12.1,13.6,16.4
		c0.7,4.3-0.3,8.7-0.3,8.7s0.6-0.6,2.3-2.1c0.1,2.2-0.5,5.3,1.7,6.8c3.7,2.6,1.2,8.3,1.2,8.3S129.8,43.6,117.6,31.2z"/>
	<g>
		<path class="st1" d="M95.7,29.7c-0.2,1-1.7,1.5-3.4,1.2c-1.7-0.3-2.9-1.3-2.8-2.3c0.2-1,1.7-1.5,3.4-1.2
			C94.6,27.8,95.9,28.8,95.7,29.7z"/>
		<path class="st2" d="M97.1,29.5c0,0-1.5-2-4-2.1s-4.5,0.5-5.4-0.4"/>
	</g>
	<g>
		<path class="st1" d="M104.4,29.7c0.2,1,1.7,1.5,3.4,1.2c1.7-0.3,2.9-1.3,2.8-2.3c-0.2-1-1.7-1.5-3.4-1.2
			C105.5,27.8,104.2,28.8,104.4,29.7z"/>
		<path class="st2" d="M103,29.5c0,0,1.5-2,4-2.1s4.5,0.5,5.4-0.4"/>
	</g>
	<path class="st2" d="M97.5,44.8c0,0,1.7,1.5,2.7,1.5c1,0,2.7-1.5,2.7-1.5"/>
</g>
</svg>
