<?xml version="1.0" encoding="utf-8"?>
<!-- Generator: Adobe Illustrator 20.1.0, SVG Export Plug-In . SVG Version: 6.00 Build 0)  -->
<svg version="1.1" id="Layer_1" xmlns="http://www.w3.org/2000/svg" xmlns:xlink="http://www.w3.org/1999/xlink" x="0px" y="0px"
	 viewBox="0 0 1200 94" style="enable-background:new 0 0 1200 94;" xml:space="preserve">
<style type="text/css">
	.st0{fill:#52AFE2;}
</style>
<g>
	<path class="st0" d="M1194.3,50c-1.1,0-2-0.8-2-1.8c0-1.2-1-2.2-2.2-2.2c-0.8,0-1.6-0.6-1.8-1.4c-0.6-2.1-2.4-3.4-4.5-3.4
		c-0.2,0-0.5,0-0.8,0.1c-0.6,0.1-1.2-0.1-1.6-0.5c-0.4-0.4-0.7-1-0.7-1.6c0-0.6,0-1.1,0-1.7c0-17.9-14.5-32.4-32.4-32.4
		c-15.5,0-28.9,11.1-31.8,26.3c-0.2,1-1.1,1.7-2.1,1.6l-0.2,0c-0.1,0-0.2,0-0.3,0c-5,0-9.1,4.1-9.1,9.1c0,0.8,0.1,1.6,0.3,2.4
		c0.2,0.8-0.1,1.6-0.7,2.1c-0.5,0.4-0.9,1.1-0.9,1.8c0,1.1-0.9,2-2,2c-1.1,0-2-0.9-2-2c0-1.4,0.5-2.8,1.4-3.9
		c-0.1-0.8-0.2-1.6-0.2-2.3c0-6.9,5.3-12.5,12.1-13c3.9-16.3,18.5-27.9,35.4-27.9c20,0,36.2,16.2,36.4,36.1c3,0.3,5.7,2.3,7,5
		c2.7,0.7,4.6,3,4.6,5.9C1196.3,49.2,1195.4,50,1194.3,50C1194.3,50,1194.3,50,1194.3,50z"/>
	<path class="st0" d="M1149.3,40.2c-1.1,0-2-0.9-2-2c0-5.6-4.6-10.2-10.2-10.2c-2.5,0-4.9,0.9-6.8,2.6c-0.8,0.7-2.1,0.7-2.8-0.2
		c-0.7-0.8-0.7-2.1,0.2-2.8c2.6-2.3,5.9-3.6,9.4-3.6c7.8,0,14.2,6.4,14.2,14.2C1151.3,39.3,1150.4,40.2,1149.3,40.2z"/>
</g>
<g>
	<path class="st0" d="M65.6,94C65.6,94,65.6,94,65.6,94c1.1,0,2-1,2-2.1c0-1-0.3-1.9-0.9-2.7c0.1-0.4,0.1-0.9,0.1-1.3
		c0-4.6-3.4-8.4-7.9-9C56.2,68.4,46.7,61,35.7,61c-13,0-23.6,10.4-24,23.2c-1.8,0.4-3.4,1.6-4.3,3.2c-1.8,0.6-3.2,2.4-3.2,4.4
		c0,1.1,0.9,2,2,2c1.1,0,2-0.9,2-2c0-0.4,0.3-0.7,0.7-0.8c0.8,0,1.6-0.6,1.8-1.4c0.3-1,1.2-1.7,2.2-1.7c0.1,0,0.3,0,0.4,0
		c0.6,0.1,1.2-0.1,1.6-0.5c0.4-0.4,0.7-1,0.7-1.6c0-0.3,0-0.7,0-1.1c0-11,9-20,20-20c9.6,0,17.9,6.8,19.7,16.3
		c0.2,1,1.1,1.7,2.1,1.6l0.3,0c2.8,0,5.1,2.3,5.1,5.1c0,0.4-0.1,0.9-0.2,1.4c-0.2,0.8,0.1,1.6,0.7,2.1c0.1,0.1,0.3,0.4,0.3,0.7
		C63.6,93.1,64.5,94,65.6,94z"/>
	<path class="st0" d="M25.8,83.6c1.1,0,2-0.9,2-2c0-3.8,3.1-6.8,6.8-6.8c1.7,0,3.3,0.6,4.5,1.7c0.8,0.7,2.1,0.7,2.8-0.2
		c0.7-0.8,0.7-2.1-0.2-2.8c-2-1.8-4.5-2.7-7.2-2.7c-6,0-10.8,4.8-10.8,10.8C23.8,82.7,24.7,83.6,25.8,83.6z"/>
	<g>
		<path class="st0" d="M184,69c1.4,0,2.6-1.3,2.6-2.7c0-1.6,1.3-3,3-3.1c1.1-0.1,2.1-0.8,2.4-1.9c0.8-2.7,3.2-4.6,6.1-4.6
			c0.3,0,0.7,0,1,0.1c0.8,0.1,1.6-0.1,2.2-0.6c0.6-0.5,0.9-1.3,0.9-2.1c0-0.8-0.1-1.5-0.1-2.3c0-23.8,19.4-43.2,43.2-43.2
			c20.7,0,38.5,14.7,42.4,35c0.2,1.3,1.4,2.2,2.7,2.1l0.3,0c0.1,0,0.3,0,0.4,0c6.7,0,12.1,5.4,12.1,12.1c0,1.1-0.2,2.1-0.4,3.2
			c-0.3,1,0.1,2.1,0.9,2.8c0.7,0.6,1.1,1.4,1.2,2.4c0,1.5,1.2,2.7,2.7,2.6c1.5,0,2.6-1.2,2.6-2.7c0-1.9-0.7-3.7-1.9-5.2
			c0.2-1,0.3-2.1,0.3-3.1c0-9.2-7.1-16.7-16.1-17.4c-5.1-21.7-24.6-37.2-47.1-37.2c-26.6,0-48.3,21.6-48.5,48.1
			c-4,0.5-7.6,3-9.3,6.7c-3.5,1-6.1,4.3-6.2,8.1C181.3,67.7,182.5,69,184,69C184,69,184,69,184,69z"/>
		<path class="st0" d="M243.9,55.4c1.5,0,2.6-1.2,2.6-2.6c0-7.5,6.1-13.6,13.6-13.6c3.3,0,6.5,1.2,9,3.4c1.1,1,2.8,0.9,3.7-0.2
			c1-1.1,0.9-2.8-0.2-3.7c-3.5-3.1-7.9-4.8-12.6-4.8c-10.4,0-18.9,8.5-18.9,18.9C241.2,54.2,242.4,55.4,243.9,55.4z"/>
	</g>
</g>
</svg>
