<?xml version="1.0" encoding="utf-8"?>
<!-- Generator: Adobe Illustrator 21.0.2, SVG Export Plug-In . SVG Version: 6.00 Build 0)  -->
<svg version="1.1" id="Layer_1" xmlns="http://www.w3.org/2000/svg" xmlns:xlink="http://www.w3.org/1999/xlink" x="0px" y="0px"
	 viewBox="0 0 131 88.8" style="enable-background:new 0 0 131 88.8;" xml:space="preserve">
<style type="text/css">
	.st0{fill:#FFFFFF;}
	.st1{fill:none;stroke:#EE7C6B;stroke-width:2.2359;stroke-linecap:round;stroke-miterlimit:10;}
	.st2{fill:#FFFFFF;stroke:#EE7C6B;stroke-width:2.2359;stroke-linecap:round;stroke-miterlimit:10;}
	.st3{fill:#EE7C6B;}
</style>
<g>
	<g>
		<path class="st0" d="M129,82.7c0,2.8-2.2,5-5,5H77c-2.8,0-5-2.3-5-5V14.6c0-2.8,2.3-5,5-5h47c2.8,0,5,2.3,5,5V82.7z"/>
		<path class="st1" d="M129,82.7c0,2.8-2.2,5-5,5H77c-2.8,0-5-2.3-5-5V14.6c0-2.8,2.3-5,5-5h47c2.8,0,5,2.3,5,5V82.7z"/>
	</g>
	<g>
		<circle class="st2" cx="100.8" cy="38.3" r="22.9"/>
		<path class="st2" d="M84.4,39.1c0-8.9,7.2-16.2,16.2-16.2"/>
	</g>
	<circle class="st2" cx="100.8" cy="38.3" r="6.5"/>
	<circle class="st3" cx="100.8" cy="38.3" r="1.5"/>
	<line class="st2" x1="108.4" y1="79.2" x2="108.4" y2="69"/>
	<line class="st2" x1="114.7" y1="79.2" x2="114.7" y2="69"/>
	<line class="st2" x1="121.1" y1="79.2" x2="121.1" y2="69"/>
	<line class="st2" x1="102" y1="79.2" x2="102" y2="69"/>
	<g>
		<path class="st0" d="M85.7,79.6c-1.1,1.9-3.6,2.6-5.5,1.5c-1.9-1.1-2.6-3.6-1.5-5.5s17.8-24,17.8-24c1.7-2.2,2.1-1.9,1.1,0.6
			C97.6,52.2,86.8,77.7,85.7,79.6z"/>
		<path class="st1" d="M85.7,79.6c-1.1,1.9-3.6,2.6-5.5,1.5c-1.9-1.1-2.6-3.6-1.5-5.5s17.8-24,17.8-24c1.7-2.2,2.1-1.9,1.1,0.6
			C97.6,52.2,86.8,77.7,85.7,79.6z"/>
	</g>
	<circle class="st3" cx="82.4" cy="77.3" r="1.5"/>
</g>
<g>
	<g>
		<path class="st0" d="M58.3,82.7c0,2.8-2.3,5-5,5h-47c-2.8,0-5-2.3-5-5V14.6c0-2.8,2.3-5,5-5h47c2.8,0,5,2.3,5,5V82.7z"/>
		<path class="st1" d="M58.3,82.7c0,2.8-2.3,5-5,5h-47c-2.8,0-5-2.3-5-5V14.6c0-2.8,2.3-5,5-5h47c2.8,0,5,2.3,5,5V82.7z"/>
	</g>
	<circle class="st3" cx="53.1" cy="14.7" r="1.9"/>
	<circle class="st3" cx="7.1" cy="14.6" r="1.9"/>
	<circle class="st3" cx="53.1" cy="82.6" r="1.9"/>
	<circle class="st3" cx="7.1" cy="82.6" r="1.9"/>
	<line class="st2" x1="26.6" y1="24.3" x2="26.6" y2="16.7"/>
	<line class="st2" x1="33" y1="24.3" x2="33" y2="16.7"/>
	<line class="st2" x1="39.4" y1="24.3" x2="39.4" y2="16.7"/>
	<line class="st2" x1="20.3" y1="24.3" x2="20.3" y2="16.7"/>
	<rect x="13" y="35.3" class="st2" width="33.6" height="16.5"/>
	<g>
		<path class="st0" d="M17.6,38.7c0,0.5-0.5,1-1,1H9.7c-0.6,0-1-0.5-1-1v-6.9c0-0.5,0.4-1,1-1h6.9c0.5,0,1,0.5,1,1V38.7z"/>
		<path class="st1" d="M17.6,38.7c0,0.5-0.5,1-1,1H9.7c-0.6,0-1-0.5-1-1v-6.9c0-0.5,0.4-1,1-1h6.9c0.5,0,1,0.5,1,1V38.7z"/>
	</g>
	<g>
		<path class="st0" d="M34.3,38.7c0,0.5-0.5,1-1,1h-6.9c-0.5,0-1-0.5-1-1v-6.9c0-0.5,0.5-1,1-1h6.9c0.5,0,1,0.5,1,1V38.7z"/>
		<path class="st1" d="M34.3,38.7c0,0.5-0.5,1-1,1h-6.9c-0.5,0-1-0.5-1-1v-6.9c0-0.5,0.5-1,1-1h6.9c0.5,0,1,0.5,1,1V38.7z"/>
	</g>
	<g>
		<path class="st0" d="M50.7,38.7c0,0.5-0.5,1-1,1h-6.9c-0.5,0-1-0.5-1-1v-6.9c0-0.5,0.5-1,1-1h6.9c0.5,0,1,0.5,1,1V38.7z"/>
		<path class="st1" d="M50.7,38.7c0,0.5-0.5,1-1,1h-6.9c-0.5,0-1-0.5-1-1v-6.9c0-0.5,0.5-1,1-1h6.9c0.5,0,1,0.5,1,1V38.7z"/>
	</g>
	<g>
		<path class="st0" d="M17.6,55.3c0,0.5-0.5,1-1,1H9.7c-0.6,0-1-0.5-1-1v-6.9c0-0.6,0.4-1,1-1h6.9c0.5,0,1,0.4,1,1V55.3z"/>
		<path class="st1" d="M17.6,55.3c0,0.5-0.5,1-1,1H9.7c-0.6,0-1-0.5-1-1v-6.9c0-0.6,0.4-1,1-1h6.9c0.5,0,1,0.4,1,1V55.3z"/>
	</g>
	<g>
		<path class="st0" d="M34.3,55.3c0,0.5-0.5,1-1,1h-6.9c-0.5,0-1-0.5-1-1v-6.9c0-0.6,0.5-1,1-1h6.9c0.5,0,1,0.4,1,1V55.3z"/>
		<path class="st1" d="M34.3,55.3c0,0.5-0.5,1-1,1h-6.9c-0.5,0-1-0.5-1-1v-6.9c0-0.6,0.5-1,1-1h6.9c0.5,0,1,0.4,1,1V55.3z"/>
	</g>
	<g>
		<path class="st0" d="M38.1,80.1c0,0.6-0.5,1-1,1H22.6c-0.5,0-1-0.4-1-1V65.6c0-0.6,0.5-1,1-1h14.5c0.5,0,1,0.4,1,1V80.1z"/>
		<path class="st1" d="M38.1,80.1c0,0.6-0.5,1-1,1H22.6c-0.5,0-1-0.4-1-1V65.6c0-0.6,0.5-1,1-1h14.5c0.5,0,1,0.4,1,1V80.1z"/>
	</g>
	<g>
		<path class="st0" d="M50.7,55.3c0,0.5-0.5,1-1,1h-6.9c-0.5,0-1-0.5-1-1v-6.9c0-0.6,0.5-1,1-1h6.9c0.5,0,1,0.4,1,1V55.3z"/>
		<path class="st1" d="M50.7,55.3c0,0.5-0.5,1-1,1h-6.9c-0.5,0-1-0.5-1-1v-6.9c0-0.6,0.5-1,1-1h6.9c0.5,0,1,0.4,1,1V55.3z"/>
	</g>
	<line class="st1" x1="39.4" y1="67.8" x2="46.2" y2="67.8"/>
	<line class="st1" x1="39.4" y1="72.9" x2="46.2" y2="72.9"/>
	<line class="st1" x1="39.4" y1="77.9" x2="46.2" y2="77.9"/>
	<line class="st1" x1="13.1" y1="67.8" x2="21.4" y2="67.8"/>
	<line class="st1" x1="13.1" y1="72.9" x2="21.4" y2="72.9"/>
	<line class="st1" x1="13.1" y1="77.9" x2="21.4" y2="77.9"/>
	<line class="st1" x1="13.1" y1="56.3" x2="13.1" y2="77.9"/>
	<line class="st1" x1="46.2" y1="56.3" x2="46.2" y2="77.9"/>
</g>
<line class="st2" x1="29.8" y1="39.8" x2="29.8" y2="46.6"/>
</svg>
