<?xml version="1.0" encoding="utf-8"?>
<!-- Generator: Adobe Illustrator 21.0.2, SVG Export Plug-In . SVG Version: 6.00 Build 0)  -->
<svg version="1.1" id="Layer_1" xmlns="http://www.w3.org/2000/svg" xmlns:xlink="http://www.w3.org/1999/xlink" x="0px" y="0px"
	 viewBox="0 0 124 94" style="enable-background:new 0 0 124 94;" xml:space="preserve">
<style type="text/css">
	.st0{fill:#FFFFFF;stroke:#A081B0;stroke-width:2.2359;stroke-linecap:round;stroke-linejoin:round;stroke-miterlimit:10;}
	.st1{fill:#FFFFFF;}
	.st2{fill:none;stroke:#A081B0;stroke-width:2.2359;stroke-linecap:round;stroke-linejoin:round;stroke-miterlimit:10;}
</style>
<path class="st0" d="M114.2,83.2H9.8C7.2,83.2,5,81,5,78.4V23.1c0-2.6,2.2-4.8,4.8-4.8h104.4c2.6,0,4.8,2.2,4.8,4.8v55.2
	C119,81,116.8,83.2,114.2,83.2z"/>
<g>
	<g>
		<path class="st1" d="M16,54.3c0-2.8,2.3-5,5-5h82c2.8,0,5,2.3,5,5v12c0,2.8-2.3,5-5,5H21c-2.8,0-5-2.3-5-5V54.3z"/>
		<path class="st2" d="M16,54.3c0-2.8,2.3-5,5-5h82c2.8,0,5,2.3,5,5v12c0,2.8-2.3,5-5,5H21c-2.8,0-5-2.3-5-5V54.3z"/>
	</g>
	<g>
		
			<ellipse transform="matrix(4.058185e-03 -1 1 4.058185e-03 -33.5182 86.9692)" class="st0" cx="26.9" cy="60.3" rx="4.1" ry="4.1"/>
	</g>
	<g>
		
			<ellipse transform="matrix(4.058185e-03 -1 1 4.058185e-03 -20.7703 99.8721)" class="st0" cx="39.8" cy="60.4" rx="4.1" ry="4.1"/>
	</g>
	<g>
		
			<ellipse transform="matrix(4.058185e-03 -1 1 4.058185e-03 -6.926 113.6759)" class="st0" cx="53.6" cy="60.3" rx="4.1" ry="4.1"/>
	</g>
	<g>
		<line class="st0" x1="98.4" y1="57.3" x2="67.6" y2="57.3"/>
		<line class="st0" x1="98.4" y1="63.3" x2="67.6" y2="63.3"/>
	</g>
	<g>
		<path class="st1" d="M16,14.5c0-2.8,2.3-5,5-5h82c2.8,0,5,2.3,5,5v12c0,2.8-2.3,5-5,5H21c-2.8,0-5-2.3-5-5V14.5z"/>
		<path class="st2" d="M16,14.5c0-2.8,2.3-5,5-5h82c2.8,0,5,2.3,5,5v12c0,2.8-2.3,5-5,5H21c-2.8,0-5-2.3-5-5V14.5z"/>
	</g>
	<g>
		<ellipse transform="matrix(4.058185e-03 -1 1 4.058185e-03 6.217 47.3949)" class="st0" cx="26.9" cy="20.6" rx="4.1" ry="4.1"/>
	</g>
	<g>
		
			<ellipse transform="matrix(4.058185e-03 -1 1 4.058185e-03 18.9649 60.2978)" class="st0" cx="39.8" cy="20.6" rx="4.1" ry="4.1"/>
	</g>
	<g>
		
			<ellipse transform="matrix(4.058185e-03 -1 1 4.058185e-03 32.8092 74.1016)" class="st0" cx="53.6" cy="20.6" rx="4.1" ry="4.1"/>
	</g>
	<g>
		<line class="st0" x1="98.4" y1="17.5" x2="67.6" y2="17.5"/>
		<line class="st0" x1="98.4" y1="23.5" x2="67.6" y2="23.5"/>
	</g>
	<g>
		<path class="st1" d="M16,76.3c0-2.8,2.3-5,5-5h82c2.8,0,5,2.3,5,5v12c0,2.8-2.3,5-5,5H21c-2.8,0-5-2.3-5-5V76.3z"/>
		<path class="st2" d="M16,76.3c0-2.8,2.3-5,5-5h82c2.8,0,5,2.3,5,5v12c0,2.8-2.3,5-5,5H21c-2.8,0-5-2.3-5-5V76.3z"/>
	</g>
	<g>
		
			<ellipse transform="matrix(4.058185e-03 -1 1 4.058185e-03 -55.5178 108.8801)" class="st0" cx="26.9" cy="82.3" rx="4.1" ry="4.1"/>
	</g>
	<g>
		
			<ellipse transform="matrix(4.058185e-03 -1 1 4.058185e-03 -42.7699 121.783)" class="st0" cx="39.8" cy="82.4" rx="4.1" ry="4.1"/>
	</g>
	<g>
		
			<ellipse transform="matrix(4.058185e-03 -1 1 4.058185e-03 -28.9257 135.5869)" class="st0" cx="53.6" cy="82.3" rx="4.1" ry="4.1"/>
	</g>
	<g>
		<line class="st0" x1="98.4" y1="79.3" x2="67.6" y2="79.3"/>
		<line class="st0" x1="98.4" y1="85.3" x2="67.6" y2="85.3"/>
	</g>
</g>
<circle class="st0" cx="119" cy="42.4" r="3.5"/>
<circle class="st0" cx="119" cy="29.4" r="3.5"/>
<circle class="st0" cx="4.9" cy="36.4" r="3.5"/>
<circle class="st0" cx="4.9" cy="64.5" r="3.5"/>
<circle class="st0" cx="4.9" cy="73.5" r="3.5"/>
<circle class="st0" cx="119" cy="70.1" r="3.5"/>
</svg>
