<?xml version="1.0" encoding="utf-8"?>
<!-- Generator: Adobe Illustrator 21.0.2, SVG Export Plug-In . SVG Version: 6.00 Build 0)  -->
<svg version="1.1" id="Layer_1" xmlns="http://www.w3.org/2000/svg" xmlns:xlink="http://www.w3.org/1999/xlink" x="0px" y="0px"
	 viewBox="0 0 90 90.3" style="enable-background:new 0 0 90 90.3;" xml:space="preserve">
<style type="text/css">
	.st0{fill:#FFFFFF;stroke:#7793A3;stroke-width:2.2359;stroke-linecap:round;stroke-miterlimit:10;}
	.st1{fill:none;stroke:#7793A3;stroke-width:2.2359;stroke-linecap:round;stroke-miterlimit:10;}
</style>
<g>
	<path class="st0" d="M69,31L46.7,43.5c-1.9,1.1-4.3,1.1-6.2,0L17.9,30.8c-1.4-0.8-1.4-2.8,0-3.7l23.5-13.4c1.4-0.8,3.1-0.8,4.5,0
		L69,26.9C70.6,27.8,70.6,30,69,31z"/>
	<line class="st1" x1="70.2" y1="50.2" x2="70.2" y2="28.5"/>
	<path class="st0" d="M34.7,71.2l5.8,3.3c1.9,1.1,4.3,1.1,6.2,0l7.3-4.1"/>
	<line class="st1" x1="16.8" y1="28.3" x2="16.8" y2="50"/>
	<path class="st0" d="M57.9,62.8v17.8c0,0.4,0.2,0.8,0.6,1l12.8,7.2c1.1,0.6,2.4,0.6,3.5,0l12.6-7.1c0.4-0.3,0.7-0.7,0.7-1.1V62.8"
		/>
	<line class="st1" x1="44" y1="49.3" x2="44" y2="67.8"/>
	<path class="st0" d="M87.4,64.3l-12.6,7.1c-1.1,0.6-2.4,0.6-3.5,0l-12.8-7.2c-0.8-0.5-0.8-1.6,0-2.1l13.3-7.6
		c0.8-0.5,1.8-0.5,2.5,0L87.4,62C88.3,62.4,88.3,63.8,87.4,64.3z"/>
	<line class="st1" x1="73.3" y1="74.8" x2="73.3" y2="85.2"/>
	<ellipse class="st0" cx="31.3" cy="28.5" rx="4.7" ry="3"/>
	<ellipse class="st0" cx="43.8" cy="34.3" rx="4.7" ry="3"/>
	<ellipse class="st0" cx="73.3" cy="62.7" rx="4.7" ry="3"/>
	<g>
		<path class="st0" d="M1.5,62.8v17.8c0,0.4,0.2,0.8,0.6,1l12.8,7.2c1.1,0.6,2.4,0.6,3.5,0L31,81.7c0.4-0.3,0.7-0.7,0.7-1.1V62.8"/>
		<path class="st0" d="M31,64.3l-12.6,7.1c-1.1,0.6-2.4,0.6-3.5,0L2.1,64.2c-0.8-0.5-0.8-1.6,0-2.1l13.3-7.6c0.8-0.5,1.8-0.5,2.5,0
			L31,61.9C31.9,62.4,31.9,63.8,31,64.3z"/>
		<line class="st1" x1="16.8" y1="74.8" x2="16.8" y2="85.2"/>
		<ellipse class="st0" cx="16.8" cy="62.7" rx="4.7" ry="3"/>
	</g>
	<ellipse class="st0" cx="42.6" cy="21.3" rx="4.7" ry="3"/>
	<ellipse class="st0" cx="55.7" cy="28.5" rx="4.7" ry="3"/>
	<g>
		<path class="st0" d="M57.9,24.8v17.8c0,0.4,0.2,0.8,0.6,1l12.8,7.2c1.1,0.6,2.4,0.6,3.5,0l12.6-7.1c0.4-0.3,0.7-0.7,0.7-1.1V24.9"
			/>
		<line class="st1" x1="73.3" y1="37.3" x2="73.3" y2="47.7"/>
		<line class="st1" x1="72.7" y1="10.8" x2="72.7" y2="1.3"/>
		<line class="st1" x1="58.6" y1="17.9" x2="58.6" y2="9.8"/>
		<line class="st1" x1="87.4" y1="17.9" x2="87.4" y2="9.8"/>
		<path class="st0" d="M87.4,26.3l-12.6,7.1c-1.1,0.6-2.4,0.6-3.5,0l-12.8-7.2c-0.8-0.5-0.8-1.6,0-2.1l13.3-7.6
			c0.8-0.5,1.8-0.5,2.5,0L87.4,24C88.3,24.5,88.3,25.8,87.4,26.3z"/>
	</g>
	<ellipse class="st0" cx="73.3" cy="24.8" rx="4.7" ry="3"/>
</g>
</svg>
