<?xml version="1.0" encoding="utf-8"?>
<!-- Generator: Adobe Illustrator 21.0.2, SVG Export Plug-In . SVG Version: 6.00 Build 0)  -->
<svg version="1.1" id="Layer_1" xmlns="http://www.w3.org/2000/svg" xmlns:xlink="http://www.w3.org/1999/xlink" x="0px" y="0px"
	 viewBox="0 0 144 80.9" style="enable-background:new 0 0 144 80.9;" xml:space="preserve">
<style type="text/css">
	.st0{fill:#A081B0;}
</style>
<path class="st0" d="M56,4.5c1.1,0,2,0.9,2,2v6.1c0,1.1,0.9,2.2,2,2.4l3,0.8c0.2,0.1,0.5,0.1,0.7,0.1c0.9,0,1.8-0.5,2.2-1.2L69,9.2
	c0.4-0.6,1-1,1.7-1c0.3,0,0.7,0.1,1,0.3l2.7,1.5c1,0.6,1.3,1.8,0.7,2.7l-3.1,5.4c-0.5,1-0.3,2.3,0.5,3l2.2,2.1
	c0.5,0.5,1.2,0.8,1.9,0.8c0.4,0,0.8-0.1,1.2-0.3l5.5-3.2c0.3-0.2,0.7-0.3,1-0.3c0.7,0,1.4,0.4,1.7,1l1.5,2.7c0.6,1,0.2,2.2-0.7,2.7
	l-5.4,3.1c-1,0.6-1.4,1.8-1.1,2.9l0.8,3c0.2,1.1,1.3,2,2.4,2h6.3c1.1,0,2,0.9,2,2v3.1c0,1.1-0.9,2-2,2h-6.1c-1.1,0-2.2,0.9-2.3,2
	l-0.7,3.1c-0.3,1,0.2,2.4,1.1,2.9l5.3,3.1c1,0.5,1.3,1.8,0.7,2.7l-1.5,2.7c-0.4,0.6-1,1-1.7,1c-0.3,0-0.7-0.1-1-0.3l-5.2-3
	c-0.3-0.2-0.7-0.3-1.1-0.3c-0.7,0-1.4,0.3-1.9,0.8l-2.2,2.3c-0.8,0.7-1,2.1-0.5,3.1l3,5.1c0.5,1,0.2,2.2-0.7,2.7l-2.7,1.5
	c-0.3,0.2-0.7,0.3-1,0.3c-0.7,0-1.4-0.4-1.7-1l-2.9-5c-0.4-0.7-1.3-1.2-2.1-1.2c-0.3,0-0.5,0-0.8,0.1l-3.2,0.9c-1.1,0.2-2,1.3-2,2.4
	v5.7c0,1.1-0.9,2-2,2h-3.1c-1.1,0-2-0.9-2-2v-5.5c0-1.1-0.9-2.2-2-2.3L46.3,68c-0.2-0.1-0.5-0.1-0.7-0.1c-0.9,0-1.8,0.5-2.2,1.2
	l-2.8,4.8c-0.4,0.6-1,1-1.7,1c-0.3,0-0.7-0.1-1-0.3l-2.7-1.5c-1-0.6-1.3-1.8-0.7-2.7l2.7-4.7c0.6-1,0.3-2.3-0.5-3l-2.5-2.4
	c-0.5-0.5-1.2-0.8-1.9-0.8c-0.4,0-0.8,0.1-1.2,0.3l-4.8,2.8c-0.3,0.2-0.7,0.3-1,0.3c-0.7,0-1.4-0.4-1.7-1l-1.5-2.7
	c-0.5-1-0.2-2.2,0.7-2.7l4.7-2.7c1-0.6,1.4-1.8,1.1-2.9l-0.9-3.3c-0.2-1.1-1.3-2-2.4-2h-5.5c-1.1,0-2-0.9-2-2v-3.1c0-1.1,0.9-2,2-2
	h5.5c1.1,0,2.2-0.9,2.4-2l0.9-3.3c0.4-1-0.1-2.3-1.1-2.9l-4.9-2.8c-1-0.5-1.3-1.8-0.7-2.7l1.5-2.7c0.4-0.6,1-1,1.7-1
	c0.3,0,0.7,0.1,1,0.3l4.9,2.9c0.4,0.2,0.8,0.3,1.2,0.3c0.7,0,1.4-0.3,1.9-0.8l2.3-2.3c0.8-0.7,1.1-2.1,0.5-3l-2.9-5.1
	c-0.6-1-0.2-2.2,0.7-2.7l2.7-1.5c0.3-0.2,0.7-0.3,1-0.3c0.7,0,1.4,0.4,1.7,1l3,5.1c0.4,0.7,1.3,1.2,2.2,1.2c0.2,0,0.5,0,0.7-0.1
	L49,15c1.1-0.2,2-1.3,2-2.4V6.5c0-1.1,0.9-2,2-2H56 M54.5,53.2c6.3,0,11.4-5.1,11.4-11.4c0-6.3-5.1-11.4-11.4-11.4
	c-6.3,0-11.4,5.1-11.4,11.4C43.1,48.1,48.2,53.2,54.5,53.2 M56,2.5H53c-2.2,0-4,1.8-4,4v6.1c0,0.1-0.2,0.4-0.3,0.4l-0.1,0l-0.1,0
	l-3.1,0.8l-0.1,0l-0.1,0c0,0,0,0-0.1,0c-0.2,0-0.4-0.1-0.4-0.2l-3-5.1c-0.7-1.2-2-2-3.5-2c-0.7,0-1.4,0.2-2,0.5l-2.7,1.5
	c-1.9,1.1-2.6,3.6-1.5,5.5l2.9,5.1c0.1,0.1,0,0.4-0.1,0.5l0,0l0,0l-2.3,2.3l0,0l0,0c0,0-0.2,0.1-0.4,0.1c-0.1,0-0.2,0-0.2,0L27,19.5
	c-0.6-0.3-1.3-0.5-2-0.5c-1.4,0-2.8,0.8-3.5,2L20,23.6c-1.1,1.9-0.4,4.4,1.5,5.5l4.9,2.8c0.1,0.1,0.2,0.4,0.2,0.5l0,0.1l0,0.1
	l-0.9,3.3l0,0.1l0,0.1c0,0.1-0.3,0.3-0.4,0.3h-5.5c-2.2,0-4,1.8-4,4v3.1c0,2.2,1.8,4,4,4h5.5c0.2,0,0.4,0.2,0.4,0.4l0,0.1l0,0.1
	l0.9,3.3l0,0.1l0,0.1c0,0.1-0.1,0.4-0.2,0.5l-4.7,2.7c-1.9,1.1-2.6,3.6-1.5,5.5l1.5,2.7c0.7,1.2,2,2,3.5,2c0.7,0,1.4-0.2,2-0.5
	l4.8-2.8c0,0,0.1,0,0.2,0c0.2,0,0.3,0.1,0.4,0.1l0,0.1l0,0l2.5,2.4l0,0l0.1,0c0.1,0.1,0.2,0.4,0.1,0.5l-2.7,4.7
	c-1.1,1.9-0.4,4.4,1.5,5.5l2.7,1.5c0.6,0.3,1.3,0.5,2,0.5c1.4,0,2.8-0.8,3.5-2l2.8-4.8c0.1-0.1,0.3-0.2,0.5-0.2c0,0,0.1,0,0.1,0
	l0.1,0l0.1,0l3.3,0.8l0.1,0l0.1,0c0.1,0,0.3,0.2,0.3,0.4v5.5c0,2.2,1.8,4,4,4h3.1c2.2,0,4-1.8,4-4V71c0-0.2,0.2-0.5,0.4-0.5l0.1,0
	l0.1,0l3.2-0.9l0.1,0l0.1,0c0,0,0,0,0.1,0c0.2,0,0.3,0.1,0.4,0.2l2.9,5c0.7,1.2,2,2,3.5,2c0.7,0,1.4-0.2,2-0.5l2.7-1.5
	c1.9-1.1,2.6-3.6,1.5-5.5l-3-5.1c-0.1-0.1,0-0.5,0.1-0.6l0,0l0,0l2.2-2.3l0,0l0-0.1c0,0,0.2-0.1,0.3-0.1c0.1,0,0.1,0,0.1,0l5.2,3
	c0.6,0.3,1.3,0.5,2,0.5c1.4,0,2.8-0.8,3.5-2l1.5-2.7c1.1-1.9,0.4-4.4-1.5-5.5L82.9,51c-0.1-0.1-0.3-0.4-0.2-0.6l0-0.1l0-0.1l0.7-3.1
	l0-0.1l0-0.1c0-0.1,0.2-0.3,0.4-0.3h6.1c2.2,0,4-1.8,4-4v-3.1c0-2.2-1.8-4-4-4h-6.3c-0.2,0-0.4-0.2-0.5-0.4l0-0.1l0-0.1l-0.8-3
	l0-0.1l0-0.1c0-0.1,0.1-0.4,0.2-0.5l5.4-3.1c0.9-0.5,1.6-1.4,1.9-2.4c0.3-1,0.1-2.1-0.4-3l-1.5-2.7c-0.7-1.2-2-2-3.5-2
	c-0.7,0-1.4,0.2-2,0.5l-5.5,3.2c0,0-0.1,0-0.2,0c-0.2,0-0.3-0.1-0.4-0.1l0,0l0,0L74,19.8l0,0l0,0c-0.1-0.1-0.2-0.4-0.1-0.5l3.1-5.4
	c1.1-1.9,0.4-4.4-1.5-5.5l-2.7-1.5c-0.6-0.3-1.3-0.5-2-0.5c-1.4,0-2.8,0.8-3.5,2l-3.1,5.4c0,0.1-0.3,0.2-0.5,0.2c0,0-0.1,0-0.1,0
	l-0.1,0l-0.1,0l-3-0.8l-0.1,0l-0.1,0c-0.1,0-0.3-0.3-0.3-0.4V6.5C60,4.3,58.2,2.5,56,2.5L56,2.5z M54.5,51.2c-5.2,0-9.4-4.2-9.4-9.4
	c0-5.2,4.2-9.4,9.4-9.4c5.2,0,9.4,4.2,9.4,9.4C63.9,47,59.7,51.2,54.5,51.2L54.5,51.2z"/>
<g>
	<path class="st0" d="M129.3,27.4c1.1,0.3,2.2-0.4,2.4-1.4l0.5-1.9c0.3-1.1-0.4-2.2-1.4-2.4l-1.4-0.4c-1.1-0.3-1.9-0.8-1.9-1
		c0-0.3,0.8-1.3,1.9-1.6l1.4-0.4c1.1-0.3,1.7-1.4,1.4-2.4l-0.5-1.9c-0.3-1.1-1.4-1.7-2.4-1.4l-1.5,0.4c-1.1,0.3-2,0.3-2.2,0.1
		c-0.1-0.2,0.1-1.5,0.9-2.3l1.1-1.1c0.8-0.8,0.8-2.1,0-2.8L126,5.4c-0.8-0.8-2.1-0.8-2.8,0L122,6.6c-0.8,0.8-1.6,1.3-1.8,1.2
		s-0.6-1.3-0.4-2.4l0.4-1.5c0.3-1.1-0.4-2.2-1.4-2.4l-1.9-0.5c-1.1-0.3-2.2,0.4-2.4,1.4L114,3.9c-0.3,1.1-0.7,1.9-1,1.9
		s-1.2-0.8-1.5-1.9l-0.4-1.5c-0.3-1.1-1.4-1.7-2.4-1.4l-1.9,0.5c-1.1,0.3-1.7,1.4-1.4,2.4l0.4,1.6c0.3,1.1,0.3,2,0.1,2.2
		c-0.2,0.1-1.5-0.1-2.3-0.9l-1.1-1.1c-0.8-0.8-2.1-0.8-2.8,0l-1.4,1.4c-0.8,0.8-0.8,2.1,0,2.8l1.1,1.1c0.8,0.8,1.3,1.6,1.1,1.9
		c-0.1,0.2-1.4,0.7-2.4,0.4l-1.4-0.4c-1.1-0.3-2.2,0.4-2.4,1.4l-0.5,1.9c-0.3,1.1,0.4,2.2,1.4,2.4l1.4,0.4c1.1,0.3,1.9,0.8,1.9,1.1
		c0,0.3-0.9,1.3-1.9,1.6L95.2,22c-1.1,0.3-1.7,1.4-1.4,2.4l0.5,1.9c0.3,1.1,1.4,1.7,2.4,1.4l1.3-0.3c1.1-0.3,2-0.3,2.2,0
		c0.1,0.3-0.1,1.6-0.8,2.4l-0.9,0.9c-0.8,0.8-0.8,2.1,0,2.8l1.4,1.4c0.8,0.8,2.1,0.8,2.8,0l0.9-0.9c0.8-0.8,1.6-1.3,1.9-1.1
		s0.8,1.4,0.5,2.5l-0.3,1.1c-0.3,1.1,0.4,2.2,1.4,2.4l1.9,0.5c1.1,0.3,2.2-0.4,2.4-1.4l0.3-1.2c0.3-1.1,0.8-1.9,1.1-1.9
		c0.3,0,1.4,0.8,1.7,1.9l0.3,1.1c0.3,1.1,1.4,1.7,2.4,1.4l1.9-0.5c1.1-0.3,1.7-1.4,1.4-2.4l-0.3-1.2c-0.3-1.1-0.3-2.1,0-2.2
		c0.3-0.2,1.6,0,2.4,0.8l0.9,0.9c0.8,0.8,2.1,0.8,2.8,0l1.4-1.4c0.8-0.8,0.8-2.1,0-2.8l-1-1c-0.8-0.8-1.3-1.6-1.1-1.9
		c0.2-0.3,1.4-0.7,2.4-0.4L129.3,27.4z M117.2,24.6c-2.4,2.4-6.2,2.4-8.5,0c-2.4-2.4-2.4-6.2,0-8.5c2.4-2.4,6.2-2.4,8.5,0
		C119.5,18.4,119.5,22.3,117.2,24.6z"/>
</g>
<g>
	<path class="st0" d="M23.3,80.5c-0.2,0-0.4-0.1-0.6-0.2C11.7,71.2,5,57.9,4.2,43.8c0-0.6,0.4-1,0.9-1.1c0.5-0.1,1,0.4,1.1,0.9
		C7,57.3,13.4,70,23.9,78.7c0.4,0.4,0.5,1,0.1,1.4C23.9,80.3,23.6,80.5,23.3,80.5z"/>
</g>
<g>
	<path class="st0" d="M6,40.2c0-0.5-0.3-0.6-0.5-0.1l-5,10.7c-0.2,0.5,0,0.9,0.6,0.8l4.7-0.5c0.5-0.1,1-0.5,0.9-1.1L6,40.2z"/>
</g>
<g>
	<path class="st0" d="M139.8,26.2c0,0-0.1,0-0.1,0c-0.5-0.1-0.9-0.6-0.9-1.1c0.9-8.5-1.8-17-7.5-23.4c-0.4-0.4-0.3-1,0.1-1.4
		c0.4-0.4,1-0.3,1.4,0.1c6,6.8,8.9,15.9,8,25C140.8,25.8,140.3,26.2,139.8,26.2z"/>
</g>
<g>
	<path class="st0" d="M138.6,27.9c-0.1,0.5,0.2,0.6,0.5,0.2l4.4-6.4c0.3-0.5,0.1-0.9-0.4-0.9l-2.7-0.2c-0.5,0-1,0.4-1.1,0.9
		L138.6,27.9z"/>
</g>
</svg>
