<?xml version="1.0" encoding="utf-8"?>
<!-- Generator: Adobe Illustrator 21.0.2, SVG Export Plug-In . SVG Version: 6.00 Build 0)  -->
<svg version="1.1" id="Layer_1" xmlns="http://www.w3.org/2000/svg" xmlns:xlink="http://www.w3.org/1999/xlink" x="0px" y="0px"
	 viewBox="0 0 114 94" style="enable-background:new 0 0 114 94;" xml:space="preserve">
<style type="text/css">
	.st0{fill:#FFFFFF;stroke:#90C560;stroke-width:2.2359;stroke-linecap:round;stroke-linejoin:round;stroke-miterlimit:10;}
	.st1{fill:none;stroke:#90C560;stroke-width:2.2359;stroke-linecap:round;stroke-linejoin:round;stroke-miterlimit:10;}
</style>
<path class="st0" d="M105.4,46.5l6.4,3.5c1.5,0.9,1.5,3,0,3.9L90.2,65.8c-1.9,1-4.2,1-6,0l-22-12.1c-1.4-0.8-1.4-2.7,0-3.5l6.6-3.7"
	/>
<path class="st0" d="M105.4,35.5l6.4,3.5c1.5,0.9,1.5,3,0,3.9L90.2,54.8c-1.9,1-4.2,1-6,0l-22-12.1c-1.4-0.8-1.4-2.7,0-3.5l6.6-3.7"
	/>
<path class="st0" d="M106.1,24.8l5.7,3.2c1.5,0.9,1.5,3,0,3.9L90.2,43.8c-1.9,1-4.2,1-6,0l-22-12.1c-1.4-0.8-1.4-2.7,0-3.5l6.2-3.6"
	/>
<line class="st1" x1="71.2" y1="29.2" x2="75.7" y2="26.4"/>
<path class="st0" d="M111.8,21.4L90.2,33.3c-1.9,1-4.2,1-6,0l-22-12.1c-1.4-0.8-1.4-2.7,0-3.5L85,4.9c1.4-0.8,3-0.8,4.4,0l22.5,12.6
	C113.4,18.4,113.4,20.5,111.8,21.4z"/>
<path class="st0" d="M101.4,19.4l-12.3,6.8c-1.3,0.7-2.8,0.7-4.1,0l-3.8-2.1"/>
<path class="st0" d="M74.5,18.5l9.8-5.5c0.6-0.3,1.3-0.3,1.9,0l5,2.8"/>
<ellipse class="st0" cx="74" cy="18.3" rx="3.2" ry="2.7"/>
<ellipse class="st0" cx="100.8" cy="19.3" rx="3.2" ry="2.7"/>
<line class="st1" x1="74.2" y1="60.2" x2="78.7" y2="57.4"/>
<line class="st1" x1="101" y1="33.4" x2="96.4" y2="30.7"/>
<line class="st1" x1="95.7" y1="50.9" x2="91.2" y2="48.3"/>
<path class="st0" d="M62.5,64.9l8.9,4.9c2.1,1.2,2.1,4.2,0,5.3L41.5,91.6c-2.6,1.4-5.7,1.4-8.3,0L2.8,74.9c-1.9-1.1-1.9-3.7,0-4.8
	l9.1-5.2"/>
<path class="st0" d="M63.5,50.2l7.9,4.4c2.1,1.2,2.1,4.2,0,5.3L41.5,76.4c-2.6,1.4-5.7,1.4-8.3,0L2.8,59.6c-1.9-1.1-1.9-3.7,0-4.8
	l8.5-5"/>
<path class="st0" d="M71.4,45.5L41.5,62c-2.6,1.4-5.7,1.4-8.3,0L2.8,45.2c-1.9-1.1-1.9-3.7,0-4.8l31.5-17.6c1.9-1,4.2-1,6,0l31,17.4
	C73.5,41.3,73.5,44.3,71.4,45.5z"/>
<path class="st0" d="M56.9,42.7L40,52.1c-1.7,1-3.9,1-5.6,0l-5.3-2.9"/>
<path class="st0" d="M19.9,41.5l13.6-7.6c0.8-0.5,1.8-0.5,2.6,0l7,3.9"/>
<ellipse class="st0" cx="19.2" cy="42" rx="4.4" ry="3.5"/>
<ellipse class="st0" cx="55.5" cy="43.1" rx="4.4" ry="3.5"/>
<line class="st1" x1="15.3" y1="74.2" x2="21.4" y2="70.3"/>
<line class="st1" x1="56.4" y1="62" x2="50.1" y2="58.4"/>
<line class="st1" x1="49.1" y1="86.2" x2="42.8" y2="82.6"/>
</svg>
