<?xml version="1.0" encoding="utf-8"?>
<!-- Generator: Adobe Illustrator 21.0.2, SVG Export Plug-In . SVG Version: 6.00 Build 0)  -->
<svg version="1.1" id="Layer_1" xmlns="http://www.w3.org/2000/svg" xmlns:xlink="http://www.w3.org/1999/xlink" x="0px" y="0px"
	 viewBox="0 0 131 81" style="enable-background:new 0 0 131 81;" xml:space="preserve">
<style type="text/css">
	.st0{fill:#FFFFFF;}
	.st1{fill:none;stroke:#55A8DA;stroke-width:2.2359;stroke-linecap:round;stroke-miterlimit:10;}
	.st2{fill:#FFFFFF;stroke:#55A8DA;stroke-width:2.2359;stroke-linecap:round;stroke-miterlimit:10;}
	.st3{fill:#55A8DA;stroke:#55A8DA;stroke-miterlimit:10;}
</style>
<g>
	<g>
		<g>
			<path class="st0" d="M129.2,74.4c0,2.8-2.3,5-5,5h-47c-2.8,0-5-2.2-5-5V6.3c0-2.8,2.2-5,5-5h47c2.8,0,5,2.2,5,5V74.4z"/>
			<path class="st1" d="M129.2,74.4c0,2.8-2.3,5-5,5h-47c-2.8,0-5-2.2-5-5V6.3c0-2.8,2.2-5,5-5h47c2.8,0,5,2.2,5,5V74.4z"/>
		</g>
		<g>
			<circle class="st2" cx="101" cy="30" r="22.9"/>
			<path class="st2" d="M84.7,30.8c0-8.9,7.2-16.2,16.2-16.2"/>
		</g>
		<circle class="st2" cx="101" cy="30" r="6.5"/>
		<circle class="st3" cx="101" cy="30" r="1.5"/>
		<line class="st2" x1="108.6" y1="70.9" x2="108.6" y2="60.7"/>
		<line class="st2" x1="115" y1="70.9" x2="115" y2="60.7"/>
		<line class="st2" x1="121.3" y1="70.9" x2="121.3" y2="60.7"/>
		<line class="st2" x1="102.2" y1="70.9" x2="102.2" y2="60.7"/>
		<g>
			<path class="st0" d="M85.9,71.2c-1.1,1.9-3.6,2.6-5.5,1.5c-1.9-1.1-2.6-3.6-1.5-5.5c1.1-1.9,17.8-24,17.8-24
				c1.7-2.2,2.1-1.9,1.1,0.6C97.8,43.9,87.1,69.3,85.9,71.2z"/>
			<path class="st1" d="M85.9,71.2c-1.1,1.9-3.6,2.6-5.5,1.5c-1.9-1.1-2.6-3.6-1.5-5.5c1.1-1.9,17.8-24,17.8-24
				c1.7-2.2,2.1-1.9,1.1,0.6C97.8,43.9,87.1,69.3,85.9,71.2z"/>
		</g>
		<circle class="st3" cx="82.6" cy="69" r="1.5"/>
	</g>
	<g>
		<g>
			<path class="st0" d="M58.5,74.4c0,2.8-2.2,5-5,5h-47c-2.8,0-5-2.2-5-5V6.3c0-2.8,2.2-5,5-5h47c2.8,0,5,2.2,5,5V74.4z"/>
			<path class="st1" d="M58.5,74.4c0,2.8-2.2,5-5,5h-47c-2.8,0-5-2.2-5-5V6.3c0-2.8,2.2-5,5-5h47c2.8,0,5,2.2,5,5V74.4z"/>
		</g>
		<circle class="st3" cx="53.3" cy="6.3" r="1.9"/>
		<circle class="st3" cx="7.3" cy="6.3" r="1.9"/>
		<circle class="st3" cx="53.3" cy="74.3" r="1.9"/>
		<circle class="st3" cx="7.3" cy="74.3" r="1.9"/>
		<line class="st2" x1="26.9" y1="16" x2="26.9" y2="8.3"/>
		<line class="st2" x1="33.2" y1="16" x2="33.2" y2="8.3"/>
		<line class="st2" x1="39.6" y1="16" x2="39.6" y2="8.3"/>
		<line class="st2" x1="20.5" y1="16" x2="20.5" y2="8.3"/>
		<rect x="13.3" y="27" class="st2" width="33.6" height="16.5"/>
		<g>
			<path class="st0" d="M17.8,30.4c0,0.5-0.5,1-1,1H9.9c-0.6,0-1-0.5-1-1v-6.9c0-0.5,0.4-1,1-1h6.9c0.5,0,1,0.5,1,1V30.4z"/>
			<path class="st1" d="M17.8,30.4c0,0.5-0.5,1-1,1H9.9c-0.6,0-1-0.5-1-1v-6.9c0-0.5,0.4-1,1-1h6.9c0.5,0,1,0.5,1,1V30.4z"/>
		</g>
		<g>
			<path class="st0" d="M34.5,30.4c0,0.5-0.5,1-1,1h-6.9c-0.5,0-1-0.5-1-1v-6.9c0-0.5,0.5-1,1-1h6.9c0.5,0,1,0.5,1,1V30.4z"/>
			<path class="st1" d="M34.5,30.4c0,0.5-0.5,1-1,1h-6.9c-0.5,0-1-0.5-1-1v-6.9c0-0.5,0.5-1,1-1h6.9c0.5,0,1,0.5,1,1V30.4z"/>
		</g>
		<g>
			<path class="st0" d="M50.9,30.4c0,0.5-0.5,1-1,1H43c-0.5,0-1-0.5-1-1v-6.9c0-0.5,0.5-1,1-1h6.9c0.5,0,1,0.5,1,1V30.4z"/>
			<path class="st1" d="M50.9,30.4c0,0.5-0.5,1-1,1H43c-0.5,0-1-0.5-1-1v-6.9c0-0.5,0.5-1,1-1h6.9c0.5,0,1,0.5,1,1V30.4z"/>
		</g>
		<g>
			<path class="st0" d="M17.8,47c0,0.5-0.5,1-1,1H9.9c-0.6,0-1-0.5-1-1v-6.9c0-0.5,0.4-1,1-1h6.9c0.5,0,1,0.5,1,1V47z"/>
			<path class="st1" d="M17.8,47c0,0.5-0.5,1-1,1H9.9c-0.6,0-1-0.5-1-1v-6.9c0-0.5,0.4-1,1-1h6.9c0.5,0,1,0.5,1,1V47z"/>
		</g>
		<g>
			<path class="st0" d="M34.5,47c0,0.5-0.5,1-1,1h-6.9c-0.5,0-1-0.5-1-1v-6.9c0-0.5,0.5-1,1-1h6.9c0.5,0,1,0.5,1,1V47z"/>
			<path class="st1" d="M34.5,47c0,0.5-0.5,1-1,1h-6.9c-0.5,0-1-0.5-1-1v-6.9c0-0.5,0.5-1,1-1h6.9c0.5,0,1,0.5,1,1V47z"/>
		</g>
		<g>
			<path class="st0" d="M38.3,71.8c0,0.5-0.5,1-1,1H22.8c-0.5,0-1-0.5-1-1V57.3c0-0.5,0.5-1,1-1h14.5c0.5,0,1,0.5,1,1V71.8z"/>
			<path class="st1" d="M38.3,71.8c0,0.5-0.5,1-1,1H22.8c-0.5,0-1-0.5-1-1V57.3c0-0.5,0.5-1,1-1h14.5c0.5,0,1,0.5,1,1V71.8z"/>
		</g>
		<g>
			<path class="st0" d="M50.9,47c0,0.5-0.5,1-1,1H43c-0.5,0-1-0.5-1-1v-6.9c0-0.5,0.5-1,1-1h6.9c0.5,0,1,0.5,1,1V47z"/>
			<path class="st1" d="M50.9,47c0,0.5-0.5,1-1,1H43c-0.5,0-1-0.5-1-1v-6.9c0-0.5,0.5-1,1-1h6.9c0.5,0,1,0.5,1,1V47z"/>
		</g>
		<line class="st1" x1="39.6" y1="59.4" x2="46.5" y2="59.4"/>
		<line class="st1" x1="39.6" y1="64.5" x2="46.5" y2="64.5"/>
		<line class="st1" x1="39.6" y1="69.6" x2="46.5" y2="69.6"/>
		<line class="st1" x1="13.4" y1="59.4" x2="21.7" y2="59.4"/>
		<line class="st1" x1="13.4" y1="64.5" x2="21.7" y2="64.5"/>
		<line class="st1" x1="13.4" y1="69.6" x2="21.7" y2="69.6"/>
		<line class="st1" x1="13.4" y1="48" x2="13.4" y2="69.6"/>
		<line class="st1" x1="46.5" y1="48" x2="46.5" y2="69.6"/>
	</g>
	<line class="st2" x1="30" y1="31.5" x2="30" y2="38.3"/>
</g>
</svg>
