<?xml version="1.0" encoding="utf-8"?>
<!-- Generator: Adobe Illustrator 21.0.2, SVG Export Plug-In . SVG Version: 6.00 Build 0)  -->
<svg version="1.1" id="Layer_1" xmlns="http://www.w3.org/2000/svg" xmlns:xlink="http://www.w3.org/1999/xlink" x="0px" y="0px"
	 viewBox="0 0 127 102" style="enable-background:new 0 0 127 102;" xml:space="preserve">
<style type="text/css">
	.st0{fill:#FFFFFF;stroke:#5F7684;stroke-width:2.2359;stroke-linejoin:round;stroke-miterlimit:10;}
	.st1{fill:#FFFFFF;stroke:#5F7684;stroke-width:2.2359;stroke-linecap:round;stroke-miterlimit:10;}
	.st2{fill:#5F7684;}
	.st3{fill:#FFFFFF;stroke:#5F7684;stroke-width:2.2359;stroke-miterlimit:10;}
</style>
<path class="st0" d="M30.7,50l-5-5.8V25.5h11.2l0,7.2h9.1v-7.2l17.8,0.1l-0.1,7.2h6.8l0-6.7c0,0,11.2-0.2,11.2-0.2v17.9L75,50.3"/>
<line class="st1" x1="25.6" y1="43.8" x2="40" y2="43.8"/>
<line class="st1" x1="81.6" y1="43.8" x2="66.6" y2="43.8"/>
<polyline class="st2" points="67.6,8.5 74.1,8.5 71.8,13.4 74.1,18.4 61.6,18.4 61.6,14.7 "/>
<g>
	<rect x="54.2" y="3.9" class="st2" width="12.2" height="10.5"/>
</g>
<line class="st1" x1="53.9" y1="1.7" x2="53.9" y2="24.4"/>
<polyline class="st1" points="55,49.5 30.1,49.4 30.1,78.8 "/>
<line class="st3" x1="75.3" y1="79" x2="75.3" y2="49.4"/>
<g>
	<g>
		<path class="st1" d="M125.4,96.2c0-2-1.6-3.7-3.7-3.8c-0.7-2.5-3-4.4-5.8-4.4c-0.3,0-0.7,0-1,0.1c0-0.5,0-1.1,0-1.6
			c0-17-13.8-30.8-30.8-30.8c-15,0-27.5,10.8-30.2,25c-0.2,0-0.4,0-0.6,0c-5.5,0-9.9,4.4-9.9,9.9c0,0.9,0.1,1.8,0.4,2.6
			c-0.9,0.7-1.4,1.7-1.4,2.9"/>
		<path class="st1" d="M85.2,87.2c0-6-4.9-10.9-10.9-10.9c-2.8,0-5.3,1-7.2,2.8"/>
	</g>
	<g>
		<path class="st1" d="M1.9,100.7c0-0.8,0.4-1.4,0.9-1.9c-0.1-0.5-0.2-1.1-0.2-1.7c0-3.5,2.8-6.3,6.3-6.3c0.1,0,0.2,0,0.4,0
			c1.7-9.1,9.7-16,19.3-16c10.9,0,19.7,8.8,19.7,19.7c0,0.3,0,0.7,0,1c0.2,0,0.4-0.1,0.6-0.1c1.8,0,3.2,1.2,3.7,2.8
			c1.3,0.1,2.3,1.1,2.4,2.4"/>
		<path class="st1" d="M37.5,91.5c0-4.4-3.5-7.9-7.9-7.9c-2,0-3.8,0.7-5.2,2"/>
	</g>
</g>
<circle class="st2" cx="42.2" cy="62.5" r="4.7"/>
<line class="st1" x1="34.6" y1="70.8" x2="51" y2="70.8"/>
<rect x="37.5" y="62.3" class="st2" width="9.4" height="9.4"/>
</svg>
