<?xml version="1.0" encoding="utf-8"?>
<!-- Generator: Adobe Illustrator 21.0.2, SVG Export Plug-In . SVG Version: 6.00 Build 0)  -->
<svg version="1.1" id="Layer_1" xmlns="http://www.w3.org/2000/svg" xmlns:xlink="http://www.w3.org/1999/xlink" x="0px" y="0px"
	 viewBox="0 0 114 94" style="enable-background:new 0 0 114 94;" xml:space="preserve">
<style type="text/css">
	.st0{fill:#FFFFFF;stroke:#90C560;stroke-width:2.2359;stroke-linecap:round;stroke-linejoin:round;stroke-miterlimit:10;}
	.st1{fill:none;stroke:#90C560;stroke-width:2.2359;stroke-linecap:round;stroke-linejoin:round;stroke-miterlimit:10;}
</style>
<path class="st0" d="M89.7,57.1l11.4,6.3c2.7,1.5,2.7,5.4,0,6.8L62.8,91.3c-3.3,1.8-7.3,1.8-10.6,0l-39-21.4c-2.4-1.4-2.4-4.7,0-6.2
	l11.7-6.7"/>
<line class="st1" x1="72.6" y1="84.4" x2="64.5" y2="79.8"/>
<path class="st0" d="M89.7,48.1l11.4,6.3c2.7,1.5,2.7,5.4,0,6.8L62.8,82.3c-3.3,1.8-7.3,1.8-10.6,0l-39-21.4c-2.4-1.4-2.4-4.7,0-6.2
	l11.7-6.7"/>
<line class="st1" x1="29.2" y1="69" x2="37.1" y2="64"/>
<path class="st0" d="M91,39.2l10.1,5.6c2.7,1.5,2.7,5.4,0,6.8L62.8,72.8c-3.3,1.8-7.3,1.8-10.6,0l-39-21.5c-2.4-1.4-2.4-4.7,0-6.2
	l10.9-6.4"/>
<path class="st0" d="M91,29.2l10.1,5.6c2.7,1.5,2.7,5.4,0,6.8L62.8,62.8c-3.3,1.8-7.3,1.8-10.6,0l-39-21.5c-2.4-1.4-2.4-4.7,0-6.2
	l10.9-6.4"/>
<line class="st1" x1="19.2" y1="44" x2="27" y2="39"/>
<path class="st0" d="M101.2,32.2L62.8,53.4c-3.3,1.8-7.3,1.8-10.6,0l-39-21.5c-2.4-1.4-2.4-4.7,0-6.2L53.6,3.1
	c2.4-1.3,5.4-1.3,7.7,0L101,25.4C103.8,26.8,103.8,30.7,101.2,32.2z"/>
<path class="st0" d="M82.6,28.6L60.9,40.7c-2.2,1.3-5,1.3-7.2,0l-6.8-3.7"/>
<path class="st0" d="M35.1,27.1l20-11c1-0.6,2.3-0.6,3.3,0l9,5"/>
<ellipse class="st0" cx="33" cy="28.4" rx="5.6" ry="3.8"/>
<ellipse class="st0" cx="80.8" cy="28.7" rx="5.6" ry="3.6"/>
<line class="st1" x1="80.9" y1="52.4" x2="72.8" y2="47.7"/>
</svg>
