<?xml version="1.0" encoding="utf-8"?>
<!-- Generator: Adobe Illustrator 21.0.2, SVG Export Plug-In . SVG Version: 6.00 Build 0)  -->
<svg version="1.1" id="Layer_1" xmlns="http://www.w3.org/2000/svg" xmlns:xlink="http://www.w3.org/1999/xlink" x="0px" y="0px"
	 viewBox="0 0 118 100" style="enable-background:new 0 0 118 100;" xml:space="preserve">
<style type="text/css">
	.st0{fill:#5F7684;}
	.st1{fill:#FFFFFF;stroke:#5F7684;stroke-width:1.9838;stroke-miterlimit:10;}
	.st2{fill:none;stroke:#5F7684;stroke-width:1.9838;stroke-miterlimit:10;}
	.st3{fill:#FFFFFF;}
	.st4{fill:none;stroke:#5F7684;stroke-width:3.9676;stroke-miterlimit:10;}
	.st5{fill:#FFFFFF;stroke:#5F7684;stroke-width:1.9838;stroke-linejoin:round;stroke-miterlimit:10;}
	.st6{fill:#4FABDE;stroke:#5F7684;stroke-width:1.9838;stroke-miterlimit:10;}
	.st7{fill:#FFFFFF;stroke:#5F7684;stroke-width:1.9838;stroke-linecap:round;stroke-linejoin:round;stroke-miterlimit:10;}
</style>
<g>
	<g>
		<rect x="69" y="60.8" transform="matrix(1 -3.374736e-03 3.374736e-03 1 -0.2107 0.2392)" class="st0" width="3.6" height="3.6"/>
		<g>
			
				<rect x="81.9" y="33.2" transform="matrix(0.9029 -0.4298 0.4298 0.9029 -8.3671 40.8987)" class="st0" width="9" height="11.5"/>
			<polygon class="st0" points="106.2,43.1 106.1,52.1 93.8,52.4 94,43.4 			"/>
			
				<rect x="101.6" y="40.3" transform="matrix(0.9999 -1.161421e-02 1.161421e-02 0.9999 -0.533 1.2465)" class="st1" width="11" height="12.5"/>
			
				<ellipse transform="matrix(0.9955 -9.464380e-02 9.464380e-02 0.9955 -4.0423 8.8613)" class="st1" cx="91.4" cy="47" rx="5.6" ry="5.6"/>
			<path class="st1" d="M96.1,33.6c-0.5-5.4-5.7-10-11.4-9.5c-5.8,0.5-10,6-9.5,11.4C75.8,41.8,96.7,39.8,96.1,33.6z"/>
		</g>
		<line class="st2" x1="102.2" y1="46.5" x2="105.8" y2="46.6"/>
		<line class="st2" x1="102.2" y1="49.6" x2="105.7" y2="49.6"/>
		<line class="st2" x1="102.3" y1="43.5" x2="105.8" y2="43.5"/>
		<rect x="97.2" y="36.2" class="st0" width="21" height="3.7"/>
		<g>
			<polygon class="st3" points="103.3,36.9 103.3,5.3 107.5,1.1 111.4,5.2 111.4,36.9 			"/>
			<g>
				<path class="st0" d="M107.5,2.6l2.9,3.1V36h-6.1V5.7L107.5,2.6 M107.5-0.3l-5.2,5.1v33.1h10.1V4.8L107.5-0.3L107.5-0.3z"/>
			</g>
		</g>
		<line class="st2" x1="107.2" y1="36.5" x2="107.2" y2="24.6"/>
		<circle class="st0" cx="107.5" cy="56.6" r="3.6"/>
		<path class="st1" d="M74.6,56.7H48.2c-3.8,0-6.8-3.1-6.8-6.8V29.2h40v20.6C81.4,53.6,78.4,56.7,74.6,56.7z"/>
		<line class="st2" x1="63.5" y1="29.2" x2="63.5" y2="55.7"/>
		<circle class="st1" cx="62.9" cy="53.7" r="6.3"/>
		<polygon class="st0" points="61.4,64.2 63.7,74 80.3,67.9 74.3,62.1 		"/>
		<polygon class="st0" points="61.6,64.8 59.4,74.6 42.7,68.6 48.7,62.8 		"/>
		
			<rect x="46.1" y="57.4" transform="matrix(1 -3.374736e-03 3.374736e-03 1 -0.2048 0.2058)" class="st1" width="29.6" height="6.9"/>
		
			<rect x="50.4" y="60.8" transform="matrix(1 -3.374736e-03 3.374736e-03 1 -0.211 0.1766)" class="st0" width="3.6" height="3.6"/>
		
			<rect x="56.2" y="60.8" transform="matrix(1 -3.374736e-03 3.374736e-03 1 -0.2109 0.1961)" class="st0" width="3.6" height="3.6"/>
		
			<rect x="62.5" y="60.8" transform="matrix(1 -3.374736e-03 3.374736e-03 1 -0.2108 0.2172)" class="st0" width="3.6" height="3.6"/>
		<path class="st4" d="M55.1,69.8c0,0-6.8,0.1-10.9,6.3c-3.7,5.8-1.6,9.9-1.6,9.9"/>
		<g>
			
				<rect x="38.5" y="81.4" transform="matrix(-0.9571 0.2898 -0.2898 -0.9571 108.3182 154.8775)" class="st0" width="8.5" height="8.2"/>
			<polygon class="st5" points="48.9,88.9 35.2,88.9 39.5,94.2 25.3,98.9 49.5,98.9 47.1,93.4 			"/>
		</g>
		<path class="st4" d="M68.4,69.8c0,0,6.8,0.1,10.9,6.3c3.7,5.8,1.6,9.9,1.6,9.9"/>
		<g>
			
				<rect x="76.6" y="81.4" transform="matrix(0.9571 0.2898 -0.2898 0.9571 28.2389 -19.7532)" class="st0" width="8.5" height="8.2"/>
			<polygon class="st5" points="74.6,88.9 88.3,88.9 84,94.2 98.2,98.9 74,98.9 76.4,93.4 			"/>
		</g>
		<rect x="58.7" y="64.5" transform="matrix(1 -3.374736e-03 3.374736e-03 1 -0.229 0.21)" class="st0" width="6.7" height="6.9"/>
		<g>
			
				<rect x="25.9" y="32.8" transform="matrix(0.8119 0.5838 -0.5838 0.8119 29.3314 -10.1054)" class="st0" width="9" height="15.4"/>
			
				<ellipse transform="matrix(0.5838 -0.8119 0.8119 0.5838 -27.3271 40.8427)" class="st6" cx="26.2" cy="47.1" rx="5.6" ry="5.6"/>
		</g>
		<path class="st1" d="M46.6,42.3c4-3.9,4.2-10.7,0.2-14.8S36,23.4,32,27.3S42.6,46.2,46.6,42.3z"/>
		<g>
			<polygon class="st1" points="51.6,70.7 33.3,75.9 16,70.7 16,23 51.6,23 			"/>
			<polygon class="st1" points="44.9,65.5 33.6,69.5 22.8,65.5 22.8,29 44.9,29 			"/>
			<line class="st6" x1="33.8" y1="24" x2="33.8" y2="28.6"/>
			<line class="st6" x1="33.8" y1="69.6" x2="33.8" y2="75.6"/>
			<polyline class="st1" points="33.8,68.9 33.8,36 44.5,29.5 			"/>
			<line class="st6" x1="22.7" y1="29" x2="33.5" y2="36"/>
		</g>
		<rect x="52" y="7.7" class="st1" width="21.2" height="20.5"/>
		<rect x="55.4" y="15.3" class="st0" width="5" height="12.2"/>
		
			<rect x="56.3" y="11.2" transform="matrix(4.650331e-11 -1 1 4.650331e-11 41.5591 76.115)" class="st0" width="5" height="12.2"/>
	</g>
	<g>
		<line class="st7" x1="12.3" y1="99.6" x2="12.3" y2="92.2"/>
		<line class="st7" x1="11.7" y1="98.8" x2="14.9" y2="95.7"/>
		<line class="st7" x1="13" y1="98.9" x2="9.9" y2="95.7"/>
		<line class="st7" x1="13.3" y1="99.8" x2="16" y2="98.9"/>
		<line class="st7" x1="11.4" y1="99.9" x2="8.8" y2="98.6"/>
	</g>
	<g>
		<line class="st7" x1="3" y1="99.7" x2="3" y2="94.9"/>
		<line class="st7" x1="2.6" y1="99.1" x2="4.7" y2="97.2"/>
		<line class="st7" x1="3.5" y1="99.2" x2="1.5" y2="97.1"/>
		<line class="st7" x1="3.6" y1="99.8" x2="5.4" y2="99.2"/>
		<line class="st7" x1="2.5" y1="99.8" x2="0.7" y2="99"/>
	</g>
	<g>
		<line class="st7" x1="107.6" y1="99.7" x2="107.6" y2="94.9"/>
		<line class="st7" x1="107.3" y1="99.1" x2="109.3" y2="97.2"/>
		<line class="st7" x1="108.1" y1="99.2" x2="106.1" y2="97.1"/>
		<line class="st7" x1="108.3" y1="99.8" x2="110" y2="99.2"/>
		<line class="st7" x1="107.1" y1="99.8" x2="105.4" y2="99"/>
	</g>
</g>
</svg>
