<?xml version="1.0" encoding="utf-8"?>
<!-- Generator: Adobe Illustrator 21.0.2, SVG Export Plug-In . SVG Version: 6.00 Build 0)  -->
<svg version="1.1" id="Layer_1" xmlns="http://www.w3.org/2000/svg" xmlns:xlink="http://www.w3.org/1999/xlink" x="0px" y="0px"
	 viewBox="0 0 100 97.3" style="enable-background:new 0 0 100 97.3;" xml:space="preserve">
<style type="text/css">
	.st0{fill:#5F7684;}
</style>
<g>
	<g>
		<path class="st0" d="M89.5,76.9c-0.8,0-1.5-0.7-1.5-1.5V54.5c0-19.2-15.6-34.8-34.8-34.8h-5.9c-19.2,0-34.8,15.6-34.8,34.8v20.8
			c0,0.8-0.7,1.5-1.5,1.5s-1.5-0.7-1.5-1.5V54.5c0-20.8,17-37.8,37.8-37.8h5.9c20.8,0,37.8,17,37.8,37.8v20.8
			C91,76.2,90.3,76.9,89.5,76.9z"/>
	</g>
	<g>
		<path class="st0" d="M95.1,42.5c-0.5,0-0.9-0.3-1-0.8c-2.7-12.8-12.2-23-24.8-26.6c-0.5-0.2-0.8-0.7-0.7-1.2
			c0.2-0.5,0.7-0.8,1.2-0.7C83.1,17,93.2,27.7,96.1,41.3c0.1,0.5-0.2,1.1-0.8,1.2C95.2,42.5,95.2,42.5,95.1,42.5z"/>
	</g>
	<g>
		<path class="st0" d="M98.8,31.2c-0.4,0-0.8-0.2-0.9-0.6C94.3,21.5,87,14.2,77.8,10.7c-0.5-0.2-0.8-0.8-0.6-1.3s0.8-0.8,1.3-0.6
			c9.7,3.7,17.4,11.4,21.2,21.1c0.2,0.5,0,1.1-0.6,1.3C99.1,31.2,99,31.2,98.8,31.2z"/>
	</g>
	<g>
		<path class="st0" d="M4.9,42.5c-0.1,0-0.1,0-0.2,0c-0.5-0.1-0.9-0.6-0.8-1.2C6.8,27.7,16.9,17,30.2,13.2c0.5-0.2,1.1,0.2,1.2,0.7
			c0.2,0.5-0.2,1.1-0.7,1.2C18.1,18.7,8.6,28.9,5.9,41.7C5.8,42.1,5.4,42.5,4.9,42.5z"/>
	</g>
	<g>
		<path class="st0" d="M1.2,31.2c-0.1,0-0.2,0-0.4-0.1C0.3,31,0,30.4,0.2,29.9c3.8-9.6,11.6-17.3,21.2-21.1c0.5-0.2,1.1,0.1,1.3,0.6
			c0.2,0.5-0.1,1.1-0.6,1.3C13,14.2,5.7,21.5,2.1,30.6C1.9,31,1.6,31.2,1.2,31.2z"/>
	</g>
	<g>
		<path class="st0" d="M78.6,57.9c-0.8,0-1.5-0.7-1.5-1.5c0-10.7-6.7-20.4-16.7-24.3c-3-1.1-6.1-1.7-9.3-1.7c-0.8,0-1.5-0.7-1.5-1.5
			s0.7-1.5,1.5-1.5c3.6,0,7.1,0.6,10.4,1.9c11.1,4.3,18.6,15.2,18.6,27.1C80.1,57.2,79.4,57.9,78.6,57.9z"/>
	</g>
	<g>
		<path class="st0" d="M88.3,96.7H12.2c-5.2,0-9.5-4.3-9.5-9.5v-2.8c0-5.2,4.3-9.5,9.5-9.5h76.1c5.2,0,9.5,4.3,9.5,9.5v2.8
			C97.8,92.5,93.5,96.7,88.3,96.7z M12.2,77.9c-3.6,0-6.5,2.9-6.5,6.5v2.8c0,3.6,2.9,6.5,6.5,6.5h76.1c3.6,0,6.5-2.9,6.5-6.5v-2.8
			c0-3.6-2.9-6.5-6.5-6.5H12.2z"/>
	</g>
	<path class="st0" d="M40.8,11.8c0-5.3,4.3-9.6,9.6-9.6S60,6.5,60,11.8c0,0-3.1-0.9-9.6-0.9S40.8,11.8,40.8,11.8z"/>
	<g>
		<path class="st0" d="M88.7,68.1H12.3c-0.8,0-1.5-0.7-1.5-1.5s0.7-1.5,1.5-1.5h76.4c0.8,0,1.5,0.7,1.5,1.5S89.5,68.1,88.7,68.1z"/>
	</g>
</g>
</svg>
