<?xml version="1.0" encoding="utf-8"?>
<!-- Generator: Adobe Illustrator 21.0.2, SVG Export Plug-In . SVG Version: 6.00 Build 0)  -->
<svg version="1.1" id="Layer_1" xmlns="http://www.w3.org/2000/svg" xmlns:xlink="http://www.w3.org/1999/xlink" x="0px" y="0px"
	 viewBox="0 0 109 94" style="enable-background:new 0 0 109 94;" xml:space="preserve">
<style type="text/css">
	.st0{fill:#FFFFFF;}
	.st1{fill:none;stroke:#EEB653;stroke-width:2.2359;stroke-linecap:round;stroke-linejoin:round;stroke-miterlimit:10;}
	.st2{fill:#FFFFFF;stroke:#EEB653;stroke-width:2.2359;stroke-linecap:round;stroke-linejoin:round;stroke-miterlimit:10;}
	.st3{fill:none;stroke:#FFFFFF;stroke-width:10;stroke-linecap:round;stroke-linejoin:round;stroke-miterlimit:10;}
</style>
<g>
	<path class="st0" d="M15.3,10c0-2.8,2.3-5,5-5h82c2.8,0,5,2.3,5,5v12c0,2.8-2.3,5-5,5h-82c-2.8,0-5-2.3-5-5
		C15.3,22,15.3,10,15.3,10z"/>
	<path class="st1" d="M15.3,10c0-2.8,2.3-5,5-5h82c2.8,0,5,2.3,5,5v12c0,2.8-2.3,5-5,5h-82c-2.8,0-5-2.3-5-5
		C15.3,22,15.3,10,15.3,10z"/>
</g>
<g>
	<ellipse transform="matrix(4.058118e-03 -1 1 4.058118e-03 10.0783 42.0932)" class="st2" cx="26.2" cy="16" rx="4.1" ry="4.1"/>
</g>
<g>
	<ellipse transform="matrix(4.058118e-03 -1 1 4.058118e-03 36.6566 68.7938)" class="st2" cx="52.9" cy="16" rx="4.1" ry="4.1"/>
</g>
<g>
	<line class="st1" x1="97.7" y1="13" x2="66.9" y2="13"/>
	<line class="st1" x1="97.7" y1="19" x2="66.9" y2="19"/>
</g>
<g>
	<path class="st0" d="M15.3,32c0-2.8,2.3-5,5-5h82c2.8,0,5,2.3,5,5v12c0,2.8-2.3,5-5,5h-82c-2.8,0-5-2.3-5-5
		C15.3,44,15.3,32,15.3,32z"/>
	<path class="st1" d="M15.3,32c0-2.8,2.3-5,5-5h82c2.8,0,5,2.3,5,5v12c0,2.8-2.3,5-5,5h-82c-2.8,0-5-2.3-5-5
		C15.3,44,15.3,32,15.3,32z"/>
</g>
<g>
	<ellipse transform="matrix(4.058118e-03 -1 1 4.058118e-03 -11.9217 64.0049)" class="st2" cx="26.2" cy="38" rx="4.1" ry="4.1"/>
</g>
<g>
	<ellipse transform="matrix(4.058118e-03 -1 1 4.058118e-03 14.6564 90.7053)" class="st2" cx="52.9" cy="38" rx="4.1" ry="4.1"/>
</g>
<g>
	<line class="st1" x1="97.7" y1="35" x2="66.9" y2="35"/>
	<line class="st1" x1="97.7" y1="41" x2="66.9" y2="41"/>
</g>
<g>
	<path class="st0" d="M15.3,53.7c0-2.8,2.3-5,5-5h82c2.8,0,5,2.3,5,5v12c0,2.8-2.3,5-5,5h-82c-2.8,0-5-2.3-5-5
		C15.3,65.7,15.3,53.7,15.3,53.7z"/>
	<path class="st1" d="M15.3,53.7c0-2.8,2.3-5,5-5h82c2.8,0,5,2.3,5,5v12c0,2.8-2.3,5-5,5h-82c-2.8,0-5-2.3-5-5
		C15.3,65.7,15.3,53.7,15.3,53.7z"/>
</g>
<g>
	
		<ellipse transform="matrix(4.058118e-03 -1 1 4.058118e-03 -33.6395 85.7989)" class="st2" cx="26.3" cy="59.8" rx="4.1" ry="4.1"/>
</g>
<g>
	<ellipse transform="matrix(4.058118e-03 -1 1 4.058118e-03 -20.9972 98.698)" class="st2" cx="39.1" cy="59.9" rx="4.1" ry="4.1"/>
</g>
<g>
	
		<ellipse transform="matrix(4.058118e-03 -1 1 4.058118e-03 -7.0611 112.4996)" class="st2" cx="52.9" cy="59.8" rx="4.1" ry="4.1"/>
</g>
<g>
	<line class="st1" x1="97.7" y1="56.7" x2="66.9" y2="56.7"/>
	<line class="st1" x1="97.7" y1="62.7" x2="66.9" y2="62.7"/>
</g>
<g>
	<path class="st0" d="M15.3,75.7c0-2.8,2.3-5,5-5h82c2.8,0,5,2.3,5,5v12c0,2.8-2.3,5-5,5h-82c-2.8,0-5-2.3-5-5
		C15.3,87.7,15.3,75.7,15.3,75.7z"/>
	<path class="st1" d="M15.3,75.7c0-2.8,2.3-5,5-5h82c2.8,0,5,2.3,5,5v12c0,2.8-2.3,5-5,5h-82c-2.8,0-5-2.3-5-5
		C15.3,87.7,15.3,75.7,15.3,75.7z"/>
</g>
<g>
	
		<ellipse transform="matrix(4.058118e-03 -1 1 4.058118e-03 -55.6396 107.7107)" class="st2" cx="26.3" cy="81.8" rx="4.1" ry="4.1"/>
</g>
<g>
	
		<ellipse transform="matrix(4.058118e-03 -1 1 4.058118e-03 -42.9972 120.6097)" class="st2" cx="39.1" cy="81.9" rx="4.1" ry="4.1"/>
</g>
<g>
	
		<ellipse transform="matrix(4.058118e-03 -1 1 4.058118e-03 -29.0613 134.4111)" class="st2" cx="52.9" cy="81.8" rx="4.1" ry="4.1"/>
</g>
<g>
	<line class="st1" x1="97.7" y1="78.7" x2="66.9" y2="78.7"/>
	<line class="st1" x1="97.7" y1="84.7" x2="66.9" y2="84.7"/>
</g>
<path class="st0" d="M-3.8,12.7v-2.1c0-2,1.6-3.5,3.5-3.5h30.9c2,0,3.5,1.6,3.5,4.3v30.2c0,1.2-1.6,2.8-3.5,2.8H-0.3
	c-2,0-3.5-1.6-3.5-3.5V12.5V12.7z"/>
<path class="st3" d="M5,11.5C5,6,9.4,1.6,14.9,1.6s9.9,4.4,9.9,9.9"/>
<path class="st2" d="M5,11.5C5,6,9.4,1.6,14.9,1.6s9.9,4.4,9.9,9.9"/>
<path class="st2" d="M8.9,11.3c0-3.3,2.7-6,6-6s6,2.7,6,6"/>
<path class="st2" d="M1,16.1v-1.5C1,13.1,2.2,12,3.6,12h23c1.5,0,2.6,1.2,2.6,3.2v22.4c0,0.9-1.2,2.1-2.6,2.1h-23
	c-1.5,0-2.6-1.2-2.6-2.6L1,16.1L1,16.1z"/>
<path class="st2" d="M19.5,21.1c0-2.5-2-4.5-4.4-4.5s-4.4,2-4.4,4.5c0,1.8,0.9,3.3,2.7,4v3.6c0,0.7,0.4,1.1,1.1,1.1h1.3
	c0.7,0,1.1-0.4,1.1-1.1v-3.6C18.4,24.4,19.5,22.8,19.5,21.1z"/>
<line class="st1" x1="28.9" y1="34.9" x2="1.3" y2="34.9"/>
<g>
	<ellipse transform="matrix(4.058118e-03 -1 1 4.058118e-03 22.8193 55.0922)" class="st2" cx="39.1" cy="16.1" rx="4.1" ry="4.1"/>
</g>
<g>
	<ellipse transform="matrix(4.058118e-03 -1 1 4.058118e-03 0.8193 77.0039)" class="st2" cx="39.1" cy="38.1" rx="4.1" ry="4.1"/>
</g>
</svg>
