<?xml version="1.0" encoding="utf-8"?>
<!-- Generator: Adobe Illustrator 21.0.2, SVG Export Plug-In . SVG Version: 6.00 Build 0)  -->
<svg version="1.1" id="Layer_1" xmlns="http://www.w3.org/2000/svg" xmlns:xlink="http://www.w3.org/1999/xlink" x="0px" y="0px"
	 viewBox="0 0 172.9 109" style="enable-background:new 0 0 172.9 109;" xml:space="preserve">
<style type="text/css">
	.st0{fill:#FFFFFF;stroke:#546A79;stroke-width:2.236;stroke-linecap:round;stroke-miterlimit:10;}
	.st1{fill:#9ECD64;stroke:#546A79;stroke-width:2.236;stroke-linecap:round;stroke-miterlimit:10;}
	.st2{fill:none;stroke:#546A79;stroke-width:2.236;stroke-linecap:round;stroke-miterlimit:10;}
	.st3{fill:#546A79;}
	.st4{fill:none;stroke:#FFFFFF;stroke-width:2.236;stroke-linecap:round;stroke-miterlimit:10;}
	.st5{fill:none;stroke:#546A79;stroke-width:4.4798;stroke-miterlimit:10;}
	.st6{fill:#9ECD64;stroke:#546A79;stroke-width:4.4798;stroke-linecap:round;stroke-miterlimit:10;}
	.st7{fill:#FFFFFF;stroke:#546A79;stroke-width:2.236;stroke-linecap:round;stroke-linejoin:round;stroke-miterlimit:10;}
</style>
<g>
	<g>
		<rect x="107.7" y="40.1" class="st3" width="9.5" height="12.2"/>
		
			<rect x="116.2" y="49.4" transform="matrix(6.071860e-11 -1 1 6.071860e-11 65.0054 176.8876)" class="st3" width="9.5" height="13"/>
		<rect x="124.6" y="48.4" class="st0" width="11.6" height="13.2"/>
		<line class="st0" x1="125.2" y1="54.9" x2="128.9" y2="54.9"/>
		<line class="st0" x1="125.2" y1="57.9" x2="127.8" y2="57.9"/>
		<line class="st0" x1="125.2" y1="51.9" x2="127.8" y2="51.9"/>
		<circle class="st0" cx="112.7" cy="55.8" r="5.9"/>
		
			<rect x="58.2" y="34.4" transform="matrix(3.314265e-02 0.9995 -0.9995 3.314265e-02 103.358 -21.7414)" class="st3" width="9.5" height="16.3"/>
		
			<rect x="50" y="44.8" transform="matrix(0.9995 -3.314265e-02 3.314265e-02 0.9995 -1.6702 1.8417)" class="st3" width="9.5" height="13"/>
		
			<rect x="50.1" y="54.1" transform="matrix(3.314265e-02 0.9995 -0.9995 3.314265e-02 114.7934 2.8221)" class="st0" width="11.6" height="13.2"/>
		
			<ellipse transform="matrix(0.9995 -3.314265e-02 3.314265e-02 0.9995 -1.4056 1.8363)" class="st0" cx="54.7" cy="43.3" rx="5.9" ry="5.9"/>
		<path class="st0" d="M118.8,42.3c0-5.3-5-11.1-11.1-11.1s-11.1,5.8-11.1,11.1C96.6,49.6,118.8,49.6,118.8,42.3z"/>
		<path class="st0" d="M104.9,65.5H77.5c-4.1,0-7.4-3.3-7.4-7.4V36.4h42.3v21.6C112.4,62.2,109,65.5,104.9,65.5z"/>
		<line class="st0" x1="102.5" y1="36.4" x2="102.5" y2="64.1"/>
		<polygon class="st3" points="91.6,72.8 94,83.1 111.6,76.8 105.2,70.6 		"/>
		<polygon class="st3" points="91.8,73.5 89.4,83.8 71.8,77.4 78.2,71.3 		"/>
		<circle class="st0" cx="102.2" cy="62.3" r="6.6"/>
		<rect x="75.4" y="65.6" class="st0" width="31.3" height="7.2"/>
		<rect x="80" y="69.2" class="st3" width="3.8" height="3.8"/>
		<rect x="86.1" y="69.2" class="st3" width="3.8" height="3.8"/>
		<rect x="92.7" y="69.2" class="st3" width="3.8" height="3.8"/>
		<rect x="99.6" y="69.2" class="st3" width="3.8" height="3.8"/>
		<path class="st5" d="M84.3,79.1c0,0,1.9,6.3-3.7,11.8c-5.6,5.5-12.9-6.2-12.9-6.2"/>
		<polygon class="st0" points="114.3,93.2 123.8,82.4 125,89.5 138.6,81.5 121.7,100.7 119,94.9 		"/>
		
			<rect x="64.2" y="82" transform="matrix(-0.7592 0.6509 -0.6509 -0.7592 177.1038 107.1569)" class="st3" width="9" height="8.7"/>
		<polygon class="st0" points="71.3,79.3 60.3,88.8 60.1,81.5 45.5,87.5 65,70.9 66.8,77 		"/>
		<line class="st6" x1="104.4" y1="76.6" x2="111.7" y2="82.7"/>
		<rect x="79.5" y="14.7" class="st0" width="21.4" height="20.7"/>
		<rect x="92.5" y="22.3" class="st3" width="5.1" height="12.3"/>
		
			<rect x="92.2" y="18.2" transform="matrix(4.918738e-11 -1 1 4.918738e-11 70.4059 119.0659)" class="st3" width="5.1" height="12.3"/>
		<path class="st0" d="M79.2,51c4.2-4.2,4.4-11.3,0.2-15.7S67.9,31,63.7,35.1S75,55.1,79.2,51z"/>
		<rect x="119.6" y="43.9" class="st3" width="22.2" height="3.9"/>
		<polygon class="st0" points="135.7,10.7 130.5,5.3 125.1,10.7 125.1,45.7 135.7,45.7 		"/>
		<line class="st0" x1="130.1" y1="44.3" x2="130.1" y2="31.8"/>
		<rect x="88.7" y="73.1" class="st3" width="7.1" height="7.3"/>
		<rect x="110" y="81" transform="matrix(-0.6648 0.747 -0.747 -0.6648 254.3804 56.4881)" class="st3" width="9" height="8.7"/>
		<ellipse class="st3" cx="93" cy="106.5" rx="33.2" ry="2.4"/>
		<circle class="st3" cx="130.5" cy="65.4" r="3.8"/>
	</g>
	<line class="st0" x1="167.7" y1="34.7" x2="150.6" y2="34.7"/>
	<line class="st0" x1="45.1" y1="70.5" x2="33.4" y2="70.5"/>
	<polyline class="st7" points="144.9,34.7 138.6,34.7 149.5,23.8 	"/>
	<g>
		<polyline class="st0" points="165.2,7.5 165.3,7.5 165.3,3.7 171.1,1.8 169.5,7.5 165.4,7.5 		"/>
		<g>
			<path class="st0" d="M151.5,20.5l-3-0.7l7.3-7.1c0,0,1.5-0.7,4.5-0.4c0.3,2.6-0.5,4.5-0.5,4.5l-7.2,7l-0.6-3"/>
		</g>
		<line class="st0" x1="160.2" y1="12.4" x2="165.2" y2="7.5"/>
	</g>
	<g>
		<polyline class="st0" points="10.5,69.9 10.4,69.9 7.7,72.6 2.3,69.8 7.4,66.9 10.4,69.9 		"/>
		<g>
			<path class="st0" d="M29.4,70.5l1.7,2.6L20.9,73c0,0-1.6-0.6-3.4-2.9c1.6-2.1,3.5-2.8,3.5-2.8l10.1,0.1L29.4,70"/>
		</g>
		<line class="st0" x1="17.5" y1="70.1" x2="10.5" y2="70"/>
	</g>
</g>
</svg>
