<?xml version="1.0" encoding="utf-8"?>
<!-- Generator: Adobe Illustrator 21.0.2, SVG Export Plug-In . SVG Version: 6.00 Build 0)  -->
<svg version="1.1" id="Layer_1" xmlns="http://www.w3.org/2000/svg" xmlns:xlink="http://www.w3.org/1999/xlink" x="0px" y="0px"
	 viewBox="0 0 1200 94" style="enable-background:new 0 0 1200 94;" xml:space="preserve">
<style type="text/css">
	.st0{fill:#52AFE2;}
</style>
<g>
	<path class="st0" d="M66.1,50c-1.1,0-2-0.8-1.9-1.7c0-2.9,1.9-5.2,4.6-5.9c1.3-2.7,4-4.7,7-5C76,17.5,92.2,1.3,112.2,1.3
		c16.9,0,31.5,11.6,35.4,27.9c6.8,0.5,12.1,6.1,12.1,13c0,0.7-0.1,1.5-0.2,2.3c0.9,1.1,1.4,2.5,1.4,3.9c0,1.1-0.9,2-2,2s-2-0.9-2-2
		c0-0.7-0.4-1.4-0.9-1.8c-0.6-0.5-0.9-1.3-0.7-2.1c0.2-0.8,0.3-1.6,0.3-2.4c0-5-4.1-9.1-9.1-9.1c-0.1,0-0.2,0-0.3,0H146
		c-1,0.1-1.9-0.6-2.1-1.6C141,16.2,127.6,5.1,112.1,5.1c-17.9,0-32.4,14.5-32.4,32.4c0,0.6,0,1.1,0,1.7s-0.3,1.2-0.7,1.6
		s-1,0.6-1.6,0.5c-0.3-0.1-0.6-0.1-0.8-0.1c-2.1,0-3.9,1.3-4.5,3.4c-0.2,0.8-1,1.4-1.8,1.4c-1.2,0-2.2,1-2.2,2.2
		C68.1,49.2,67.2,50,66.1,50L66.1,50z"/>
	<path class="st0" d="M109.1,38.2c0-7.8,6.4-14.2,14.2-14.2c3.5,0,6.8,1.3,9.4,3.6c0.9,0.7,0.9,2,0.2,2.8c-0.7,0.9-2,0.9-2.8,0.2
		c-1.9-1.7-4.3-2.6-6.8-2.6c-5.6,0-10.2,4.6-10.2,10.2c0,1.1-0.9,2-2,2S109.1,39.3,109.1,38.2z"/>
</g>
<g>
	<path class="st0" d="M1056.8,91.9c0-0.3,0.2-0.6,0.3-0.7c0.6-0.5,0.9-1.3,0.7-2.1c-0.1-0.5-0.2-1-0.2-1.4c0-2.8,2.3-5.1,5.1-5.1
		h0.3c1,0.1,1.9-0.6,2.1-1.6c1.8-9.5,10.1-16.3,19.7-16.3c11,0,20,9,20,20c0,0.4,0,0.8,0,1.1c0,0.6,0.3,1.2,0.7,1.6s1,0.6,1.6,0.5
		c0.1,0,0.3,0,0.4,0c1,0,1.9,0.7,2.2,1.7c0.2,0.8,1,1.4,1.8,1.4c0.4,0.1,0.7,0.4,0.7,0.8c0,1.1,0.9,2,2,2s2-0.9,2-2
		c0-2-1.4-3.8-3.2-4.4c-0.9-1.6-2.5-2.8-4.3-3.2c-0.4-12.8-11-23.2-24-23.2c-11,0-20.5,7.4-23.2,17.9c-4.5,0.6-7.9,4.4-7.9,9
		c0,0.4,0,0.9,0.1,1.3c-0.6,0.8-0.9,1.7-0.9,2.7c0,1.1,0.9,2.1,2,2.1l0,0C1055.9,94,1056.8,93.1,1056.8,91.9z"/>
	<path class="st0" d="M1096.7,81.6c0-6-4.8-10.8-10.8-10.8c-2.7,0-5.2,0.9-7.2,2.7c-0.9,0.7-0.9,2-0.2,2.8c0.7,0.9,2,0.9,2.8,0.2
		c1.2-1.1,2.8-1.7,4.5-1.7c3.7,0,6.8,3,6.8,6.8c0,1.1,0.9,2,2,2S1096.6,82.7,1096.7,81.6z"/>
	<g>
		<path class="st0" d="M936.4,69c1.5,0,2.7-1.3,2.6-2.9c-0.1-3.8-2.7-7.1-6.2-8.1c-1.7-3.7-5.3-6.2-9.3-6.7
			C923.3,24.8,901.6,3.2,875,3.2c-22.5,0-42,15.5-47.1,37.2c-9,0.7-16.1,8.2-16.1,17.4c0,1,0.1,2.1,0.3,3.1
			c-1.2,1.5-1.9,3.3-1.9,5.2c0,1.5,1.1,2.7,2.6,2.7c1.5,0.1,2.7-1.1,2.7-2.6c0.1-1,0.5-1.8,1.2-2.4c0.8-0.7,1.2-1.8,0.9-2.8
			c-0.2-1.1-0.4-2.1-0.4-3.2c0-6.7,5.4-12.1,12.1-12.1c0.1,0,0.3,0,0.4,0h0.3c1.3,0.1,2.5-0.8,2.7-2.1c3.9-20.3,21.7-35,42.4-35
			c23.8,0,43.2,19.4,43.2,43.2c0,0.8-0.1,1.5-0.1,2.3s0.3,1.6,0.9,2.1c0.6,0.5,1.4,0.7,2.2,0.6c0.3-0.1,0.7-0.1,1-0.1
			c2.9,0,5.3,1.9,6.1,4.6c0.3,1.1,1.3,1.8,2.4,1.9c1.7,0.1,3,1.5,3,3.1C933.8,67.7,935,69,936.4,69L936.4,69z"/>
		<path class="st0" d="M879.3,52.8c0-10.4-8.5-18.9-18.9-18.9c-4.7,0-9.1,1.7-12.6,4.8c-1.1,0.9-1.2,2.6-0.2,3.7
			c0.9,1.1,2.6,1.2,3.7,0.2c2.5-2.2,5.7-3.4,9-3.4c7.5,0,13.6,6.1,13.6,13.6c0,1.4,1.1,2.6,2.6,2.6S879.2,54.2,879.3,52.8z"/>
	</g>
</g>
</svg>
