<svg xmlns="http://www.w3.org/2000/svg" id="Layer_1" viewBox="0 0 520 302"><style>.st0,.st1{fill:#1b8059}.st1{stroke:#191059;stroke-width:1.7859;stroke-linecap:round;stroke-linejoin:round;stroke-miterlimit:10}.st2{fill:#1be059}.st3{fill:#191059}.st4{fill:#1b0c59}.st5{fill:#a9b2b5}.st7{fill:none;stroke:#191059;stroke-width:1.553;stroke-linecap:round;stroke-linejoin:round;stroke-miterlimit:10}.st8{fill:#707677}.st11,.st12,.st13,.st14,.st15,.st16,.st9{fill:none;stroke:#191059;stroke-width:1.7859;stroke-linecap:round;stroke-linejoin:round;stroke-miterlimit:10}.st11,.st12,.st13,.st14,.st15,.st16{fill:#1be059;stroke-width:1.553}.st12,.st13,.st14,.st15,.st16{stroke-width:1.7859}.st13,.st14,.st15,.st16{fill:#1b8059;stroke-width:1.3596}.st14,.st15,.st16{fill:none;stroke-width:2.0965}.st15,.st16{fill:#1b8059}.st16{fill:#1be059}.st18{fill:#ffd60b}.st19{fill:#ffe161}.st20{stroke:#1b0c59;stroke-width:3.106}.st20,.st22,.st25{fill:none;stroke-linecap:round;stroke-linejoin:round;stroke-miterlimit:10}.st22{display:none;stroke:#1b0c59;stroke-width:4.3198}.st25{stroke:#191059;stroke-width:1.9412}.st26{fill:#9e896a}.st27{display:none}.st29{display:inline}.st30{fill:#ffd60b;stroke:#1b0c59;stroke-width:3.106;stroke-linecap:round;stroke-linejoin:round;stroke-miterlimit:10}.st31{opacity:.5;fill:#1b0c59}.st32{fill:#2ac6ea}.st33,.st34,.st35,.st36,.st37{fill:none;stroke:#1b0c59;stroke-width:2.7491;stroke-linecap:round;stroke-linejoin:round;stroke-miterlimit:10}.st34,.st35,.st36,.st37{stroke-width:33.545}.st35,.st36,.st37{stroke:#2ac6ea;stroke-width:28.7529}.st36,.st37{stroke:#191059;stroke-width:2.2274}.st37{stroke:#1b0c59;stroke-width:2.028}.st39{fill:#eb586f}.st40,.st42,.st46{fill:none;stroke:#1b0c59;stroke-width:2.2066;stroke-linecap:round;stroke-linejoin:round;stroke-miterlimit:10}.st42,.st46{stroke-width:2.3961}.st46{stroke-width:2.2167}.st48{opacity:.25;fill:#1b0c59}.st49{fill:#d8e9f0}.st51,.st53{stroke:#1b0c59;stroke-width:2.1878;stroke-miterlimit:10}.st51{stroke-linecap:round;fill:none}.st53{fill:#eb586f}.st57{fill:#24c7ea}.st58,.st60,.st62{fill:none;stroke:#191059;stroke-width:2.0278;stroke-linecap:round;stroke-linejoin:round;stroke-miterlimit:10}.st60,.st62{stroke-width:1.8118}.st62{fill:#eb586f;stroke-width:1.7859}</style><ellipse cx="310.8" cy="209.5" class="st0" rx="20.3" ry="17.4"/><path d="M299.1 198.9c-.6-.7-1.2-1.5-1.7-2.3-2-3.6-2.1-7.5 0-8 3.9-1 7.6 3.1 9.6 8.2M306.9 196.3c-.3-1-.5-2.1-.6-3.2-.3-4.8 1.7-9.1 4.4-8.8 4.8.5 6.8 6.5 6.1 12.9" class="st1"/><path d="M328.1 198.8c.7-1 1.3-2.2 1.8-3.5 2.1-5.3 1.4-10.8-1.7-11.2-5.6-.7-10 5.5-11.6 12.9M293 203.3c-.4-.2-.9-.5-1.3-.8-3.7-2.4-5.6-5.6-4.3-7.1 1.4-1.6 5.5-.9 9.2 1.5.9.6 1.7 1.2 2.4 1.8" class="st1"/><path d="M291 206.9c-.3 0-.6-.1-.9-.2-2.7-.6-4.6-1.9-4.3-3 .3-1.1 2.7-1.6 5.4-1 .6.1 1.3.3 1.8.5" class="st1"/><ellipse cx="197.4" cy="212.8" class="st0" rx="23.6" ry="20.3"/><path d="M211 200.5c.7-.8 1.4-1.7 1.9-2.7 2.4-4.2 2.5-8.7 0-9.3-4.5-1.1-8.9 3.6-11.2 9.5M201.9 197.4c.3-1.2.6-2.4.6-3.8.3-5.5-2-10.6-5.1-10.3-5.6.6-7.9 7.5-7.2 15" class="st1"/><path d="M177.2 200.2c-.8-1.2-1.5-2.6-2.1-4.1-2.4-6.2-1.6-12.5 2-13 6.5-.8 11.6 6.4 13.5 15M218.1 205.6c.5-.3 1-.6 1.6-.9 4.3-2.8 6.5-6.5 5-8.3-1.6-1.8-6.4-1-10.7 1.7-1 .7-2 1.4-2.8 2.1" class="st1"/><path d="M220.4 209.8c.4 0 .7-.1 1.1-.2 3.1-.6 5.3-2.2 5-3.5-.4-1.3-3.2-1.8-6.3-1.2-.8.2-1.5.4-2.1.6" class="st1"/><ellipse cx="251.5" cy="269.1" class="st2" rx="99.5" ry="11.6"/><ellipse cx="229.4" cy="253.9" class="st2" rx="99.5" ry="11.6"/><ellipse cx="164.2" cy="242.2" class="st2" rx="159.2" ry="23.2"/><ellipse cx="307.7" cy="223.6" class="st2" rx="151" ry="18"/><ellipse cx="359.3" cy="238.2" class="st2" rx="151" ry="18"/><ellipse cx="352.6" cy="260.3" class="st2" rx="117.4" ry="18"/><ellipse cx="111.8" cy="280.7" class="st2" rx="27.3" ry="5.4"/><ellipse cx="492.8" cy="255" class="st2" rx="13.7" ry="2.7"/><ellipse cx="136.6" cy="239.4" class="st3" rx="27.5" ry="5.6"/><ellipse cx="226.7" cy="270.9" class="st3" rx="21.1" ry="3.1"/><ellipse cx="479.8" cy="239.6" class="st3" rx="9.8" ry="1.3"/><ellipse cx="361.1" cy="262.7" class="st4" rx="47.3" ry="6.1"/><ellipse cx="487.4" cy="240.4" class="st4" rx="11" ry="2.3"/><g><path d="M478.7 232.3l11.4.5 1.7 2.2 1 2.9-4.5 2.5-14.1-.9-2.9-4.8z" class="st5"/><path d="M478.7 232.3l11.4.5 1.7 2.2 1 2.9-4.5 2.5-14.1-.9-2.9-4.8z" class="st7"/><path d="M483.8 240.1l-.8-3.4-10.5-.8M483 236.7l8.8-1.7" class="st7"/></g><g><path d="M343.9 248l20.1.9 2.9 3.9 1.8 5-8 4.5-24.7-1.7-5-8.4z" class="st5"/><path d="M360.7 262.3l8-4.5-1.8-5-2.9-3.9-1.6-.1-4.2 3.3-6.8 3.7 1.5 6z" class="st8"/><path d="M343.9 248l20.1.9 2.9 3.9 1.8 5-8 4.5-24.7-1.7-5-8.4z" class="st9"/><path d="M352.9 261.8l-1.5-6-18.3-1.4M351.4 255.8l12.6-6.9" class="st9"/></g><g><path fill="none" stroke="#191059" stroke-linecap="round" stroke-linejoin="round" stroke-miterlimit="10" stroke-width="1.4685" d="M211.6 270.9l1.3-5 5.6-4.2 23 2.5 5.4 6.7z"/><path d="M211.6 270.9l1.3-5 5.6-4.2 23 2.5 5.4 6.7z" class="st5"/><path d="M211.6 270.9l1.3-5 5.6-4.2 14.3 5.8.9 3.4z" class="st8"/><path d="M211.6 270.9l1.3-5 5.6-4.2 23 2.5 5.4 6.7z" class="st9"/><path d="M212.9 265.9l20.8 1.6 7.8-3.3M233.7 270.9v-3.4" class="st9"/></g><g><path d="M122.7 229.7c-.4-.5-.8-1.1-1.1-1.8-1.3-2.8-1.4-5.7 0-6.2 4.2-1.2 8.2 8 6.9 14.1M118.7 233.1l-.9-.6c-2.4-1.8-3.7-4.3-2.8-5.5.9-1.2 3.6-.7 6 1.2.6.4 1.1.9 1.6 1.4" class="st11"/><path d="M117.4 235.9c-.2 0-.4-.1-.6-.1-1.8-.4-3-1.5-2.8-2.3s1.8-1.2 3.6-.8c.4.1.8.2 1.2.4" class="st11"/></g><g><path d="M207 279.4l10.5-.2v-11.3s-3.4 1.3-4 1c-1.8-.8-2.5-4.7-5.6-1.3-4.3 4.6-.9 11.8-.9 11.8z" class="st2"/><path d="M212.9 270c-.4-.5-.8-1.1-1.1-1.8-1.3-2.8-1.4-5.7 0-6.2 4.2-1.2 8.2 8 6.9 14.1M208.9 273.4l-.9-.6c-2.4-1.8-3.7-4.3-2.8-5.5.9-1.2 3.6-.7 6 1.2.6.4 1.1.9 1.6 1.4" class="st12"/><path d="M207.6 276.2c-.2 0-.4-.1-.6-.1-1.8-.4-3-1.5-2.8-2.3.2-.9 1.8-1.2 3.6-.8.4.1.8.2 1.2.4" class="st12"/></g><g><path d="M121.5 228.7s-18.4-34.9 18-60.7c5-3.6 9-7.2 12.1-10.7M116.9 206.6s8.7-7.4 19.8-11.3M116.6 203.8s-2-4.2-4.7-7.3M123.3 184.1s4.2-18.6-9.7-32.2M122.9 168.4s-6.1-3.4-10.8-1.8M136.2 170.6s7.4 4.4 14.8 1.7" class="st7"/><path d="M141.2 183.9c4.8-2.8 10.4-2 12.5 1.7 2.1 3.7 0 8.9-4.8 11.6-4.8 2.8-12.5-1.7-12.5-1.7s0-8.9 4.8-11.6zM117 185c3.1-4.5 8.5-6.3 12-3.9s3.8 8 .7 12.6c-3.1 4.5-12 3.9-12 3.9s-3.8-8.1-.7-12.6z" class="st13"/><path d="M155.6 160.8c4.8-2.8 10.4-2 12.5 1.7 2.1 3.7 0 8.9-4.8 11.6s-12.5-1.7-12.5-1.7 0-8.8 4.8-11.6zM114.2 183.7c-2.5-4.9-7.6-7.3-11.4-5.4-3.8 1.9-4.8 7.5-2.3 12.4s11.4 5.4 11.4 5.4 4.8-7.5 2.3-12.4z" class="st11"/><path d="M99.6 163.7c-5.1 2.1-7.9 7-6.3 10.9 1.6 3.9 7.1 5.4 12.2 3.3 5.1-2.1 6.3-10.9 6.3-10.9s-7.1-5.4-12.2-3.3zM104.3 143.1c-.8-5.4 1.9-10.4 6.1-11 4.2-.6 8.2 3.3 9.1 8.7s-6.1 11-6.1 11-8.3-3.3-9.1-8.7z" class="st13"/><path d="M153 144.8c3.9-3.9 9.5-4.6 12.5-1.6 3 3 2.3 8.6-1.6 12.5-3.9 3.9-12.5 1.6-12.5 1.6s-2.3-8.6 1.6-12.5zM128.1 164.2c2.7-4.8 7.9-7 11.6-4.9 3.7 2.1 4.5 7.7 1.8 12.5s-11.6 4.9-11.6 4.9-4.6-7.7-1.8-12.5zM118.9 148.8c2.7-4.8 7.9-7 11.6-4.9 3.7 2.1 4.5 7.7 1.8 12.5s-11.6 4.9-11.6 4.9-4.5-7.7-1.8-12.5z" class="st11"/></g><g><ellipse cx="108.2" cy="243.1" class="st4" rx="83.8" ry="11.3"/><path d="M52.7 229.3s-15.8-41.6 28.6-65.5c6.1-3.3 11.1-6.8 15-10.4M50.6 203.9s10.8-7.1 23.8-10M50.6 200.7s-1.7-5-4.3-8.8M60.9 179.5s7.2-20.3-6.5-37.4M62.6 161.9s-6.3-4.6-11.8-3.6M77.2 166.2s7.7 6 16.4 4" class="st14"/><path d="M81 181.8c5.7-2.4 11.9-.8 13.7 3.6s-1.3 9.9-7 12.4-13.7-3.7-13.7-3.7 1.2-9.9 7-12.3zM53.8 179.6c4.1-4.7 10.4-5.9 13.9-2.7s3.2 9.5-.9 14.2c-4.1 4.7-13.9 2.7-13.9 2.7s-3.2-9.5.9-14.2z" class="st15"/><path d="M100.3 157.9c5.7-2.4 11.9-.8 13.7 3.6s-1.3 9.9-7 12.4-13.7-3.6-13.7-3.6 1.3-9.9 7-12.4zM50.8 177.9c-2.1-5.8-7.5-9.3-12-7.6s-6.4 7.7-4.3 13.5c2.1 5.8 12 7.6 12 7.6s6.4-7.7 4.3-13.5z" class="st16"/><path d="M37.2 153.4c-6 1.7-9.8 6.8-8.5 11.4 1.3 4.6 7.2 7 13.2 5.3s8.5-11.4 8.5-11.4-7.2-7-13.2-5.3zM45.3 131c-.2-6.2 3.6-11.3 8.4-11.5 4.8-.1 8.8 4.8 8.9 11 .2 6.2-8.4 11.5-8.4 11.5s-8.8-4.8-8.9-11z" class="st15"/><path d="M99.6 139.7c4.9-3.8 11.3-3.9 14.2-.1 2.9 3.8 1.4 9.9-3.5 13.8-4.9 3.8-14.2.1-14.2.1s-1.4-10 3.5-13.8zM69 157.9c3.7-5 9.8-6.7 13.7-3.9s4 9.2.3 14.2-13.7 3.9-13.7 3.9-4-9.2-.3-14.2zM60.8 139.4c3.7-5 9.8-6.7 13.7-3.9 3.8 2.8 4 9.2.3 14.2s-13.7 3.9-13.7 3.9-4-9.2-.3-14.2z" class="st16"/><linearGradient id="SVGID_1_" x1="79.3402" x2="269.2309" y1="174.6467" y2="101.5507" gradientUnits="userSpaceOnUse"><stop offset=".3897" stop-color="#ffe161"/><stop offset=".8112" stop-color="#fff" stop-opacity="0"/></linearGradient><path fill="url(#SVGID_1_)" d="M78.7 170.3L181.5 86c24-19.7 59.6-15.4 78 9.5.1.2.2.3.4.5.2.3.5.6.7 1 21.1 29.3.5 70.2-35.6 70.8l-52.9.9-93.4 1.6z"/><path d="M134.8 156.1h17.5v14.6h-17.5z" class="st18"/><path d="M134.8 156.1h11.7v14.6h-11.7z" class="st19"/><path d="M134.8 156.1h17.5v14.6h-17.5z" class="st20"/><path d="M99.7 163h17.5v7.7H99.7z" class="st18"/><path d="M99.7 163h11.7v7.7H99.7z" class="st19"/><path d="M99.7 163h17.5v7.7H99.7z" class="st20"/><path d="M111.3 163v7.7" class="st22"/><path d="M152.2 139.8h17.5v7.7h-17.5z" class="st18"/><path d="M152.2 139.8h11.7v7.7h-11.7z" class="st19"/><path d="M152.2 139.8h17.5v7.7h-17.5z" class="st20"/><path d="M163.9 139.8v7.7" class="st22"/><path d="M123.4 132.3h17.5v7.7h-17.5z" class="st18"/><path d="M123.4 132.3h11.7v7.7h-11.7z" class="st19"/><path d="M123.4 132.3h17.5v7.7h-17.5z" class="st20"/><path d="M135.1 132.3v7.7" class="st22"/><path d="M93.8 149.9h17.5v7.7H93.8z" class="st18"/><path d="M93.8 149.9h11.7v7.7H93.8z" class="st19"/><path d="M93.8 149.9h17.5v7.7H93.8z" class="st20"/><path d="M105.5 149.9v7.7" class="st22"/><path d="M117.5 145.9H135v24.9h-17.5z" class="st18"/><path d="M117.5 145.9h11.7v24.9h-11.7z" class="st19"/><path d="M117.5 145.9H135v24.9h-17.5z" class="st20"/><g><path d="M152.2 151.6h17.5v19.1h-17.5z" class="st18"/><path d="M152.2 151.6h11.7v19.1h-11.7z" class="st19"/><path d="M152.2 151.6h17.5v19.1h-17.5z" class="st20"/></g><g><path d="M65.5 226.2l13.4 2 20.5-9.1-13.8-13.2-8.1-6.8-10.1 10.1z" class="st8"/><path d="M65.5 226.2l13.4 2 20.5-9.1-3.6-4.7-7.9-6.6-10.4-8.7 2.5 7.6z" class="st8"/><path d="M65.5 226.2l13.4 2 20.5-9.1-3.6-4.7-18.3-15.3-10.1 10.1z" class="st25"/><path d="M65.5 226.2l14.7-19.7 7.7 1.3M77.5 199.1l2.7 7.4" class="st25"/></g><path d="M78 170.3h114v75.5H78z" class="st26"/><path d="M78 170.3h114v75.5H78z" class="st20"/><path d="M95.8 182.1h78.4V234H95.8z" class="st20"/><path d="M166 97.1c-20.2-24.1-56.2-27.3-80.3-7s-27.3 56.2-7 80.3L166 97.1z" class="st18"/><path d="M65.5 137.9S89.2 56.2 166 97c0 0-30.6-37-75.1-10.9-29.2 17.1-25.4 51.8-25.4 51.8z" class="st19"/><path d="M166 97.1c-20.2-24.1-56.2-27.3-80.3-7s-27.3 56.2-7 80.3L166 97.1z" class="st20"/><path d="M148.9 98.9c-13.4-16-38.9-16.7-57-1.6s-21.8 40.4-8.4 56.4l65.4-54.8z" class="st26"/><path d="M148.9 98.9c-13.4-16-38.9-16.7-57-1.6s-21.8 40.4-8.4 56.4l65.4-54.8z" class="st20"/><g><path d="M62.7 202.9l-14.8 10.8L37.1 242l25.7-.6 14.3-1.3v-19.2z" class="st8"/><path d="M62.7 202.9l-14.8 10.8L37.1 242l7.9 1.1 13.8-1.3 18.3-1.7-9.7-4.9z" class="st8"/><path d="M62.7 202.9l-14.8 10.8L37.1 242l7.9 1.1 32.1-3v-19.2z" class="st9"/><path d="M62.7 202.9l4.7 32.9-8.6 6M77.1 240.1l-9.7-4.3" class="st9"/></g><g class="st27"><path fill="#1be059" d="M194.8 236.3l10.5-.2v-11.3s-3.4 1.3-4 1c-1.8-.8-2.5-4.7-5.6-1.3-4.3 4.7-.9 11.8-.9 11.8z"/><g class="st29"><path d="M200.6 227.5c.8 0 1-.8 1.3-1.4 1.3-2.8 1.4-5.7 0-6.2-4.2-1.2-9.5 7.6-8.2 13.8" class="st11"/><path d="M204 231.2l.9-.6c2.4-1.8 3.7-4.3 2.8-5.5-.9-1.2-3.6-.7-6 1.2-.6.4-1.1.9-1.6 1.4" class="st11"/><path d="M205.3 234c.2 0 .4-.1.6-.1 1.8-.4 3-1.5 2.8-2.3-.2-.9-1.8-1.2-3.6-.8-.4.1-.8.2-1.2.4" class="st11"/></g></g><path d="M75.6 230.6v19.6H96s1.7-19.6-20.4-19.6zM194.6 230.6v19.6h-20.4s-1.7-19.6 20.4-19.6zM75.6 170.9v16c0 1.3 1.6 2 2.6 1.1l17.6-17.6-20.2.5zM194.5 169.9v16.5c0 1.3-1.6 2-2.6 1.1l-17.6-17.6h20.2z" class="st30"/><path d="M128.5 87.2l-48.2 24.5M75.7 126.4l57.9-14.7M112.1 117.5l-34.1 27M95.8 191.1l78.4 5.2M96 209.5l78.2-4.4M95.8 217.2l78.4 4.9M95.8 234l67.9-12.5" class="st20"/><path d="M95.8 182.1v3.7l78.4 5.3v-9zM95.8 191.1l-.4 17 78.8-8.4v-3.4zM110.7 232.6l47.7-10.5h14.9l.9 11.9zM95.8 217.2l62.6 4.9-23.3 4.7-39.3-3.5zM142.4 104.3s-19.2-9.6-38-2.5c-17.5 6.6-31.6 25.8-20.9 51.9 0 0-12.8-13.4-5.7-36.2s31.7-33.3 47-31.1 24.1 12.5 24.1 12.5l-6.5 5.4z" class="st31"/><path d="M78.1 144.5l34-27 7.2-2.3-39 36.4z" class="st31"/></g><g><path d="M315.3 203.9l7.3-15.2c2.1-4.4 2-10.9-.4-17.7l-8.1-23.3c-2.6-7.4-10.2-11.7-12.8-7.2l-9.1 15.2c-2.3 3.9-2.2 10.1.4 16.6l10 25.3c2.8 7.4 10.4 11.1 12.7 6.3z" class="st32"/><path d="M315.3 203.9l7.3-15.2c2.1-4.4 2-10.9-.4-17.7l-8.1-23.3c-2.6-7.4-10.2-11.7-12.8-7.2l-9.1 15.2c-2.3 3.9-2.2 10.1.4 16.6l10 25.3c2.8 7.4 10.4 11.1 12.7 6.3z" class="st33"/><path d="M319.9 166.7l-58.8 1.7v28M358.5 174.2l17.9 50 18.7-10.4" class="st34"/><path d="M347 190.6s-7.8-27.9-9.3-32.3c-.8-1.5-1.4-3.1-1.7-4.9-1.7-9.1 4.3-17.9 13.4-19.6 7.6-1.4 15 2.4 18.4 9.6.4.8.7 1.6 1.1 2.6.4 1.2 1 2.8 1.6 4.8 1 3.1 2.2 7.4 3.8 12.7 2.6 9 5.1 18.2 5.1 18.2l-32.4 8.9zm-2.5-25.6c3 1.7 6.8 2.6 11.1 1.8-4 .7-7.9 0-11.1-1.8z" class="st32"/><path d="M290.1 151s9.5-.4 18.9-.7c5.6-.2 10-.3 13.3-.3 2.2 0 3.8 0 5.1.1 1.1 0 2 .1 2.8.2 8.9 1.2 15.3 8.5 14.9 17.6-.2 4.8-10.6 8.6-16.5 11.6-2.4 1.2-2.6 4.2-3.4 4.1-3.6-.1-21.3.5-29.5.8-2.3.1-4.3-1.7-4.4-4l-1.2-29.4z" class="st32"/><path d="M321.4 167.9c-1.1 6.5 3.3 12.2 9.8 13.3l11.2 2.4c6.5 1.1 12.7-3.3 13.8-9.9l.8-4.7c1.1-6.5-3.3-12.7-9.9-13.8l-11.2-1.9c-6.5-1.1-12.7 3.3-13.8 9.9l-.7 4.7z" class="st32"/><path d="M368.6 134.9c2 1.6 3.6 3.7 4.8 6.1.4.8.7 1.6 1.1 2.6.4 1.2 1 2.8 1.6 4.8 1 3.1 2.2 7.4 3.8 12.7 2.6 9 5.1 18.2 5.1 18.2l-39.1 10.6s-.1.1-2-6.6M325 182.9l-27 1.3c-7 .4-6.6-3.5-6.6-3.5l-2.2-29.6s9.5-.7 18.9-1.3c5.6-.3 10-.6 13.3-.7 2.2-.1 3.8-.1 5.1-.1 1.1 0 2 .1 2.8.2 2.7.3 5.2 1.2 7.3 2.5M343.8 183.4l-15.2-4-3.6 3.5M337.5 163.3s-6.6 10.9-1 18.1" class="st33"/><path d="M305.8 87.9l-13.4 33h-47.9" class="st34"/><path d="M271.9 120.9h-27.4" class="st35"/><path d="M279.2 92c-3.4-10.3 2.2-22.1 12.8-25.6 10.6-3.5 22.2 2.5 25.6 12.8s-35 23.1-38.4 12.8z" class="st32"/><path d="M279.2 92c-3.4-10.3 2.2-22.1 12.8-25.6 10.6-3.5 22.2 2.5 25.6 12.8s-35 23.1-38.4 12.8z" class="st36"/><path d="M372.4 181.9l6-1.7-1.4-5-4.2 1.2c-1 .3-1.6 1.4-1.3 2.4l.9 3.1zM360.5 185.4l6-1.7-.9-3.1c-.3-1-1.4-1.6-2.4-1.3l-2.3.7c-1 .3-1.6 1.4-1.3 2.4l.9 3zM348.6 188.8l6-1.7-.9-3.1c-.3-1-1.4-1.6-2.4-1.3l-4.2 1.2 1.5 4.9zM290.6 158.2l-.4-6.2 5.2-.4.3 4.3c.1 1.1-.7 2-1.8 2l-3.3.3zM291.3 171.6l-.4-6.2 3.2-.2c1.1-.1 2 .7 2 1.8l.2 2.4c.1 1.1-.7 2-1.8 2l-3.2.2zM292.5 183.6l-.4-6.2 3.2-.2c1.1-.1 2 .7 2 1.8l.3 4.3-5.1.3z" class="st4"/><path d="M421.9 186.7l-24.1 10.4 6.7 12.6c-15.4 8.5-4.8 20.2-4.8 20.2l11.4-5.2 8.1 1.9c3.8.9 6.9 3.5 8.5 7l1.8 4c1.3 1.6 3.6 2.4 5.9 2.1l6.3-1-2.2-19.7-17.6-32.3z" class="st32"/><path d="M421.9 186.7l-24.1 10.4 6.7 12.6c-2.9 1.6-4.9 3.3-6.2 5-5.6 7.5 1.4 15.2 1.4 15.2l11.4-5.2 8.1 1.9c3.8.9 6.9 3.5 8.5 7l1.8 4c1.3 1.6 3.6 2.4 5.9 2.1l6.3-1-2.2-19.7-17.6-32.3z" class="st37"/><path d="M446.5 236.5l-2.3-15c-.4-2.9-1.5-5.6-3.2-8-5.4-7.9-17.7-25.8-17.9-26.1-1.5-1.9-2.5-2.8-4.6-2.5-2.7.4-4 3.5-2.5 5.8l16.7 24c1.7 2.4 2.8 5.2 3.2 8.1l2.3 14.9c.3 1.9 2.4 3.2 4.7 2.9 2.3-.3 3.9-2.2 3.6-4.1z" class="st4"/><path fill="#2ac6ea" stroke="#1b0c59" stroke-linecap="round" stroke-linejoin="round" stroke-miterlimit="10" stroke-width="2.2022" d="M391.3 200.3l6.1 11.5c2 3.8 6.6 5.2 10.4 3.2l-9.7-18.3c-1-1.9-3.3-2.6-5.2-1.6-1.9 1-2.6 3.3-1.6 5.2z"/><path d="M408.3 214.5l3.8-1.5 7.4 2.5 1.6 10.8M428.4 235.2s-3.9-7.5-2.3-14.1M409 214.7l1.6 10.1" class="st37"/><path d="M397.4 190.1l-.8-17.4c-.2-5.1-3.5-10.9-9-16l-18.7-17.2c-6-5.5-15-5.7-15.2-.3l-.9 18.3c-.2 4.7 2.9 10.3 8.4 14.9l21.4 18.2c6.3 5.3 15 5 14.8-.5z" class="st32"/><path d="M397.4 190.1l-.8-17.4c-.2-5.1-3.5-10.9-9-16l-18.7-17.2c-6-5.5-15-5.7-15.2-.3l-.9 18.3c-.2 4.7 2.9 10.3 8.4 14.9l21.4 18.2c6.3 5.3 15 5 14.8-.5z" class="st33"/><path d="M334 164.9c2.8.1 5.8-.1 9-.6 22.3-3.8 27.8-26 28-26.9.7-2.8-1.1-5.7-3.9-6.3-2.8-.7-5.7 1.1-6.3 3.9-.2.7-4.2 16.4-19.5 19-18.5 3.1-27.2-9-29.4-12.8-1.5-2.5-4.7-3.4-7.2-1.9s-3.4 4.7-1.9 7.2c5.2 9 15.9 17.9 31.2 18.4z" class="st32"/><path d="M334 164.9c2.8.1 5.8-.1 9-.6 22.3-3.8 27.8-26 28-26.9.7-2.8-1.1-5.7-3.9-6.3-2.8-.7-5.7 1.1-6.3 3.9-.2.7-4.2 16.4-19.5 19-18.5 3.1-27.2-9-29.4-12.8-1.5-2.5-4.7-3.4-7.2-1.9s-3.4 4.7-1.9 7.2c5.2 9 15.9 17.9 31.2 18.4z" class="st33"/><path d="M289.1 105c-3.8-11.7 1.9-24 12.6-27.4l37.9-12.2c10.7-3.4 22.4 3.3 26.2 15 1 3.1 5.4 16.8 6.8 21.2 2.8 8.7 3 17.5 1 25.5-.8 3.3-1.9 6.4-3.4 9.3-4.7 9.3-12.6 16.7-22.8 20-10.3 3.3-21 1.9-30.2-2.9-2.9-1.5-5.6-3.4-8.2-5.6-6.2-5.4-11.2-12.7-14-21.4-1.5-4.9-5.1-18.9-5.9-21.5z" class="st32"/><path d="M289.4 104.9c-3.8-11.7 1.9-24 12.6-27.4l37.9-12.2c10.7-3.4 22.4 3.3 26.2 15 1 3.1 5.4 16.8 6.8 21.2 2.8 8.7 3 17.5 1 25.5-.8 3.3-1.9 6.4-3.4 9.3-4.7 9.3-12.6 16.7-22.8 20-10.3 3.3-21 1.9-30.2-2.9-2.9-1.5-5.6-3.4-8.2-5.6-6.2-5.4-11.2-12.7-14-21.4-1.5-4.9-5.1-18.9-5.9-21.5z" class="st33"/><path d="M300.9 63.1l37.8-3.8c4.3-.4 7.5-4.3 7-8.6l-4.8-47.3-53.4 5.4 4.8 47.3c.4 4.3 4.3 7.5 8.6 7z" class="st32"/><path d="M289.3 16.2H343v8.6h-53.7z" class="st39" transform="matrix(.9978 -.06584 .06584 .9978 -.6676 20.8575)"/><path d="M299.3 63.9c-4.8 0-8.9-3.8-9.2-8.6L287 7.9c-.1-.8.5-1.4 1.3-1.5l53.6-3.5c.4 0 .7.1 1 .3.3.2.4.6.5.9l3.1 47.5c.2 2.5-.6 4.8-2.3 6.7-1.6 1.9-3.9 3-6.3 3.1L300 63.9h-.7zm.6-1.3zM289.8 9.1l3 46.1c.2 3.6 3.3 6.3 6.9 6l37.9-2.5c1.7-.1 3.3-.9 4.5-2.2 1.1-1.3 1.7-3 1.6-4.7l-3-46.1-50.9 3.4z" class="st4"/><path d="M309 34h11.3v27.1H309z" class="st4" transform="matrix(-.9978 .06584 -.06584 -.9978 631.7542 74.2508)"/><path d="M345.1 23l-57.4 3.8M344.5 14.4l-57.4 3.7" class="st40"/><path fill="none" stroke="#1b0c59" stroke-linecap="round" stroke-linejoin="round" stroke-miterlimit="10" stroke-width="8.1721" d="M328.2 33.1L299.5 35"/><path d="M301.7 77.8c12.8 14.9 36.9 10.4 43.5-8.1l-.8-4.3c-.5-2.6-3-4.3-5.6-3.8l-34.1 6.3c-2.6.5-4.3 3-3.8 5.6l.8 4.3z" class="st32"/><path d="M300.6 78c12.8 14.9 36.9 10.4 43.5-8.1l-.8-4.3c-.5-2.6-3-4.3-5.6-3.8l-34.1 6.3c-2.6.5-4.3 3-3.8 5.6l.8 4.3z" class="st42"/><path d="M308.1 73l.2.1c9.9 3.9 21.1 1.8 28.9-5.5l-.6-7.5-30.6 1.7 2.1 11.2z" class="st4"/><path d="M307.3 73.3c9.9 3.9 25.2 1.4 30.6-7.8M343.1 157.3s-19.5 3-24.4-29.4l-3.9-25.6-.9-7.7c-.4-3.5 1.9-6.7 5.3-7.4" class="st42"/><g><path d="M368.2 82.7l15.1 43.8-45.4-5.6" class="st34"/><path d="M367.8 124.4l-29.5-3.3" class="st35"/></g><g><path d="M387.2 85.8c.6-10.8-7.9-20.7-19.1-21.4-11.2-.6-20.8 8.2-21.4 19.1s39.9 13.1 40.5 2.3z" class="st32"/><path d="M387.2 85.8c.6-10.8-7.9-20.7-19.1-21.4-11.2-.6-20.8 8.2-21.4 19.1s39.9 13.1 40.5 2.3z" class="st36"/></g><g><path d="M275.8 235.1l-.5-29.1-17.2.3-.1-3.4-12.3-.2.2 8.3c-3.1 5.4-8.1 9.3-14 10.9l-7.9 2.2c-1.8 1.1-2.9 3.3-2.9 5.6l.1 6.4 54.6-1z" class="st32"/><path fill="none" stroke="#1b0c59" stroke-linecap="round" stroke-linejoin="round" stroke-miterlimit="10" stroke-width="2.0414" d="M275.8 235.1l-.5-29.1-17.2.3-.1-3.4-12.3-.2.2 8.3c-3.1 5.4-8.1 9.3-14 10.9l-7.9 2.2c-1.8 1.1-2.9 3.3-2.9 5.6l.1 6.4 54.6-1z"/><path fill="#2ac6ea" stroke="#1b0c59" stroke-linecap="round" stroke-linejoin="round" stroke-miterlimit="10" stroke-width="2.2167" d="M275 198.2l-13.1.2c-4.3.1-7.7 3.6-7.6 7.9l20.9-.4c2.1 0 3.8-1.8 3.8-3.9-.1-2.1-1.8-3.8-4-3.8z"/><path d="M222.6 241.1l52-.9c2 0 3.5-2 3.5-4.3s-1.7-4.2-3.6-4.1l-52 .9c-2 0-3.5 2-3.5 4.3s1.6 4.1 3.6 4.1z" class="st4"/><path d="M235.9 220.5l11.5-.2 7-8.8-.1-5.1M254.4 211.5l-8.3.1" class="st46"/></g><path d="M335.3 87.2s5.7 5.8 6 10.8c.2 5 0 7.1 3.9 8.2 1.4.4-2.1-1.2-4.6-.8-4.4.7-11.4 4.1-11.4 4.1l6.1-22.3z" class="st48"/><g><path d="M322.2 103.3h9.2v30.4h-9.2z" class="st49" transform="matrix(-1 -.00322 .00322 -1 653.2191 238.0294)"/><path fill="none" stroke="#1b0c59" stroke-miterlimit="10" stroke-width="2.1878218780000003" d="M331.35209984 133.69074996l-9.2-.0296573.09799802-30.4 9.2.0296573z"/><path d="M331.4 106.5l-10.2 10.3M330 102.8l-11.1 11M331.4 112.1l-10.8 10.4M331.4 127.2l-6.4 6.5M331.4 122.1l-10.8 10.7" class="st51"/><g><path d="M326.8 293.6c-4.9-5.9-8.4-12.9-10.3-20.3-1-4-1.6-8.2-1.6-12.4v-.5l.4-118.9 24.1.1-.1 35v.4l-.3 83.3c-.1 12.2-4.4 24-12.2 33.3z" class="st49"/><path d="M316.4 142.6l21.9.1-.1 33.7v.6l-.1 36.5v5.2l-.1 15.4-.1 26.3c0 11.5-3.9 22.6-11 31.5-4.3-5.6-7.5-12-9.3-18.9-1-4-1.5-8-1.6-12.1v-5.1l.1-36.5.3-76.7m-2.2-2.2v.2l-.3 78.5-.1 36.5v5.2c0 4.3.6 8.5 1.6 12.6 2 8 5.9 15.4 11.4 21.7 8.5-9.7 13.2-22.1 13.2-35l.1-26.3.1-15.4v-5.2l.1-36.5.1-34.5v-2l-26.2.2z" class="st4"/><path d="M326.8 295.3l.1-40.1.1-15.4v-5.2l.1-36.5.2-55.7h13.1l-.1 34.5-.1 36.5v5.2l-.1 15.4-.1 26.3c0 12.9-4.7 25.3-13.2 35z" class="st4"/></g><g><path d="M310.2 141.8c-.9 0-1.8-.4-2.5-1-.7-.7-1-1.5-1-2.5 0-1.9 1.6-3.5 3.5-3.5l32.5.1c1.9 0 3.5 1.6 3.5 3.5s-1.6 3.5-3.5 3.5l-32.5-.1z" class="st49"/><path d="M310.2 135.8l32.5.1c1.3 0 2.4 1.1 2.4 2.4 0 1.3-1.1 2.4-2.4 2.4l-32.4-.1c-1.3 0-2.4-1.1-2.4-2.4-.1-1.3.9-2.4 2.3-2.4m0-2.1c-2.5 0-4.6 2.1-4.6 4.6 0 1.2.5 2.4 1.3 3.3s2 1.4 3.3 1.4l32.4.1c2.5 0 4.6-2.1 4.6-4.6 0-1.2-.5-2.4-1.3-3.3-.9-.9-2-1.4-3.3-1.4l-32.4-.1z" class="st4"/></g><g><circle cx="326.9" cy="94" r="9.3" fill="#d8e9f0" stroke="#1b0c59" stroke-miterlimit="10" stroke-width="2.1878"/><path d="M326.9 84.7v18.6M336.2 94l-18.6-.1" class="st53"/><path d="M326.9 98.9c-1.3 0-2.6-.5-3.5-1.5-.9-.9-1.4-2.2-1.4-3.5 0-2.7 2.2-4.9 4.9-4.9 1.3 0 2.6.5 3.5 1.5.9.9 1.4 2.2 1.4 3.5 0 2.7-2.2 4.9-4.9 4.9z" class="st39"/><path d="M326.9 87.9v2.2c1 0 2 .4 2.7 1.1s1.1 1.7 1.1 2.7c0 2.1-1.7 3.8-3.9 3.8-1 0-2-.4-2.7-1.1-.7-.6-1.1-1.6-1.1-2.6 0-2.1 1.7-3.8 3.9-3.8v-2.3m0 0c-3.3 0-6 2.7-6 6s2.7 6 6 6.1c3.3 0 6-2.7 6-6s-2.7-6-6-6.1z" class="st4"/><path fill="none" stroke="#fff" stroke-linecap="round" stroke-linejoin="round" stroke-miterlimit="10" stroke-width=".944" d="M326.7 96.6c1.4 0 2.6-1.2 2.6-2.6 0-.4-.1-.7-.2-1.1"/></g></g><path fill="#fff" d="M313.2 277.2s0-3.9 10.1-3.9 15.8 1.3 15.7 1c-.1-.3.6 8.3.6 9.1s-4.7 11.6-5.4 12.4c-.8.8-13.2-.8-13.2-.8s-7-9.3-7-10.9c-.1-1.5-.8-6.9-.8-6.9z"/><g><path d="M334 125.5c1.6 1 2.7 2.5 2.7 4.1.1 3.2-3.8 6-8.8 6.1-4.9.1-9-2.4-9.1-5.6 0-1.6.9-3.1 2.5-4.2" class="st57"/><path d="M321.2 116.9c-1.7 1-2.8 2.4-2.8 4s.8 3.1 2.4 4.3c1.6 1.2 3.7 1.9 6.2 2.1 2.5.1 4.7-.4 6.4-1.3 1.7-1 2.8-2.4 2.8-4 .1-1.6-.8-3.1-2.4-4.3" class="st57"/><path d="M320.3 112c-.5 3.2 1.9 6.3 8 7.1 4.9.7 9.2-1.3 9.7-4.5.4-2.9-.6-4.5-4.7-5.6-.2-.1-4.7-1.1-7.7-.7-3.3.3-5 2-5.3 3.7z" class="st57"/><path d="M329.9 107.5c-.5-.1-1.2-.2-1.7-.2-4.2-.1-7.7 1.8-8.1 4.6-.2 1.4.4 2.8 1.5 4 0 0 .7.8-.4 1-1.7 1-2.8 2.4-2.8 4-.1 1.6.8 3.1 2.4 4.3l.9.6h-.2c-1.6 1.1-2.5 2.6-2.5 4.2.1 3.2 4.5 8 14.1 4.5" class="st58"/><ellipse cx="335.3" cy="111.3" class="st57" rx="4.5" ry="9.3" transform="matrix(.9999 -.01613 .01613 .9999 -1.7505 5.4214)"/><path fill="none" stroke="#191059" stroke-linecap="round" stroke-linejoin="round" stroke-miterlimit="10" stroke-width="2.1158" d="M339.6 105.6c-1.6-2.5-3.4-3.2-5.6-2.7-2.1.4-3.6 2.4-4.2 5"/></g><circle cx="241.6" cy="119.1" r="11.6" class="st32"/><path d="M246.7 117.4h5.1V99.8c0-1.7-1.4-3.1-3.1-3.1-4 0-7.2 3.2-7.2 7.2v8.4c.1 2.8 2.3 5.1 5.2 5.1z" class="st32"/><path d="M241.6 106v-2.2c0-4 3.2-7.2 7.2-7.2 1.7 0 3.1 1.4 3.1 3.1v17.6" class="st9"/><g><path d="M228.6 125.5c-1.3 1.1-2.1 2.4-2 3.9.3 2.9 4 4.9 8.4 4.5 4.4-.4 7.7-3 7.5-5.9-.1-1.4-1.1-2.7-2.6-3.5" class="st57"/><path d="M228.6 125.5c-1.3 1.1-2.1 2.4-2 3.9.3 2.9 4 4.9 8.4 4.5 4.4-.4 7.7-3 7.5-5.9-.1-1.4-1.1-2.7-2.6-3.5" class="st60"/><path d="M239.2 117.6c1.4 1 2.3 2.3 2.3 3.7 0 1.4-.9 2.7-2.3 3.7-1.4.9-3.4 1.5-5.6 1.5-2.2 0-4.2-.6-5.7-1.5-1.4-1-2.3-2.3-2.3-3.7 0-1.4.9-2.7 2.3-3.7" class="st57"/><path d="M239.2 117.6c1.4 1 2.3 2.3 2.3 3.7 0 1.4-.9 2.7-2.3 3.7-1.4.9-3.4 1.5-5.6 1.5-2.2 0-4.2-.6-5.7-1.5-1.4-1-2.3-2.3-2.3-3.7 0-1.4.9-2.7 2.3-3.7" class="st60"/><g><path d="M226.8 113.2c-.3 2.9 3.1 5.5 7.5 5.9 4.4.4 8.2-1.6 8.4-4.5.2-2.6-.8-4-4.5-4.8-.2 0-4.3-.7-6.9-.2-2.8.4-4.3 2.1-4.5 3.6z" class="st57"/><path d="M235.1 108.7c-.5 0-1-.1-1.5-.1-3.8.1-6.8 2-7 4.6-.3 2.9 3.1 5.5 7.5 5.9s8.2-1.6 8.4-4.5c.1-1.4-.6-2.7-1.9-3.8" class="st9"/></g></g><path d="M240.7 124.4c1.3 2.9 4.7 4.3 7.6 3" class="st60"/></g><g opacity=".5"><path d="M143.7 126.8v7.4h-2.5v-5.5H140v-1.9h3.7zM155.1 133.8c-.5-.3-.9-.7-1.2-1.3-.3-.6-.4-1.3-.4-2.1s.1-1.5.4-2.1c.3-.6.7-1 1.2-1.3.5-.3 1.1-.5 1.7-.5.7 0 1.2.2 1.7.5s.9.7 1.2 1.3c.3.6.4 1.3.4 2.1s-.1 1.5-.4 2.1c-.3.6-.7 1-1.2 1.3-.5.3-1.1.5-1.7.5-.6 0-1.2-.2-1.7-.5zm2.6-3.3c0-1.2-.3-1.9-.8-1.9-.6 0-.8.6-.8 1.9 0 1.2.3 1.9.8 1.9.5-.1.8-.7.8-1.9zM141.6 148.5c-.5-.3-.9-.7-1.2-1.3-.3-.6-.4-1.3-.4-2.1s.1-1.5.4-2.1c.3-.6.7-1 1.2-1.3.5-.3 1.1-.5 1.7-.5.7 0 1.2.2 1.7.5s.9.7 1.2 1.3c.3.6.4 1.3.4 2.1s-.1 1.5-.4 2.1c-.3.6-.7 1-1.2 1.3-.5.3-1.1.5-1.7.5-.6 0-1.2-.2-1.7-.5zm2.6-3.4c0-1.2-.3-1.9-.8-1.9-.6 0-.8.6-.8 1.9 0 1.2.3 1.9.8 1.9s.8-.6.8-1.9zM173 126.8v7.4h-2.5v-5.5h-1.3v-1.9h3.8zM184.3 133.8c-.5-.3-.9-.7-1.2-1.3-.3-.6-.4-1.3-.4-2.1s.1-1.5.4-2.1c.3-.6.7-1 1.2-1.3.5-.3 1.1-.5 1.7-.5.7 0 1.2.2 1.7.5s.9.7 1.2 1.3c.3.6.4 1.3.4 2.1s-.1 1.5-.4 2.1c-.3.6-.7 1-1.2 1.3-.5.3-1.1.5-1.7.5-.6 0-1.2-.2-1.7-.5zm2.6-3.3c0-1.2-.3-1.9-.8-1.9-.6 0-.8.6-.8 1.9 0 1.2.3 1.9.8 1.9.5-.1.8-.7.8-1.9zM202.2 126.8v7.4h-2.5v-5.5h-1.3v-1.9h3.8zM213.5 133.8c-.5-.3-.9-.7-1.2-1.3-.3-.6-.4-1.3-.4-2.1s.1-1.5.4-2.1c.3-.6.7-1 1.2-1.3.5-.3 1.1-.5 1.7-.5.7 0 1.2.2 1.7.5s.9.7 1.2 1.3c.3.6.4 1.3.4 2.1s-.1 1.5-.4 2.1c-.3.6-.7 1-1.2 1.3-.5.3-1.1.5-1.7.5-.6 0-1.2-.2-1.7-.5zm2.6-3.3c0-1.2-.3-1.9-.8-1.9-.6 0-.8.6-.8 1.9 0 1.2.3 1.9.8 1.9.5-.1.8-.7.8-1.9zM231.4 126.8v7.4H229v-5.5h-1.3v-1.9h3.7zM173 96.9v7.4h-2.5v-5.5h-1.3v-1.9h3.8zM184.3 103.9c-.5-.3-.9-.7-1.2-1.3-.3-.6-.4-1.3-.4-2.1s.1-1.5.4-2.1c.3-.6.7-1 1.2-1.3.5-.3 1.1-.5 1.7-.5.7 0 1.2.2 1.7.5s.9.7 1.2 1.3c.3.6.4 1.3.4 2.1s-.1 1.5-.4 2.1c-.3.6-.7 1-1.2 1.3-.5.3-1.1.5-1.7.5-.6 0-1.2-.1-1.7-.5zm2.6-3.3c0-1.2-.3-1.9-.8-1.9-.6 0-.8.6-.8 1.9 0 1.2.3 1.9.8 1.9.5-.1.8-.7.8-1.9zM202.2 96.9v7.4h-2.5v-5.5h-1.3v-1.9h3.8zM213.5 103.9c-.5-.3-.9-.7-1.2-1.3-.3-.6-.4-1.3-.4-2.1s.1-1.5.4-2.1c.3-.6.7-1 1.2-1.3.5-.3 1.1-.5 1.7-.5.7 0 1.2.2 1.7.5s.9.7 1.2 1.3c.3.6.4 1.3.4 2.1s-.1 1.5-.4 2.1c-.3.6-.7 1-1.2 1.3-.5.3-1.1.5-1.7.5-.6 0-1.2-.1-1.7-.5zm2.6-3.3c0-1.2-.3-1.9-.8-1.9-.6 0-.8.6-.8 1.9 0 1.2.3 1.9.8 1.9.5-.1.8-.7.8-1.9zM231.4 96.9v7.4H229v-5.5h-1.3v-1.9h3.7z" class="st18"/><g><path d="M202.2 69.7v7.4h-2.5v-5.5h-1.3v-1.9h3.8zM213.5 76.8c-.5-.3-.9-.7-1.2-1.3-.3-.6-.4-1.3-.4-2.1s.1-1.5.4-2.1c.3-.6.7-1 1.2-1.3.5-.3 1.1-.5 1.7-.5.7 0 1.2.2 1.7.5s.9.7 1.2 1.3c.3.6.4 1.3.4 2.1s-.1 1.5-.4 2.1c-.3.6-.7 1-1.2 1.3-.5.3-1.1.5-1.7.5-.6 0-1.2-.2-1.7-.5zm2.6-3.4c0-1.2-.3-1.9-.8-1.9-.6 0-.8.6-.8 1.9 0 1.2.3 1.9.8 1.9s.8-.6.8-1.9z" class="st18"/></g><g><path d="M143.7 155.6v7.4h-2.5v-5.5H140v-1.9h3.7zM202.2 155.6v7.4h-2.5v-5.5h-1.3v-1.9h3.8zM213.5 162.6c-.5-.3-.9-.7-1.2-1.3-.3-.6-.4-1.3-.4-2.1s.1-1.5.4-2.1c.3-.6.7-1 1.2-1.3.5-.3 1.1-.5 1.7-.5.7 0 1.2.2 1.7.5s.9.7 1.2 1.3c.3.6.4 1.3.4 2.1s-.1 1.5-.4 2.1c-.3.6-.7 1-1.2 1.3-.5.3-1.1.5-1.7.5-.6 0-1.2-.2-1.7-.5zm2.6-3.4c0-1.2-.3-1.9-.8-1.9-.6 0-.8.6-.8 1.9 0 1.2.3 1.9.8 1.9s.8-.6.8-1.9zM231.4 155.6v7.4H229v-5.5h-1.3v-1.9h3.7zM242.8 162.6c-.5-.3-.9-.7-1.2-1.3-.3-.6-.4-1.3-.4-2.1s.1-1.5.4-2.1c.3-.6.7-1 1.2-1.3.5-.3 1.1-.5 1.7-.5.7 0 1.2.2 1.7.5s.9.7 1.2 1.3c.3.6.4 1.3.4 2.1s-.1 1.5-.4 2.1c-.3.6-.7 1-1.2 1.3-.5.3-1.1.5-1.7.5-.6 0-1.2-.2-1.7-.5zm2.5-3.4c0-1.2-.3-1.9-.8-1.9-.6 0-.8.6-.8 1.9 0 1.2.3 1.9.8 1.9.6 0 .8-.6.8-1.9z" class="st18"/></g><g><path d="M231.4 184.2v7.4H229V186h-1.3v-1.9h3.7z" class="st18"/></g><g><path d="M158.4 141.4v7.4h-2.5v-5.5h-1.3v-1.9h3.8zM169.8 148.5c-.5-.3-.9-.7-1.2-1.3-.3-.6-.4-1.3-.4-2.1s.1-1.5.4-2.1c.3-.6.7-1 1.2-1.3.5-.3 1.1-.5 1.7-.5.7 0 1.2.2 1.7.5s.9.7 1.2 1.3c.3.6.4 1.3.4 2.1s-.1 1.5-.4 2.1c-.3.6-.7 1-1.2 1.3-.5.3-1.1.5-1.7.5-.7 0-1.2-.2-1.7-.5zm2.5-3.4c0-1.2-.3-1.9-.8-1.9-.6 0-.8.6-.8 1.9 0 1.2.3 1.9.8 1.9s.8-.6.8-1.9zM187.6 141.4v7.4h-2.5v-5.5h-1.3v-1.9h3.8zM199 148.5c-.5-.3-.9-.7-1.2-1.3-.3-.6-.4-1.3-.4-2.1s.1-1.5.4-2.1c.3-.6.7-1 1.2-1.3.5-.3 1.1-.5 1.7-.5.7 0 1.2.2 1.7.5s.9.7 1.2 1.3c.3.6.4 1.3.4 2.1s-.1 1.5-.4 2.1c-.3.6-.7 1-1.2 1.3-.5.3-1.1.5-1.7.5-.6 0-1.2-.2-1.7-.5zm2.6-3.4c0-1.2-.3-1.9-.8-1.9-.6 0-.8.6-.8 1.9 0 1.2.3 1.9.8 1.9s.8-.6.8-1.9zM216.9 141.4v7.4h-2.5v-5.5h-1.3v-1.9h3.8zM228.2 148.5c-.5-.3-.9-.7-1.2-1.3-.3-.6-.4-1.3-.4-2.1s.1-1.5.4-2.1c.3-.6.7-1 1.2-1.3.5-.3 1.1-.5 1.7-.5.7 0 1.2.2 1.7.5s.9.7 1.2 1.3c.3.6.4 1.3.4 2.1s-.1 1.5-.4 2.1c-.3.6-.7 1-1.2 1.3-.5.3-1.1.5-1.7.5-.6 0-1.2-.2-1.7-.5zm2.6-3.4c0-1.2-.3-1.9-.8-1.9-.6 0-.8.6-.8 1.9 0 1.2.3 1.9.8 1.9s.8-.6.8-1.9zM246.1 141.4v7.4h-2.5v-5.5h-1.3v-1.9h3.8zM257.4 148.5c-.5-.3-.9-.7-1.2-1.3-.3-.6-.4-1.3-.4-2.1s.1-1.5.4-2.1c.3-.6.7-1 1.2-1.3.5-.3 1.1-.5 1.7-.5.7 0 1.2.2 1.7.5s.9.7 1.2 1.3c.3.6.4 1.3.4 2.1s-.1 1.5-.4 2.1c-.3.6-.7 1-1.2 1.3-.5.3-1.1.5-1.7.5-.6 0-1.2-.2-1.7-.5zm2.6-3.4c0-1.2-.3-1.9-.8-1.9s-.8.6-.8 1.9c0 1.2.3 1.9.8 1.9s.8-.6.8-1.9z" class="st18"/></g><g><path d="M158.4 112.5v7.4h-2.5v-5.5h-1.3v-1.9h3.8zM169.8 119.5c-.5-.3-.9-.7-1.2-1.3-.3-.6-.4-1.3-.4-2.1s.1-1.5.4-2.1c.3-.6.7-1 1.2-1.3.5-.3 1.1-.5 1.7-.5.7 0 1.2.2 1.7.5s.9.7 1.2 1.3c.3.6.4 1.3.4 2.1s-.1 1.5-.4 2.1c-.3.6-.7 1-1.2 1.3-.5.3-1.1.5-1.7.5-.7 0-1.2-.2-1.7-.5zm2.5-3.4c0-1.2-.3-1.9-.8-1.9-.6 0-.8.6-.8 1.9 0 1.2.3 1.9.8 1.9s.8-.6.8-1.9zM187.6 112.5v7.4h-2.5v-5.5h-1.3v-1.9h3.8zM199 119.5c-.5-.3-.9-.7-1.2-1.3-.3-.6-.4-1.3-.4-2.1s.1-1.5.4-2.1c.3-.6.7-1 1.2-1.3.5-.3 1.1-.5 1.7-.5.7 0 1.2.2 1.7.5s.9.7 1.2 1.3c.3.6.4 1.3.4 2.1s-.1 1.5-.4 2.1c-.3.6-.7 1-1.2 1.3-.5.3-1.1.5-1.7.5-.6 0-1.2-.2-1.7-.5zm2.6-3.4c0-1.2-.3-1.9-.8-1.9-.6 0-.8.6-.8 1.9 0 1.2.3 1.9.8 1.9s.8-.6.8-1.9zM216.9 112.5v7.4h-2.5v-5.5h-1.3v-1.9h3.8zM228.2 119.5c-.5-.3-.9-.7-1.2-1.3-.3-.6-.4-1.3-.4-2.1s.1-1.5.4-2.1c.3-.6.7-1 1.2-1.3.5-.3 1.1-.5 1.7-.5.7 0 1.2.2 1.7.5s.9.7 1.2 1.3c.3.6.4 1.3.4 2.1s-.1 1.5-.4 2.1c-.3.6-.7 1-1.2 1.3-.5.3-1.1.5-1.7.5-.6 0-1.2-.2-1.7-.5zm2.6-3.4c0-1.2-.3-1.9-.8-1.9-.6 0-.8.6-.8 1.9 0 1.2.3 1.9.8 1.9s.8-.6.8-1.9z" class="st18"/></g><g><path d="M187.6 82.9v7.4h-2.5v-5.5h-1.3v-1.9h3.8zM199 90c-.5-.3-.9-.7-1.2-1.3-.3-.6-.4-1.3-.4-2.1s.1-1.5.4-2.1c.3-.6.7-1 1.2-1.3.5-.3 1.1-.5 1.7-.5.7 0 1.2.2 1.7.5s.9.7 1.2 1.3c.3.6.4 1.3.4 2.1s-.1 1.5-.4 2.1c-.3.6-.7 1-1.2 1.3-.5.3-1.1.5-1.7.5-.6 0-1.2-.2-1.7-.5zm2.6-3.4c0-1.2-.3-1.9-.8-1.9-.6 0-.8.6-.8 1.9 0 1.2.3 1.9.8 1.9s.8-.6.8-1.9zM216.9 82.9v7.4h-2.5v-5.5h-1.3v-1.9h3.8zM228.2 90c-.5-.3-.9-.7-1.2-1.3-.3-.6-.4-1.3-.4-2.1s.1-1.5.4-2.1c.3-.6.7-1 1.2-1.3.5-.3 1.1-.5 1.7-.5.7 0 1.2.2 1.7.5s.9.7 1.2 1.3c.3.6.4 1.3.4 2.1s-.1 1.5-.4 2.1c-.3.6-.7 1-1.2 1.3-.5.3-1.1.5-1.7.5-.6 0-1.2-.2-1.7-.5zm2.6-3.4c0-1.2-.3-1.9-.8-1.9-.6 0-.8.6-.8 1.9 0 1.2.3 1.9.8 1.9s.8-.6.8-1.9zM246.1 82.9v7.4h-2.5v-5.5h-1.3v-1.9h3.8z" class="st18"/></g><g><path d="M199 177.2c-.5-.3-.9-.7-1.2-1.3-.3-.6-.4-1.3-.4-2.1s.1-1.5.4-2.1c.3-.6.7-1 1.2-1.3.5-.3 1.1-.5 1.7-.5.7 0 1.2.2 1.7.5s.9.7 1.2 1.3c.3.6.4 1.3.4 2.1s-.1 1.5-.4 2.1c-.3.6-.7 1-1.2 1.3-.5.3-1.1.5-1.7.5-.6 0-1.2-.2-1.7-.5zm2.6-3.4c0-1.2-.3-1.9-.8-1.9-.6 0-.8.6-.8 1.9 0 1.2.3 1.9.8 1.9s.8-.6.8-1.9zM216.9 170.2v7.4h-2.5V172h-1.3v-1.9h3.8zM228.2 177.2c-.5-.3-.9-.7-1.2-1.3-.3-.6-.4-1.3-.4-2.1s.1-1.5.4-2.1c.3-.6.7-1 1.2-1.3.5-.3 1.1-.5 1.7-.5.7 0 1.2.2 1.7.5s.9.7 1.2 1.3c.3.6.4 1.3.4 2.1s-.1 1.5-.4 2.1c-.3.6-.7 1-1.2 1.3-.5.3-1.1.5-1.7.5-.6 0-1.2-.2-1.7-.5zm2.6-3.4c0-1.2-.3-1.9-.8-1.9-.6 0-.8.6-.8 1.9 0 1.2.3 1.9.8 1.9s.8-.6.8-1.9z" class="st18"/></g></g><g><path d="M350.9 74.1S369 71.6 374.7 93c0 0 11.8-.3 12.5-7.1.7-6.8-5.9-21.4-19.1-21.4s-16 6-17.2 9.6z" class="st48"/><path d="M350.9 74.1s-3.5-2.7-7.7-1.9c0 0-5.7 9.8-10.1 11.1-4.4 1.3 4.8-7 1.2-13.1-2-3.4-1.7-8 3.5-8.4 1.6-.1 3.6 1.3 6.1 2 3.7 1.1 8.3 1.9 11.7 3.7l-4.7 6.6zM350 107.4s10.4-.1 17 13.7c6.6 13.8-15.8 15.8-6.4 17.6 9.4 1.8 20.3 2.8 24.3-2.5 4-5.4 7.7-33.4-34.9-28.8zM240.6 110.8s4.6-1.8 5.5 3.5c.9 5.3-2.9 7.8-1 10.7 1.9 2.8.9 11-2.4 11.2-3.3.2-5.4-2.7-5.4-2.7s7.3-3.2 3.1-8.5c0 0 2.3-3.6.2-6 .1-.1 3.3-4.8 0-8.2zM366.1 143l2.9-1.1 9.5 6.4s17.7 15.8 18.1 24.3c.4 8.6 2.3 19.3-.5 20.5-2.8 1.1-6.3 3.5-13.5-2.6s-19.8-4.5-19.8-4.5-10.8 3.9-10.9 3.1c0-.8-7.2-4.7-4.2-13s-.7-12.7-.7-12.7 6.8-6.9.4-7.2c0 .1 12-3.3 18.7-13.2zM307.3 183.7c-3.1.2-2.7 9.4 1.4 18.9l.8 2.8 6.3.5-1.1-22.6-7.4.4zM233.6 235.2s11.4-2.2 24.9-15c13.5-12.8 17-8.7 17-8.7l.4 22.6-42.3 1.1zM331 135.5s5.5 2.8 0 5.5l14.7 1s9.5-8.1-14.7-6.5zM396.7 195.2l1.9 2.1 18.2-8.4 21.9 28.6 4.7 22.2H433s-2.7-1.3-4.6-4.5c-1.9-3.2-4.5-7.9-7.6-8.1-3.1-.3-9.7-2.4-9.7-2.4l-11.1 5.1s-7.7-7.9-.6-15.4l-8-15.1c0-.1-.3-5.5 5.3-4.1z" class="st48"/></g><path d="M344.2 277.2h-34.9v-10.9h24.1c6 0 10.8 4.9 10.8 10.9z" class="st2"/><path d="M306.2 278.7s9.3-.8 20.9-1.6c0 0 9.3 1.6 25.7.8 16.3-.8-20.1-6.2-20.1-6.2l-27.2 4.7.7 2.3z" class="st2"/><path d="M312.3 266.8l26.6.3" class="st46"/><g><path d="M282.5 241.8l-10.5-.2v-11.3s3.4 1.3 4 1c1.8-.8 2.5-4.7 5.6-1.3 4.2 4.6.9 11.8.9 11.8z" class="st2"/><path d="M276.7 232.9c-.8 0-1-.8-1.3-1.4-1.3-2.8-1.4-5.7 0-6.2 4.2-1.2 9.5 7.6 8.2 13.8" class="st12"/><path d="M273.2 236.7l-.9-.6c-2.4-1.8-3.7-4.3-2.8-5.5.9-1.2 3.6-.7 6 1.2.6.4 1.1.9 1.6 1.4" class="st12"/><path d="M271.9 239.5c-.2 0-.4-.1-.6-.1-1.8-.4-3-1.5-2.8-2.3.2-.9 1.8-1.2 3.6-.8.4.1.8.2 1.2.4" class="st12"/></g><g><path d="M477.3 240.5s3.3-24.3-10.6-42.6c-3.5-4.5-7.6-8.3-12-11.3" class="st9"/><ellipse cx="468.8" cy="214.9" class="st12" rx="1.9" ry="7.1" transform="matrix(.3041 -.9526 .9526 .3041 121.5047 596.181)"/><ellipse cx="477" cy="210.3" class="st12" rx="6.1" ry="1.3" transform="rotate(-77.297 476.98602696 210.296668)"/><circle cx="445" cy="176.4" r="3.6" class="st62"/><circle cx="450.6" cy="178" r="4.8" class="st62"/><circle cx="443.7" cy="192.5" r="4.8" class="st62"/><circle cx="438.5" cy="188.6" r="3.6" class="st62"/><circle cx="437" cy="183.8" r="3.6" class="st62"/><circle cx="443.5" cy="184.4" r="5.4" class="st62"/><circle cx="450.6" cy="184.8" r="5.4" class="st62"/><circle cx="458.9" cy="189.9" r="4.8" class="st62"/><circle cx="456.2" cy="183" r="4.8" class="st62"/><circle cx="451.8" cy="192.3" r="4.8" class="st62"/><path d="M445.4 192.5l1.3.9-1 1.2M461.8 181.2l-1.4-.7.8-1.3M441.4 179l-1.2 1-.9-1.2M442.1 172.5v1.6h-1.5M433.7 186.4l1.3 1-1 1.2M444.8 180.9l.8 1.4-1.3.7" class="st9"/><g class="st27"><path fill="none" stroke="#191059" stroke-linecap="round" stroke-linejoin="round" stroke-miterlimit="10" stroke-width="1.7859" d="M482.7 209s-5.6 8.1-5.4 15.9c.1 4.7.1 15.5.1 15.5"/><g class="st29"><ellipse cx="480.9" cy="221" class="st12" rx="4.1" ry=".9" transform="rotate(-34.249 480.87862043 221.01679599)"/><circle cx="481.6" cy="199.2" r="2.5" class="st62"/><circle cx="480.7" cy="203" r="3.2" class="st62"/><circle cx="490.6" cy="205.2" r="3.2" class="st62"/><circle cx="491.9" cy="200.9" r="2.5" class="st62"/><circle cx="486.8" cy="199.5" r="3.6" class="st62"/><circle cx="484.2" cy="203.3" r="3.6" class="st62"/><circle cx="481.7" cy="207.9" r="3.2" class="st62"/><circle cx="487.1" cy="208.2" r="3.2" class="st62"/><path d="M488.9 204.6l.1 1 1-.1M486.7 195.1l.7.8.7-.6M480.4 196.2l.9.5.5-.9M493.4 198.1l.2 1.1 1-.2M486.2 199v1h1" class="st9"/></g></g></g><g><path d="M478.7 239c0 1-.6 1.8-.6 1.8-2.7 1.7-12.3 1.6-14.3-.1 0 0-.2-.3-.2-1.2 0-2.6 4.1-4.5 7.1-4.5s8 1.5 8 4z" class="st2"/><path d="M463.8 240.6c-.4-.4-1.6-1.2-2.7-3.4s-1.3-4.4 0-4.7c2.3-.6 4.5 1.8 5.7 4.8M466.7 236.9c-.2-.6-.3-1.2-.3-1.9-.2-2.8 1-5.4 2.6-5.2 2.8.3 4 3.8 3.6 7.6M478.1 240.6c1.6-2.1 2-3.5 2.3-4.2 1.2-3.1.8-6.4-1-6.6-3.3-.4-5.7 3.5-6.6 7.9" class="st12"/></g><ellipse cx="98.5" cy="254.7" class="st3" rx="22.1" ry="4.3"/><g><path d="M108.2 227.9l11.4 7.8 4.9 12.6-.3 11.6-35.6-2.4 7.2-18.9z" class="st8"/><path d="M124.2 259.9l11.4-6.4-5.9-16.9-19-8 9.1 7.6 4.7 12.1z" class="st5"/><path d="M108.5 227.7l21.2 8.9 5.9 16.9-11.4 6.4-35.6-2.4 7.2-18.9z" class="st9"/><path d="M124.2 259.9l.3-11.6-4.9-12.6-11.1-8" class="st9"/></g><g><path d="M317.6 268.8l-10.3 1.4v-11.3s3.4 1.3 4 1c1.8-.8 2.5-4.7 5.6-1.3 2.9 3.2.8 7 .2 7.4-1.5.8.5 2.8.5 2.8z" class="st2"/><path d="M312.6 260.4c.4-.5.8-1.1 1.1-1.8 1.3-2.8 1.4-5.7 0-6.2-4.2-1.2-8.2 8-6.9 14.1M316.6 263.8l.9-.6c2.4-1.8 3.7-4.3 2.8-5.5-.9-1.2-3.6-.7-6 1.2-.6.4-1.1.9-1.6 1.4" class="st12"/><path d="M317.9 266.6c.2 0 .4-.1.6-.1 1.8-.4 3-1.5 2.8-2.3-.2-.9-1.8-1.2-3.6-.8-.4.1-.8.2-1.2.4" class="st12"/></g></svg>