<?xml version="1.0" encoding="utf-8"?>
<!-- Generator: Adobe Illustrator 21.0.2, SVG Export Plug-In . SVG Version: 6.00 Build 0)  -->
<svg version="1.1" id="Layer_1" xmlns="http://www.w3.org/2000/svg" xmlns:xlink="http://www.w3.org/1999/xlink" x="0px" y="0px"
	 viewBox="0 0 97.9 80" style="enable-background:new 0 0 97.9 80;" xml:space="preserve">
<style type="text/css">
	.st0{fill:#231F20;}
</style>
<g id="elyTcO.tif">
	<g>
		<path class="st0" d="M1,70.9c9.6,0.8,18.4-1.4,26.5-6.8c0.6-0.4,1.1-0.8,1.6-1.2c0.1-0.1,0.2-0.2,0.5-0.4
			c-1.4-0.2-2.6-0.3-3.9-0.6C18.8,60.2,14,56,11.3,49.5c-0.3-0.7-0.5-1.2,0.7-1c2.2,0.4,4.5,0.2,6.8-0.2c0.2,0,0.3-0.1,0.4-0.1
			s0.1-0.1,0.2-0.2c-3.5-0.9-6.6-2.5-9.3-5C6.7,39.8,4.7,35.8,4,31.1c-0.1-0.7-0.1-1.4-0.2-2.1c-0.1-0.8,0.2-1,0.9-0.6
			c2.2,1.2,4.7,1.8,7.2,2.1c0.2,0,0.4,0,0.8,0c-1.2-1-2.2-1.9-3.2-2.8c-5.8-6-7.1-15.5-3.3-23c0.5-1,0.8-0.9,1.4-0.1
			c9.3,10.8,21,17.3,35.1,19.6c1.5,0.2,3,0.3,4.5,0.5c0.9,0.1,1.1-0.2,0.9-1c-1-5.6,0.2-10.7,3.5-15.3c7-9.8,21.5-11.2,30.2-2.9
			c0.7,0.7,1.3,0.9,2.2,0.6c3.7-0.9,7.2-2.2,10.4-4.1c0.3-0.2,0.6-0.3,1-0.5c-0.7,2.4-1.8,4.4-3.2,6.2c-1.4,1.8-3.1,3.4-5,4.7
			c3.6-0.4,7.1-1.4,10.5-2.8c0.2,0.6-0.2,0.8-0.4,1.1C95,14,92.2,16.8,89,19.2c-0.7,0.5-0.8,1-0.8,1.8c0.2,13.2-3.6,25.2-11.3,35.9
			c-8.3,11.5-19.5,18.9-33.4,21.7c-14.9,3.1-29.1,0.9-42.3-7c-0.3-0.2-0.6-0.3-0.9-0.5C0.4,70.6,0.7,70.9,1,70.9z"/>
		<path class="st0" d="M1,70.9c-0.2,0.1-0.5-0.1-0.7,0.2c-0.1,0-0.2-0.1-0.3-0.2C0.3,70.6,0.7,70.7,1,70.9z"/>
	</g>
</g>
</svg>
