<?xml version="1.0" encoding="utf-8"?>
<!-- Generator: Adobe Illustrator 20.1.0, SVG Export Plug-In . SVG Version: 6.00 Build 0)  -->
<svg version="1.1" id="Layer_1" xmlns="http://www.w3.org/2000/svg" xmlns:xlink="http://www.w3.org/1999/xlink" x="0px" y="0px"
	 viewBox="0 0 282 64" style="enable-background:new 0 0 282 64;" xml:space="preserve">
<style type="text/css">
	.st0{fill:#FFFFFF;}
</style>
<g>
	<g>
		<polygon class="st0" points="53.1,20.1 39.2,20.1 39.2,15.5 48.5,15.5 48.5,4.7 41.4,4.7 41.4,10.8 30,10.8 30,4.7 23,4.7 
			23,10.8 11.3,10.8 11.3,4.7 4.6,4.7 4.6,15.5 13.6,15.5 13.6,20.1 0,20.1 0,0 15.9,0 15.9,6.2 18.4,6.2 18.4,0 34.6,0 34.6,6.2 
			36.8,6.2 36.8,0 53.1,0 		"/>
		<path class="st0" d="M48.4,28.8v25.6c0,2.7-2.2,4.9-4.9,4.9H9.7c-2.7,0-4.9-2.2-4.9-4.9V28.8H48.4 M53,24.2h-4.6H4.7H0.1v4.6v25.6
			c0,5.3,4.3,9.6,9.6,9.6h33.7c5.3,0,9.6-4.3,9.6-9.6V28.8V24.2L53,24.2z"/>
		<path class="st0" d="M26.6,38.2c2.8,0,5,2.3,5,5v5.3H21.5v-5.3C21.5,40.4,23.8,38.2,26.6,38.2 M26.6,33.5c-5.3,0-9.7,4.3-9.7,9.7
			v5.3v4.6h4.6h10.1h4.6v-4.6v-5.3C36.2,37.9,31.9,33.5,26.6,33.5L26.6,33.5z"/>
	</g>
	<g>
		<path class="st0" d="M82.9,56.8h-5.6V7.2h23.7c10.2,0,16.7,6.1,16.7,15.5c0,9.6-6.4,12.8-12,14.1l13,20h-6.7l-12-19H82.9V56.8z
			 M82.9,32.4h17.1c5.3,0,12.1-2,12.1-9.7c0-6.3-4.7-10.2-11.8-10.2H82.9V32.4z"/>
		<path class="st0" d="M174.8,32c0,14.1-10.1,25.4-25.2,25.4c-15,0-25.2-11.3-25.2-25.4s10.1-25.4,25.2-25.4
			C164.7,6.6,174.8,17.9,174.8,32z M169.2,32c0-11.2-7.5-19.9-19.5-19.9c-12.1,0-19.5,8.8-19.5,19.9c0,11.2,7.5,19.9,19.5,19.9
			C161.7,51.9,169.2,43.2,169.2,32z"/>
		<path class="st0" d="M231.5,32c0,14.1-10.1,25.4-25.2,25.4S181.1,46.1,181.1,32s10.1-25.4,25.2-25.4S231.5,17.9,231.5,32z
			 M225.8,32c0-11.2-7.5-19.9-19.5-19.9c-12.1,0-19.5,8.8-19.5,19.9c0,11.2,7.5,19.9,19.5,19.9C218.4,51.9,225.8,43.2,225.8,32z"/>
		<path class="st0" d="M259.7,27.1L282,56.8h-7L255.6,31l-10.3,9.6v16.2h-5.6V7.2h5.6V33l27.6-25.8h7.9L259.7,27.1z"/>
	</g>
</g>
</svg>
