<?xml version="1.0" encoding="utf-8"?>
<!-- Generator: Adobe Illustrator 21.0.2, SVG Export Plug-In . SVG Version: 6.00 Build 0)  -->
<svg version="1.1" id="Social_Icons" xmlns="http://www.w3.org/2000/svg" xmlns:xlink="http://www.w3.org/1999/xlink" x="0px"
	 y="0px" viewBox="0 0 128 128" style="enable-background:new 0 0 128 128;" xml:space="preserve">
<style type="text/css">
	.st0{fill:#FFFFFF;}
</style>
<g id="_x32__stroke">
	<g id="Slack_1_">
		<path id="Slack" class="st0" d="M52.7,58.6l5.5,16.5l17.1-5.7l-5.5-16.5L52.7,58.6z M100.4,75l-8.3,2.8l2.9,8.6
			c1.2,3.5-0.7,7.2-4.2,8.4c-0.8,0.3-1.5,0.4-2.3,0.3c-2.7-0.1-5.2-1.8-6.1-4.5L79.5,82l-17.1,5.7l2.9,8.6c1.2,3.5-0.7,7.2-4.2,8.4
			c-0.8,0.3-1.5,0.4-2.3,0.3c-2.7-0.1-5.2-1.8-6.1-4.5l-2.9-8.6l-8.3,2.8C40.8,94.9,40,95,39.3,95c-2.7-0.1-5.2-1.8-6.1-4.5
			c-1.2-3.5,0.7-7.2,4.2-8.4l8.3-2.8l-5.5-16.5l-8.3,2.8c-0.8,0.3-1.5,0.4-2.3,0.3c-2.7-0.1-5.2-1.8-6.1-4.5
			c-1.2-3.5,0.7-7.2,4.2-8.4l8.3-2.8L33,41.7c-1.2-3.5,0.7-7.2,4.2-8.4c3.5-1.2,7.2,0.7,8.4,4.2l2.9,8.6l17.1-5.7l-2.9-8.6
			c-1.2-3.5,0.7-7.2,4.2-8.4c3.5-1.2,7.2,0.7,8.4,4.2l2.9,8.6l8.3-2.8c3.5-1.2,7.2,0.7,8.4,4.2c1.2,3.5-0.7,7.2-4.2,8.4l-8.3,2.8
			l5.5,16.5l8.3-2.8c3.5-1.2,7.2,0.7,8.4,4.2C105.7,70,103.9,73.8,100.4,75z M122.6,46.4c-13.2-44-32.3-54.2-76.2-41
			c-44,13.2-54.2,32.3-41,76.2c13.2,44,32.3,54.2,76.2,41C125.6,109.4,135.8,90.4,122.6,46.4"/>
	</g>
</g>
</svg>
