<?xml version="1.0" encoding="utf-8"?>
<!-- Generator: Adobe Illustrator 21.0.2, SVG Export Plug-In . SVG Version: 6.00 Build 0)  -->
<svg version="1.1" id="Layer_1" xmlns="http://www.w3.org/2000/svg" xmlns:xlink="http://www.w3.org/1999/xlink" x="0px" y="0px"
	 viewBox="0 0 24 28" style="enable-background:new 0 0 24 28;" xml:space="preserve">
<style type="text/css">
	.st0{fill:#FFFFFF;}
</style>
<path class="st0" d="M15.5,10H24v16.5c0,0.4-0.1,0.8-0.4,1c-0.3,0.3-0.6,0.4-1,0.4H1.5c-0.4,0-0.7-0.1-1-0.4C0.1,27.3,0,27,0,26.5
	v-25c0-0.4,0.1-0.8,0.4-1C0.7,0.1,1.1,0,1.5,0H14v8.5c0,0.5,0.1,0.8,0.4,1.1C14.7,9.9,15.1,10,15.5,10z M18,13.5v-1
	c0-0.1-0.1-0.3-0.2-0.4c-0.1-0.1-0.2-0.2-0.3-0.2h-11c-0.1,0-0.2,0.1-0.3,0.2C6.1,12.3,6,12.4,6,12.5v1c0,0.2,0.1,0.3,0.2,0.3
	C6.3,13.9,6.4,14,6.5,14h11c0.1,0,0.2-0.1,0.3-0.2C17.9,13.8,18,13.7,18,13.5z M18,17.5v-1c0-0.1-0.1-0.3-0.2-0.4
	C17.8,16,17.7,16,17.5,16h-11c-0.1,0-0.3,0-0.3,0.1C6.1,16.2,6,16.4,6,16.5v1c0,0.1,0.1,0.3,0.2,0.4C6.3,18,6.4,18,6.5,18h11
	c0.1,0,0.2,0,0.3-0.1C17.9,17.8,18,17.6,18,17.5z M18,21.5v-1c0-0.1-0.1-0.3-0.2-0.4C17.7,20,17.6,20,17.5,20h-11
	c-0.1,0-0.2,0-0.3,0.1C6.1,20.2,6,20.4,6,20.5v1c0,0.1,0.1,0.3,0.2,0.4C6.3,22,6.4,22,6.5,22h11c0.1,0,0.2,0,0.3-0.1
	C17.9,21.8,18,21.6,18,21.5z M22.9,7.5C23,7.5,23.2,7.7,23.4,8H16V0.6c0.3,0.2,0.5,0.4,0.5,0.4L22.9,7.5z"/>
</svg>
