<?xml version="1.0" encoding="utf-8"?>
<!-- Generator: Adobe Illustrator 20.1.0, SVG Export Plug-In . SVG Version: 6.00 Build 0)  -->
<svg version="1.1" id="Layer_1" xmlns="http://www.w3.org/2000/svg" xmlns:xlink="http://www.w3.org/1999/xlink" x="0px" y="0px"
	 viewBox="0 0 83 80" style="enable-background:new 0 0 83 80;" xml:space="preserve">
<style type="text/css">
	.st0{fill:#FFFFFF;}
</style>
<g>
	<path class="st0" d="M76.9,20.4C73.2,14.1,68.3,9.2,62,5.5S48.8,0,41.4,0S27.1,1.8,20.8,5.5S9.5,14.1,5.9,20.4
		C2.2,26.7,0.4,33.6,0.4,41c0,8.9,2.6,17,7.8,24.1s12,12.1,20.2,14.8c1,0.2,1.7,0.1,2.1-0.4c0.5-0.4,0.7-1,0.7-1.6
		c0-0.1,0-1.1,0-2.9s0-3.4,0-4.8L30,70.5c-0.8,0.1-1.8,0.2-3,0.2s-2.4-0.1-3.7-0.4c-1.3-0.2-2.5-0.8-3.6-1.6
		c-1.1-0.8-1.9-1.9-2.3-3.3l-0.5-1.2c-0.4-0.8-0.9-1.7-1.7-2.7s-1.5-1.7-2.3-2l-0.4-0.3c-0.2-0.2-0.5-0.4-0.7-0.6
		c-0.2-0.2-0.4-0.5-0.5-0.7s0-0.5,0.3-0.6c0.3-0.2,0.8-0.2,1.5-0.2l1.1,0.2c0.7,0.1,1.6,0.6,2.6,1.3c1.1,0.7,1.9,1.6,2.6,2.8
		c0.8,1.5,1.8,2.6,3,3.3c1.2,0.8,2.3,1.1,3.5,1.1s2.2-0.1,3-0.3c0.9-0.2,1.7-0.4,2.4-0.8c0.3-2.4,1.2-4.2,2.6-5.5
		c-2-0.2-3.9-0.5-5.5-1c-1.6-0.4-3.3-1.1-5-2.1s-3.2-2.2-4.3-3.6c-1.1-1.4-2.1-3.3-2.8-5.6c-0.7-2.3-1.1-5-1.1-8c0-4.3,1.4-8,4.2-11
		c-1.3-3.2-1.2-6.9,0.4-10.9c1-0.3,2.6-0.1,4.6,0.7c2,0.8,3.5,1.5,4.5,2.1c0.9,0.6,1.7,1.1,2.3,1.4c3.3-0.9,6.7-1.4,10.3-1.4
		c3.5,0,6.9,0.5,10.3,1.4l2-1.3c1.4-0.9,3-1.6,4.9-2.3c1.9-0.7,3.3-0.9,4.3-0.6c1.6,4,1.7,7.7,0.4,10.9c2.8,3,4.2,6.7,4.2,11
		c0,3-0.4,5.7-1.1,8s-1.7,4.2-2.8,5.6c-1.2,1.4-2.6,2.6-4.3,3.6s-3.4,1.7-5,2.1c-1.6,0.4-3.2,0.7-5.3,1c1.9,1.6,3,4.1,3,7.6v11.3
		c0,0.6,0,1.2,0.5,1.6c0.4,0.4,1,0.6,2,0.4c8.3-2.7,14.9-7.7,20.2-14.8c5.2-7.1,7.8-15.2,7.8-24.1C82.4,33.6,80.6,26.7,76.9,20.4z"
		/>
</g>
</svg>
