<?xml version="1.0" encoding="utf-8"?>
<!-- Generator: Adobe Illustrator 20.1.0, SVG Export Plug-In . SVG Version: 6.00 Build 0)  -->
<svg version="1.1" id="Layer_1" xmlns="http://www.w3.org/2000/svg" xmlns:xlink="http://www.w3.org/1999/xlink" x="0px" y="0px"
	 viewBox="0 0 83 80" style="enable-background:new 0 0 83 80;" xml:space="preserve">
<style type="text/css">
	.st0{opacity:0.5;fill:#58595B;}
	.st1{opacity:0.25;fill:#58595B;}
	.st2{opacity:0.75;fill:#58595B;}
	.st3{fill:#58595B;}
</style>
<path class="st0" d="M53.9,61.5C53.9,61.5,53.9,61.1,53.9,61.5c-0.8-1.2-17.1-28.2-17.1-28.2c0.4-0.4,10.7-17.5,15.9-25.8
	c0.8-1.2,2.4-1.6,4-1.2c7.9,4,23.7,12.1,23.7,12.1s0.2,0.1,0.3,0.3S80.5,19,80.5,19S55.1,59.5,53.9,61.5
	C53.9,61.1,53.9,61.5,53.9,61.5z"/>
<path class="st1" d="M80.6,18.8L80,71.5c-0.4,1.2-1.6,1.6-2.8,1.6c-0.8,0-1.2-0.4-2-0.8c-7.1-3.6-21.4-10.7-21.4-10.7L80.6,18.8z"/>
<path class="st2" d="M28,18.8l25.8,42.6L28,48.2V18.8z"/>
<path class="st3" d="M28,70.5"/>
<path class="st3" d="M2,8.1L2,8.1c0-1.2,1.1-1.6,1.9-1.6c0.4,0,16.2,7.9,23.8,11.9c0,0,0.3,0,0.3,0.4s0,13.5,0,19.9c0,3.2,0,6,0,9.1
	c0,0.4,0,0.4,0,0.8V49c0,7.1,0,14.7,0,21.8v0.4c0,1.2-0.8,2-1.6,2.4c-0.8,0-1.2,0-2-0.4c-1.6-0.8-3.6-1.6-5.2-2.8
	c-5.2-2.4-10.2-5.2-15-7.5C3.1,62.1,2,61.3,2,60.1c0,0,0,0,0-0.4C2,42.7,2,25.6,2,8.1z"/>
</svg>
