<svg xmlns="http://www.w3.org/2000/svg" xmlns:xlink="http://www.w3.org/1999/xlink" width="80" height="17"><defs><path id="a" d="M0 .073h14.785v10.175H0z"/></defs><g fill="none" fill-rule="evenodd"><g transform="translate(0 6.263)"><mask id="b" fill="#fff"><use xlink:href="#a"/></mask><path fill="#767676" d="M1.027 1.112v5.5c0 1.432 1.15 2.597 2.566 2.597h7.599c1.415 0 2.566-1.165 2.566-2.598V1.112H1.027zm10.165 9.136H3.593C1.612 10.248 0 8.616 0 6.611V.593c0-.287.23-.52.513-.52h13.759c.283 0 .513.233.513.52V6.61c0 2.005-1.612 3.637-3.593 3.637z" mask="url(#b)"/></g><path fill="#767676" d="M6.268 12.652h2.533v-1.265a1.267 1.267 0 0 0-2.533 0v1.265zm3.04 1.012H5.761a.506.506 0 0 1-.507-.506v-1.771a2.28 2.28 0 0 1 2.28-2.278 2.28 2.28 0 0 1 2.279 2.278v1.77c0 .28-.227.507-.507.507zm4.992-8.54l-2.77-.005a.514.514 0 0 1 .001-1.027h.001l2.254.004V1.027h-1.729v.868a.514.514 0 0 1-.514.514H8.786a.514.514 0 0 1-.514-.514v-.867H6.544v.867c0 .284-.23.514-.514.514H3.27a.515.515 0 0 1-.514-.514v-.868H1.03v3.07h2.229a.514.514 0 1 1 0 1.027H.514A.514.514 0 0 1 0 4.61V.514C0 .23.23 0 .514 0h2.757c.285 0 .515.23.515.514v.868h1.73V.514c0-.284.23-.513.514-.513h2.756c.285 0 .515.23.515.513v.868h1.728V.514c0-.284.23-.514.514-.514H14.3c.284 0 .514.23.514.514V4.61a.513.513 0 0 1-.514.514M30.336 8.91c.71-.598 1.065-1.437 1.065-2.517 0-1.106-.355-1.955-1.065-2.548-.71-.592-1.736-.888-3.08-.888h-3.601V9.81h3.602c1.343 0 2.369-.3 3.08-.898zm1.143 6.462L28.38 10.98c-.348.039-.71.058-1.084.058h-3.641v4.334h-1.433V1.708h5.074c1.73 0 3.085.417 4.067 1.25.98.832 1.471 1.977 1.471 3.435 0 1.067-.268 1.968-.803 2.703-.536.736-1.301 1.266-2.295 1.591l3.311 4.685H31.48zm12.915-1.986a5.13 5.13 0 0 0 1.954-1.996c.471-.85.707-1.8.707-2.85 0-1.049-.236-1.999-.707-2.85a5.132 5.132 0 0 0-1.954-1.996c-.83-.48-1.761-.72-2.79-.72-1.03 0-1.963.24-2.8.72A5.176 5.176 0 0 0 36.83 5.69c-.477.851-.716 1.801-.716 2.85 0 1.05.239 2 .716 2.85a5.174 5.174 0 0 0 1.972 1.996c.838.48 1.77.72 2.8.72 1.03 0 1.96-.24 2.791-.72m-6.298 1.094a6.41 6.41 0 0 1-2.455-2.447c-.59-1.037-.884-2.2-.884-3.493 0-1.292.294-2.456.884-3.493A6.41 6.41 0 0 1 38.096 2.6c1.048-.595 2.217-.892 3.508-.892 1.29 0 2.452.294 3.488.883a6.43 6.43 0 0 1 2.447 2.447c.595 1.042.893 2.21.893 3.502 0 1.292-.298 2.46-.893 3.502a6.426 6.426 0 0 1-2.447 2.447c-1.036.589-2.199.883-3.488.883-1.29 0-2.46-.298-3.508-.892m22.252-1.094a5.13 5.13 0 0 0 1.954-1.996c.471-.85.707-1.8.707-2.85 0-1.049-.236-1.999-.707-2.85a5.133 5.133 0 0 0-1.954-1.996c-.83-.48-1.761-.72-2.79-.72-1.03 0-1.963.24-2.8.72a5.176 5.176 0 0 0-1.973 1.996c-.477.851-.716 1.801-.716 2.85 0 1.05.239 2 .716 2.85a5.174 5.174 0 0 0 1.972 1.996c.838.48 1.77.72 2.8.72 1.03 0 1.96-.24 2.791-.72M54.05 14.48a6.41 6.41 0 0 1-2.455-2.447c-.59-1.037-.884-2.2-.884-3.493 0-1.292.294-2.456.884-3.493A6.41 6.41 0 0 1 54.05 2.6c1.048-.595 2.217-.892 3.508-.892 1.29 0 2.452.294 3.488.883a6.431 6.431 0 0 1 2.446 2.447c.596 1.042.894 2.21.894 3.502 0 1.292-.298 2.46-.894 3.502a6.427 6.427 0 0 1-2.446 2.447c-1.036.589-2.199.883-3.488.883-1.29 0-2.46-.298-3.508-.892m17.939-5.53l-2.758 2.83v3.592h-1.427V1.708h1.427v8.257l7.925-8.257h1.64l-5.843 6.188 6.247 7.476h-1.697z"/></g></svg>