<svg xmlns="http://www.w3.org/2000/svg" width="140" height="29"><g fill="#2B2B2B" fill-rule="evenodd"><path fill-rule="nonzero" d="M20.358 28.973H6.574c-3.59 0-6.52-2.9-6.52-6.455V11.854c0-.508.418-.922.931-.922h24.948c.514 0 .932.414.932.922v10.678c.014 3.541-2.916 6.441-6.507 6.441zM1.93 12.776v9.756c0 2.539 2.093 4.61 4.658 4.61h13.784c2.564 0 4.657-2.071 4.657-4.61v-9.756H1.93z"/><path fill-rule="nonzero" d="M16.727 24.095h-6.521a.929.929 0 0 1-.931-.922v-3.22c0-2.286 1.876-4.143 4.184-4.143 2.309 0 4.186 1.857 4.186 4.143v3.22a.909.909 0 0 1-.918.922zm-5.59-1.844h4.658v-2.298c0-1.27-1.04-2.3-2.322-2.3-1.283 0-2.322 1.03-2.322 2.3v2.298h-.014z"/><path d="M25.947 9.181h-5.022a.929.929 0 0 1-.931-.922c0-.508.418-.922.931-.922l4.077.013V1.844H21.87v1.55c0 .241-.095.482-.27.655a.922.922 0 0 1-.662.268h-4.994a.929.929 0 0 1-.932-.923v-1.55H11.88v1.55a.929.929 0 0 1-.932.923H5.953a.945.945 0 0 1-.661-.268.903.903 0 0 1-.27-.655v-1.55H1.931V7.35h4.036c.513 0 .932.415.932.922a.929.929 0 0 1-.932.922H.999a.929.929 0 0 1-.931-.922V.922C.068.414.485 0 .999 0h4.995c.513 0 .932.414.932.922v1.55h3.131V.922c0-.508.419-.922.932-.922h4.995c.513 0 .932.414.932.922v1.55h3.131V.922c0-.508.419-.922.932-.922h4.995c.513 0 .931.414.931.922v7.35c0 .24-.094.481-.27.655-.202.16-.445.254-.688.254z"/><path fill-rule="nonzero" d="M54.33 26.759l-5.452-7.576c-.61.067-1.248.108-1.912.108h-6.402v7.468H38.04V3.2h8.925c3.038 0 5.425.724 7.148 2.159 1.722 1.434 2.59 3.405 2.59 5.926 0 1.837-.474 3.392-1.41 4.666-.936 1.274-2.292 2.185-4.029 2.749l5.82 8.084H54.33v-.026zM52.31 15.63c1.248-1.032 1.872-2.48 1.872-4.344 0-1.904-.624-3.365-1.872-4.398-1.248-1.019-3.052-1.528-5.412-1.528h-6.334v11.812h6.334c2.36 0 4.164-.51 5.412-1.542zm14.364 9.774c-1.913-1.045-3.418-2.48-4.49-4.29-1.085-1.823-1.614-3.861-1.614-6.127 0-2.266.543-4.304 1.614-6.128 1.072-1.823 2.577-3.244 4.49-4.29C68.586 3.523 70.73 3 73.09 3c2.36 0 4.49.523 6.388 1.542a11.51 11.51 0 0 1 4.476 4.29c1.085 1.824 1.641 3.875 1.641 6.141s-.542 4.318-1.64 6.141a11.51 11.51 0 0 1-4.477 4.29c-1.899 1.033-4.028 1.542-6.388 1.542-2.36.027-4.504-.496-6.416-1.542zm11.516-1.917a9.3 9.3 0 0 0 3.58-3.5c.869-1.488 1.289-3.164 1.289-5 0-1.837-.434-3.5-1.289-5.002a9.3 9.3 0 0 0-3.58-3.499c-1.52-.845-3.229-1.26-5.114-1.26-1.885 0-3.594.415-5.127 1.26s-2.74 2.011-3.608 3.5c-.868 1.488-1.316 3.164-1.316 5 0 1.837.434 3.513 1.316 5.002.868 1.488 2.075 2.654 3.608 3.5 1.533.844 3.242 1.26 5.127 1.26 1.899 0 3.594-.43 5.114-1.26zm17.05 1.917c-1.913-1.045-3.419-2.48-4.49-4.29-1.085-1.823-1.614-3.861-1.614-6.127 0-2.266.542-4.304 1.614-6.128 1.071-1.823 2.577-3.244 4.49-4.29C97.151 3.523 99.294 3 101.654 3c2.36 0 4.49.523 6.389 1.542a11.51 11.51 0 0 1 4.476 4.29c1.085 1.824 1.64 3.875 1.64 6.141s-.542 4.318-1.64 6.141a11.51 11.51 0 0 1-4.476 4.29c-1.9 1.033-4.029 1.542-6.389 1.542-2.36.027-4.503-.496-6.416-1.542zm11.529-1.917a9.3 9.3 0 0 0 3.58-3.5c.869-1.488 1.289-3.164 1.289-5 0-1.837-.434-3.5-1.289-5.002a9.3 9.3 0 0 0-3.58-3.499c-1.52-.845-3.229-1.26-5.114-1.26-1.885 0-3.594.415-5.127 1.26s-2.74 2.011-3.608 3.5c-.868 1.488-1.316 3.164-1.316 5 0 1.837.434 3.513 1.316 5.002.868 1.488 2.075 2.654 3.608 3.5 1.533.844 3.242 1.26 5.127 1.26 1.885 0 3.58-.43 5.114-1.26z"/><path d="M127.196 15.697l-4.87 4.88v6.195h-2.523V3.202h2.523V17.44l13.998-14.239h2.89L128.89 13.874l11.028 12.885h-2.998z"/></g></svg>