<?xml version="1.0" encoding="utf-8"?>
<!-- Generator: Adobe Illustrator 20.1.0, SVG Export Plug-In . SVG Version: 6.00 Build 0)  -->
<svg version="1.1" id="Layer_1" xmlns="http://www.w3.org/2000/svg" xmlns:xlink="http://www.w3.org/1999/xlink" x="0px" y="0px"
	 viewBox="0 0 95 96" style="enable-background:new 0 0 95 96;" xml:space="preserve">
<style type="text/css">
	.st0{fill:none;stroke:#546A79;stroke-width:3;stroke-miterlimit:10;}
	.st1{fill:#FFFFFF;}
</style>
<g>
	<path class="st0" d="M9.7,34.8c-5,1.3-8,3.2-8,5.2c0,4.1,13.1,7.5,29.2,7.5S60,44.1,60,40c0-2-3.1-3.8-8-5.2
		c-5.3,1.4-12.8,2.3-21.1,2.3S15,36.3,9.7,34.8z"/>
	<path class="st0" d="M51.9,34.8c5-1.3,8-3.2,8-5.2s-3.1-3.8-8-5.2c-5.3,1.4-12.8,2.3-21.1,2.3S15,25.9,9.7,24.5c-5,1.3-8,3.2-8,5.2
		s3.1,3.8,8,5.2"/>
	<path class="st0" d="M51.9,24.5c5-1.3,8-3.2,8-5.2c0-2-3.1-3.8-8-5.2c-5.3,1.4-12.8,2.3-21.1,2.3S15,15.6,9.7,14.2
		c-5,1.3-8,3.2-8,5.2c0,2,3.1,3.8,8,5.2"/>
	<path class="st0" d="M51.9,14.2c5-1.3,8-3.2,8-5.2c0-4.1-13.1-7.5-29.2-7.5S1.6,4.9,1.6,9c0,2,3.1,3.8,8,5.2"/>
</g>
<g>
	<path class="st0" d="M42.5,81.8c-4.6,1.3-7.4,3.1-7.4,5c0,4.1,13.1,7.5,29.2,7.5c16.1,0,29.2-3.4,29.2-7.5c0-1.9-2.8-3.7-7.4-5
		c-5.3,1.5-13.1,2.5-21.7,2.5C55.6,84.3,47.9,83.3,42.5,81.8z"/>
	<path class="st0" d="M86,81.8c4.6-1.3,7.4-3.1,7.4-5c0-2-3.1-3.8-8-5.2C80.1,73.1,72.6,74,64.3,74c-8.3,0-15.8-0.9-21.1-2.3
		c-5,1.3-8,3.2-8,5.2c0,1.9,2.8,3.7,7.4,5"/>
	<path class="st0" d="M85.4,71.6c5-1.3,8-3.2,8-5.2c0-4.1-13.1-7.5-29.2-7.5c-16.1,0-29.2,3.4-29.2,7.5c0,2,3.1,3.8,8,5.2"/>
</g>
<polyline class="st0" points="60,19 77.5,19 77.5,47.5 "/>
<g>
	<path class="st1" d="M77.3,52.6c0.3,0.5,0.7,0.5,1,0l6.4-11.5c0.3-0.5,0-0.7-0.5-0.7H71.4c-0.6,0-0.8,0.2-0.5,0.7L77.3,52.6z"/>
	<path class="st0" d="M77.3,52.6c0.3,0.5,0.7,0.5,1,0l6.4-11.7c0.3-0.5,0-0.9-0.5-0.9H71.4c-0.6,0-0.8,0.4-0.5,0.9L77.3,52.6z"/>
</g>
<polyline class="st0" points="35,87 14.5,87 14.5,60.5 "/>
<g>
	<path class="st1" d="M14,53.6c0.3-0.5,0.7-0.5,1,0l6.5,11.9c0.3,0.5,0,0.9-0.5,0.9H8c-0.6,0-0.8-0.4-0.5-0.9L14,53.6z"/>
	<path class="st0" d="M14,53.6c0.3-0.5,0.7-0.5,1,0l6.5,11.9c0.3,0.5,0,0.9-0.5,0.9H8c-0.6,0-0.8-0.4-0.5-0.9L14,53.6z"/>
</g>
</svg>
