<?xml version="1.0" encoding="utf-8"?>
<!-- Generator: Adobe Illustrator 20.1.0, SVG Export Plug-In . SVG Version: 6.00 Build 0)  -->
<svg version="1.1" id="Layer_1" xmlns="http://www.w3.org/2000/svg" xmlns:xlink="http://www.w3.org/1999/xlink" x="0px" y="0px"
	 viewBox="0 0 296 191.2" style="enable-background:new 0 0 296 191.2;" xml:space="preserve">
<style type="text/css">
	.st0{fill:#5BC2EF;stroke:#546A79;stroke-width:3;stroke-miterlimit:10;}
	.st1{fill:#5BC2EF;}
	.st2{fill:none;stroke:#546A79;stroke-width:3;stroke-miterlimit:10;}
	.st3{fill:#4FABDF;stroke:#546A79;stroke-width:3;stroke-miterlimit:10;}
</style>
<rect x="6.9" y="161.5" class="st0" width="40" height="28"/>
<rect x="6.9" y="136.5" class="st0" width="9" height="21"/>
<g>
	<path class="st1" d="M51.1,161.4c0.4,0.4,0.3,0.6-0.3,0.6H3.7c-0.5,0-0.7-0.3-0.3-0.6l23.3-21.5c0.4-0.4,1.1-0.4,1.5,0L51.1,161.4z
		"/>
	<path class="st2" d="M51.1,161.6c0.4,0.4,0.3,0.9-0.3,0.9H3.7c-0.5,0-0.7-0.5-0.3-0.9L26.7,140c0.4-0.4,1.1-0.3,1.5,0.1L51.1,161.6
		z"/>
</g>
<path class="st0" d="M34.8,188.8v-11.7c0-4.1-3.3-7.7-7.4-7.7l0,0c-4.1,0-7.4,3.6-7.4,7.6v11.6"/>
<polyline class="st3" points="-0.2,189.9 22.9,189.9 54.8,189.9 "/>
<polyline class="st2" points="23.4,131.9 36.2,119.2 43.9,126.9 71.9,98.9 80.4,107.4 95.1,92.7 "/>
<rect x="144.9" y="113.7" class="st1" width="100" height="76.3"/>
<line class="st2" x1="145.4" y1="113.5" x2="245.4" y2="113.5"/>
<rect x="85.9" y="130.1" transform="matrix(1.133858e-03 -1 1 1.133858e-03 -13.6986 275.5861)" class="st0" width="90.5" height="29.2"/>
<line class="st2" x1="116.9" y1="131" x2="145.6" y2="131"/>
<rect x="216.7" y="131.6" transform="matrix(1.133857e-03 -1 1 1.133857e-03 113.8551 406.2843)" class="st0" width="87.3" height="29.2"/>
<line class="st2" x1="245.1" y1="131" x2="275.2" y2="131"/>
<polygon class="st0" points="166.9,62.5 211.3,62.5 222.6,62.6 222.7,36.1 211.1,36.1 211.1,45.1 200.9,45.1 200.9,36.1 188.9,36.1 
	188.9,45.1 178.5,45 178.6,36.1 166.9,36.1 "/>
<rect x="169.6" y="73.5" transform="matrix(1.138065e-03 -1 1 1.138065e-03 106.7322 283.0163)" class="st0" width="50.9" height="29.2"/>
<line class="st2" x1="181" y1="87.6" x2="209.2" y2="87.6"/>
<polyline class="st0" points="214.4,10.5 223.2,10.5 220,17.4 223.2,24.5 204.9,24.5 204.9,19 "/>
<rect x="195.9" y="1.5" class="st0" width="17" height="16"/>
<path class="st0" d="M204.8,138.5h-18.1c-9.4,0-16.8,7.9-16.8,17.3v33.7h51v-34.2C220.9,146.2,213.9,138.5,204.8,138.5z"/>
<g>
	<path class="st0" d="M210.3,189v-23.4c0-8.4-6.9-15.1-15.3-15.1l0,0c-8.4,0-15.3,6.7-15.3,15.1v23.5"/>
	<line class="st2" x1="181" y1="159.1" x2="210.6" y2="188.7"/>
	<line class="st2" x1="188.5" y1="151.4" x2="210.5" y2="173.4"/>
	<line class="st2" x1="179.6" y1="174.2" x2="195.4" y2="190.1"/>
</g>
<line class="st2" x1="194.9" y1="0" x2="194.9" y2="37"/>
<line class="st2" x1="106.4" y1="169.5" x2="62.4" y2="169.5"/>
<line class="st2" x1="97.4" y1="189.5" x2="295.4" y2="189.5"/>
<g>
	<path class="st1" d="M65.1,106.5c0.2-0.5-0.2-0.8-0.7-0.7l-16.7,4.9c-0.5,0.2-0.6,0.6-0.3,1l11.8,11.8c0.4,0.4,0.8,0.3,1-0.3
		L65.1,106.5z"/>
	<path class="st2" d="M65.1,106.5c0.2-0.5-0.2-0.8-0.7-0.7l-16.7,4.9c-0.5,0.2-0.6,0.6-0.3,1l11.8,11.8c0.4,0.4,0.8,0.3,1-0.3
		L65.1,106.5z"/>
</g>
<g>
	<path class="st1" d="M60.8,169.1c-0.5,0.3-0.5,0.7,0,1l15,8.4c0.5,0.3,0.6,0,0.6-0.5v-16.7c0-0.6-0.1-0.8-0.6-0.5L60.8,169.1z"/>
	<path class="st2" d="M60.8,169.1c-0.5,0.3-0.5,0.7,0,1l15.3,8.4c0.5,0.3,0.9,0,0.9-0.5v-16.7c0-0.6-0.4-0.8-0.9-0.5L60.8,169.1z"/>
</g>
<polygon class="st0" points="157.9,101.9 157.9,75.4 146.3,75.4 146.2,84.3 135.5,84.3 135.5,75.4 124.8,75.4 124.8,84.3 114,84.3 
	114,75.4 103.1,75.3 103.1,101.6 "/>
<polygon class="st0" points="275.8,102.8 287.1,102.8 287.2,76.4 275.5,76.4 275.5,85.3 264.8,85.3 264.8,76.3 254.1,76.3 
	254.1,85.3 243.3,85.3 243.3,76.3 232.4,76.3 232.4,102.6 244.7,102.6 "/>
</svg>
