<?xml version="1.0" encoding="utf-8"?>
<!-- Generator: Adobe Illustrator 20.1.0, SVG Export Plug-In . SVG Version: 6.00 Build 0)  -->
<svg version="1.1" id="Layer_1" xmlns="http://www.w3.org/2000/svg" xmlns:xlink="http://www.w3.org/1999/xlink" x="0px" y="0px"
	 viewBox="0 0 195 194.3" style="enable-background:new 0 0 195 194.3;" xml:space="preserve">
<style type="text/css">
	.st0{fill:none;stroke:#546A79;stroke-width:4;stroke-miterlimit:10;}
	.st1{fill:#5BC2EF;}
	.st2{fill:none;stroke:#546A79;stroke-width:3;stroke-miterlimit:10;}
	.st3{fill:none;}
	.st4{fill:#5BC2EF;stroke:#546A79;stroke-width:3;stroke-miterlimit:10;}
	.st5{fill:#546A79;}
	.st6{fill:#546A79;stroke:#546A79;stroke-width:3;stroke-miterlimit:10;}
</style>
<g>
	<line class="st0" x1="98.1" y1="120.2" x2="98.1" y2="157.7"/>
	<polyline class="st0" points="24,153.3 24,136.3 171,136.3 171,153.3 	"/>
	<g>
		<g>
			<path class="st1" d="M46,186.3c0,3.9-3.1,7-7,7H8c-3.9,0-7-3.1-7-7v-31c0-3.9,3.1-7,7-7h31c3.9,0,7,3.1,7,7V186.3z"/>
			<path class="st2" d="M46.5,185.8c0,3.9-3.1,7-7,7h-31c-3.9,0-7-3.1-7-7v-31c0-3.9,3.1-7,7-7h31c3.9,0,7,3.1,7,7V185.8z"/>
		</g>
		<g>
			<path class="st0" d="M22,155.3h9.6c3.9,0,7.4,3.4,7.4,7.2v9.8"/>
		</g>
	</g>
	<g>
		<g>
			<path class="st1" d="M174.3,154.2c-1.9-3.4-4.9-3.4-6.7,0l-17.9,32.7c-1.9,3.4-0.2,6.4,3.6,6.4h35.2c3.9,0,5.5-3,3.6-6.4
				L174.3,154.2z"/>
			<path class="st2" d="M174.3,154.2c-1.9-3.4-4.9-3.4-6.7,0l-17.9,32.5c-1.9,3.4-0.2,6.1,3.6,6.1h35.2c3.9,0,5.5-2.8,3.6-6.1
				L174.3,154.2z"/>
		</g>
		<g>
			<line class="st3" x1="181.2" y1="181.2" x2="171.3" y2="163.1"/>
			<line class="st0" x1="181.2" y1="181.2" x2="171.3" y2="163.1"/>
		</g>
	</g>
	<g>
		<circle class="st4" cx="98.4" cy="170.7" r="22.8"/>
		<path class="st0" d="M97.5,156.6c8.8,0,15.9,7.1,15.9,15.9"/>
	</g>
	<g>
		<rect x="27.6" y="12.5" class="st5" width="142.7" height="107.8"/>
		<rect x="18.5" y="1.8" class="st4" width="159" height="37"/>
		<g>
			<line class="st2" x1="27.6" y1="12.5" x2="104.6" y2="12.5"/>
			<line class="st2" x1="27.6" y1="20.5" x2="104.6" y2="20.5"/>
			<line class="st2" x1="27.6" y1="28.5" x2="104.6" y2="28.5"/>
		</g>
		<path class="st6" d="M118.3,25L118.3,25c-2.5,0-4.5-2-4.5-4.5l0,0c0-2.5,2-4.5,4.5-4.5l0,0c2.5,0,4.5,2,4.5,4.5l0,0
			C122.8,23,120.8,25,118.3,25z"/>
		<path class="st6" d="M133.7,25L133.7,25c-2.5,0-4.5-2-4.5-4.5l0,0c0-2.5,2-4.5,4.5-4.5l0,0c2.5,0,4.5,2,4.5,4.5l0,0
			C138.2,23,136.1,25,133.7,25z"/>
		<path class="st2" d="M149,25L149,25c-2.5,0-4.5-2-4.5-4.5l0,0c0-2.5,2-4.5,4.5-4.5l0,0c2.5,0,4.5,2,4.5,4.5l0,0
			C153.5,23,151.5,25,149,25z"/>
		<path class="st6" d="M164.3,25L164.3,25c-2.5,0-4.5-2-4.5-4.5l0,0c0-2.5,2-4.5,4.5-4.5l0,0c2.5,0,4.5,2,4.5,4.5l0,0
			C168.8,23,166.8,25,164.3,25z"/>
		<rect x="18.5" y="44.8" class="st4" width="159" height="37"/>
		<g>
			<line class="st2" x1="27.6" y1="55.5" x2="104.6" y2="55.5"/>
			<line class="st2" x1="27.6" y1="63.5" x2="104.6" y2="63.5"/>
			<line class="st2" x1="27.6" y1="71.5" x2="104.6" y2="71.5"/>
		</g>
		<path class="st6" d="M118.3,68L118.3,68c-2.5,0-4.5-2-4.5-4.5l0,0c0-2.5,2-4.5,4.5-4.5l0,0c2.5,0,4.5,2,4.5,4.5l0,0
			C122.8,66,120.8,68,118.3,68z"/>
		<path class="st6" d="M133.7,68L133.7,68c-2.5,0-4.5-2-4.5-4.5l0,0c0-2.5,2-4.5,4.5-4.5l0,0c2.5,0,4.5,2,4.5,4.5l0,0
			C138.2,66,136.1,68,133.7,68z"/>
		<path class="st2" d="M149,68L149,68c-2.5,0-4.5-2-4.5-4.5l0,0c0-2.5,2-4.5,4.5-4.5l0,0c2.5,0,4.5,2,4.5,4.5l0,0
			C153.5,66,151.5,68,149,68z"/>
		<path class="st6" d="M164.3,68L164.3,68c-2.5,0-4.5-2-4.5-4.5l0,0c0-2.5,2-4.5,4.5-4.5l0,0c2.5,0,4.5,2,4.5,4.5l0,0
			C168.8,66,166.8,68,164.3,68z"/>
		<rect x="18.5" y="87.8" class="st4" width="159" height="37"/>
		<g>
			<line class="st2" x1="27.6" y1="98.5" x2="104.6" y2="98.5"/>
			<line class="st2" x1="27.6" y1="106.5" x2="104.6" y2="106.5"/>
			<line class="st2" x1="27.6" y1="114.5" x2="104.6" y2="114.5"/>
		</g>
		<path class="st6" d="M118.3,111L118.3,111c-2.5,0-4.5-2-4.5-4.5l0,0c0-2.5,2-4.5,4.5-4.5l0,0c2.5,0,4.5,2,4.5,4.5l0,0
			C122.8,109,120.8,111,118.3,111z"/>
		<path class="st6" d="M133.7,111L133.7,111c-2.5,0-4.5-2-4.5-4.5l0,0c0-2.5,2-4.5,4.5-4.5l0,0c2.5,0,4.5,2,4.5,4.5l0,0
			C138.2,109,136.1,111,133.7,111z"/>
		<path class="st2" d="M149,111L149,111c-2.5,0-4.5-2-4.5-4.5l0,0c0-2.5,2-4.5,4.5-4.5l0,0c2.5,0,4.5,2,4.5,4.5l0,0
			C153.5,109,151.5,111,149,111z"/>
		<path class="st6" d="M164.3,111L164.3,111c-2.5,0-4.5-2-4.5-4.5l0,0c0-2.5,2-4.5,4.5-4.5l0,0c2.5,0,4.5,2,4.5,4.5l0,0
			C168.8,109,166.8,111,164.3,111z"/>
	</g>
</g>
</svg>
