<svg xmlns="http://www.w3.org/2000/svg" width="80" height="51"><g fill="#BCBCBC"><path d="M76.066.262h-.192a3.804 3.804 0 0 0-1.264.272c-.384.144-.72.352-1.023.624-.304.256-.576.56-.784.896-.224.335-.384.72-.48 1.103-.048.16-.08.32-.096.496s-.032.336-.032.512c0 .496.096 1.007.288 1.455.144.384.352.72.624 1.024.256.304.56.576.895.783.336.224.72.384 1.104.48.16.048.32.08.496.096s.336.032.512.032a3.75 3.75 0 0 0 1.455-.288c.384-.144.72-.352 1.024-.623.303-.256.575-.56.783-.896.224-.336.384-.72.48-1.104.048-.16.08-.32.096-.495.016-.176.032-.336.032-.512a3.75 3.75 0 0 0-.288-1.456 3.203 3.203 0 0 0-.624-1.023 3.804 3.804 0 0 0-.895-.784 3.562 3.562 0 0 0-1.104-.48c-.16-.048-.32-.08-.496-.096-.112-.016-.208-.032-.32-.032a.558.558 0 0 1-.191.016zm3.518 16.474v-5.854h-.128c-.288 0-.56 0-.847.016l-.752.048a10.06 10.06 0 0 0-.688.08c-.208.032-.432.064-.64.112l-.24.048c-.08.016-.16.032-.24.064-.543.144-1.071.352-1.519.656-.32.192-.608.447-.847.735a3.842 3.842 0 0 0-.608.976c-.192.432-.32.912-.4 1.375-.048.272-.08.544-.096.816-.016.208-.032.416-.032.624V36.28h.448c.272 0 .56-.016.831-.032a10.176 10.176 0 0 0 1.824-.24c.528-.112 1.055-.272 1.535-.528a4.09 4.09 0 0 0 1.024-.72 3.72 3.72 0 0 0 .735-.991c.208-.4.352-.832.448-1.28.064-.287.112-.575.144-.863.032-.288.048-.56.064-.848v-14.01l-.016-.032zM55.274 8.77c-.224 0-.448 0-.672.016-1.52.064-3.055.384-4.478.975a12.672 12.672 0 0 0-3.63 2.176 13.838 13.838 0 0 0-2.8 3.15 13.113 13.113 0 0 0-1.727 3.903c-.144.56-.256 1.135-.336 1.727-.048.368-.08.736-.096 1.12-.016.224-.016.447-.016.687V36.28h.448c.896-.016 1.791-.064 2.655-.272.528-.112 1.056-.272 1.536-.528a4.09 4.09 0 0 0 1.023-.72 3.72 3.72 0 0 0 .736-.991c.208-.4.352-.832.448-1.28a7.76 7.76 0 0 0 .144-.88c.032-.287.048-.559.064-.847V22.51c0-.112 0-.224.016-.335a6.493 6.493 0 0 1 .48-2.192 6.442 6.442 0 0 1 1.055-1.775c.432-.528.96-.991 1.535-1.36A6.546 6.546 0 0 1 53.563 16c.271-.08.56-.128.847-.16.288-.032.576-.064.88-.048.864 0 1.727.16 2.51.48.64.256 1.248.608 1.776 1.055.528.432.992.96 1.36 1.536.304.464.543.975.72 1.503.191.576.32 1.184.335 1.792 0 .111 0 .223.016.335v8.253c.016.72.08 1.44.304 2.127.112.416.288.832.528 1.184.224.336.496.656.816.911.335.272.703.48 1.103.64.592.256 1.232.4 1.871.48.336.048.672.08 1.008.112l.976.048h.447V22.493c0-.224 0-.447-.016-.671a13.08 13.08 0 0 0-.975-4.479 12.672 12.672 0 0 0-2.175-3.63 13.4 13.4 0 0 0-3.151-2.783 13.113 13.113 0 0 0-3.903-1.727c-.56-.16-1.135-.256-1.727-.336-.368-.048-.736-.08-1.12-.096-.271.02-.495.003-.72 0zm-24.31 2.111v19.896c.016.72.08 1.44.303 2.127.112.416.288.832.528 1.184.224.336.496.656.816.911.336.272.704.48 1.104.64.591.256 1.231.4 1.87.48.337.048.672.08 1.008.112l.976.048h.448V16.752c-.016-.848-.048-1.712-.304-2.511a3.944 3.944 0 0 0-.528-1.184 4.019 4.019 0 0 0-.816-.911 4.23 4.23 0 0 0-1.103-.64c-.592-.256-1.232-.4-1.871-.48-.336-.048-.672-.08-1.008-.112l-.976-.048c-.16.016-.303.016-.447.016z"/><path d="M7.117 22.545v-.336a6.493 6.493 0 0 1 .48-2.191 6.442 6.442 0 0 1 1.056-1.776c.431-.527.96-.991 1.535-1.36a6.107 6.107 0 0 1 1.903-.83c.272-.08.56-.129.848-.16.288-.033.576-.065.88-.065.687 0 1.375.096 2.03.32.528.16 1.04.4 1.504.704.464.288.896.64 1.28 1.023.383.384.72.832.991 1.312.112.192.208.384.304.592.096.208.192.4.24.623.048.144.064.288.096.432.016.128.048.256.064.368l.048.384c.016.128.016.272.032.4v.32c0 .112 0 .224-.016.336a9.093 9.093 0 0 1-.064.655 6.421 6.421 0 0 1-.416 1.536 6.442 6.442 0 0 1-1.056 1.775c-.431.528-.96.992-1.535 1.36a5.949 5.949 0 0 1-1.903.831c-.272.08-.56.128-.832.16-.176.016-.368.048-.544.048-.112 0-.224 0-.335.016h-.24c-.16 0-.32-.016-.48-.032a7.167 7.167 0 0 1-1.168-.224 6.579 6.579 0 0 1-1.423-.608 7.575 7.575 0 0 1-1.232-.895 5.644 5.644 0 0 1-.991-1.152c-.112-.176-.224-.336-.32-.528a8.615 8.615 0 0 1-.272-.543 3.3 3.3 0 0 1-.192-.56 5.322 5.322 0 0 1-.128-.48c-.032-.16-.064-.336-.096-.496a2.772 2.772 0 0 1-.048-.512c0-.064 0-.144-.016-.208v-.127c.016-.064.016-.08.016-.112zM34.467.102c-.16 0-.305 0-.465.016-1.055.064-2.079.352-3.054.768-1.152.464-2.223 1.104-3.231 1.823a23.195 23.195 0 0 0-2.975 2.495 20.466 20.466 0 0 0-2.43 2.831 17.67 17.67 0 0 0-.769 1.136c-.192.32-.383.64-.543.975-.064.128-.128.272-.192.416-.064-.032-.128-.08-.192-.112a4.519 4.519 0 0 0-.384-.208c-.32-.176-.64-.336-.976-.48a14.213 14.213 0 0 0-1.375-.511 13.532 13.532 0 0 0-1.44-.368 11.879 11.879 0 0 0-1.487-.208l-.608-.048c-.128 0-.256-.016-.384-.016h-.24c-.223 0-.447 0-.671.016-.448.016-.896.064-1.328.128-1.071.16-2.127.432-3.134.848a12.744 12.744 0 0 0-3.631 2.175 13.091 13.091 0 0 0-2.783 3.15 12.589 12.589 0 0 0-1.727 3.87c-.16.56-.256 1.136-.336 1.712a13.302 13.302 0 0 0-.064 2.879c.016.304.048.592.096.88.048.288.096.575.16.863.064.288.128.56.208.848l.096.336c.032.112.064.224.112.336.128.384.256.783.416 1.151.127.32.271.624.431.928.16.304.32.592.496.88.176.287.352.575.56.847.08.112.16.224.24.32.048.064.096.128.16.208.032.032.064.08.096.112-.064.048-.112.096-.16.144-.112.096-.224.208-.32.304a9.11 9.11 0 0 0-.736.831 9.294 9.294 0 0 0-.815 1.248c-.24.448-.432.912-.592 1.375a8.24 8.24 0 0 0-.416 2.111c-.016.208-.016.416-.016.64 0 .208 0 .416.016.64l.048.512c.016.176.048.336.08.512.032.16.064.335.112.495l.048.192a.902.902 0 0 0 .064.192c.208.704.48 1.408.847 2.063.288.544.656 1.04 1.056 1.488.4.464.848.88 1.344 1.231a8.808 8.808 0 0 0 1.583.944c.224.112.448.192.688.288.144.048.288.096.447.144.096.032.176.048.272.08l.032.016.096.032.048.016.032.016.032.016.096.016h.096l.064.016h.256l.112.016h.064l.112.016h.032l.08.016h.032l.112.016h.064l.176.016h.032l.176.016h12.715c.575.016 1.135.08 1.695.24.4.112.784.255 1.135.48.288.175.544.383.768.623.224.24.4.512.544.816.144.304.256.64.304.975.016.096.032.176.032.272.016.064.016.144.016.208s.016.144.016.208c.16-.128.336-.24.496-.368.303-.24.575-.511.847-.783a6.925 6.925 0 0 0 1.104-1.536 5.715 5.715 0 0 0 .656-2.03 5.092 5.092 0 0 0-.096-1.968 5.29 5.29 0 0 0-.752-1.743 5.05 5.05 0 0 0-1.296-1.376 4.908 4.908 0 0 0-1.743-.848c-.192-.048-.368-.096-.56-.128-.144-.016-.288-.048-.448-.048-.143-.015-.303-.015-.447-.015H8.796a1.868 1.868 0 0 1-.575-.128 1.684 1.684 0 0 1-.816-.672 1.97 1.97 0 0 1-.224-.496c-.016-.08-.032-.144-.048-.224 0-.048-.016-.096-.016-.144v-.16c0-.064 0-.112.016-.16.016-.128.048-.272.112-.4.064-.16.16-.32.272-.463.112-.144.24-.256.4-.352a1.87 1.87 0 0 1 .48-.224c.064-.016.144-.032.208-.048.048 0 .096-.016.144-.016h5.085c.224 0 .448 0 .672-.016.448-.016.896-.064 1.328-.128a13.719 13.719 0 0 0 3.15-.848 12.672 12.672 0 0 0 3.631-2.175 13.4 13.4 0 0 0 2.783-3.15 13.113 13.113 0 0 0 1.727-3.903c.16-.56.256-1.136.336-1.727.08-.592.112-1.2.112-1.792 0-.415-.016-.815-.064-1.231-.032-.336-.08-.672-.144-1.008a11.046 11.046 0 0 0-.224-.991c-.08-.32-.176-.656-.288-.976-.048-.128-.08-.256-.128-.384l-.144-.384a19.954 19.954 0 0 0-.575-1.343c-.176-.368-.368-.72-.592-1.072a11.028 11.028 0 0 0-.672-1.007c-.24-.32-.496-.64-.752-.944-.112-.128-.208-.24-.32-.352-.063-.08-.143-.144-.207-.224l-.128-.128c.064-.08.128-.144.192-.223.128-.16.271-.304.4-.448.367-.4.751-.784 1.135-1.152a19.095 19.095 0 0 1 1.743-1.455 14.303 14.303 0 0 1 1.872-1.2 8.53 8.53 0 0 1 1.903-.783c.24-.064.496-.128.751-.16.144-.016.304-.048.464-.048.096 0 .176 0 .272-.016 0 0 .016 0 .016.016.016 0 .016.016.032.016.016.016.048.032.064.048.032.016.064.048.096.064s.064.048.096.064.064.048.096.063c.016 0 .032.016.032.016.016 0 .032.016.048.016s.016.016.032.016c0 0 .016 0 .016.016 0 0 .016 0 .016.016.016 0 .032.016.032.016.032.016.064.032.112.048l.096.048.096.048a.227.227 0 0 0 .096.032c.016 0 .032.016.032.016.016 0 .032.016.032.016.016.016.048.016.064.016s.032.016.064.016.032.016.064.016c.016 0 .032.016.064.016h.032c.032.016.064.016.08.032.016 0 .048.016.064.016s.048.016.064.016.048.016.064.016h.064c.063.016.111.016.16.032.047 0 .095.016.143.016.048 0 .096.016.144.016.048 0 .096 0 .144.016h.304c.128 0 .256-.016.384-.032.304-.048.608-.128.896-.24.367-.144.72-.351 1.023-.607.304-.256.576-.56.784-.896.224-.336.384-.72.48-1.104.048-.16.08-.32.096-.495.016-.16.032-.336.032-.512 0-.496-.096-.992-.288-1.456A3.804 3.804 0 0 0 36.53.63a3.562 3.562 0 0 0-1.104-.48 2.55 2.55 0 0 0-.48-.096c-.112-.016-.208-.016-.32-.032-.032.084-.096.084-.16.08z"/></g></svg>